<svg width="60" height="60" viewBox="0 0 60 60" fill="none" xmlns="http://www.w3.org/2000/svg">
    <path fill-rule="evenodd" clip-rule="evenodd"
          d="M30 0C13.4389 0 0 13.4389 0 30C0 46.5611 13.4389 60 30 60C46.5611 60 60 46.5611 60 30C60 13.4389 46.5611 0 30 0ZM30 1.25C45.8856 1.25 58.75 14.1145 58.75 30C58.75 45.8856 45.8856 58.75 30 58.75C14.1144 58.75 1.25 45.8856 1.25 30C1.25 14.1145 14.1144 1.25 30 1.25Z"
          fill="white"/>
    <path d="M48.7267 16.0763C48.5081 15.9451 48.2459 15.9887 48.0712 16.1638L31.5052 32.7735L29.4508 34.8278L24.0746 29.4516L24.4679 29.0583C26.2162 27.3101 26.2162 24.4251 24.4679 22.6765L17.9115 16.12L17.1249 16.9067L23.6813 23.4631C24.9927 24.8181 24.9927 26.96 23.6813 28.3149L22.1513 29.8449C21.4958 30.5004 20.6653 30.8502 19.7472 30.8502C18.8291 30.8502 17.955 30.5004 17.3431 29.8449L10.7866 23.2884L10 24.0751L16.5565 30.6315C17.387 31.5057 18.5233 31.9429 19.7472 31.9429C20.9711 31.9429 22.1074 31.4621 22.9379 30.6315L23.3313 30.2382L28.7075 35.6144L21.015 43.22L21.8016 44.0066L31.8548 33.9534L35.0894 37.188C35.1769 37.2755 35.3516 37.3627 35.4827 37.3627C35.6139 37.3627 35.745 37.3191 35.8761 37.188L39.7662 33.2978C47.0658 25.9983 48.9016 17.0815 48.989 16.6881C49.0329 16.4262 48.9454 16.2076 48.7268 16.0765L48.7267 16.0763ZM39.0232 32.5111L35.5263 36.008L32.6414 33.1231L47.3716 18.3929C46.4535 21.4092 44.0933 27.4408 39.023 32.5111H39.0232Z"
          fill="white" stroke="white" stroke-width="0.4" stroke-linejoin="round"/>
    <path d="M31.6214 38.5813L32.394 37.8087L37.8029 43.2176L37.0303 43.9902L31.6214 38.5813Z" fill="white"
          stroke="white" stroke-width="0.4" stroke-linejoin="round"/>
    <path d="M13.5325 20.4925L14.3051 19.7199L21.043 26.4578L20.2704 27.2304L13.5325 20.4925Z" fill="white"
          stroke="white" stroke-width="0.4" stroke-linejoin="round"/>
</svg>
