<svg width="65" height="65" viewBox="0 0 65 65" fill="none" xmlns="http://www.w3.org/2000/svg">
    <path fill-rule="evenodd" clip-rule="evenodd"
          d="M11.5104 0H53.4896C59.8542 0 65 5.14583 65 11.5104V51.8646C65 58.2292 59.8542 63.375 53.4896 63.375H11.5104C5.14583 63.375 0 58.2292 0 51.8646V11.5104C0 5.14583 5.14583 0 11.5104 0ZM26.1075 37.9167H16.0325L13.9742 44.3083C13.92 44.5521 13.7033 44.7146 13.4596 44.6875H8.36792C8.07 44.6875 7.98875 44.525 8.07 44.2L16.7908 19.2021C16.8721 18.9312 16.9533 18.6875 17.0617 18.3625C17.17 17.7937 17.2242 17.1979 17.2242 16.6021C17.1971 16.4667 17.3054 16.3312 17.4408 16.3042H17.5221H24.4554C24.645 16.3042 24.7804 16.3854 24.8075 16.5208L34.6929 44.1458C34.7742 44.4437 34.6929 44.5792 34.4221 44.5792H28.7617C28.5721 44.6062 28.3825 44.4708 28.3283 44.2812L26.1075 37.7812V37.9167ZM17.6033 32.5271H24.4825C24.32 31.9583 24.1033 31.2812 23.8596 30.5771C23.6158 29.8458 23.3721 29.0604 23.1283 28.2479C22.9929 27.8281 22.8643 27.4151 22.7356 27.0021C22.607 26.589 22.4783 26.176 22.3429 25.7562C22.0721 24.9167 21.8283 24.1312 21.6117 23.3458C21.5158 23.0103 21.4252 22.6853 21.3376 22.371L21.3376 22.3708C21.2272 21.9748 21.1215 21.5956 21.0158 21.2333H20.9617C20.7179 22.3979 20.42 23.5625 20.0408 24.7271C19.8861 25.2221 19.7314 25.725 19.5752 26.2328L19.5751 26.2331C19.3212 27.0586 19.0633 27.897 18.795 28.7354C18.4429 30.1167 18.0096 31.3896 17.6033 32.5271ZM42.0592 35.4791H50.6446C51.0075 35.4791 51.356 35.5079 51.6938 35.5358C52.0115 35.562 52.3198 35.5875 52.6217 35.5875C53.2446 35.5875 53.7592 35.5604 54.1925 35.5062C54.3446 35.4967 54.4801 35.4872 54.5988 35.4789C54.8183 35.4635 54.9808 35.4521 55.0863 35.4521C55.2758 35.4521 55.4384 35.2896 55.4654 35.1C55.4775 34.9914 55.4896 34.856 55.504 34.6937C55.522 34.4916 55.5437 34.2479 55.5738 33.9625C55.6008 33.4479 55.6279 32.8791 55.6279 32.2291C55.6279 31.1187 55.4654 30.0083 55.1133 28.925C54.7613 27.7875 54.1925 26.7583 53.4883 25.8375C52.73 24.8896 51.755 24.1583 50.6446 23.6708C49.3175 23.075 47.8821 22.8042 46.4467 22.8312C44.7133 22.8312 43.1967 23.0479 41.9238 23.6708C40.6508 24.2937 39.5404 25.1604 38.6467 26.2437C37.7258 27.3542 37.0488 28.6 36.6154 29.9541C36.155 31.3625 35.9383 32.7979 35.9383 34.2604C35.9383 35.6146 36.1279 36.9416 36.5071 38.2146C36.8863 39.5146 37.5092 40.7062 38.3758 41.7625C39.2967 42.8729 40.4613 43.7666 41.7883 44.3354C43.1967 44.9583 44.93 45.2833 46.9883 45.2833C48.2883 45.3104 49.5613 45.2021 50.8342 44.9583C51.7821 44.7958 52.6758 44.525 53.5425 44.1458C53.6238 44.0916 53.6779 44.0375 53.7321 43.9562C53.7592 43.8479 53.7863 43.7396 53.7863 43.6312V39.4875C53.7863 39.2166 53.705 39.1625 53.5696 39.2708C52.8113 39.5687 51.9988 39.7854 51.1592 39.8937C50.2383 40.0833 49.2904 40.1646 48.3425 40.1916C47.1508 40.2187 45.9592 39.975 44.8758 39.5146C44.0633 39.1896 43.3863 38.6208 42.8988 37.8896C42.4383 37.1583 42.1675 36.3187 42.0592 35.4791ZM47.7738 31.525H42.0592C42.1404 30.8479 42.33 30.1979 42.655 29.575C43.3592 28.2208 44.7675 27.4354 46.2571 27.5166C47.855 27.4625 49.2904 28.4916 49.7779 30.0083C49.8863 30.3333 49.9404 30.6583 49.9404 31.0104V31.2812C49.7508 31.4166 49.5342 31.4708 49.3175 31.4979C48.9925 31.525 48.4779 31.525 47.7738 31.525Z"
          fill="white"/>
</svg>
