<svg width="100" height="100" viewBox="0 0 100 100" fill="none" xmlns="http://www.w3.org/2000/svg">
<path d="M15.4037 50.3701C17.1412 50.3701 18.5499 51.7674 18.5499 53.491V66.8786C18.5499 68.6022 17.1412 69.9993 15.4037 69.9993C13.6664 69.9993 12.2578 68.6022 12.2578 66.8786V53.491C12.2578 51.7676 13.6664 50.3704 15.4037 50.3704V50.3701Z" fill="white"/>
<path d="M8.22059 34.2734C8.21017 34.3918 8.20117 34.5114 8.20117 34.6324V54.9159C8.20117 57.0973 9.94181 58.8546 12.1026 58.8546H32.8965C35.0576 58.8546 36.7982 57.0971 36.7982 54.9159V34.6324C36.7982 34.5114 36.7938 34.3914 36.7836 34.2734H8.22059Z" fill="white"/>
<path fill-rule="evenodd" clip-rule="evenodd" d="M9.24188 20.0441C9.40038 19.9533 9.60304 20.0072 9.69454 20.1644L13.0132 25.8666C13.1047 26.0238 13.0504 26.2249 12.8919 26.3156C12.7334 26.4064 12.5307 26.3526 12.4392 26.1953L9.12063 20.4932C9.02913 20.3359 9.08338 20.1348 9.24188 20.0441ZM35.7596 20.0441C35.9181 20.1348 35.9724 20.3359 35.8809 20.4932L32.562 26.1953C32.4705 26.3526 32.2678 26.4064 32.1093 26.3156C31.9508 26.2249 31.8966 26.0238 31.9881 25.8666L35.307 20.1644C35.3985 20.0072 35.6011 19.9533 35.7596 20.0441Z" fill="white"/>
<path fill-rule="evenodd" clip-rule="evenodd" d="M32.7426 53.4914C32.7426 51.7678 31.334 50.3705 29.5964 50.3705V50.3708C27.8591 50.3708 26.4506 51.768 26.4506 53.4914V66.8791C26.4506 68.6026 27.8591 69.9997 29.5964 69.9997C31.334 69.9997 32.7426 68.6026 32.7426 66.8791V53.4914ZM6.29206 39.2009C6.29206 37.4773 4.88342 36.08 3.14612 36.08C1.40839 36.08 -0.000249963 37.4775 3.32705e-08 39.2011V52.5887C3.32705e-08 54.3121 1.40856 55.7093 3.14612 55.7093C4.88342 55.7093 6.29206 54.3121 6.29206 52.5885V39.2009ZM44.9993 39.2009C44.9993 37.4773 43.5907 36.08 41.8533 36.08C40.1158 36.08 38.7072 37.4775 38.7072 39.2011V52.5887C38.7072 54.3121 40.1158 55.7093 41.8533 55.7093C43.5907 55.7093 44.9993 54.3121 44.9993 52.5885V39.2009ZM20.9185 20.9307C13.8818 21.6039 8.39986 26.7122 8.31236 32.9425H36.6865C36.599 26.7126 31.1175 21.6041 24.0804 20.9307H20.9185ZM16.6501 28.9403C17.5493 28.9379 18.2759 28.2298 18.2732 27.359V27.3501C18.2705 26.4788 17.5398 25.7752 16.6411 25.7776C15.7422 25.78 15.0155 26.4878 15.0179 27.359V27.3677C15.0206 28.2386 15.7514 28.9425 16.6501 28.9403ZM28.7999 28.9403C29.699 28.9379 30.4256 28.2298 30.4229 27.359V27.3501C30.4203 26.4788 29.6895 25.7752 28.7908 25.7776C27.8919 25.78 27.1652 26.4878 27.1677 27.359V27.3677C27.1703 28.2386 27.9011 28.9425 28.7999 28.9403Z" fill="white"/>
</svg>
