<svg width="100" height="100" viewBox="0 0 100 100" fill="none" xmlns="http://www.w3.org/2000/svg">
<path fill-rule="evenodd" clip-rule="evenodd" d="M0 27.6152C0 26.1709 1.18507 25 2.64698 25H21.0699C22.5319 25 23.717 26.1709 23.717 27.6152V27.8243H0V27.6152ZM0 29.498V65.1684H0.211755H15.5202C15.4715 64.749 15.4513 64.3246 15.4606 63.8978C15.5129 61.4774 16.5096 59.1703 18.2423 57.4585C19.7272 55.9914 21.6543 55.0586 23.717 54.789V29.498H0ZM15.873 66.8421C16.2841 68.1715 16.9925 69.4065 17.961 70.449C18.46 70.986 19.0163 71.4594 19.6171 71.8632H2.64698C1.18507 71.8632 0 70.6924 0 69.248V66.8421H0.211755H15.873ZM12.7055 68.8295C12.7055 69.2918 12.3263 69.6663 11.8584 69.6663C11.3906 69.6663 11.0114 69.2918 11.0114 68.8295C11.0114 68.3673 11.3906 67.9927 11.8584 67.9927C12.3263 67.9927 12.7055 68.3673 12.7055 68.8295ZM4.03235 31.8904C4.22178 31.5099 4.52599 31.2491 4.92019 31.1233C5.08788 31.0712 5.40447 31.0681 11.8368 31.0681C18.4521 31.065 18.5825 31.065 18.7749 31.1264C19.1692 31.246 19.4766 31.5099 19.6659 31.8904L19.7808 32.1205L19.7901 35.6796L19.7963 39.2419L18.1914 37.6556L18.144 37.6089C16.7075 36.1942 16.5074 35.9971 16.3259 36.0126C16.2965 36.0151 16.2676 36.0231 16.2341 36.0325V36.0326L16.2232 36.0356C16.1425 36.0601 15.6862 36.4927 14.2333 37.9286L12.3458 39.7942L11.4704 38.932C10.9861 38.4564 10.5608 38.0514 10.5236 38.033C10.4304 37.987 10.2473 37.99 10.148 38.0422C10.1014 38.0667 8.82244 39.3186 7.30127 40.8189C5.78327 42.3224 4.52289 43.5528 4.50115 43.5528C4.42043 43.5528 4.15036 43.2398 4.03552 43.0097C3.9579 42.8542 3.91751 42.6833 3.91751 42.51V37.4469V32.1205L4.03235 31.8904ZM9.71647 34.4248C9.52401 33.8295 9.02418 33.3325 8.43435 33.1483C8.17047 33.0655 7.70793 33.044 7.44405 33.1054C6.56866 33.3018 5.91986 34.0995 5.91986 34.9771C5.92295 35.8085 6.4631 36.5479 7.26088 36.8057C7.58999 36.9131 8.13324 36.9131 8.46229 36.8057C9.04593 36.6155 9.51156 36.1399 9.72576 35.514C9.81267 35.2593 9.80647 34.7101 9.71647 34.4248ZM7.54334 33.9921C7.24532 34.0871 6.9908 34.3296 6.87905 34.6211C6.78898 34.8603 6.80453 35.2163 6.91938 35.4372C7.02183 35.6305 7.19571 35.8023 7.39437 35.9066C7.53095 35.9803 7.58373 35.9895 7.86 35.9895C8.13627 35.9895 8.18904 35.9803 8.3257 35.9066C8.543 35.7931 8.75094 35.563 8.83792 35.3421C9.02728 34.845 8.77578 34.2498 8.2884 34.035C8.10833 33.9553 7.72341 33.9338 7.54334 33.9921ZM12.4762 40.8252C12.5476 40.8006 13.1157 40.2606 14.4413 38.9504C15.4657 37.9379 16.3163 37.1095 16.335 37.1095C16.3535 37.1095 17.139 37.8735 18.0827 38.8062L19.7994 40.5029L19.7901 41.6382L19.7829 42.5169C19.7815 42.6857 19.7415 42.8521 19.6659 43.0036C19.4766 43.384 19.1692 43.6479 18.7749 43.7675C18.5825 43.829 18.4521 43.829 12.0541 43.829H5.53177L7.94388 41.4449L10.3591 39.0578L11.25 39.9384C12.2155 40.8865 12.2372 40.9018 12.4762 40.8252ZM2.43522 54.708H21.2818V45.3979H2.43522V54.708ZM9.9738 47.26H19.3971V49.122H9.9738V47.26ZM4.31985 47.26H8.08918V49.122H4.31985V47.26ZM4.31985 50.9839H19.3971V52.8459H4.31985V50.9839Z" fill="white"/>
<path d="M35.7757 73.712L31.8633 69.8469C33.347 68.1061 34.0927 65.8663 33.9452 63.5952C33.7974 61.3242 32.7676 59.1971 31.0705 57.6582C29.3735 56.1192 27.1405 55.2874 24.8376 55.336C22.5346 55.3846 20.3395 56.3102 18.7107 57.9194C17.0819 59.5287 16.1451 61.6972 16.0958 63.9724C16.0465 66.2478 16.8886 68.4539 18.4463 70.1306C20.0039 71.807 22.1568 72.8247 24.4556 72.9705C26.7543 73.1165 29.0214 72.3797 30.7835 70.9138L34.6956 74.7789C34.839 74.9203 35.0331 74.9997 35.2356 74.9997C35.4382 74.9997 35.6324 74.9203 35.7757 74.7789C35.9186 74.6375 35.999 74.4455 35.999 74.2455C35.999 74.0455 35.9186 73.8537 35.7757 73.712Z" fill="white"/>
</svg>
