<svg width="323" height="193" viewBox="0 0 323 193" fill="none" xmlns="http://www.w3.org/2000/svg">
<path fill-rule="evenodd" clip-rule="evenodd" d="M320.65 102.736C326.061 133.163 317.495 165.065 295.355 188.095L293.933 186.727C315.607 164.181 324.015 132.927 318.707 103.082L320.65 102.736Z" fill="#494949"/>
<path d="M289.224 192.619L299.805 188.292L294.993 186.971L293.748 182.128L289.224 192.619Z" fill="#494949"/>
<path fill-rule="evenodd" clip-rule="evenodd" d="M37.9703 192.968C14.6407 172.704 1.26017 142.509 4.00654 110.673L5.97287 110.842C3.28415 142.011 16.3808 171.601 39.2646 191.478L37.9703 192.968Z" fill="#494949"/>
<path d="M5.92995 103.303L0.418945 113.308L5.00388 111.319L8.9967 114.31L5.92995 103.303Z" fill="#494949"/>
<path fill-rule="evenodd" clip-rule="evenodd" d="M183.663 5.67017H129.95V3.69653H183.663V5.67017Z" fill="#494949"/>
<path d="M191.163 4.6837L180.597 9.01052L183.102 4.6837L180.597 0.37207L191.163 4.6837Z" fill="#494949"/>
</svg>
