<svg width="200" height="100" viewBox="0 0 200 100" fill="none" xmlns="http://www.w3.org/2000/svg">
    <g clip-path="url(#clip0_706_481)">
        <path d="M76.4 56.9001H68L81.4 38.5001C81.4 38.5001 85.3 32.8001 89.5 38.5001C93.2 43.6001 102 56.1001 102 56.1001L111.2 46.7001L101.4 36.4001H109.6L116.7 43.7001L123.9 36.4001H132.1L122.3 46.7001L132.1 56.9001H123.8L116.8 49.5001L109.9 56.9001H78.4L82.2 51.4001H90.8L85.5 44.2001L76.4 56.9001Z"
              fill="white"/>
        <path d="M78.5 64.3005C78.5 64.3005 75.9 60.7005 74.9 59.3005C73.8 57.8005 72.7 59.3005 72.7 59.3005L69 64.3005H71.3L73.8 60.8005L75.2 62.8005H72.9L71.8 64.3005H78.5Z"
              fill="white"/>
        <path d="M111.699 64.3005C111.699 64.3005 109.099 60.7005 108.099 59.3005C106.999 57.8005 105.899 59.3005 105.899 59.3005L102.199 64.3005H104.499L106.999 60.8005L108.399 62.8005H106.099L104.999 64.3005H111.699Z"
              fill="white"/>
        <path d="M76.6992 60.3002L77.8992 58.7002H83.4992L82.4992 60.3002H80.6992V64.3002H79.1992V60.3002H76.6992Z"
              fill="white"/>
        <path d="M83.8008 58.7002V64.4002H85.5008V62.1002H88.7008V64.4002H90.3008V58.7002H88.7008V60.9002H85.5008V58.7002C85.4008 58.7002 83.8008 58.7002 83.8008 58.7002Z"
              fill="white"/>
        <path d="M96.5008 62.9002L95.3008 64.3002H90.8008V58.7002H92.5008V62.9002H96.5008Z" fill="white"/>
        <path d="M102.7 62.9002L101.5 64.3002H97V58.7002H102.7V59.2002L101.7 60.2002H98.5V60.9002H102.4L101.4 62.1002H98.5V62.9002H102.7Z"
              fill="white"/>
        <path d="M112 64.3005V59.2005C112 59.2005 112.3 57.9005 113.4 59.0005C114.5 60.0005 116.7 61.9005 116.7 61.9005V58.7005H118.2V64.0005C118.2 64.0005 117.8 64.9005 116.7 63.9005C115.6 62.9005 113.6 61.2005 113.6 61.2005V64.3005H112Z"
              fill="white"/>
        <path d="M119 60.7002H122.1L123 62.0002H120.1L119 60.7002Z" fill="white"/>
        <path d="M122.699 58.6006H125.199L127.099 60.9006L128.899 58.7006H131.199L128.299 61.6006L130.999 64.3006H128.599L126.799 62.3006L125.199 64.3006H122.899L125.499 61.6006L122.699 58.6006Z"
              fill="white"/>
    </g>
    <defs>
        <clipPath id="clip0_706_481">
            <rect width="64.1" height="28.3" fill="white" transform="translate(68 36)"/>
        </clipPath>
    </defs>
</svg>
