<svg width="150" height="150" viewBox="0 0 150 150" fill="none" xmlns="http://www.w3.org/2000/svg">
<g clip-path="url(#clip0)">
<path d="M67.9688 29.2969C75.7353 29.2969 82.0312 23.0009 82.0312 15.2344C82.0312 7.46787 75.7353 1.17188 67.9688 1.17188C60.2022 1.17188 53.9062 7.46787 53.9062 15.2344C53.9062 23.0009 60.2022 29.2969 67.9688 29.2969Z" stroke="white" stroke-width="3" stroke-miterlimit="10" stroke-linecap="round" stroke-linejoin="round"/>
<path d="M77.8125 7.03125L78.75 6.09375C76.1719 3.04687 72.1875 0.9375 67.9688 0.9375C60.2344 0.9375 53.9062 7.26563 53.9062 15H55.3125C63.5156 15.2344 71.4844 12.4219 77.8125 7.03125Z" stroke="white" stroke-width="3" stroke-miterlimit="10" stroke-linecap="round" stroke-linejoin="round"/>
<path d="M67.9688 29.2964C65.3906 29.2964 63.0469 28.5933 60.9375 27.4214V31.6401L67.9688 39.8433L75 31.6401V27.4214C72.8906 28.5933 70.5469 29.2964 67.9688 29.2964Z" stroke="white" stroke-width="3" stroke-miterlimit="10" stroke-linecap="round" stroke-linejoin="round"/>
<path d="M96.0937 56.0161C93.9844 56.0161 91.875 54.8442 90.9375 52.7349L83.9062 38.6724C82.7344 36.3286 80.8594 34.4536 78.75 33.5161L75 31.6411L67.9687 39.8442L60.9375 31.6411L53.9063 35.1567H48.75C46.6406 35.1567 44.5313 33.9849 43.5938 31.8755L34.6875 14.2974L26.25 18.5161L36.0937 37.9692C37.9687 41.9536 42.1875 44.5317 46.6406 44.5317H53.9063V71.4849H82.0312V56.0161L83.4375 58.8286C85.3125 62.813 89.5312 65.3911 93.9844 65.3911H108.281V56.0161H96.0937Z" stroke="white" stroke-width="3" stroke-miterlimit="10" stroke-linecap="round" stroke-linejoin="round"/>
<path d="M79.6875 127.734H74.7656C73.5937 127.734 72.6562 126.797 72.4219 125.625L67.9688 83.2031L63.5156 125.625C63.2813 126.797 62.3438 127.734 61.1719 127.734H56.25C54.8437 127.734 53.9062 126.797 53.9062 125.391V71.4844H82.0312V125.391C82.0312 126.797 81.0938 127.734 79.6875 127.734Z" stroke="white" stroke-width="3" stroke-miterlimit="10" stroke-linecap="round" stroke-linejoin="round"/>
<path d="M71.4844 57.4219L67.9688 62.1094L64.4531 57.4219L65.625 36.3281H70.3125L71.4844 57.4219Z" stroke="white" stroke-width="3" stroke-miterlimit="10" stroke-linecap="round" stroke-linejoin="round"/>
<path d="M112.969 56.0156C115.547 56.0156 117.656 58.125 117.656 60.7031C117.656 63.2813 115.547 65.3906 112.969 65.3906" stroke="white" stroke-width="3" stroke-miterlimit="10" stroke-linecap="round" stroke-linejoin="round"/>
<path d="M24.1406 14.297C22.9687 11.9532 23.9062 9.14074 26.25 7.96886C28.5937 6.79699 31.4062 7.73449 32.5781 10.0782" stroke="white" stroke-width="3" stroke-miterlimit="10" stroke-linecap="round" stroke-linejoin="round"/>
<path d="M112.969 51.3281V25.5469" stroke="white" stroke-width="3" stroke-miterlimit="10" stroke-linecap="round" stroke-linejoin="round"/>
<path d="M112.969 39.6094V27.8906L127.031 33.75L112.969 39.6094Z" stroke="white" stroke-width="3" stroke-miterlimit="10" stroke-linecap="round" stroke-linejoin="round"/>
<path d="M82.0312 110.859V125.391C82.0312 126.797 81.0938 127.734 79.6875 127.734H74.7656C73.5937 127.734 72.6562 126.797 72.4219 125.625L68.6719 90.2344C68.2031 90 67.7344 90 67.2656 90.2344L63.5156 125.625C63.2813 126.797 62.3438 127.734 61.1719 127.734H56.25C54.8437 127.734 53.9062 126.797 53.9062 125.391V110.625L30.4688 148.828H105.469L82.0312 110.859Z" stroke="white" stroke-width="3" stroke-miterlimit="10" stroke-linecap="round" stroke-linejoin="round"/>
<path d="M36.5625 129.844L27.6563 116.484C26.7188 115.078 24.6094 115.078 23.6719 116.484L2.34375 148.828H25.7812" stroke="white" stroke-width="3" stroke-miterlimit="10" stroke-linecap="round" stroke-linejoin="round"/>
<path d="M110.156 148.828H133.594L112.031 116.484C111.094 115.078 108.984 115.078 108.047 116.484L99.1406 129.844" stroke="white" stroke-width="3" stroke-miterlimit="10" stroke-linecap="round" stroke-linejoin="round"/>
<path d="M105.469 148.828L95.8594 133.359L87.1875 141.797L77.5781 132.422L67.9688 141.797L58.3594 132.422L48.75 141.797L40.0781 133.359L30.4688 148.828H105.469Z" stroke="white" stroke-width="3" stroke-miterlimit="10" stroke-linecap="round" stroke-linejoin="round"/>
</g>
<defs>
<clipPath id="clip0">
<rect width="150" height="150" fill="white"/>
</clipPath>
</defs>
</svg>
