<svg width="100" height="100" viewBox="0 0 100 100" fill="none" xmlns="http://www.w3.org/2000/svg">
<path d="M20.8526 44.343C20.8335 45.0949 20.9247 45.8455 21.1231 46.5701C21.342 47.1883 21.6053 47.7894 21.911 48.3683C22.0204 48.5398 22.0802 48.7393 22.0834 48.9437C22.0684 49.0973 22.0183 49.2452 21.9371 49.3756C21.8559 49.5059 21.7458 49.6151 21.6156 49.6945L20.0647 50.7474C19.8776 50.8846 19.6551 50.963 19.4246 50.973C19.1442 50.9533 18.8811 50.8283 18.6863 50.6224C18.3553 50.26 18.0592 49.8662 17.8021 49.4463C17.5563 49.0211 17.3096 48.5472 17.039 47.97C16.1713 49.0682 15.0682 49.9502 13.8141 50.5488C12.56 51.1473 11.1879 51.4465 9.80269 51.4235C8.90579 51.4722 8.00836 51.3382 7.16308 51.0294C6.3178 50.7206 5.5417 50.2432 4.88033 49.6253C3.63936 48.2467 2.98652 46.424 3.06492 44.5568C3.14332 42.6895 3.94655 40.9301 5.29855 39.6641C7.00658 38.2891 9.14893 37.5945 11.3244 37.7103C12.1976 37.7176 13.0693 37.7846 13.9337 37.9108C14.8444 38.0358 15.7799 38.2363 16.7631 38.461V36.6314C16.7631 34.7288 16.3697 33.4027 15.6066 32.6267C14.8188 31.8508 13.4898 31.4759 11.595 31.4759C10.6994 31.4759 9.80704 31.5852 8.93705 31.8014C8.03237 32.0204 7.14416 32.3047 6.27914 32.6519C5.99931 32.7793 5.71163 32.888 5.41792 32.9774C5.2906 33.0199 5.15828 33.045 5.02445 33.052C4.67961 33.052 4.50719 32.8021 4.50719 32.2761V31.0569C4.48083 30.7542 4.54069 30.4502 4.67961 30.1812C4.86512 29.953 5.10116 29.7727 5.3684 29.6552C6.35547 29.1584 7.39613 28.7803 8.4693 28.5286C9.72333 28.2014 11.0139 28.0415 12.3085 28.053C15.2379 28.053 17.3785 28.7291 18.757 30.0805C20.1107 31.4291 20.7995 33.4845 20.7995 36.2376V44.3466H20.849L20.8526 44.343ZM10.8611 48.1471C11.7244 48.1378 12.5806 47.986 13.3961 47.6976C14.2994 47.3799 15.1053 46.8275 15.7339 46.0954C16.1305 45.634 16.4168 45.0857 16.5704 44.4932C16.7394 43.7802 16.822 43.0489 16.8162 42.3155V41.2645C16.0698 41.0798 15.3138 40.9378 14.5517 40.8392C13.7843 40.7401 13.0114 40.69 12.2378 40.689C10.9385 40.5843 9.64334 40.9377 8.57011 41.6897C7.95581 42.1456 7.5034 42.7916 7.2807 43.531C7.05801 44.2704 7.07703 45.0633 7.33493 45.7908C7.59282 46.5182 8.07568 47.1411 8.71111 47.5659C9.34653 47.9908 10.1003 48.1947 10.8593 48.1471H10.8611ZM30.6257 50.8498C30.2944 50.8846 29.9619 50.7958 29.6902 50.5999C29.4324 50.3292 29.2534 49.9913 29.1729 49.6235L23.3876 30.2774C23.2753 29.9538 23.2008 29.6179 23.1656 29.2767C23.1532 29.1936 23.1596 29.1087 23.1844 29.0286C23.2092 28.9484 23.2518 28.8751 23.3088 28.8144C23.3659 28.7536 23.4359 28.7069 23.5135 28.6779C23.591 28.649 23.6741 28.6385 23.7563 28.6473H26.1684C26.508 28.6052 26.8507 28.6945 27.1286 28.8972C27.3771 29.1711 27.5474 29.5087 27.6211 29.8737L31.7557 46.4424L35.5958 29.8773C35.6462 29.5097 35.81 29.1678 36.0635 28.9008C36.3587 28.7172 36.7022 28.63 37.0476 28.6509H39.0168C39.3635 28.6138 39.712 28.7023 40.0009 28.9008C40.2584 29.165 40.4228 29.5083 40.4686 29.8773L44.3591 46.6456L48.6174 29.8773C48.6956 29.5139 48.8653 29.1774 49.1099 28.9008C49.3961 28.7166 49.7322 28.6291 50.0702 28.6509H52.3594C52.4435 28.6387 52.5292 28.6466 52.6097 28.6739C52.6902 28.7013 52.7634 28.7473 52.8235 28.8083C52.8835 28.8694 52.9288 28.9438 52.9556 29.0257C52.9825 29.1076 52.9903 29.1948 52.9783 29.2803C52.9725 29.4148 52.9559 29.5486 52.9288 29.6804C52.8904 29.8951 52.8327 30.1058 52.7564 30.3097L46.819 49.6486C46.7448 50.0188 46.5649 50.3585 46.3017 50.6251C46.0234 50.8061 45.6961 50.8936 45.3662 50.875H43.2503C42.9036 50.9121 42.5551 50.8236 42.2662 50.6251C42.0092 50.3508 41.8453 50.0002 41.7985 49.6244L37.9831 33.4845L34.1925 49.5992C34.1349 49.9717 33.9724 50.3192 33.7248 50.5999C33.4344 50.7949 33.0872 50.8831 32.7407 50.8498H30.6257ZM62.2536 51.526C60.9771 51.5277 59.7049 51.3768 58.463 51.0764C57.4801 50.8732 56.5284 50.5367 55.6336 50.0757C55.3168 49.924 55.0513 49.6803 54.8705 49.3753C54.7748 49.1545 54.7245 48.9162 54.7229 48.6749V47.3982C54.7229 46.8722 54.92 46.6222 55.2888 46.6222C55.4392 46.623 55.5885 46.6485 55.7309 46.6978C55.8785 46.7481 56.1005 46.8479 56.3498 46.9477C57.2192 47.3365 58.1268 47.63 59.0572 47.8235C60.0214 48.0224 61.0027 48.123 61.9866 48.1238C63.2371 48.1985 64.4828 47.912 65.58 47.2975C65.9807 47.0514 66.3103 46.7018 66.5351 46.2843C66.76 45.8667 66.8722 45.3961 66.8603 44.9202C66.869 44.5979 66.8147 44.2771 66.7005 43.9763C66.5864 43.6755 66.4147 43.4007 66.1954 43.1679C65.4756 42.5467 64.6253 42.1016 63.7099 41.8669L60.1324 40.7394C58.5862 40.336 57.2066 39.4418 56.1942 38.1868C55.4018 37.1482 54.9691 35.8725 54.9634 34.558C54.9437 33.5889 55.1729 32.6313 55.6283 31.7798C56.0667 30.9749 56.6697 30.2749 57.3967 29.7271C58.1639 29.1369 59.0317 28.6958 59.9565 28.4261C60.9641 28.131 62.0088 27.9877 63.0574 28.0008C63.6086 27.9966 64.1595 28.03 64.7064 28.1006C65.2723 28.1762 65.7895 28.276 66.3059 28.3758C66.7984 28.5007 67.2662 28.6257 67.7092 28.7759C68.0682 28.8885 68.4147 29.0392 68.7428 29.2254C69.033 29.3751 69.2855 29.5904 69.4811 29.8548C69.6414 30.0984 69.7193 30.3884 69.703 30.6811V31.8571C69.703 32.3831 69.5059 32.6582 69.1371 32.6582C68.8092 32.6203 68.4916 32.5183 68.2017 32.3579C66.7141 31.6892 65.1018 31.3561 63.4756 31.3815C62.3431 31.3137 61.2135 31.5556 60.204 32.0819C59.8286 32.3091 59.522 32.6372 59.3179 33.0301C59.1139 33.423 59.0203 33.8655 59.0475 34.309C59.0408 34.6412 59.1031 34.9712 59.2303 35.2773C59.3576 35.5835 59.5468 35.8589 59.7858 36.0856C60.5846 36.7304 61.5066 37.1992 62.4932 37.4621L65.9885 38.5887C67.472 38.9739 68.8036 39.8124 69.8038 40.9911C70.5555 41.9987 70.9539 43.2331 70.9356 44.4977C70.9482 45.503 70.729 46.4973 70.2954 47.4009C69.8587 48.2576 69.246 49.0089 68.4987 49.6037C67.6861 50.2468 66.7581 50.7229 65.7666 51.0054C64.6287 51.3595 63.4444 51.535 62.2545 51.526H62.2536Z" fill="white"/>
<path d="M66.9023 63.689C58.8048 69.7705 47.0395 72.9992 36.9278 72.9992C23.4153 73.0705 10.3634 68.0099 0.327971 58.8086C-0.435096 58.1082 0.253697 57.1569 1.16443 57.7072C10.8856 63.4086 21.773 66.7438 32.9737 67.4515C44.1743 68.1592 55.384 66.2202 65.7245 61.7864C67.0747 61.1616 68.2312 62.6882 66.9023 63.689ZM70.2746 59.785C69.241 58.4364 63.4327 59.1341 60.7986 59.4595C60.0108 59.5593 59.8879 58.8589 60.6015 58.333C65.2285 55.0296 72.8344 55.98 73.7204 57.0814C74.6046 58.208 73.4746 65.9412 69.142 69.6455C68.477 70.221 67.8378 69.9207 68.1331 69.1699C69.1172 66.6929 71.3083 61.1112 70.2746 59.785V59.785Z" fill="white"/>
</svg>
