<svg width="150" height="150" viewBox="0 0 150 150" fill="none" xmlns="http://www.w3.org/2000/svg">
<path d="M75 26.3333C81.6655 26.3333 87.069 20.8861 87.069 14.1667C87.069 7.4472 81.6655 2 75 2C68.3345 2 62.931 7.4472 62.931 14.1667C62.931 20.8861 68.3345 26.3333 75 26.3333Z" stroke="white" stroke-width="3" stroke-miterlimit="10" stroke-linecap="round" stroke-linejoin="round"/>
<path d="M75 31.2002V45.8002" stroke="white" stroke-width="3" stroke-miterlimit="10" stroke-linecap="round" stroke-linejoin="round"/>
<path d="M124.496 39.7744C129.209 35.0231 129.209 27.3197 124.496 22.5683C119.783 17.817 112.141 17.817 107.428 22.5683C102.715 27.3197 102.715 35.0231 107.428 39.7744C112.141 44.5258 119.783 44.5258 124.496 39.7744Z" stroke="white" stroke-width="3" stroke-miterlimit="10" stroke-linecap="round" stroke-linejoin="round"/>
<path d="M132.931 84.7332C139.597 84.7332 145 79.286 145 72.5666C145 65.8471 139.597 60.3999 132.931 60.3999C126.266 60.3999 120.862 65.8471 120.862 72.5666C120.862 79.286 126.266 84.7332 132.931 84.7332Z" stroke="white" stroke-width="3" stroke-miterlimit="10" stroke-linecap="round" stroke-linejoin="round"/>
<path d="M116.034 72.5669H101.552" stroke="white" stroke-width="3" stroke-miterlimit="10" stroke-linecap="round" stroke-linejoin="round"/>
<path d="M17.069 84.7332C23.7345 84.7332 29.1379 79.286 29.1379 72.5666C29.1379 65.8471 23.7345 60.3999 17.069 60.3999C10.4035 60.3999 5 65.8471 5 72.5666C5 79.286 10.4035 84.7332 17.069 84.7332Z" stroke="white" stroke-width="3" stroke-miterlimit="10" stroke-linecap="round" stroke-linejoin="round"/>
<path d="M33.9655 72.5669H48.4483" stroke="white" stroke-width="3" stroke-miterlimit="10" stroke-linecap="round" stroke-linejoin="round"/>
<path d="M42.4693 39.8745C47.1825 35.1232 47.1825 27.4198 42.4693 22.6684C37.7561 17.9171 30.1146 17.9171 25.4014 22.6684C20.6882 27.4198 20.6882 35.1232 25.4014 39.8745C30.1146 44.6259 37.7561 44.6259 42.4693 39.8745Z" stroke="white" stroke-width="3" stroke-miterlimit="10" stroke-linecap="round" stroke-linejoin="round"/>
<path d="M46.0345 43.3667L56.1724 53.5867" stroke="white" stroke-width="3" stroke-miterlimit="10" stroke-linecap="round" stroke-linejoin="round"/>
<path d="M103.966 43.3667L93.8276 53.5867" stroke="white" stroke-width="3" stroke-miterlimit="10" stroke-linecap="round" stroke-linejoin="round"/>
<path d="M75 92.0334C85.6648 92.0334 94.3103 83.3179 94.3103 72.5668C94.3103 61.8156 85.6648 53.1001 75 53.1001C64.3352 53.1001 55.6896 61.8156 55.6896 72.5668C55.6896 83.3179 64.3352 92.0334 75 92.0334Z" stroke="white" stroke-width="3" stroke-miterlimit="10" stroke-linecap="round" stroke-linejoin="round"/>
<path d="M88.2758 61.3734L89.7241 60.1568C86.3448 55.7768 81.0345 53.1001 75 53.1001C64.3793 53.1001 55.6896 61.8601 55.6896 72.5668H57.6207C68.7241 72.5668 79.8276 68.6734 88.2758 61.3734Z" stroke="white" stroke-width="3" stroke-miterlimit="10" stroke-linecap="round" stroke-linejoin="round"/>
<path d="M75 92.0337C72.3448 92.0337 69.931 91.5471 67.7586 90.5737V94.4671L75 105.417L82.2414 94.4671V90.5737C80.069 91.5471 77.6552 92.0337 75 92.0337Z" stroke="white" stroke-width="3" stroke-miterlimit="10" stroke-linecap="round" stroke-linejoin="round"/>
<path d="M46.0345 148V112.23C46.0345 107.363 48.931 102.983 53.2759 101.037L67.7586 94.4668L75 105.417L82.2414 94.4668L91.4138 98.6035C94.069 99.8201 96.4828 101.523 98.4138 103.47L107.345 112.473L120.138 99.5768L128.586 108.093L111.448 125.37C109.034 127.803 105.172 127.803 103 125.37L91.8966 114.177V148" stroke="white" stroke-width="3" stroke-miterlimit="10" stroke-linecap="round" stroke-linejoin="round"/>
<path d="M58.1035 118.8V148" stroke="white" stroke-width="3" stroke-miterlimit="10" stroke-linecap="round" stroke-linejoin="round"/>
<path d="M81.0345 134.617L75 140.7L68.9655 134.617L72.5862 105.417H77.4138L81.0345 134.617Z" stroke="white" stroke-width="3" stroke-miterlimit="10" stroke-linecap="round" stroke-linejoin="round"/>
<path d="M67.7587 94.4668L66.5518 105.417H83.4483L82.2414 94.4668L75 105.417L67.7587 94.4668Z" stroke="white" stroke-width="3" stroke-miterlimit="10" stroke-linecap="round" stroke-linejoin="round"/>
<path d="M123.517 96.1697C125.931 93.7364 129.793 93.7364 131.965 96.1697C134.379 98.6031 134.379 102.496 131.965 104.686" stroke="white" stroke-width="3" stroke-miterlimit="10" stroke-linecap="round" stroke-linejoin="round"/>
</svg>
