<svg width="65" height="65" viewBox="0 0 65 65" fill="none" xmlns="http://www.w3.org/2000/svg">
    <path d="M33.6844 35.9594C33.8059 33.831 34.8651 31.9505 36.4699 30.6217C38.0403 29.3154 40.1495 28.5159 42.465 28.5159C44.769 28.5159 46.8782 29.3143 48.4486 30.6217C50.0534 31.9505 51.1079 33.831 51.234 35.9594C51.3555 38.144 50.4603 40.1822 48.8956 41.6912C47.2908 43.2227 45.0212 44.1911 42.465 44.1911C39.9087 44.1911 37.6276 43.2295 36.0343 41.6912C34.4639 40.1822 33.5698 38.1553 33.6959 35.9706L33.6844 35.9594Z"
          fill="#F2F2F2"/>
    <path d="M19.929 40.4634C19.9439 41.2967 20.2144 42.9183 20.6202 44.1795C21.4731 46.8597 22.9243 49.3371 24.9303 51.5105C26.9936 53.7514 29.5383 55.5532 32.4728 56.8369C35.5563 58.177 38.9035 58.8639 42.3767 58.8639C45.85 58.8594 49.1971 58.1612 52.2806 56.8031C55.2151 55.5081 57.7599 53.7064 59.8232 51.4542C61.8407 49.2583 63.285 46.7809 64.1332 44.1007C64.5631 42.7494 64.8348 41.3756 64.9437 40.0017C65.0503 38.6504 65.0056 37.2878 64.8096 35.9253C64.4267 33.2789 63.4913 30.7903 62.0585 28.5381C60.7517 26.4548 59.0552 24.6417 57.0377 23.1103L57.0423 23.1069L36.7531 7.79194C36.7347 7.77843 36.7198 7.76378 36.7003 7.75139C35.3706 6.74691 33.1239 6.75029 31.6681 7.75703C30.1894 8.77502 30.0175 10.4597 31.3357 11.5182L31.33 11.5238L39.801 18.2917L14.0096 18.3187H13.9752C11.8431 18.321 9.79125 19.6926 9.39005 21.438C8.9728 23.206 10.4217 24.6811 12.6455 24.6811L12.6421 24.6891L25.7097 24.6643L2.32549 42.2314C2.29569 42.2528 2.26359 42.2753 2.23608 42.2967C0.0352104 43.9521 -0.675489 46.711 0.711517 48.4452C2.12145 50.2132 5.11326 50.2244 7.33705 48.4553L20.0608 38.2079C20.0608 38.2079 19.8751 39.593 19.89 40.415L19.929 40.4634ZM52.7128 45.0917C50.0878 47.7155 46.4082 49.2132 42.4421 49.2132C38.4645 49.22 34.7849 47.7493 32.1599 45.1255C30.876 43.8417 29.9361 42.3778 29.3515 40.8125C28.7818 39.2698 28.5605 37.6369 28.7073 35.9928C28.846 34.3825 29.3343 32.8397 30.1172 31.4546C30.8829 30.0921 31.9398 28.8534 33.2351 27.8061C35.7913 25.7679 39.0353 24.653 42.4283 24.653C45.8328 24.6485 49.0768 25.7442 51.633 27.7836C52.9283 28.8241 53.9829 30.0583 54.7509 31.4209C55.5338 32.806 56.0233 34.3375 56.1608 35.959C56.3053 37.6031 56.084 39.236 55.5143 40.7787C54.932 42.3553 53.9898 43.8192 52.7059 45.103L52.7128 45.0917Z"
          fill="#F2F2F2"/>
</svg>
