<svg width="60" height="60" viewBox="0 0 60 60" fill="none" xmlns="http://www.w3.org/2000/svg">
<g clip-path="url(#clip0)">
<path d="M30 0C13.4389 0 0 13.4389 0 30C0 46.5611 13.4389 60 30 60C46.5611 60 60 46.5611 60 30C60 13.4389 46.5611 -1.25e-07 30 0ZM30 1.25C45.8856 1.25 58.75 14.1144 58.75 30C58.75 45.8856 45.8856 58.75 30 58.75C14.1144 58.75 1.25 45.8856 1.25 30C1.25 14.1144 14.1144 1.25 30 1.25ZM18.125 21.25C16.4025 21.25 15 22.6513 15 24.375V38.125C15 39.8488 16.4025 41.25 18.125 41.25H41.875C43.5975 41.25 45 39.8488 45 38.125V24.375C45 22.6513 43.5975 21.25 41.875 21.25H18.125ZM18.125 22.5H23.125V25.8398L23.0176 25.7324C22.0738 24.7874 20.4262 24.7874 19.4824 25.7324C19.1562 26.0587 18.9478 26.4562 18.8403 26.875H16.25V24.375C16.25 23.3412 17.0912 22.5 18.125 22.5ZM24.375 22.5H41.875C42.9087 22.5 43.75 23.3412 43.75 24.375V26.875H28.6597C28.5522 26.4562 28.3438 26.0587 28.0176 25.7324C27.0738 24.7874 25.4286 24.7874 24.4849 25.7324L24.375 25.8398V22.5ZM21.25 26.25C21.5837 26.25 21.8975 26.38 22.1338 26.6162L22.981 27.4634C22.9785 27.4884 22.9785 27.5116 22.981 27.5366L22.1338 28.3838C21.6613 28.855 20.8387 28.855 20.3662 28.3838C19.8787 27.8963 19.8787 27.1037 20.3662 26.6162C20.6025 26.38 20.9163 26.25 21.25 26.25ZM26.25 26.2622C26.5737 26.2622 26.8975 26.3806 27.1338 26.6162C27.6213 27.1037 27.6213 27.8938 27.1338 28.3813C26.6613 28.8526 25.8387 28.8526 25.3662 28.3813L24.519 27.5366C24.5203 27.5116 24.5203 27.4884 24.519 27.4634L25.3662 26.6162C25.6025 26.3805 25.9263 26.2622 26.25 26.2622ZM16.25 28.125H18.8403C18.9478 28.5438 19.1562 28.9413 19.4824 29.2676C19.9537 29.7401 20.5825 30 21.25 30C21.4163 30 21.5807 29.9849 21.7407 29.9536L20.1953 31.4233C19.9453 31.6608 19.9358 32.0571 20.1733 32.3071C20.2958 32.4359 20.46 32.5 20.625 32.5C20.78 32.5 20.9359 32.4417 21.0571 32.3267L23.125 30.3589V40H18.125C17.0912 40 16.25 39.1587 16.25 38.125V28.125ZM28.6597 28.125H43.75V38.125C43.75 39.1587 42.9087 40 41.875 40H24.375V30.3589L26.4429 32.3291C26.5641 32.4429 26.72 32.5 26.875 32.5C27.04 32.5 27.2042 32.4359 27.3267 32.3071C27.5642 32.0571 27.5559 31.6608 27.3047 31.4233L25.7593 29.9536C25.9193 29.9849 26.0837 30 26.25 30C26.9175 30 27.5463 29.7401 28.0176 29.2676C28.3438 28.9413 28.5522 28.5438 28.6597 28.125ZM39.375 35C39.03 35 38.75 35.28 38.75 35.625C38.75 35.97 39.03 36.25 39.375 36.25H41.875C42.22 36.25 42.5 35.97 42.5 35.625C42.5 35.28 42.22 35 41.875 35H39.375ZM36.875 37.5C36.53 37.5 36.25 37.78 36.25 38.125C36.25 38.47 36.53 38.75 36.875 38.75H41.875C42.22 38.75 42.5 38.47 42.5 38.125C42.5 37.78 42.22 37.5 41.875 37.5H36.875Z" fill="white"/>
</g>
<defs>
<clipPath id="clip0">
<rect width="60" height="60" fill="white"/>
</clipPath>
</defs>
</svg>
