<svg width="200" height="100" viewBox="0 0 200 100" fill="none" xmlns="http://www.w3.org/2000/svg">
    <path d="M83.7598 43.3248C83.7598 42.0393 84.7957 40.9996 86.0709 40.9996C87.3505 40.9996 88.3905 42.0393 88.3905 43.3248C88.3905 44.6086 87.3505 45.6494 86.0709 45.6494C84.7957 45.6494 83.7598 44.6086 83.7598 43.3248Z"
          fill="white"/>
    <path d="M120.295 58.7906C120.295 57.5046 121.33 56.4637 122.606 56.4637C123.885 56.4637 124.924 57.5046 124.924 58.7906C124.924 60.0733 123.885 61.1152 122.606 61.1152C121.33 61.1152 120.295 60.0733 120.295 58.7906Z"
          fill="white"/>
    <path d="M45.7557 57.7857C43.7614 57.7857 42.3755 56.1994 42.3755 53.9326C42.3755 51.6664 43.7614 50.0812 45.7557 50.0812C47.7614 50.0812 49.1625 51.6664 49.1625 53.9326C49.1625 56.2352 47.7906 57.7857 45.7557 57.7857ZM45.7557 46.6948C41.5366 46.6948 38.4746 49.7396 38.4746 53.9326C38.4746 58.1257 41.5366 61.1699 45.7557 61.1699C49.9906 61.1699 53.0653 58.1257 53.0653 53.9326C53.0653 49.7396 49.9906 46.6948 45.7557 46.6948"
          fill="white"/>
    <path d="M79.2749 54.295C79.1109 53.9859 78.9228 53.7241 78.7226 53.5164L78.595 53.3809L78.7293 53.2519C78.9229 53.0475 79.1209 52.8051 79.3118 52.5241L83.0351 46.9805H78.5152L75.7177 51.3168C75.5593 51.5494 75.2396 51.6667 74.761 51.6667H74.1234V43.4685C74.1234 41.8287 73.1035 41.6056 72.0016 41.6056H70.1152L70.1184 60.957H74.1234V55.1523H74.4986C74.9551 55.1523 75.2661 55.2052 75.4086 55.4537L77.618 59.6302C78.2351 60.7636 78.8502 60.957 80.0072 60.957H83.0764L80.7905 57.17L79.2749 54.295"
          fill="white"/>
    <path d="M98.7178 46.6643C96.6806 46.6643 95.3808 47.5707 94.6524 48.3371L94.4092 48.5834L94.3234 48.2484C94.1094 47.4275 93.3882 46.9756 92.3028 46.9756H90.5078L90.519 60.9521H94.4968V54.5105C94.4968 53.8807 94.5786 53.3341 94.7448 52.8355C95.1877 51.3263 96.4227 50.3879 97.9664 50.3879C99.2081 50.3879 99.6933 51.0442 99.6933 52.7401V58.8275C99.6933 60.275 100.362 60.9521 101.808 60.9521H103.701L103.695 52.063C103.695 48.5311 101.975 46.6643 98.719 46.6643"
          fill="white"/>
    <path d="M86.1237 46.9815H84.2383L84.2512 57.7882H84.2499V60.9553H86.2624C86.2877 60.9553 86.308 60.958 86.3333 60.958L87.2707 60.9553H88.2038V60.9498H88.2103L88.2183 49.1034C88.2183 47.6741 87.5361 46.9815 86.1251 46.9815"
          fill="white"/>
    <path d="M61.3796 57.7857C59.3855 57.7857 57.9969 56.1994 57.9969 53.9326C57.9969 51.6664 59.3855 50.0812 61.3796 50.0812C63.3812 50.0812 64.7862 51.6664 64.7862 53.9326C64.7862 56.2352 63.4147 57.7857 61.3796 57.7857ZM61.3796 46.6948C57.1563 46.6948 54.0938 49.7396 54.0938 53.9326C54.0938 58.1257 57.1563 61.1699 61.3796 61.1699C65.6102 61.1699 68.6899 58.1257 68.6899 53.9326C68.6899 49.7396 65.6102 46.6948 61.3796 46.6948"
          fill="white"/>
    <path d="M146.646 57.7867C144.653 57.7867 143.263 56.2004 143.263 53.9336C143.263 51.6674 144.653 50.0822 146.646 50.0822C148.648 50.0822 150.054 51.6674 150.054 53.9336C150.054 56.2362 148.682 57.7867 146.646 57.7867ZM146.646 46.6958C142.424 46.6958 139.361 49.7405 139.361 53.9336C139.361 58.1267 142.424 61.1709 146.646 61.1709C150.877 61.1709 153.956 58.1267 153.956 53.9336C153.956 49.7405 150.877 46.6958 146.646 46.6958"
          fill="white"/>
    <path d="M112.083 57.1713C109.908 57.1713 109.134 55.271 109.134 53.4902C109.134 52.7055 109.332 50.1484 111.874 50.1484C113.137 50.1484 114.82 50.5109 114.82 53.6218C114.82 56.5559 113.331 57.1713 112.083 57.1713V57.1713ZM116.886 46.9444C116.131 46.9444 115.55 47.2457 115.259 47.7962L115.149 48.01L114.965 47.8496C114.322 47.2931 113.171 46.633 111.302 46.633C107.582 46.633 105.078 49.431 105.078 53.5948C105.078 57.7538 107.669 60.6602 111.377 60.6602C112.643 60.6602 113.644 60.3643 114.437 59.7627L114.744 59.5318V59.9203C114.744 61.787 113.539 62.8168 111.354 62.8168C110.292 62.8168 109.325 62.5579 108.679 62.3231C107.835 62.068 107.34 62.2791 106.998 63.127L106.682 63.9094L106.236 65.0522L106.512 65.1999C107.911 65.9432 109.731 66.3867 111.377 66.3867C114.764 66.3867 118.72 64.65 118.72 59.7627L118.734 46.9444H116.886"
          fill="white"/>
    <path d="M30.9421 57.6248L27.7041 57.6216V53.7443C27.7041 52.9156 28.0248 52.4847 28.7339 52.3855H30.9421C32.5182 52.3855 33.5366 53.3812 33.5377 54.9917C33.5366 56.6447 32.5435 57.6238 30.9421 57.6249V57.6248ZM27.7041 47.1653V46.1449C27.7041 45.2517 28.0814 44.8269 28.9095 44.7724H30.5663C31.9873 44.7724 32.8384 45.6242 32.8384 47.0491C32.8384 48.1356 32.2558 49.4035 30.6186 49.4035H27.7041V47.1653V47.1653ZM35.0776 51.0349L34.4921 50.7055L35.0032 50.268C35.5974 49.7561 36.5937 48.6056 36.5937 46.6176C36.5937 43.5761 34.2381 41.613 30.5922 41.613H26.4316V41.6119H25.9578C24.8769 41.6515 24.0121 42.532 24 43.6213V60.8856H25.9094C25.9143 60.8867 25.9159 60.8856 25.9175 60.8867L30.6744 60.8856C34.7273 60.8856 37.3432 58.6761 37.3432 55.2539C37.3432 53.4114 36.4977 51.8361 35.0767 51.0349"
          fill="white"/>
    <path d="M171.724 46.7088C170.074 46.7088 168.478 47.4829 167.454 48.7811L167.165 49.1469L166.939 48.7375C166.203 47.392 164.935 46.7088 163.171 46.7088C161.322 46.7088 160.082 47.7419 159.506 48.3563L159.13 48.7651L158.984 48.2273C158.774 47.4532 158.086 47.0267 157.044 47.0267H155.372L155.355 60.9492H159.154V54.8034C159.154 54.2651 159.221 53.7323 159.355 53.1752C159.719 51.6903 160.715 50.093 162.39 50.2528C163.423 50.352 163.928 51.1515 163.928 52.6959V60.9492H167.753V54.8034C167.753 54.1307 167.816 53.6271 167.968 53.1218C168.276 51.7041 169.316 50.2506 170.932 50.2506C172.102 50.2506 172.534 50.914 172.534 52.6959V58.9138C172.534 60.3205 173.161 60.9492 174.564 60.9492H176.352L176.355 52.0612C176.355 48.5105 174.794 46.7088 171.723 46.7088"
          fill="white"/>
    <path d="M137.159 56.1156C137.148 56.1293 135.513 57.8556 133.361 57.8556C131.4 57.8556 129.419 56.6506 129.419 53.9606C129.419 51.6382 130.955 50.0149 133.154 50.0149C133.868 50.0149 134.68 50.2712 134.807 50.702L134.825 50.7748C135.118 51.7517 136.005 51.804 136.179 51.804L138.26 51.8063V49.9842C138.26 47.5807 135.208 46.7091 133.154 46.7091C128.761 46.7091 125.574 49.772 125.574 53.9899C125.574 58.2061 128.727 61.2646 133.073 61.2646C136.844 61.2646 138.895 58.7819 138.915 58.7571L139.024 58.6226L137.376 55.8842L137.159 56.1156"
          fill="white"/>
</svg>
