<svg width="60" height="60" viewBox="0 0 60 60" fill="none" xmlns="http://www.w3.org/2000/svg">
    <path fill-rule="evenodd" clip-rule="evenodd"
          d="M30 0C13.4389 0 0 13.4389 0 30C0 46.5611 13.4389 60 30 60C46.5611 60 60 46.5611 60 30C60 13.4389 46.5611 0 30 0ZM30 1.25C45.8856 1.25 58.75 14.1145 58.75 30C58.75 45.8856 45.8856 58.75 30 58.75C14.1144 58.75 1.25 45.8856 1.25 30C1.25 14.1145 14.1144 1.25 30 1.25Z"
          fill="white"/>
    <path d="M47.0277 29.3521H44.942V25.3792H22.7936C23.0915 25.0314 23.2903 24.5845 23.3894 24.1377C23.4888 23.492 23.3399 22.7967 22.8927 22.2505C22.4953 21.7042 21.8996 21.3568 21.2043 21.2574C20.7076 21.2078 20.2112 21.2574 19.7643 21.4559C19.4166 21.1081 18.9202 20.9096 18.4234 20.8102C17.9267 20.7108 17.4303 20.8102 16.9835 21.0087C16.6357 20.6609 16.1393 20.4624 15.6426 20.363C15.1458 20.3134 14.6494 20.363 14.2026 20.5615C13.8548 20.2137 13.3584 20.0152 12.8617 19.9158C11.4712 19.7173 10.1802 20.7104 9.98139 22.051C9.88197 22.6468 10.0309 23.2925 10.3787 23.7893C9.93185 24.1866 9.63396 24.7329 9.53454 25.3286C9.38558 26.0744 9.58407 26.7198 9.93186 27.2661C9.43512 27.6634 9.08768 28.2097 9.03816 28.8554C8.78979 30.2459 9.78292 31.5369 11.1734 31.7357C11.6701 31.8351 12.1665 31.7357 12.6133 31.5372C12.9611 31.885 13.4575 32.0835 13.9542 32.1829H14.1527C14.0038 32.2823 13.8049 32.3814 13.656 32.4808C12.5635 33.3745 12.4145 34.9638 13.3082 36.0563C13.7055 36.5531 14.2518 36.851 14.8476 36.95C14.8476 37.5458 15.0461 38.142 15.4434 38.6384C15.8407 39.1351 16.4365 39.433 17.0327 39.5321C16.9832 40.1778 17.1816 40.7736 17.6285 41.2704C18.1253 41.8662 18.8204 42.1641 19.5653 42.1641C20.1611 42.1641 20.7073 41.9656 21.204 41.5683C21.5019 41.3199 21.7503 40.9724 21.8993 40.6246C22.4455 42.313 23.985 43.5049 25.8222 43.5049H40.8196C43.1041 43.5049 44.9414 41.6676 44.9414 39.3831V37.2974H47.0271C49.2122 37.2974 51 35.5096 51 33.3245C51.0007 31.1394 49.2129 29.352 47.0278 29.352L47.0277 29.3521ZM21.6514 39.3337C21.403 39.3337 21.1547 39.5322 21.1051 39.7806C21.0556 40.1779 20.8568 40.5254 20.5589 40.7737C20.2609 41.0221 19.9132 41.1215 19.5657 41.1215C19.1189 41.1215 18.672 40.923 18.3738 40.5752C18.026 40.1779 17.9269 39.6316 18.0759 39.1353C18.1254 38.9863 18.0759 38.7875 17.9765 38.6884C17.8771 38.589 17.7281 38.4899 17.5792 38.4899H17.5296C16.9833 38.5394 16.4866 38.341 16.1391 37.9436C15.8412 37.5463 15.6923 37.0499 15.8412 36.5531C15.8908 36.4042 15.8412 36.2552 15.7418 36.1063C15.6424 36.0069 15.4934 35.9078 15.3445 35.9078C14.8477 35.9573 14.3514 35.7588 14.0534 35.3615C13.5071 34.7158 13.6066 33.7227 14.2519 33.1764C14.5498 32.928 14.9471 32.7791 15.3444 32.8286C15.5928 32.8286 15.8412 32.6301 15.8907 32.3817C15.8907 32.3322 15.8907 32.2823 15.9402 32.2328C16.1886 32.3817 16.437 32.4812 16.7349 32.4812C17.2316 32.5806 17.728 32.4812 18.1748 32.2827C18.5226 32.6305 19.019 32.8289 19.5158 32.9283C19.6152 32.9283 19.7641 32.9779 19.8635 32.9779C20.2113 32.9779 20.5588 32.8785 20.8567 32.7794C21.105 32.8788 21.4029 32.8289 21.6513 32.6304C21.8498 32.432 21.9492 32.1836 21.8997 31.8857C22.0982 31.5878 22.297 31.1905 22.3465 30.7932C22.446 30.1475 22.297 29.5021 21.9492 29.0054C22.2471 28.757 22.4955 28.4096 22.6444 28.0618C22.694 28.0122 22.694 27.9128 22.7439 27.8633C22.7934 27.9128 22.8433 27.9627 22.8928 28.0122C23.1907 28.4096 23.3397 28.9059 23.1907 29.4027C23.1412 29.5517 23.1907 29.7006 23.2901 29.8496C23.3896 29.949 23.5385 30.0481 23.6875 30.0481C24.1842 29.9985 24.6806 30.197 24.9785 30.5943C25.3263 30.9917 25.4254 31.538 25.2764 32.0343C25.2269 32.1833 25.2764 32.3821 25.3759 32.4812C25.4753 32.6301 25.6738 32.6797 25.8227 32.6797C26.369 32.6301 26.8658 32.8286 27.2132 33.2259C27.4616 33.5238 27.6105 33.9212 27.561 34.368C27.5115 34.7654 27.3126 35.1627 27.0147 35.4111C26.7168 35.6594 26.3195 35.8084 25.9222 35.7589C25.6738 35.7589 25.4254 35.9573 25.3759 36.2057C25.3264 36.603 25.1275 36.9505 24.8296 37.1988C24.5317 37.4472 24.1344 37.5962 23.7371 37.5466C23.4887 37.5466 23.2404 37.7451 23.1908 37.9935C23.1413 38.3908 22.9425 38.7382 22.6446 38.9866H22.595C22.2971 39.235 21.9493 39.3344 21.6019 39.3344C21.701 39.3337 21.6514 39.3337 21.6514 39.3337L21.6514 39.3337ZM13.1099 30.5936C12.9609 30.3952 12.663 30.3453 12.4146 30.4942C12.0669 30.7426 11.7194 30.842 11.2726 30.7921C10.4284 30.6927 9.83259 29.8984 9.98148 29.0539C10.0809 28.5571 10.3788 28.1102 10.8752 27.8619C11.0241 27.8124 11.1236 27.6634 11.1731 27.4646C11.1731 27.3156 11.1236 27.1168 11.0241 27.0177C10.6268 26.67 10.4283 26.1736 10.5274 25.6273C10.5769 25.1305 10.9247 24.7336 11.3716 24.4852C11.5205 24.4356 11.6199 24.2867 11.6199 24.1374C11.6199 23.9884 11.5704 23.8395 11.471 23.6905C11.0737 23.2935 10.8752 22.7968 10.9746 22.3C11.074 21.4559 11.8683 20.8601 12.7129 21.009C13.1102 21.0585 13.4576 21.2573 13.706 21.6048C13.8549 21.8033 14.1528 21.8531 14.4012 21.7042C14.749 21.4558 15.0964 21.3564 15.5433 21.4063C15.9406 21.4558 16.2881 21.6547 16.5364 22.0021C16.6854 22.2006 16.9833 22.2505 17.2316 22.1015C17.5794 21.8531 17.9269 21.7537 18.3737 21.8036C18.7711 21.8531 19.1185 22.052 19.3669 22.3994C19.5158 22.5979 19.8137 22.6478 20.0621 22.4988C20.4099 22.2505 20.7573 22.151 21.2042 22.2009C21.6015 22.2505 21.9489 22.4988 22.1973 22.7967C22.4457 23.1445 22.5451 23.5415 22.4952 23.9388C22.4457 24.4356 22.0979 24.8325 21.651 25.0809C21.5021 25.1305 21.4026 25.2794 21.4026 25.4287C21.4026 25.5777 21.4522 25.7266 21.5516 25.8756C21.651 25.975 21.7501 26.0741 21.8 26.2234C21.8495 26.2729 21.8495 26.3723 21.8994 26.4219C21.9489 26.5708 21.9988 26.7697 21.9988 26.9186V27.2165C21.9988 27.266 21.9493 27.3655 21.9493 27.415C21.8997 27.564 21.8498 27.6634 21.8003 27.7628C21.6514 28.0112 21.403 28.2595 21.1051 28.4085C20.9561 28.458 20.8567 28.607 20.8072 28.8058C20.8072 28.9548 20.8567 29.1536 20.9561 29.2527C21.3535 29.6005 21.5519 30.0968 21.4529 30.6431C21.4033 30.8416 21.3535 31.0405 21.2544 31.1894C21.0559 31.5372 20.7576 31.7852 20.4102 31.8847C20.2117 31.9342 19.9633 31.9841 19.715 31.9342C19.3177 31.8847 18.9702 31.6858 18.7219 31.3384C18.6225 31.1894 18.4735 31.1399 18.3245 31.1399C18.2251 31.1399 18.1261 31.1894 18.0266 31.2393C17.6789 31.4877 17.3314 31.5871 16.8845 31.5372C16.7356 31.5372 16.5866 31.4877 16.4377 31.3883C16.2887 31.3387 16.1398 31.2393 16.0404 31.0903L15.8914 30.9414C15.8419 30.842 15.7425 30.7924 15.643 30.7924C15.4941 30.7429 15.3451 30.7429 15.1962 30.842C14.8484 31.0903 14.5009 31.1898 14.0541 31.1399C13.7056 31.09 13.3582 30.8915 13.1098 30.5936L13.1099 30.5936ZM43.9985 39.3832C43.9985 41.1215 42.608 42.5119 40.8698 42.5119H25.8228C24.3329 42.5119 23.0914 41.4689 22.7935 40.1283C22.992 40.0289 23.1908 39.9298 23.3893 39.7805C23.7866 39.4327 24.035 39.0358 24.184 38.539C24.6807 38.4895 25.1771 38.2906 25.5249 37.9927C25.9222 37.6449 26.1706 37.248 26.3195 36.7512C26.8163 36.7017 27.3126 36.5029 27.6604 36.2049C28.1572 35.7581 28.5046 35.1619 28.5541 34.4667C28.6037 33.7714 28.4052 33.1258 27.9583 32.6293C27.561 32.1326 26.9652 31.8347 26.369 31.7356C26.4186 31.0899 26.2201 30.4941 25.7732 29.9973C25.3759 29.5006 24.8296 29.2027 24.2338 29.1036C24.2338 28.5078 24.0353 27.9117 23.638 27.4153C23.3896 27.1174 23.1413 26.9185 22.7938 26.7696C22.7938 26.6702 22.7443 26.5212 22.7443 26.4218H43.8995L43.8992 39.3831L43.9985 39.3832ZM47.0277 36.3044H44.942V30.3453H47.0277C48.6665 30.3453 50.0075 31.6862 50.0075 33.325C50.0075 34.9636 48.6666 36.3045 47.0277 36.3045V36.3044Z"
          fill="white" stroke="white" stroke-width="0.4"/>
    <path d="M26.6174 21.7541C26.9153 21.7541 27.1142 21.5556 27.1142 21.2573V15.5466C27.1142 15.2487 26.9157 15.0498 26.6174 15.0498C26.3195 15.0498 26.1207 15.2483 26.1207 15.5466V21.2573C26.1207 21.506 26.3195 21.7541 26.6174 21.7541Z"
          fill="white" stroke="white" stroke-width="0.4"/>
    <path d="M33.4209 21.6547C33.7188 21.6547 33.9176 21.4563 33.9176 21.158V15.4967C33.9176 15.1988 33.7191 15 33.4209 15C33.123 15 32.9241 15.1985 32.9241 15.4967V21.2075C32.9245 21.4559 33.123 21.6547 33.4209 21.6547V21.6547Z"
          fill="white" stroke="white" stroke-width="0.4"/>
    <path d="M40.0753 21.7541C40.3732 21.7541 40.5721 21.5556 40.5721 21.2573L40.5717 15.5466C40.5717 15.2487 40.3732 15.0498 40.075 15.0498C39.7771 15.0498 39.5782 15.2483 39.5782 15.5466V21.2573C39.5786 21.506 39.8269 21.7541 40.0753 21.7541H40.0753Z"
          fill="white" stroke="white" stroke-width="0.4"/>
    <path d="M45.4883 44.7964H21.0555C20.7576 44.7964 20.5587 44.9948 20.5587 45.2931C20.5587 45.591 20.7572 45.7898 21.0555 45.7898H45.4883C45.7862 45.7898 45.985 45.5914 45.985 45.2931C45.9847 44.9952 45.7366 44.7964 45.4883 44.7964Z"
          fill="white" stroke="white" stroke-width="0.4"/>
    <path d="M21.0555 36.6521C21.0555 37.091 20.6997 37.4467 20.2609 37.4467C19.822 37.4467 19.4662 37.091 19.4662 36.6521C19.4662 36.2135 19.822 35.8578 20.2609 35.8578C20.6997 35.8578 21.0555 36.2135 21.0555 36.6521Z"
          fill="white" stroke="white" stroke-width="0.4"/>
    <path d="M19.1684 34.3677C19.1684 34.8066 18.8126 35.1624 18.3738 35.1624C17.9349 35.1624 17.5791 34.8066 17.5791 34.3677C17.5791 33.9288 17.9349 33.5731 18.3738 33.5731C18.8126 33.5731 19.1684 33.9288 19.1684 34.3677Z"
          fill="white" stroke="white" stroke-width="0.4"/>
    <path d="M23.5882 34.9637C23.9359 34.6657 23.9855 34.169 23.6876 33.8216C23.4392 33.5237 22.9924 33.4242 22.6945 33.6231C22.6449 33.6726 22.595 33.6726 22.5455 33.7225C22.1977 34.0204 22.1482 34.5171 22.4461 34.8646C22.4956 34.964 22.595 35.0135 22.6945 35.0631C22.9924 35.1625 23.3398 35.1625 23.5882 34.9637H23.5882Z"
          fill="white" stroke="white" stroke-width="0.4"/>
    <path d="M14.9473 27.7629C14.9473 28.2018 14.5915 28.5576 14.153 28.5576C13.7141 28.5576 13.3584 28.2018 13.3584 27.7629C13.3584 27.324 13.7141 26.9683 14.153 26.9683C14.5915 26.9683 14.9473 27.324 14.9473 27.7629"
          fill="white"/>
    <path d="M14.9473 27.7629C14.9473 28.2018 14.5915 28.5576 14.153 28.5576C13.7141 28.5576 13.3584 28.2018 13.3584 27.7629C13.3584 27.324 13.7141 26.9683 14.153 26.9683C14.5915 26.9683 14.9473 27.324 14.9473 27.7629"
          stroke="white" stroke-width="0.4"/>
    <path d="M15.3942 24.7833C15.3942 25.2222 15.0385 25.578 14.5996 25.578C14.1607 25.578 13.805 25.2222 13.805 24.7833C13.805 24.3448 14.1607 23.989 14.5996 23.989C15.0385 23.989 15.3942 24.3448 15.3942 24.7833Z"
          fill="white" stroke="white" stroke-width="0.4"/>
    <path d="M17.6786 29.1038C17.6786 29.1038 17.7285 29.1038 17.6786 29.1038C18.1255 29.1533 18.4732 28.8554 18.5723 28.5079V28.4085C18.6218 27.9617 18.3239 27.5643 17.8771 27.4649C17.4302 27.4154 17.0329 27.7133 16.9334 28.1601C16.9338 28.607 17.2317 29.0538 17.6786 29.1037L17.6786 29.1038Z"
          fill="white" stroke="white" stroke-width="0.4"/>
    <path d="M19.0194 25.3296C19.0194 25.7685 18.6637 26.1242 18.2248 26.1242C17.7859 26.1242 17.4301 25.7685 17.4301 25.3296C17.4301 24.8911 17.7859 24.5353 18.2248 24.5353C18.6637 24.5353 19.0194 24.8911 19.0194 25.3296Z"
          fill="white" stroke="white" stroke-width="0.4"/>
</svg>
