<svg width="43" height="43" viewBox="0 0 43 43" fill="none" xmlns="http://www.w3.org/2000/svg">
<path d="M21.2163 0C9.52955 0 0 9.50861 0 21.2163C0 32.9031 9.50861 42.4326 21.2163 42.4326C32.924 42.4326 42.4326 32.924 42.4326 21.2163C42.4117 9.52955 32.9031 0 21.2163 0ZM21.2163 41.0923C10.2626 41.0923 1.34045 32.1701 1.34045 21.2163C1.34045 10.2626 10.2626 1.34045 21.2163 1.34045C32.1701 1.34045 41.0922 10.2626 41.0922 21.2163C41.0713 32.1701 32.1701 41.0923 21.2163 41.0923Z" fill="white"/>
<path d="M21.2173 3.14136C11.2479 3.14136 3.14258 11.2467 3.14258 21.2161C3.14258 31.1854 11.2479 39.2908 21.2173 39.2908C31.1867 39.2908 39.292 31.1854 39.292 21.2161C39.2711 11.2467 31.1657 3.14136 21.2173 3.14136ZM21.2173 37.9504C11.981 37.9504 4.48303 30.4524 4.48303 21.2161C4.48303 11.9798 11.981 4.48181 21.2173 4.48181C30.4536 4.48181 37.9516 11.9798 37.9516 21.2161C37.9306 30.4524 30.4327 37.9504 21.2173 37.9504Z" fill="white"/>
<path d="M21.215 8.08493C21.8434 8.08493 22.346 7.58225 22.346 6.95393C22.346 6.32561 21.8434 5.823 21.215 5.823C20.5867 5.823 20.084 6.32561 20.084 6.95393C20.084 7.58225 20.5867 8.08493 21.215 8.08493Z" fill="white"/>
<path d="M21.215 34.4536C20.5867 34.4536 20.084 34.9563 20.084 35.5846C20.084 36.2129 20.5867 36.7156 21.215 36.7156C21.8434 36.7156 22.346 36.2129 22.346 35.5846C22.346 34.9563 21.8434 34.4536 21.215 34.4536Z" fill="white"/>
<path d="M6.8907 20.1267C6.26238 20.1267 5.75977 20.6294 5.75977 21.2577C5.75977 21.886 6.26238 22.3886 6.8907 22.3886C7.51902 22.3886 8.02176 21.886 8.02176 21.2577C8.02176 20.6294 7.51902 20.1267 6.8907 20.1267Z" fill="white"/>
<path d="M35.5421 22.4106C36.1667 22.4106 36.6731 21.9042 36.6731 21.2796C36.6731 20.655 36.1667 20.1487 35.5421 20.1487C34.9174 20.1487 34.4111 20.655 34.4111 21.2796C34.4111 21.9042 34.9174 22.4106 35.5421 22.4106Z" fill="white"/>
<path d="M28.9016 20.5461H21.8854V11.1421C21.8854 10.7652 21.5921 10.4719 21.2151 10.4719C20.8382 10.4719 20.5449 10.7652 20.5449 11.1421V21.1953C20.5449 21.5723 20.8382 21.8655 21.2151 21.8655H28.9016C29.2786 21.8655 29.5718 21.5723 29.5718 21.1953C29.5718 20.8602 29.2576 20.5461 28.9016 20.5461Z" fill="white"/>
</svg>
