<svg width="60" height="60" viewBox="0 0 60 60" fill="none" xmlns="http://www.w3.org/2000/svg">
<mask id="path-1-inside-1" fill="white">
<path fill-rule="evenodd" clip-rule="evenodd" d="M12.4375 47H28.375H45.375V46.9483C51.3319 46.4115 56 41.4051 56 35.3085C56 28.8536 50.7673 23.621 44.3125 23.621C44.2543 23.621 44.1962 23.6214 44.1382 23.6223C41.6156 17.3936 35.5084 13 28.375 13C18.9862 13 11.375 20.6112 11.375 30C11.375 30.7392 11.4222 31.4675 11.5137 32.1818C7.84202 32.6367 5 35.7677 5 39.5625C5 43.3094 7.77069 46.4091 11.375 46.9247V47H12.4375Z"/>
</mask>
<path d="M45.375 47V48H46.375V47H45.375ZM45.375 46.9483L45.2852 45.9524L44.375 46.0344V46.9483H45.375ZM44.1382 23.6223L43.2113 23.9976L43.4683 24.6321L44.1528 24.6221L44.1382 23.6223ZM11.5137 32.1818L11.6367 33.1742L12.6332 33.0508L12.5056 32.0547L11.5137 32.1818ZM11.375 46.9247H12.375V46.0575L11.5166 45.9348L11.375 46.9247ZM11.375 47H10.375V48H11.375V47ZM28.375 46H12.4375V48H28.375V46ZM45.375 46H28.375V48H45.375V46ZM44.375 46.9483V47H46.375V46.9483H44.375ZM45.4648 47.9443C51.9324 47.3615 57 41.9273 57 35.3085H55C55 40.883 50.7314 45.4616 45.2852 45.9524L45.4648 47.9443ZM57 35.3085C57 28.3014 51.3196 22.621 44.3125 22.621V24.621C50.215 24.621 55 29.4059 55 35.3085H57ZM44.3125 22.621C44.2494 22.621 44.1864 22.6214 44.1236 22.6224L44.1528 24.6221C44.206 24.6214 44.2592 24.621 44.3125 24.621V22.621ZM45.065 23.2469C42.3948 16.6536 35.9296 12 28.375 12V14C35.0872 14 40.8364 18.1335 43.2113 23.9976L45.065 23.2469ZM28.375 12C18.4339 12 10.375 20.0589 10.375 30H12.375C12.375 21.1634 19.5384 14 28.375 14V12ZM10.375 30C10.375 30.7818 10.4249 31.5525 10.5218 32.3089L12.5056 32.0547C12.4195 31.3824 12.375 30.6966 12.375 30H10.375ZM11.3908 31.1894C7.22437 31.7056 4 35.2567 4 39.5625H6C6 36.2787 8.45966 33.5678 11.6367 33.1742L11.3908 31.1894ZM4 39.5625C4 43.814 7.14354 47.3296 11.2334 47.9146L11.5166 45.9348C8.39783 45.4887 6 42.8047 6 39.5625H4ZM12.375 47V46.9247H10.375V47H12.375ZM12.4375 46H11.375V48H12.4375V46Z" fill="white" mask="url(#path-1-inside-1)"/>
</svg>
