<svg width="66" height="105" viewBox="0 0 66 105" fill="none" xmlns="http://www.w3.org/2000/svg">
<path fill-rule="evenodd" clip-rule="evenodd" d="M59.0074 104.191C59.0074 64.3114 38.1479 28.1824 7.42969 5.79777L8.23644 4.69067C39.2687 27.3042 60.3773 63.8267 60.3773 104.191H59.0074Z" fill="#494949"/>
<path d="M0.710938 0.40332L7.86812 11.3742L8.3209 5.66237L13.5103 3.2244L0.710938 0.40332Z" fill="#494949"/>
<mask id="path-3-inside-1" fill="white">
<path d="M46.4988 69.3657C57.3378 69.3657 66.1245 60.5789 66.1245 49.74C66.1245 38.901 57.3378 30.1143 46.4988 30.1143C35.6598 30.1143 26.873 38.901 26.873 49.74C26.873 60.5789 35.6598 69.3657 46.4988 69.3657Z"/>
</mask>
<path d="M46.4988 69.3657C57.3378 69.3657 66.1245 60.5789 66.1245 49.74C66.1245 38.901 57.3378 30.1143 46.4988 30.1143C35.6598 30.1143 26.873 38.901 26.873 49.74C26.873 60.5789 35.6598 69.3657 46.4988 69.3657Z" fill="black"/>
<path d="M65.1245 49.74C65.1245 60.0266 56.7855 68.3657 46.4988 68.3657V70.3657C57.8901 70.3657 67.1245 61.1312 67.1245 49.74H65.1245ZM46.4988 68.3657C36.2121 68.3657 27.873 60.0266 27.873 49.74H25.873C25.873 61.1312 35.1075 70.3657 46.4988 70.3657V68.3657ZM27.873 49.74C27.873 39.4533 36.2121 31.1143 46.4988 31.1143V29.1143C35.1075 29.1143 25.873 38.3487 25.873 49.74H27.873ZM46.4988 31.1143C56.7855 31.1143 65.1245 39.4533 65.1245 49.74H67.1245C67.1245 38.3487 57.8901 29.1143 46.4988 29.1143V31.1143Z" fill="#494949" mask="url(#path-3-inside-1)"/>
<path d="M35.5747 50.068C35.6792 49.9461 35.7663 49.8242 35.8708 49.7197C37.4207 48.1698 38.9531 46.6374 40.5029 45.0875C40.799 44.7915 40.9906 44.7915 41.304 45.0875C41.6001 45.3835 41.8961 45.6796 42.1922 45.9756C42.436 46.2194 42.436 46.4458 42.1922 46.6896C41.0777 47.8041 39.9631 48.9187 38.8486 50.0332C38.7963 50.0854 38.7616 50.1376 38.7093 50.1899C38.7616 50.2421 38.8137 50.2944 38.8486 50.3466C39.9457 51.4437 41.0428 52.5408 42.1573 53.6553C42.4533 53.9513 42.4708 54.1429 42.1573 54.4563C41.8613 54.7524 41.5652 55.0484 41.2692 55.3445C41.0254 55.5882 40.799 55.5882 40.5552 55.3445C38.9531 53.7598 37.3684 52.1577 35.7837 50.573C35.714 50.5033 35.6618 50.4162 35.5921 50.3292C35.5747 50.2073 35.5747 50.1376 35.5747 50.068Z" fill="white"/>
<path d="M47.9049 42.8237C48.1835 42.9108 48.4622 42.9979 48.7234 43.0676C49.0891 43.172 49.1761 43.3636 49.0716 43.7119C48.2705 46.4285 47.4695 49.1276 46.6684 51.8442C46.1634 53.5682 45.6411 55.2922 45.1361 57.0162C45.1187 57.0859 45.1012 57.1555 45.0664 57.2252C44.9793 57.4167 44.8051 57.5213 44.5962 57.469C44.3001 57.3994 44.0215 57.3123 43.7255 57.2252C43.4642 57.1381 43.3772 56.9292 43.4643 56.6331C43.621 56.0933 43.7777 55.536 43.9518 54.9962C45.1012 51.0954 46.2506 47.1947 47.3999 43.2939C47.4696 43.0849 47.5566 42.8934 47.783 42.8237C47.8352 42.8237 47.8701 42.8237 47.9049 42.8237Z" fill="white"/>
<path d="M53.6682 50.1722C53.5811 50.1026 53.5115 50.0503 53.4767 50.0155C52.3622 48.9184 51.265 47.8039 50.1679 46.7068C49.8893 46.4282 49.8893 46.2366 50.1679 45.958C50.464 45.662 50.7775 45.3485 51.0735 45.0525C51.3173 44.8087 51.5436 44.8087 51.7874 45.0525C53.3895 46.6372 54.9742 48.2393 56.5763 49.8414C56.8375 50.1026 56.8375 50.3116 56.5763 50.5728C54.9916 52.1575 53.3895 53.7595 51.8049 55.3442C51.5436 55.6054 51.3347 55.6054 51.0735 55.3442C50.76 55.0308 50.464 54.7347 50.1505 54.4213C49.8893 54.1601 49.8893 53.9511 50.1505 53.6899C51.265 52.5754 52.3622 51.4783 53.4767 50.3638C53.5289 50.2767 53.5811 50.2419 53.6682 50.1722Z" fill="white"/>
</svg>
