<svg width="78" height="119" viewBox="0 0 78 119" fill="none" xmlns="http://www.w3.org/2000/svg">
<path d="M4.28711 85.0698C4.28711 85.0698 13.0116 80.6118 20.0992 77.843L25.8981 75.2657C25.8981 75.2657 28.1794 74.1511 27.9878 70.2504L28.0051 62.9539C28.0051 62.9539 37.3565 69.8498 50.452 62.9539V71.8003C50.452 71.8003 50.5217 74.3949 53.5692 75.701C53.5692 75.701 70.0951 82.6667 73.9959 85.035L62.6214 96.8531C62.6214 96.8531 61.0408 95.7993 61.5622 111.766V117.443H16.6686V99.8196C16.6686 99.8196 16.7557 98.0085 14.7879 95.7099L4.28711 85.0698Z" fill="#111111" stroke="#494949" stroke-width="1.3" stroke-miterlimit="10"/>
<path d="M20.1006 77.8425C20.1006 77.8425 24.4541 89.7538 39.1342 90.816C39.1342 90.816 52.3516 91.2166 57.9067 77.8425" stroke="#494949" stroke-width="1.3" stroke-miterlimit="10"/>
<path d="M35.2166 1.081C35.2166 1.081 22.7829 2.12586 25.9697 16.7711C25.9697 16.7711 27.624 22.988 35.2166 23.9457C35.2166 23.9457 46.3965 25.4956 56.0614 31.9737C56.0614 31.9737 61.6687 34.7251 61.512 40.2628C61.512 40.2628 63.6364 54.8384 50.4365 62.9708V71.8172C50.4365 71.8172 50.5584 74.4467 53.7974 75.8224L56.6534 77.0414C56.6534 77.0414 66.3182 74.1333 71.4902 71.1555C71.4902 71.1555 72.953 70.8594 72.5176 68.2299C72.5176 68.2299 68.7214 42.4047 68.3383 28.874C68.3383 28.874 67.3979 5.43453 44.4635 1.081C44.4461 1.081 38.0899 0.367017 35.2166 1.081Z" fill="#E0E0E0"/>
<path d="M32.7944 1.63843C32.7944 1.63843 17.1914 3.1709 11.6363 21.0378C11.6363 21.0378 10.2084 23.1797 8.83267 44.1637C8.83267 44.1637 7.19573 59.8712 5.66329 68.1778C5.66329 68.1778 4.72287 70.3197 8.3276 71.887C8.3276 71.887 13.813 74.6907 21.9106 77.0416L25.8985 75.2653C25.8985 75.2653 27.9708 74.0986 27.9882 70.2501L28.0055 62.9535C28.0055 62.9535 18.1144 57.2766 16.7735 45.6962C16.7735 45.6962 16.0595 40.5242 17.47 38.6261C17.47 38.6261 21.5101 35.8049 23.7565 33.1928C23.7565 33.1928 27.4832 29.1353 29.0853 25.9312C29.0853 25.9312 30.4436 23.6325 33.2995 23.615C33.2995 23.615 28.1275 22.3264 26.0378 16.9455C26.0204 16.9803 22.3808 5.46953 32.7944 1.63843Z" fill="#ACACAC"/>
<path d="M1.01465 115.283C1.01465 115.283 0.857921 117.494 3.34814 117.494H16.6526V99.8711C16.6526 99.8711 16.5828 97.468 14.4061 95.3783C12.2293 93.2886 4.28846 85.0691 4.28846 85.0691C4.28846 85.0691 1.1714 86.9847 1.03209 90.9203L1.01465 115.283Z" fill="#111111" stroke="#494949" stroke-width="1.3" stroke-miterlimit="10"/>
<path d="M77.1491 115.283C77.1491 115.283 77.3058 117.494 74.8155 117.494H61.5112V99.8711C61.5112 99.8711 61.5808 97.468 63.7576 95.3783C65.9344 93.2886 73.8752 85.0691 73.8752 85.0691C73.8752 85.0691 76.9923 86.9847 77.1316 90.9203L77.1491 115.283Z" fill="#111111" stroke="#494949" stroke-width="1.3" stroke-miterlimit="10"/>
<path d="M16.6535 41.3944C16.6535 41.3944 14.9469 54.8381 27.9901 62.9705C27.9901 62.9705 37.3762 69.7794 50.4368 62.9705C50.4368 62.9705 62.4701 57.3457 61.5123 40.2625C61.5123 40.2625 62.888 35.7174 56.0617 31.9734C56.0617 31.9734 49.2701 26.4531 34.2417 23.7713C34.2417 23.7713 31.2117 22.9006 29.0698 25.9655C29.0698 25.9655 25.4998 33.0879 17.4545 38.6604C17.4545 38.6604 16.7231 39.357 16.6535 41.3944Z" stroke="#494949" stroke-width="1.3" stroke-miterlimit="10"/>
</svg>
