<svg width="71" height="127" viewBox="0 0 71 127" fill="none" xmlns="http://www.w3.org/2000/svg">
<path d="M67.8453 92.7418C65.7034 88.545 54.5932 84.4526 54.5932 84.4526C46.3912 95.8415 35.6118 94.9533 35.6118 94.9533C35.6118 94.9533 24.8324 95.8415 16.6304 84.4526C16.6304 84.4526 5.50275 88.545 3.37823 92.7418C3.37823 92.7418 1.23633 94.6225 1.23633 99.0457V122.363C1.23633 122.363 1.23632 125.341 4.38828 125.602H35.6292H66.8702C70.0221 125.358 70.0221 122.363 70.0221 122.363V99.0457C69.9699 94.6225 67.8453 92.7418 67.8453 92.7418Z" fill="#111111" stroke="#494949" stroke-width="1.3" stroke-miterlimit="10"/>
<path d="M47.1402 68.8674V77.2088C47.1402 77.2088 47.5233 82.1195 54.576 84.453C54.576 84.453 47.0879 95.4588 35.5946 94.9538C35.5946 94.9538 25.2507 96.1205 16.6133 84.453C16.6133 84.453 23.666 82.0847 24.1013 77.6615L24.1535 68.8674C24.1535 68.8674 27.2533 72.0194 36.2564 72.0194C36.2564 72.002 42.2294 72.4547 47.1402 68.8674Z" fill="#111111" stroke="#494949" stroke-width="1.3" stroke-miterlimit="10"/>
<path d="M12.4698 51.1928C12.4698 51.1928 3.98905 37.9058 13.0444 23.5218C22.1172 9.1551 38.5735 10.0432 43.3276 11.9066C43.3276 11.9066 63.7717 18.2104 62.2393 40.5353C62.2393 40.5353 61.299 47.7796 58.7217 50.5136C58.7217 50.5136 54.821 40.9707 29.9014 34.4578C29.9014 34.4578 28.5778 33.9528 26.0354 38.0974C26.0354 38.0974 21.9953 45.6203 14.037 48.5458C14.037 48.5807 12.6614 49.7823 12.4698 51.1928Z" fill="#E0E0E0"/>
<path d="M20.548 16.5442C20.548 16.5442 17.6225 4.42392 32.1633 0.888853C32.1633 0.888853 45.99 -1.87995 50.6222 11.0587C50.6222 11.0587 51.0576 15.2555 50.6222 16.6138C50.6222 16.6138 43.4302 11.2503 36.2556 11.7901C36.2556 11.7901 28.454 11.198 20.548 16.5442Z" fill="#ACACAC"/>
<path d="M67.6546 92.3416L57.1539 100.857C57.1539 100.857 54.7855 102.686 54.8378 107.387V125.603H66.8884C66.8884 125.603 69.4831 125.742 69.9881 122.364V98.8196C69.9707 98.8196 70.1449 95.389 67.6546 92.3416Z" fill="#111111" stroke="#494949" stroke-width="1.3" stroke-miterlimit="10"/>
<path d="M3.57044 92.3416L14.2453 100.857C14.2453 100.857 16.6659 102.686 16.5963 107.387V125.603H4.3541C4.3541 125.603 1.70716 125.742 1.20215 122.364V98.8196C1.21956 98.8196 1.0454 95.389 3.57044 92.3416Z" fill="#111111" stroke="#494949" stroke-width="1.3" stroke-miterlimit="10"/>
<path d="M12.47 51.1917C12.47 51.1917 13.6367 63.1378 24.1548 68.8496C24.1548 68.8496 34.8993 75.8153 47.1415 68.8496C47.1415 68.8496 57.3984 63.4687 58.7219 50.53C58.7219 50.53 58.391 45.5495 38.3299 36.8424C38.3299 36.8424 34.0461 34.9617 29.9016 34.4741C29.9016 34.4741 28.4561 33.8646 26.0356 38.1137C26.0356 38.1137 22.3264 43.9126 19.4531 45.1316C19.4531 45.1316 16.6319 47.3432 14.0372 48.5622C14.0372 48.5796 12.3307 50.2688 12.47 51.1917Z" stroke="#494949" stroke-width="1.3" stroke-miterlimit="10"/>
</svg>
