<svg width="76" height="113" viewBox="0 0 76 113" fill="none" xmlns="http://www.w3.org/2000/svg">
<path d="M23.1018 66.4319C23.1018 66.4319 20.3504 67.7205 12.4618 69.4097C4.55578 71.0989 3.26708 74.7384 3.26708 74.7384C1.00324 76.8281 1.12518 83.4977 1.12518 83.4977V108.783C1.87398 111.36 5.04335 111.883 5.04335 111.883H38.1128H71.1822C71.1822 111.883 74.3515 111.378 75.1003 108.783V83.4977C75.1003 83.4977 75.2049 76.8281 72.9584 74.7384C72.9584 74.7384 71.6697 71.1163 63.7637 69.4097C55.8577 67.7205 53.1237 66.4319 53.1237 66.4319" fill="#111111"/>
<path d="M23.1018 66.4319C23.1018 66.4319 20.3504 67.7205 12.4618 69.4097C4.55578 71.0989 3.26708 74.7384 3.26708 74.7384C1.00324 76.8281 1.12518 83.4977 1.12518 83.4977V108.783C1.87398 111.36 5.04335 111.883 5.04335 111.883H38.1128H71.1822C71.1822 111.883 74.3515 111.378 75.1003 108.783V83.4977C75.1003 83.4977 75.2049 76.8281 72.9584 74.7384C72.9584 74.7384 71.6697 71.1163 63.7637 69.4097C55.8577 67.7205 53.1237 66.4319 53.1237 66.4319" stroke="#494949" stroke-width="1.3" stroke-miterlimit="10"/>
<path d="M25.7652 62.4779L23.5014 65.6995C23.5014 65.6995 22.77 66.2567 24.1457 68.2768C25.5214 70.2968 28.4296 76.2699 28.4296 76.2699C28.4296 76.2699 29.5615 78.5337 32.2259 77.3147L38.1118 72.5606L28.0291 63.0351C28.0291 63.0351 27.0538 62.06 25.7652 62.4779Z" fill="#111111" stroke="#494949" stroke-width="1.3" stroke-miterlimit="10"/>
<path d="M50.4585 62.4779L52.7223 65.6995C52.7223 65.6995 53.4537 66.2567 52.078 68.2768C50.7023 70.2968 47.7941 76.2699 47.7941 76.2699C47.7941 76.2699 46.6622 78.5337 43.9978 77.3147L38.1118 72.5606L48.1946 63.0351C48.1946 63.0351 49.1698 62.06 50.4585 62.4779Z" fill="#111111" stroke="#494949" stroke-width="1.3" stroke-miterlimit="10"/>
<path d="M27.0723 56.8714V62.3743L38.1129 72.5615L48.1956 63.036C48.1956 63.036 48.8748 62.4439 49.4146 62.4091V56.5928C49.4146 56.5928 43.6332 60.6677 35.5356 59.5183C35.5356 59.5009 30.6073 58.9785 27.0723 56.8714Z" fill="#111111" stroke="#494949" stroke-width="1.3" stroke-miterlimit="10"/>
<path d="M58.8704 0.519043H30.7118C30.7118 0.519043 19.0444 1.14596 20.037 12.9876C20.037 12.9876 20.1414 18.1421 27.6121 19.0651C27.6121 19.0651 55.736 17.7242 60.6816 31.3246C60.6816 31.3246 62.1792 24.9162 63.6942 20.406C63.7116 20.4234 67.9084 2.99185 58.8704 0.519043Z" fill="#E0E0E0"/>
<path d="M22.5081 4.33319C22.5081 4.33319 13.7488 3.91524 12.3034 14.7642C12.3034 14.7642 11.0833 27.4391 15.4369 35.38C15.4369 35.38 15.99 31.6437 17.0175 30.1113C17.0175 30.1113 19.2516 25.6829 27.6278 19.0655C27.6278 19.0655 20.8538 18.5257 20.0527 12.988C20.0353 12.988 19.5303 7.45032 22.5081 4.33319Z" fill="#ACACAC"/>
<path d="M3.26701 74.738C3.26701 74.738 1.10768 76.1835 1.10768 84.0895V108.452C1.10768 108.452 1.00319 111.081 5.02585 111.865H16.1535V94.0852C16.1535 94.0852 16.1534 88.1121 12.2875 83.9153L3.26701 74.738Z" fill="#111111" stroke="#494949" stroke-width="1.3" stroke-miterlimit="10"/>
<path d="M72.9588 74.738C72.9588 74.738 75.1181 76.1835 75.1181 84.0895V108.452C75.1181 108.452 75.2226 111.081 71.1999 111.865H60.0723V94.0852C60.0723 94.0852 60.0723 88.1121 63.9383 83.9153L72.9588 74.738Z" fill="#111111" stroke="#494949" stroke-width="1.3" stroke-miterlimit="10"/>
<path d="M34.5957 75.3998V78.8478C34.5957 78.8478 34.7176 79.823 36.5809 79.823H40.0463C40.0463 79.823 41.8225 79.823 41.9793 78.7781V75.6959L38.1134 72.5613L34.5957 75.3998Z" fill="#ACACAC"/>
<path d="M35.9366 79.8049L34.5957 111.864H41.9793L40.4469 79.8049H35.9366Z" fill="#ACACAC"/>
<path d="M16.171 32.9272C16.171 32.9272 12.4618 48.1819 27.7862 57.3069C27.7862 57.3069 42.0484 64.586 52.8974 53.7544C52.8974 53.7544 61.9875 47.1371 60.6988 31.325C60.6988 31.325 58.1216 18.7346 27.6294 19.0655C27.6294 19.0655 14.8824 28.8871 16.171 32.9272Z" stroke="#494949" stroke-width="1.3" stroke-miterlimit="10"/>
</svg>
