<svg width="52" height="28" viewBox="0 0 52 28" fill="none" xmlns="http://www.w3.org/2000/svg">
    <path d="M9.55378 11.812H8.08978V16H9.55378C10.8918 16 11.7618 15.178 11.7618 13.912C11.7618 12.64 10.8918 11.812 9.55378 11.812ZM8.92978 15.286V12.52H9.52378C10.4058 12.52 10.9038 13.042 10.9038 13.912C10.9038 14.782 10.4058 15.286 9.52378 15.286H8.92978ZM13.8186 13.312C14.2506 13.312 14.5986 13.588 14.6106 14.026H13.0326C13.0986 13.57 13.4166 13.312 13.8186 13.312ZM15.3966 14.956H14.4906C14.3826 15.178 14.1846 15.358 13.8246 15.358C13.4046 15.358 13.0686 15.082 13.0266 14.59H15.4566C15.4746 14.482 15.4806 14.374 15.4806 14.266C15.4806 13.276 14.8026 12.622 13.8426 12.622C12.8586 12.622 12.1746 13.288 12.1746 14.338C12.1746 15.382 12.8766 16.054 13.8426 16.054C14.6646 16.054 15.2166 15.568 15.3966 14.956ZM15.7397 12.676L16.9637 16H17.9837L19.2137 12.676H18.3197L17.4797 15.226L16.6397 12.676H15.7397Z"
          fill="white"/>
    <path d="M37.1836 13.894C37.1836 12.64 36.2356 11.752 35.0416 11.752C33.8596 11.752 32.8936 12.64 32.8936 13.894C32.8936 15.154 33.8596 16.042 35.0416 16.042C36.2296 16.042 37.1836 15.154 37.1836 13.894ZM33.7576 13.894C33.7576 13.042 34.2796 12.508 35.0416 12.508C35.7976 12.508 36.3196 13.042 36.3196 13.894C36.3196 14.746 35.7976 15.292 35.0416 15.292C34.2796 15.292 33.7576 14.746 33.7576 13.894ZM38.6485 13.156V12.676H37.8085V17.584H38.6485V15.526C38.8525 15.796 39.2245 16.054 39.7465 16.054C40.5985 16.054 41.2645 15.364 41.2645 14.326C41.2645 13.288 40.5985 12.622 39.7465 12.622C39.2305 12.622 38.8465 12.874 38.6485 13.156ZM40.4065 14.326C40.4065 14.956 39.9805 15.316 39.5245 15.316C39.0745 15.316 38.6485 14.968 38.6485 14.338C38.6485 13.708 39.0745 13.36 39.5245 13.36C39.9805 13.36 40.4065 13.696 40.4065 14.326ZM44.4549 15.052C44.4309 13.834 42.5889 14.212 42.5889 13.606C42.5889 13.414 42.7509 13.288 43.0629 13.288C43.3929 13.288 43.5969 13.462 43.6209 13.72H44.4249C44.3769 13.06 43.8909 12.622 43.0869 12.622C42.2649 12.622 41.7729 13.066 41.7729 13.618C41.7729 14.836 43.6509 14.458 43.6509 15.052C43.6509 15.244 43.4709 15.394 43.1409 15.394C42.8049 15.394 42.5709 15.202 42.5409 14.95H41.6949C41.7309 15.568 42.3129 16.054 43.1469 16.054C43.9569 16.054 44.4549 15.622 44.4549 15.052Z"
          fill="white"/>
    <path d="M22.976 5.6157C20.1464 2.11682 16.9326 0.716772 12.4887 1.04694C5.73675 1.54857 0.87058 7.36516 1.00262 14.2456C1.13184 20.9788 5.5 26.1476 12.4887 26.9366C16.9845 27.4441 21.9745 24.8591 23.976 20.8448C25.454 17.8806 25.8406 15.8998 25.9736 13.2302C26.241 7.86292 30.4681 1.04694 37.9578 1.04694C44.7277 1.04694 50.2785 5.87406 50.942 12.7227C51.6724 20.2611 45.4008 27.3065 37.9578 26.9366C34.0376 26.7417 31.4741 25.4388 28.9687 22.3678"
          stroke="white" stroke-linecap="round"/>
</svg>
