<svg width="60" height="60" viewBox="0 0 60 60" fill="none" xmlns="http://www.w3.org/2000/svg">
<path d="M21.8657 44.4871C20.3691 46.3187 17.5897 46.5342 15.9862 44.8103C14.4896 43.3019 14.4896 40.7162 15.9862 39.2078M38.435 39.2078C39.9316 37.6994 42.4972 37.6994 43.9938 39.2078C45.4903 40.7162 45.4903 43.3019 43.9938 44.8103M29.5624 25.2014L36.9384 17.5518L38.5419 19.1679C39.504 20.1376 41.1075 19.5989 41.2144 18.306L42.6041 8.71706C42.8179 7.10095 41.5351 5.80806 39.9316 6.02354C37.4729 6.34676 39.3971 6.13128 30.5245 7.42417C29.2417 7.63965 28.7072 9.25577 29.6693 10.1177L31.3797 11.8416C9.67916 34.2517 10.6412 33.282 10.5344 33.3898C8.07567 35.8678 6.89978 39.1 7.00668 42.3323C7.00668 42.44 7.00668 42.871 7.00668 42.871C7.22048 45.6722 8.39637 48.3658 10.4275 50.5206C15.3448 55.4767 23.0415 54.8302 27.852 49.7664L30.4176 47.1806C33.9452 54.6148 43.78 56.3386 49.5525 50.5206C54.1492 45.8877 54.1492 38.2381 49.5525 33.6052C44.8489 28.8646 37.366 28.9724 32.7694 33.6052L29.4555 36.8375C28.4934 34.8981 27.1037 33.1743 25.2864 31.9891C24.7519 31.6659 24.3243 31.3427 23.6829 31.1272L29.5624 25.2014Z" stroke="white" stroke-miterlimit="10" stroke-linecap="round"/>
<path d="M23.7897 31.1273C19.5137 29.0802 14.2757 29.8344 10.6411 33.2821" stroke="white" stroke-miterlimit="10"/>
<path d="M30.4175 47.1838C38.4349 39.1033 38.328 39.211 38.328 39.211Z" fill="#B9DCFF"/>
<path d="M30.4175 47.1838C38.4349 39.1033 38.328 39.211 38.328 39.211" stroke="white" stroke-miterlimit="10"/>
<path d="M25.2865 31.9922C27.1038 33.1773 28.4935 34.9012 29.4556 36.8405L21.8657 44.4902" stroke="white" stroke-miterlimit="10"/>
</svg>
