<svg width="100" height="100" viewBox="0 0 100 100" fill="none" xmlns="http://www.w3.org/2000/svg">
<path d="M24.9884 75V65.3105C27.4862 65.3028 29.9446 64.6867 32.1509 63.5156C34.3572 62.3445 36.245 60.6536 37.651 58.5891C39.0571 56.5246 39.9392 54.1487 40.2209 51.6668C40.5026 49.1849 40.1755 46.6717 39.2679 44.3446C38.5393 42.3677 37.3888 40.5732 35.8964 39.0858C34.4041 37.5985 32.6057 36.4541 30.6263 35.7321C28.299 34.8269 25.7864 34.5017 23.3054 34.7844C20.8244 35.0672 18.4494 35.9494 16.3855 37.355C14.3215 38.7606 12.6307 40.6474 11.4588 42.8524C10.2869 45.0574 9.66913 47.5145 9.6589 50.0116H0C0.00991124 46.0486 0.959023 42.1444 2.76951 38.6192C4.57999 35.0939 7.20028 32.048 10.4155 29.7312C13.6307 27.4144 17.3493 25.8927 21.2663 25.2908C25.1834 24.689 29.1873 25.0242 32.9497 26.2689C36.6544 27.4386 40.0228 29.4832 42.7703 32.2299C45.5177 34.9766 47.5633 38.3445 48.734 42.0488C49.9791 45.8116 50.3145 49.8159 49.7126 53.7334C49.1108 57.6508 47.5888 61.3698 45.2717 64.5852C42.9545 67.8007 39.9081 70.4211 36.3823 72.2315C32.8565 74.0418 28.9518 74.9906 24.9884 75V75Z" fill="white"/>
<path fill-rule="evenodd" clip-rule="evenodd" d="M25.0158 55.7064V65.3675H15.3547V55.7064H25.0158Z" fill="white"/>
<path fill-rule="evenodd" clip-rule="evenodd" d="M15.3546 65.3674V72.7619H7.96021V65.3674H15.3546Z" fill="white"/>
<path fill-rule="evenodd" clip-rule="evenodd" d="M7.9596 65.3666H1.75488V59.1604H7.9596V65.3666Z" fill="white"/>
</svg>
