<svg width="60" height="60" viewBox="0 0 60 60" fill="none" xmlns="http://www.w3.org/2000/svg">
<path d="M38.1044 41.1102H21.5815C19.9083 41.1102 18.5488 39.7478 18.5488 38.0709V21.512C18.5488 19.8351 19.9083 18.4727 21.5815 18.4727H38.1044C39.7776 18.4727 41.1371 19.8351 41.1371 21.512V38.0709C41.1371 39.7478 39.7776 41.1102 38.1044 41.1102Z" stroke="white" stroke-miterlimit="10"/>
<path d="M9.86933 25.2822C10.6779 25.2822 11.3334 24.6252 11.3334 23.8149C11.3334 23.0046 10.6779 22.3477 9.86933 22.3477C9.06075 22.3477 8.40527 23.0046 8.40527 23.8149C8.40527 24.6252 9.06075 25.2822 9.86933 25.2822Z" fill="white"/>
<path d="M49.9216 37.3329C50.7301 37.3329 51.3856 36.676 51.3856 35.8657C51.3856 35.0553 50.7301 34.3984 49.9216 34.3984C49.113 34.3984 48.4575 35.0553 48.4575 35.8657C48.4575 36.676 49.113 37.3329 49.9216 37.3329Z" fill="white"/>
<path d="M7.987 44.1454C8.79558 44.1454 9.45105 43.4885 9.45105 42.6782C9.45105 41.8678 8.79558 41.2109 7.987 41.2109C7.17843 41.2109 6.52295 41.8678 6.52295 42.6782C6.52295 43.4885 7.17843 44.1454 7.987 44.1454Z" fill="white"/>
<path d="M51.6994 18.4697C52.508 18.4697 53.1634 17.8127 53.1634 17.0024C53.1634 16.1921 52.508 15.5352 51.6994 15.5352C50.8908 15.5352 50.2354 16.1921 50.2354 17.0024C50.2354 17.8127 50.8908 18.4697 51.6994 18.4697Z" fill="white"/>
<path d="M35.9089 11.2392C36.7175 11.2392 37.3729 10.5823 37.3729 9.77194C37.3729 8.9616 36.7175 8.30469 35.9089 8.30469C35.1003 8.30469 34.4448 8.9616 34.4448 9.77194C34.4448 10.5823 35.1003 11.2392 35.9089 11.2392Z" fill="white"/>
<path d="M23.8825 51.3798C24.6911 51.3798 25.3466 50.7229 25.3466 49.9126C25.3466 49.1022 24.6911 48.4453 23.8825 48.4453C23.0739 48.4453 22.4185 49.1022 22.4185 49.9126C22.4185 50.7229 23.0739 51.3798 23.8825 51.3798Z" fill="white"/>
<path d="M17.0851 9.35247C17.8937 9.35247 18.5492 8.69556 18.5492 7.88522C18.5492 7.07488 17.8937 6.41797 17.0851 6.41797C16.2766 6.41797 15.6211 7.07488 15.6211 7.88522C15.6211 8.69556 16.2766 9.35247 17.0851 9.35247Z" fill="white"/>
<path d="M42.7062 53.1611C43.5148 53.1611 44.1703 52.5042 44.1703 51.6938C44.1703 50.8835 43.5148 50.2266 42.7062 50.2266C41.8977 50.2266 41.2422 50.8835 41.2422 51.6938C41.2422 52.5042 41.8977 53.1611 42.7062 53.1611Z" fill="white"/>
<path d="M29.8434 36.2884C30.0525 36.2884 30.2617 36.3932 30.3662 36.498C30.8891 37.0221 31.6211 37.3365 32.3532 37.3365C33.7126 37.3365 34.7584 36.3932 34.863 35.2404C34.863 35.0308 35.0721 34.8212 35.2813 34.6116C36.1179 34.0876 36.6408 33.2491 36.6408 32.4107C36.6408 31.7819 36.327 31.1531 35.9087 30.629C35.595 30.3146 35.595 29.8954 35.9087 29.581C36.4316 29.057 36.6408 28.533 36.6408 27.7993C36.6408 26.6465 35.8042 25.7033 34.5492 25.2841C34.1309 25.1793 33.9218 24.76 34.0264 24.3408C34.0264 24.236 34.0264 24.0264 34.0264 23.9216C34.0264 22.8736 33.0852 22.0352 31.9349 22.0352C31.3074 22.0352 30.7845 22.2448 30.3662 22.664C30.0525 22.9784 29.6342 22.9784 29.3205 22.664C28.9022 22.2448 28.3793 22.0352 27.7519 22.0352C26.6015 22.0352 25.6604 22.8736 25.6604 23.9216C25.6604 24.0264 25.6604 24.1312 25.6604 24.3408C25.7649 24.76 25.5558 25.0745 25.1375 25.1793C23.8826 25.4937 23.046 26.5417 23.046 27.6945C23.046 28.2186 23.2551 28.7426 23.5689 29.2666C23.778 29.581 23.778 29.8954 23.5689 30.2098C23.1506 30.7338 22.9414 31.2579 22.9414 31.8867C22.9414 32.8299 23.4643 33.7731 24.3009 34.2972C24.51 34.402 24.6146 34.7164 24.6146 34.926C24.6146 36.1836 25.7649 37.1269 27.1244 37.1269C27.8564 37.1269 28.5885 36.8124 29.1113 36.2884C29.4251 36.2884 29.6342 36.2884 29.8434 36.2884Z" stroke="white" stroke-miterlimit="10"/>
<path d="M17.8169 8.41016L23.2548 14.384C23.5685 14.6984 23.7777 15.2224 23.7777 15.6416V18.4713" stroke="white" stroke-miterlimit="10"/>
<path d="M51.2809 17.7383L45.3201 23.2929C45.0064 23.6073 44.4835 23.8169 44.0652 23.8169H41.2417" stroke="white" stroke-miterlimit="10"/>
<path d="M41.9741 51.065L36.4316 45.0912C36.1178 44.7768 35.9087 44.2528 35.9087 43.8336V41.0039" stroke="white" stroke-miterlimit="10"/>
<path d="M8.30078 41.841L14.2616 36.3912C14.5753 36.0768 15.0982 35.8672 15.5165 35.8672H18.34" stroke="white" stroke-miterlimit="10"/>
<path d="M11.0195 23.8164H18.5489" stroke="white" stroke-miterlimit="10"/>
<path d="M35.9087 10.9258V18.4716" stroke="white" stroke-miterlimit="10"/>
<path d="M48.6665 35.8672H41.3462" stroke="white" stroke-miterlimit="10"/>
<path d="M23.7778 41.1094V48.6552" stroke="white" stroke-miterlimit="10"/>
<path d="M14.8887 26.8555H18.5488" stroke="white" stroke-miterlimit="10" stroke-linecap="round"/>
<path d="M14.8887 32.8281H18.5488" stroke="white" stroke-miterlimit="10" stroke-linecap="round"/>
<path d="M6.52295 29.7891H18.5491" stroke="white" stroke-miterlimit="10" stroke-linecap="round"/>
<path d="M45.1113 26.8555H41.4512" stroke="white" stroke-miterlimit="10" stroke-linecap="round"/>
<path d="M45.1113 32.8281H41.4512" stroke="white" stroke-miterlimit="10" stroke-linecap="round"/>
<path d="M53.4773 29.7891H41.4512" stroke="white" stroke-miterlimit="10" stroke-linecap="round"/>
<path d="M32.876 45.09V41.4219" stroke="white" stroke-miterlimit="10" stroke-linecap="round"/>
<path d="M26.915 45.09V41.4219" stroke="white" stroke-miterlimit="10" stroke-linecap="round"/>
<path d="M29.9478 53.4743V41.4219" stroke="white" stroke-miterlimit="10" stroke-linecap="round"/>
<path d="M32.876 14.9102V18.5783" stroke="white" stroke-miterlimit="10" stroke-linecap="round"/>
<path d="M26.915 14.9102V18.5783" stroke="white" stroke-miterlimit="10" stroke-linecap="round"/>
<path d="M29.9478 6.52344V18.5758" stroke="white" stroke-miterlimit="10" stroke-linecap="round"/>
<path d="M29.9478 27.4844V36.2879" stroke="white" stroke-miterlimit="10" stroke-linecap="round"/>
<path d="M33.0851 28.3236C32.7714 28.2187 32.0393 28.1139 31.2027 28.4284C30.4707 28.7428 30.0524 29.2668 29.8433 29.4764" stroke="white" stroke-miterlimit="10" stroke-linecap="round"/>
<path d="M27.5425 31.2578C27.8562 31.2578 28.1699 31.3626 28.5882 31.677C29.3203 32.0962 29.634 32.6203 29.8431 32.9347" stroke="white" stroke-miterlimit="10" stroke-linecap="round"/>
</svg>
