<svg width="80" height="80" viewBox="0 0 80 80" fill="none" xmlns="http://www.w3.org/2000/svg">
    <path d="M45.2245 37.728H53.5021V30.2075H45.2245V37.728ZM35.3703 37.728H43.6479V30.2075H35.3703V37.728ZM25.7131 37.728H33.9907V30.2075H25.7138L25.7131 37.728ZM16.0559 37.728H24.1372V30.2075H16.0566L16.0559 37.728ZM6.20166 37.728H14.4793V30.2075H6.20241L6.20166 37.728ZM16.0559 28.6243H24.1372V21.1038H16.0566L16.0559 28.6243ZM25.7131 28.6243H33.9907V21.1038H25.7138L25.7131 28.6243ZM35.3703 28.6243H43.6479V21.1038H35.3703V28.6243ZM35.3703 19.5205H43.6479V12H35.3703V19.5205ZM79.91 34.3638C79.91 34.3638 76.3629 30.9995 69.0709 32.1871C68.2823 26.4491 62.1729 23.0834 62.1729 23.0834C62.1729 23.0834 56.459 30.0105 60.5941 37.7303C58.6978 38.676 56.6031 39.1504 54.4862 39.1135H0.290049C-0.695596 42.8741 -0.695597 67.8102 26.5017 67.8102C46.0124 67.8102 60.5963 58.7064 67.4943 42.0821C77.7425 42.8741 79.91 34.3638 79.91 34.3638Z"
          fill="white"/>
</svg>
