<svg width="60" height="60" viewBox="0 0 60 60" fill="none" xmlns="http://www.w3.org/2000/svg">
<path d="M36.9913 49.8263H33.7565L32.8174 45.6523H21.4434L20.5043 49.8263H17.2695V54.0002H36.9913V49.8263Z" stroke="white" stroke-miterlimit="10"/>
<path d="M34.1739 17.3711H8.4C7.04348 17.3711 6 18.4146 6 19.7711V43.2494C6 44.6059 7.04348 45.6494 8.4 45.6494H45.9652C47.3217 45.6494 48.3652 44.6059 48.3652 43.2494V37.0928" stroke="white" stroke-miterlimit="10"/>
<path d="M36.9917 8.29565V31.9826C36.9917 33.2348 38.0352 34.2783 39.2874 34.2783H51.7047C52.9569 34.2783 54.0004 33.2348 54.0004 31.9826V8.29565C54.0004 7.04348 52.9569 6 51.7047 6H39.2874C38.0352 6 36.9917 7.04348 36.9917 8.29565Z" stroke="white" stroke-miterlimit="10"/>
</svg>
