<svg width="60" height="60" viewBox="0 0 60 60" fill="none" xmlns="http://www.w3.org/2000/svg">
<path d="M54.0004 54C53.8004 54 53.7004 54 53.5004 54C49.9004 54 44.3004 54 40.8004 54C40.3004 54 40.2004 53.9 40.2004 53.4C40.2004 50.4 40.2004 48.4 40.2004 45.4C40.2004 44.4 40.0004 44.2 39.0004 44.2C36.4004 44.2 37.9004 44.2 35.3004 44.2C34.5004 44.2 34.2004 44.5 34.2004 45.3C34.2004 48.3 34.2004 50.4 34.2004 53.4C34.2004 53.6 34.2004 53.8 34.2004 54C30.2004 54 24.3004 54 20.4004 54C20.4004 38 20.4004 22 20.4004 6C31.6004 6 42.8004 6 54.0004 6C54.0004 22 54.0004 38 54.0004 54Z" stroke="white" stroke-miterlimit="10"/>
<path d="M18.6 54C14.4 54 10.2 54 6 54C6 41.3 6 28.7 6 16C10.2 16 14.4 16 18.6 16C18.6 28.7 18.6 41.3 18.6 54Z" stroke="white" stroke-miterlimit="10"/>
<path d="M45.6001 26.1008C45.6001 25.0008 45.6001 23.9008 45.6001 22.8008C46.7001 22.8008 47.8001 22.8008 48.9001 22.8008C48.9001 23.9008 48.9001 25.0008 48.9001 26.1008C47.8001 26.1008 46.7001 26.1008 45.6001 26.1008Z" stroke="white" stroke-miterlimit="10"/>
<path d="M48.9001 37.1984C47.8001 37.1984 46.7001 37.1984 45.6001 37.1984C45.6001 36.0984 45.6001 34.9984 45.6001 33.8984C46.7001 33.8984 47.8001 33.8984 48.9001 33.8984C48.9001 34.9984 48.9001 36.0984 48.9001 37.1984Z" stroke="white" stroke-miterlimit="10"/>
<path d="M45.6001 11.6992C46.7001 11.6992 47.8001 11.6992 48.9001 11.6992C48.9001 12.7992 48.9001 13.8992 48.9001 14.9992C47.8001 14.9992 46.7001 14.9992 45.6001 14.9992C45.6001 13.9992 45.6001 12.8992 45.6001 11.6992Z" stroke="white" stroke-miterlimit="10"/>
<path d="M48.9001 44.9023C48.9001 46.0023 48.9001 47.1023 48.9001 48.2023C47.8001 48.2023 46.7001 48.2023 45.6001 48.2023C45.6001 47.1023 45.6001 46.0023 45.6001 44.9023C46.7001 44.9023 47.7001 44.9023 48.9001 44.9023Z" stroke="white" stroke-miterlimit="10"/>
<path d="M35.5 22.8008C36.6 22.8008 37.7 22.8008 38.8 22.8008C38.8 23.9008 38.8 25.0008 38.8 26.1008C37.7 26.1008 36.6 26.1008 35.5 26.1008C35.5 25.0008 35.5 23.9008 35.5 22.8008Z" stroke="white" stroke-miterlimit="10"/>
<path d="M35.6006 33.8008C36.7006 33.8008 37.8006 33.8008 38.9006 33.8008C38.9006 34.9008 38.9006 36.0008 38.9006 37.1008C37.8006 37.1008 36.8006 37.1008 35.6006 37.1008C35.6006 36.1008 35.6006 35.0008 35.6006 33.8008Z" stroke="white" stroke-miterlimit="10"/>
<path d="M38.8 15.1008C37.7 15.1008 36.6 15.1008 35.5 15.1008C35.5 14.0008 35.5 12.9008 35.5 11.8008C36.6 11.8008 37.6 11.8008 38.8 11.8008C38.8 12.9008 38.8 13.9008 38.8 15.1008Z" stroke="white" stroke-miterlimit="10"/>
<path d="M25.5 22.8008C26.6 22.8008 27.7 22.8008 28.8 22.8008C28.8 23.9008 28.8 25.0008 28.8 26.1008C27.7 26.1008 26.6 26.1008 25.5 26.1008C25.5 25.0008 25.5 23.9008 25.5 22.8008Z" stroke="white" stroke-miterlimit="10"/>
<path d="M28.8 44.9023C28.8 46.0023 28.8 47.1023 28.8 48.2023C27.7 48.2023 26.6 48.2023 25.5 48.2023C25.5 47.1023 25.5 46.0023 25.5 44.9023C26.6 44.9023 27.7 44.9023 28.8 44.9023Z" stroke="white" stroke-miterlimit="10"/>
<path d="M28.8 37.1984C27.7 37.1984 26.6 37.1984 25.5 37.1984C25.5 36.0984 25.5 34.9984 25.5 33.8984C26.6 33.8984 27.7 33.8984 28.8 33.8984C28.8 34.9984 28.8 36.0984 28.8 37.1984Z" stroke="white" stroke-miterlimit="10"/>
<path d="M14.4006 37.1984C13.3006 37.1984 12.2006 37.1984 11.1006 37.1984C11.1006 36.0984 11.1006 34.9984 11.1006 33.8984C12.2006 33.8984 13.3006 33.8984 14.4006 33.8984C14.4006 34.9984 14.4006 36.0984 14.4006 37.1984Z" stroke="white" stroke-miterlimit="10"/>
<path d="M11.1006 26.1008C11.1006 25.0008 11.1006 23.9008 11.1006 22.8008C12.2006 22.8008 13.3006 22.8008 14.4006 22.8008C14.4006 23.9008 14.4006 25.0008 14.4006 26.1008C13.3006 26.1008 12.2006 26.1008 11.1006 26.1008Z" stroke="white" stroke-miterlimit="10"/>
<path d="M14.4006 44.9023C14.4006 46.0023 14.4006 47.1023 14.4006 48.2023C13.3006 48.2023 12.2006 48.2023 11.1006 48.2023C11.1006 47.1023 11.1006 46.0023 11.1006 44.9023C12.2006 44.9023 13.3006 44.9023 14.4006 44.9023Z" stroke="white" stroke-miterlimit="10"/>
<path d="M28.8 15.1008C27.7 15.1008 26.6 15.1008 25.5 15.1008C25.5 14.0008 25.5 12.9008 25.5 11.8008C26.6 11.8008 27.6 11.8008 28.8 11.8008C28.8 12.9008 28.8 13.9008 28.8 15.1008Z" stroke="white" stroke-miterlimit="10"/>
</svg>
