<svg width="100" height="100" viewBox="0 0 100 100" fill="none" xmlns="http://www.w3.org/2000/svg">
    <g clip-path="url(#clip0_49:105)">
        <path d="M33.6745 100C42.8745 100 50.3411 92.5334 50.3411 83.3334V66.6666H33.6745C24.4745 66.6666 17.0078 74.1333 17.0078 83.3334C17.0078 92.5334 24.4745 100 33.6745 100Z"
              fill="#0ACF83"/>
        <path d="M17.0078 50C17.0078 40.8 24.4745 33.3334 33.6745 33.3334H50.3411V66.6666H33.6745C24.4745 66.6666 17.0078 59.2 17.0078 50Z"
              fill="#A259FF"/>
        <path d="M17.0078 16.6667C17.0078 7.46667 24.4745 0 33.6745 0H50.3411V33.3333H33.6745C24.4745 33.3333 17.0078 25.8667 17.0078 16.6667Z"
              fill="#F24E1E"/>
        <path d="M50.3398 0H67.0065C76.2066 0 83.6732 7.46667 83.6732 16.6667C83.6732 25.8667 76.2066 33.3333 67.0065 33.3333H50.3398V0Z"
              fill="#FF7262"/>
        <path d="M83.6732 50C83.6732 59.2 76.2066 66.6666 67.0065 66.6666C57.8065 66.6666 50.3398 59.2 50.3398 50C50.3398 40.8 57.8065 33.3334 67.0065 33.3334C76.2066 33.3334 83.6732 40.8 83.6732 50Z"
              fill="#1ABCFE"/>
    </g>
    <defs>
        <clipPath id="clip0_49:105">
            <rect width="66.68" height="100" fill="white" transform="translate(17)"/>
        </clipPath>
    </defs>
</svg>
