<svg width="80" height="80" viewBox="0 0 80 80" fill="none" xmlns="http://www.w3.org/2000/svg">
    <path d="M47.3895 31.3861L41.1857 37.1577L35.4297 25.5433L38.4076 18.8681C39.1825 17.5124 40.3908 17.528 41.1464 18.8681L47.3895 31.3861Z"
          fill="#EDEDED"/>
    <path d="M35.4279 25.5461L41.184 37.1606L18 58.7242L35.4279 25.5461Z" fill="#D5D5D5"/>
    <path d="M54.1728 22.5634C55.2805 21.4981 56.427 21.8621 56.7199 23.3708L62.755 58.4377L42.7507 70.4462C41.9283 70.7484 41.0679 70.9348 40.1942 71C39.3917 70.9159 38.6048 70.7202 37.8564 70.4187L18 58.7243L54.1728 22.5634Z"
          fill="white"/>
    <path d="M35.4339 25.5475L18.0078 58.7242L25.7689 10.2351C26.0555 8.72461 26.9154 8.57912 27.6828 9.91166L35.4339 25.5475Z"
          fill="#A4A4A4"/>
</svg>
