<svg width="44" height="37" viewBox="0 0 44 37" fill="none" xmlns="http://www.w3.org/2000/svg">
    <path fill-rule="evenodd" clip-rule="evenodd"
          d="M34.0031 4.58486C33.1764 4.33852 32.2535 4.3428 31.2047 4.70999C23.7939 7.30471 19.3036 6.33343 15.297 5.46677C13.8762 5.15944 12.5163 4.86527 11.1084 4.74793C9.58744 4.62115 8.27716 5.20443 7.12276 6.33364C5.95289 7.47798 4.96646 9.16534 4.15961 11.1608C2.54726 15.1485 1.73117 20.1658 1.49818 23.8937C1.31018 26.9017 1.43934 28.7782 1.90402 30.0569C2.33769 31.2502 3.0842 31.9757 4.35029 32.6187C5.77323 33.0102 6.80027 32.776 7.74581 32.2158C8.60715 31.7055 9.38866 30.9379 10.326 30.0173C10.5055 29.841 10.6908 29.6591 10.8833 29.4723C12.0512 28.3396 13.4265 27.1006 15.2798 26.1524C17.1412 25.2 19.4523 24.5568 22.4853 24.5568C25.4995 24.5568 27.6778 25.1041 29.3568 25.9517C31.035 26.7989 32.1638 27.9215 33.1021 28.9804C33.3268 29.234 33.5365 29.4782 33.7373 29.7122C34.4 30.4841 34.9666 31.1442 35.661 31.6594C36.507 32.2871 37.5373 32.6824 39.1419 32.5755C40.1393 32.509 40.8222 32.0586 41.321 31.3825C41.8392 30.6799 42.165 29.7196 42.3551 28.6705C42.6661 26.9541 42.5861 25.2215 42.5448 24.3271C42.5352 24.1189 42.5276 23.9562 42.5276 23.8496C42.5276 23.8511 42.5271 23.8255 42.5215 23.7578C42.5165 23.6963 42.5087 23.6141 42.4976 23.5115C42.4754 23.3067 42.4413 23.0291 42.3941 22.6897C42.2998 22.0113 42.1542 21.0929 41.9499 20.0255C41.5409 17.8876 40.9002 15.1704 39.9732 12.5938C39.0406 10.0013 37.844 7.62543 36.3592 6.10633C35.6234 5.35349 34.8388 4.83387 34.0031 4.58486ZM43.7954 22.4949C43.8894 23.1708 43.9424 23.6728 43.9424 23.8496C43.9424 23.9097 43.9479 24.0209 43.9555 24.1746C43.9958 24.9902 44.0952 27.0023 43.7472 28.9227C43.5388 30.0728 43.1597 31.2731 42.4595 32.2223C41.7398 33.1979 40.6908 33.8902 39.2359 33.9871C37.3023 34.1159 35.9386 33.627 34.818 32.7956C33.9835 32.1765 33.2792 31.3543 32.5973 30.5582C32.4117 30.3416 32.2277 30.1268 32.0433 29.9187C31.1533 28.9144 30.1646 27.9443 28.7193 27.2146C27.2748 26.4854 25.3234 25.9716 22.4853 25.9716C19.6658 25.9716 17.5769 26.5663 15.9242 27.4119C14.2633 28.2616 13.01 29.3805 11.8683 30.4879C11.6948 30.6561 11.5222 30.8261 11.3497 30.9959C10.4173 31.9139 9.49004 32.8268 8.46698 33.4329C7.18776 34.1909 5.74455 34.4887 3.89896 33.9615L3.83586 33.9434L3.77714 33.9141C2.24701 33.1497 1.17079 32.1813 0.574346 30.5401C0.00220333 28.9657 -0.103092 26.8338 0.0861781 23.8055C0.324771 19.988 1.15923 14.8072 2.84801 10.6305C3.69173 8.54383 4.76852 6.65744 6.13347 5.32228C7.51388 3.972 9.21001 3.17003 11.226 3.33806C12.8594 3.47421 14.3395 3.79459 15.8286 4.1169C19.7492 4.96556 23.7316 5.82756 30.7372 3.37471C32.0457 2.91659 33.274 2.89138 34.4071 3.22901C35.5312 3.56397 36.515 4.24176 37.3709 5.11743C39.0696 6.85532 40.3497 9.46077 41.3045 12.1149C42.2649 14.7848 42.9223 17.5794 43.3395 19.7596C43.5484 20.8513 43.6979 21.7935 43.7954 22.4949Z"
          fill="white"/>
    <path fill-rule="evenodd" clip-rule="evenodd"
          d="M12.7796 10.8799C13.1703 10.8799 13.487 11.1966 13.487 11.5873V21.019C13.487 21.4096 13.1703 21.7264 12.7796 21.7264C12.389 21.7264 12.0723 21.4096 12.0723 21.019V11.5873C12.0723 11.1966 12.389 10.8799 12.7796 10.8799Z"
          fill="white"/>
    <path fill-rule="evenodd" clip-rule="evenodd"
          d="M7.35645 16.3029C7.35645 15.9122 7.67315 15.5955 8.06382 15.5955H17.4955C17.8862 15.5955 18.2029 15.9122 18.2029 16.3029C18.2029 16.6935 17.8862 17.0103 17.4955 17.0103H8.06382C7.67315 17.0103 7.35645 16.6935 7.35645 16.3029Z"
          fill="white"/>
    <path d="M32.5854 12.0588C32.5854 12.8401 31.952 13.4736 31.1706 13.4736C30.3893 13.4736 29.7559 12.8401 29.7559 12.0588C29.7559 11.2775 30.3893 10.644 31.1706 10.644C31.952 10.644 32.5854 11.2775 32.5854 12.0588Z"
          fill="white"/>
    <path d="M36.3578 15.8313C36.3578 16.6126 35.7244 17.246 34.9431 17.246C34.1617 17.246 33.5283 16.6126 33.5283 15.8313C33.5283 15.0499 34.1617 14.4165 34.9431 14.4165C35.7244 14.4165 36.3578 15.0499 36.3578 15.8313Z"
          fill="white"/>
    <path d="M32.5854 19.6042C32.5854 20.3856 31.952 21.019 31.1706 21.019C30.3893 21.019 29.7559 20.3856 29.7559 19.6042C29.7559 18.8229 30.3893 18.1895 31.1706 18.1895C31.952 18.1895 32.5854 18.8229 32.5854 19.6042Z"
          fill="white"/>
    <path d="M28.8129 15.8313C28.8129 16.6126 28.1795 17.246 27.3982 17.246C26.6168 17.246 25.9834 16.6126 25.9834 15.8313C25.9834 15.0499 26.6168 14.4165 27.3982 14.4165C28.1795 14.4165 28.8129 15.0499 28.8129 15.8313Z"
          fill="white"/>
</svg>
