<svg width="100" height="100" viewBox="0 0 100 100" fill="none" xmlns="http://www.w3.org/2000/svg">
    <g clip-path="url(#clip0)">
        <path d="M50.0293 96.2169L68.4293 39.5879H31.6289L50.0289 96.2169H50.0293Z" fill="white"/>
        <path d="M50.0289 96.2166L31.6285 39.5875H5.8418L50.0289 96.2166Z" fill="#F1F1F1"/>
        <path d="M5.84234 39.5875L0.250937 56.7969C0.00232544 57.562 0.00229115 58.3861 0.250839 59.1512C0.499386 59.9163 0.983756 60.583 1.63453 61.0559L50.0294 96.2169L5.84195 39.5879L5.84234 39.5875Z"
              fill="#E2E2E2"/>
        <path d="M5.8418 39.5879H31.6285L20.5469 5.48047C19.9766 3.72539 17.4937 3.72578 16.9238 5.48047L5.8418 39.5879Z"
              fill="white"/>
        <path d="M50.0297 96.2166L68.4297 39.5875H94.2168L50.0293 96.2166H50.0297Z" fill="#F1F1F1"/>
        <path d="M94.2163 39.5875L99.8077 56.7969C100.056 57.562 100.056 58.3862 99.8076 59.1513C99.559 59.9163 99.0745 60.5831 98.4237 61.0559L50.0293 96.2169L94.2163 39.5879V39.5875Z"
              fill="#E2E2E2"/>
        <path d="M94.2168 39.5879H68.4297L79.5117 5.48047C80.082 3.72539 82.5648 3.72578 83.1348 5.48047L94.2168 39.5879Z"
              fill="white"/>
    </g>
    <defs>
        <clipPath id="clip0">
            <rect width="100" height="92.2" fill="white" transform="translate(0 4)"/>
        </clipPath>
    </defs>
</svg>
