<svg width="80" height="80" viewBox="0 0 1339 500" fill="none" xmlns="http://www.w3.org/2000/svg">
<path d="M100.998 151.395C98.3915 151.395 97.7399 150.092 99.0431 148.137L112.727 130.544C114.03 128.589 117.288 127.286 119.894 127.286H352.515C355.122 127.286 355.773 129.24 354.47 131.195L343.393 148.137C342.09 150.092 338.832 152.046 336.877 152.046L100.998 151.395ZM2.6064 211.342C0 211.342 -0.651599 210.039 0.651599 208.084L14.3352 190.491C15.6384 188.536 18.8964 187.233 21.5028 187.233H318.632C321.239 187.233 322.542 189.188 321.89 191.142L316.677 206.781C316.026 209.387 313.419 210.69 310.813 210.69L2.6064 211.342ZM160.293 271.289C157.687 271.289 157.035 269.334 158.339 267.379L167.461 251.089C168.764 249.135 171.371 247.18 173.977 247.18H304.297C306.903 247.18 308.207 249.135 308.207 251.741L306.903 267.379C306.903 269.986 304.297 271.941 302.342 271.941L160.293 271.289ZM836.654 139.666C795.603 150.092 767.584 157.911 727.185 168.336C717.411 170.943 716.759 171.594 708.289 161.82C698.515 150.743 691.347 143.576 677.663 137.06C636.613 116.86 596.865 122.724 559.724 146.834C515.415 175.504 492.609 217.858 493.261 270.637C493.912 322.765 529.75 365.771 581.227 372.939C625.535 378.803 662.677 363.165 691.999 329.933C697.863 322.765 703.076 314.946 709.592 305.824H583.833C570.15 305.824 566.892 297.353 571.453 286.276C579.923 266.076 595.562 232.193 604.684 215.252C606.639 211.342 611.2 204.826 620.974 204.826H858.156C856.853 222.419 856.853 240.012 854.247 257.605C847.079 304.521 829.486 347.526 800.816 385.319C753.901 447.221 692.65 485.665 615.11 496.091C551.253 504.562 491.958 492.181 439.83 453.085C391.611 416.596 364.244 368.377 357.076 308.43C348.606 237.406 369.457 173.549 412.462 117.512C458.726 56.9128 519.976 18.4685 594.91 4.78487C656.161 -6.29232 714.805 0.87527 767.584 36.7132C802.119 59.5192 826.88 90.796 843.17 128.589C847.079 134.453 844.473 137.711 836.654 139.666Z" fill="white"/>
<path d="M1052.33 500C993.036 498.697 938.954 481.755 893.342 442.659C854.897 409.428 830.788 367.074 822.969 316.9C811.24 243.27 831.44 178.11 875.749 120.117C923.315 57.5639 980.656 24.984 1058.2 11.3004C1124.66 -0.428427 1187.21 6.08757 1243.9 44.5319C1295.38 79.7183 1327.31 127.285 1335.78 189.839C1346.86 277.805 1321.44 349.48 1260.84 410.731C1217.84 454.388 1165.06 481.755 1104.46 494.136C1086.87 497.394 1069.27 498.045 1052.33 500V500ZM1207.41 236.754C1206.76 228.283 1206.76 221.767 1205.46 215.251C1193.73 150.743 1134.43 114.253 1072.53 128.588C1011.93 142.272 972.837 180.716 958.502 241.967C946.773 292.791 971.534 344.268 1018.45 365.119C1054.29 380.757 1090.12 378.802 1124.66 361.209C1176.14 334.494 1204.15 292.791 1207.41 236.754V236.754Z" fill="white"/>
</svg>
