<svg width="100" height="100" viewBox="0 0 100 100" fill="none" xmlns="http://www.w3.org/2000/svg">
<path d="M6.4901 43.6905C6.3227 43.6905 6.2807 43.6071 6.3645 43.482L7.2438 42.3558C7.3276 42.2306 7.5369 42.1472 7.7044 42.1472H22.6526C22.8201 42.1472 22.8619 42.2723 22.7783 42.3975L22.0663 43.482C21.9826 43.6071 21.7733 43.7322 21.6477 43.7322L6.4901 43.6905ZM0.16749 47.5275C-4.61936e-07 47.5275 -0.0418703 47.4441 0.0418697 47.319L0.921179 46.1929C1.00492 46.0678 1.21429 45.9844 1.38173 45.9844H20.4752C20.6427 45.9844 20.7265 46.1095 20.6847 46.2346L20.3497 47.2355C20.3077 47.4024 20.1403 47.4858 19.9727 47.4858L0.16749 47.5275ZM10.3005 51.3647C10.133 51.3647 10.0911 51.2395 10.1748 51.1144L10.7611 50.0716C10.8447 49.9465 11.0123 49.8213 11.1797 49.8213H19.5542C19.7216 49.8213 19.8053 49.9465 19.8053 50.1133L19.7216 51.1144C19.7216 51.2812 19.5542 51.4064 19.4286 51.4064L10.3005 51.3647ZM53.7633 42.9397C51.1254 43.6071 49.3249 44.1076 46.7289 44.7749C46.1008 44.9417 46.0589 44.9834 45.5146 44.3578C44.8865 43.6488 44.4259 43.1899 43.5466 42.7728C40.9086 41.4799 38.3545 41.8553 35.9679 43.3985C33.1206 45.2336 31.655 47.9445 31.6969 51.3229C31.7387 54.6595 34.0418 57.4121 37.3495 57.871C40.1969 58.2463 42.5836 57.2453 44.4678 55.1183C44.8447 54.6595 45.1796 54.159 45.5984 53.575H37.517C36.6378 53.575 36.4284 53.0329 36.7215 52.3239C37.2659 51.031 38.2708 48.8622 38.857 47.7777C38.9825 47.5275 39.2757 47.1104 39.9037 47.1104H55.145C55.0613 48.2365 55.0613 49.3625 54.8938 50.4887C54.4333 53.4917 53.3027 56.2443 51.4603 58.6635C48.4455 62.6256 44.5097 65.0863 39.5269 65.7536C35.4234 66.2958 31.6132 65.5034 28.2635 63.0009C25.165 60.6653 23.4063 57.5789 22.9457 53.742C22.4013 49.1958 23.7413 45.1085 26.5048 41.5216C29.4777 37.6429 33.4137 35.1821 38.2289 34.3063C42.1648 33.5972 45.9334 34.056 49.3249 36.35C51.5442 37.8097 53.1351 39.8117 54.1821 42.2306C54.4333 42.606 54.2658 42.8145 53.7633 42.9397Z" fill="white"/>
<path d="M67.6235 66.0005C63.8132 65.9171 60.3379 64.8327 57.4067 62.3302C54.9364 60.2032 53.3871 57.4923 52.8847 54.2807C52.131 49.5678 53.4291 45.3971 56.2762 41.6851C59.3329 37.6812 63.0176 35.5959 68.0004 34.7199C72.2713 33.9692 76.291 34.3863 79.9338 36.8471C83.2416 39.0993 85.2934 42.1438 85.8377 46.1478C86.5496 51.7783 84.9166 56.3661 81.0225 60.2866C78.259 63.0809 74.8673 64.8327 70.9733 65.6252C69.8428 65.8337 68.7122 65.8754 67.6235 66.0005ZM77.5891 49.1506C77.5471 48.6085 77.5471 48.1914 77.4634 47.7743C76.7097 43.6454 72.8995 41.3097 68.9216 42.2273C65.0275 43.1032 62.5151 45.5639 61.5939 49.4843C60.8403 52.7376 62.4314 56.0324 65.4462 57.3671C67.7491 58.3681 70.0521 58.2429 72.2713 57.1168C75.5792 55.4068 77.3797 52.7376 77.5891 49.1506Z" fill="white"/>
</svg>
