<svg width="200" height="100" viewBox="0 0 200 100" fill="none" xmlns="http://www.w3.org/2000/svg">
    <path d="M93.9436 53.5905C93.9436 57.8528 90.5722 60.9936 86.4347 60.9936C82.2972 60.9936 78.9258 57.8528 78.9258 53.5905C78.9258 49.2982 82.2972 46.1875 86.4347 46.1875C90.5722 46.1875 93.9436 49.2982 93.9436 53.5905ZM90.6566 53.5905C90.6566 50.927 88.7026 49.1047 86.4347 49.1047C84.1668 49.1047 82.2128 50.927 82.2128 53.5905C82.2128 56.2273 84.1668 58.0764 86.4347 58.0764C88.7026 58.0764 90.6566 56.224 90.6566 53.5905Z"
          fill="white"/>
    <path d="M110.139 53.5905C110.139 57.8528 106.767 60.9936 102.63 60.9936C98.4925 60.9936 95.1211 57.8528 95.1211 53.5905C95.1211 49.3016 98.4925 46.1875 102.63 46.1875C106.767 46.1875 110.139 49.2982 110.139 53.5905ZM106.852 53.5905C106.852 50.927 104.898 49.1047 102.63 49.1047C100.362 49.1047 98.4081 50.927 98.4081 53.5905C98.4081 56.2273 100.362 58.0764 102.63 58.0764C104.898 58.0764 106.852 56.224 106.852 53.5905Z"
          fill="white"/>
    <path d="M125.662 46.6348V59.9255C125.662 65.3927 122.402 67.6256 118.548 67.6256C114.92 67.6256 112.737 65.2258 111.913 63.2632L114.775 62.085C115.285 63.2899 116.533 64.7118 118.545 64.7118C121.012 64.7118 122.54 63.2065 122.54 60.3727V59.308H122.426C121.69 60.2059 120.273 60.9902 118.484 60.9902C114.741 60.9902 111.312 57.766 111.312 53.6172C111.312 49.4384 114.741 46.1875 118.484 46.1875C120.269 46.1875 121.687 46.9719 122.426 47.843H122.54V46.6381H125.662V46.6348ZM122.773 53.6172C122.773 51.0105 121.015 49.1047 118.778 49.1047C116.51 49.1047 114.61 51.0105 114.61 53.6172C114.61 56.1973 116.51 58.0764 118.778 58.0764C121.015 58.0764 122.773 56.1973 122.773 53.6172Z"
          fill="white"/>
    <path d="M130.815 38.8447V60.5398H127.609V38.8447H130.815Z" fill="white"/>
    <path d="M143.307 56.0265L145.858 57.7087C145.034 58.9136 143.05 60.9897 139.621 60.9897C135.369 60.9897 132.193 57.7387 132.193 53.5866C132.193 49.1842 135.396 46.1836 139.253 46.1836C143.138 46.1836 145.038 49.2409 145.659 50.8931L146 51.7342L135.993 55.8329C136.759 57.3182 137.951 58.0758 139.621 58.0758C141.295 58.0758 142.456 57.2614 143.307 56.0265ZM135.453 53.363L142.142 50.6161C141.774 49.6915 140.667 49.0473 139.365 49.0473C137.694 49.0473 135.369 50.5059 135.453 53.363V53.363Z"
          fill="white"/>
    <path d="M66.7881 51.6646V48.5238H77.4896C77.5942 49.0712 77.6482 49.7187 77.6482 50.4196C77.6482 52.776 76.9969 55.6898 74.8978 57.7659C72.856 59.8686 70.2473 60.9901 66.7915 60.9901C60.3862 60.9901 55 55.83 55 49.4951C55 43.1601 60.3862 38 66.7915 38C70.3351 38 72.8594 39.3751 74.756 41.1675L72.5152 43.3837C71.1551 42.1221 69.3125 41.1408 66.7881 41.1408C62.1107 41.1408 58.4524 44.869 58.4524 49.4951C58.4524 54.1211 62.1107 57.8493 66.7881 57.8493C69.8221 57.8493 71.55 56.6444 72.6569 55.5496C73.5546 54.6618 74.1452 53.3935 74.3781 51.6612L66.7881 51.6646Z"
          fill="white"/>
</svg>
