<svg width="100" height="100" viewBox="0 0 100 100" fill="none" xmlns="http://www.w3.org/2000/svg">
<path d="M41.2277 38.8054L46.6163 33.3991L46.9751 31.1223C37.1553 22.162 21.5458 23.1795 12.6937 33.2402C10.2197 36.0913 8.4225 39.4682 7.4375 43.1169L9.36737 42.844L20.1445 41.0609L20.9766 40.2073C23.2824 37.6501 26.4736 36.0716 29.8993 35.7936C33.3251 35.5155 36.7276 36.5589 39.4131 38.7109L41.2277 38.8054Z" fill="white" fill-opacity="0.6"/>
<path d="M54.2936 42.9596C53.0546 38.3845 50.5117 34.2716 46.9768 31.1255L39.414 38.7132C40.9902 40.0055 42.2534 41.6399 43.1082 43.4933C43.963 45.3468 44.3872 47.3708 44.3487 49.4126V50.7567C46.1238 50.7567 47.8263 51.4642 49.0815 52.7236C50.3368 53.9829 51.0419 55.691 51.0419 57.472C51.0419 59.253 50.3368 60.9611 49.0815 62.2205C47.8263 63.4798 46.1238 64.1874 44.3487 64.1874H30.8712L29.5454 65.6291V73.7276L30.8688 74.9984H44.3462C48.1026 75.0411 51.7726 73.8668 54.8108 71.6501C57.849 69.4333 60.0933 66.2923 61.2103 62.6937C62.3274 59.0952 62.2575 55.2311 61.0111 51.6755C59.7647 48.12 57.4083 45.0627 54.2919 42.958" fill="white"/>
<path d="M17.4032 75.0001H30.8652V64.1874H17.4032C16.4502 64.1873 15.5085 63.9803 14.6428 63.5806L12.7332 64.1687L7.30651 69.575L6.83398 71.4151C9.87194 73.7367 13.5844 74.9956 17.4032 74.9992" fill="white" fill-opacity="0.6"/>
<path d="M17.4041 39.9244C13.7565 39.9463 10.2066 41.1106 7.25053 43.2548C4.29441 45.399 2.07962 48.416 0.915511 51.8844C-0.248601 55.3529 -0.303898 59.0995 0.757343 62.6009C1.81858 66.1024 3.94337 69.1839 6.83491 71.415L14.6437 63.5804C13.651 63.1308 12.7818 62.4462 12.1108 61.5853C11.4399 60.7245 10.9871 59.7131 10.7915 58.6381C10.5958 57.5631 10.6631 56.4565 10.9876 55.4133C11.312 54.3701 11.8839 53.4214 12.6542 52.6488C13.4245 51.8762 14.3702 51.3026 15.4101 50.9774C16.4499 50.6522 17.5529 50.585 18.6243 50.7816C19.6958 50.9781 20.7037 51.4327 21.5615 52.1061C22.4193 52.7795 23.1015 53.6517 23.5494 54.6478L31.3582 46.8133C29.7192 44.6635 27.6067 42.9232 25.186 41.7285C22.7652 40.5339 20.1019 39.9173 17.4041 39.9269" fill="white"/>
</svg>
