<svg width="60" height="60" viewBox="0 0 60 60" fill="none" xmlns="http://www.w3.org/2000/svg">
<path d="M30 0C13.4587 0 0 13.4587 0 30C0 46.5412 13.4587 60 30 60C46.5412 60 60 46.5412 60 30C60 13.4587 46.5412 0 30 0ZM30 58.75C14.1475 58.75 1.25 45.8525 1.25 30C1.25 14.1475 14.1475 1.25 30 1.25C45.8525 1.25 58.75 14.1475 58.75 30C58.75 45.8525 45.8525 58.75 30 58.75Z" fill="white"/>
<path d="M44.375 20H37.9875L37.33 17.3675C37.1616 16.6909 36.7715 16.0901 36.2219 15.661C35.6723 15.2319 34.9948 14.9992 34.2975 15H25.7013C25.0041 14.9993 24.3268 15.232 23.7774 15.6611C23.228 16.0902 22.8381 16.691 22.67 17.3675L22.0125 20H15.625C14.7965 20.001 14.0022 20.3306 13.4164 20.9164C12.8306 21.5022 12.501 22.2965 12.5 23.125V41.875C12.5 43.5975 13.9025 45 15.625 45H44.375C46.0975 45 47.5 43.5975 47.5 41.875V23.125C47.5 21.4025 46.0975 20 44.375 20ZM23.8825 17.67C23.9836 17.264 24.2178 16.9036 24.5477 16.6462C24.8775 16.3888 25.2841 16.2493 25.7025 16.25H34.2987C34.717 16.2498 35.1234 16.3894 35.4532 16.6467C35.783 16.904 36.0172 17.2642 36.1188 17.67L36.7 20H23.3L23.8825 17.67ZM13.75 23.125C13.75 22.0913 14.5912 21.25 15.625 21.25H44.375C45.4087 21.25 46.25 22.0913 46.25 23.125V27.6575L33.125 31.5463V30.625C33.125 30.4592 33.0592 30.3003 32.9419 30.1831C32.8247 30.0659 32.6658 30 32.5 30H27.5C27.3342 30 27.1753 30.0659 27.0581 30.1831C26.9408 30.3003 26.875 30.4592 26.875 30.625V31.5475L13.75 27.6575V23.125ZM30 35C29.8342 35 29.6753 35.0658 29.5581 35.1831C29.4408 35.3003 29.375 35.4592 29.375 35.625V36.25H28.125V33.75H31.875V36.25H30.625V35.625C30.625 35.4592 30.5592 35.3003 30.4419 35.1831C30.3247 35.0658 30.1658 35 30 35ZM31.875 32.3838V32.5H28.125V31.25H31.875V32.3838ZM44.375 43.75H15.625C14.5912 43.75 13.75 42.9088 13.75 41.875V28.9625L26.875 32.8513V36.875C26.875 37.0408 26.9408 37.1997 27.0581 37.3169C27.1753 37.4342 27.3342 37.5 27.5 37.5H32.5C32.6658 37.5 32.8247 37.4342 32.9419 37.3169C33.0592 37.1997 33.125 37.0408 33.125 36.875V32.8513L46.25 28.9625V41.875C46.25 42.9088 45.4087 43.75 44.375 43.75Z" fill="white"/>
</svg>
