<svg width="200" height="100" viewBox="0 0 200 100" fill="none" xmlns="http://www.w3.org/2000/svg">
    <path d="M67.6517 44.1787H65.3757C65.1547 44.1787 65 44.3578 65 44.5593V62.4921C65 62.716 65.1768 62.8951 65.3757 62.8951H67.6296C67.8506 62.8951 68.0053 62.716 68.0053 62.4921V44.5593C68.0274 44.3578 67.8506 44.1787 67.6517 44.1787Z"
          fill="white"/>
    <path d="M65.3971 41.0448H67.651C67.872 41.0448 68.0267 40.8657 68.0267 40.6642V38.3806C68.0267 38.1567 67.8499 38 67.651 38H65.3971C65.1761 38 65.0214 38.1791 65.0214 38.3806V40.6418C64.9993 40.8657 65.1761 41.0448 65.3971 41.0448Z"
          fill="white"/>
    <path d="M73.3087 59.8506H71.0768C70.8559 59.8506 70.7012 60.0297 70.7012 60.2312V62.4924C70.7012 62.7163 70.878 62.873 71.0768 62.873H73.3087C73.5297 62.873 73.6844 62.6939 73.6844 62.4924V60.2312C73.6844 60.0297 73.5076 59.8506 73.3087 59.8506Z"
          fill="white"/>
    <path d="M107.493 44.1787H102.786C102.565 44.1787 102.389 44.3578 102.389 44.5593V46.0369C101.416 44.9175 100.113 44.1787 98.5878 44.1787H92.7982C92.5772 44.1787 92.4004 44.3578 92.4004 44.5593V62.4921C92.4004 62.716 92.5772 62.8727 92.7982 62.8727H95.03C95.251 62.8727 95.4278 62.6936 95.4278 62.4921V47.2235H98.5878C100.09 47.2235 101.328 48.4772 101.328 49.9996V62.5145C101.328 62.7384 101.505 62.8951 101.704 62.8951H103.958C104.179 62.8951 104.333 62.716 104.333 62.5145V47.2235H107.471C108.974 47.2235 110.211 48.4772 110.211 49.9996V62.4921C110.211 62.716 110.388 62.8727 110.587 62.8727H112.841C113.062 62.8727 113.217 62.6936 113.217 62.4921V49.9996C113.239 46.7981 110.675 44.1787 107.493 44.1787Z"
          fill="white"/>
    <path d="M134.255 51.9921H126.919V44.5593C126.919 44.3354 126.742 44.1787 126.543 44.1787H124.289C124.068 44.1787 123.913 44.3578 123.913 44.5593V51.9698H116.577C116.356 51.9698 116.201 52.1489 116.201 52.3504V54.6339C116.201 54.8578 116.378 55.0369 116.577 55.0369H123.913V62.4698C123.913 62.6936 124.09 62.8504 124.289 62.8504H126.543C126.764 62.8504 126.919 62.6712 126.919 62.4698V55.0593H134.255C134.476 55.0593 134.631 54.8802 134.631 54.6563V52.3727C134.653 52.1712 134.476 51.9921 134.255 51.9921Z"
          fill="white"/>
    <path d="M83.6727 44.1787H77.0433C76.8224 44.1787 76.6677 44.3578 76.6677 44.5817V46.8429C76.6677 47.0668 76.8444 47.2235 77.0433 47.2235H83.6727C85.1753 47.2235 86.4128 48.4548 86.4128 49.9996V51.2309H81.0872C77.9272 51.2309 75.3418 53.8504 75.3418 57.0518V57.0742C75.3418 60.2981 77.9272 62.8951 81.0872 62.8951H89.0424C89.2634 62.8951 89.4181 62.716 89.4181 62.5145V50.022C89.4181 46.7981 86.8327 44.1787 83.6727 44.1787ZM86.4128 59.8504H81.0872C79.5846 59.8504 78.3692 58.5966 78.3471 57.0518C78.3471 55.5295 79.5625 54.2757 81.0872 54.2757H86.4128V59.8504Z"
          fill="white"/>
</svg>
