<svg width="200" height="100" viewBox="0 0 200 100" fill="none" xmlns="http://www.w3.org/2000/svg">
    <path d="M57.4 40.2002H52V59.1002H57.4V40.2002Z" fill="white"/>
    <path d="M70.3992 52.2996L66.7992 40.0996H59.1992V58.9996H64.3992V45.9996L68.1992 59.0996H72.3992L76.2992 45.8996V59.0996H81.4992V40.1996H73.8992L70.3992 52.2996Z"
          fill="white"/>
    <path d="M91.2992 40.2002H83.1992V59.1002H91.2992C97.7992 59.1002 101.199 55.0002 101.199 49.7002C101.199 44.4002 97.7992 40.2002 91.2992 40.2002ZM91.2992 54.3002H88.5992V45.0002H91.2992C94.1992 45.0002 95.6992 46.8002 95.6992 49.7002C95.7992 52.5002 94.2992 54.3002 91.2992 54.3002Z"
          fill="white"/>
    <path d="M102.199 59H117.299V54.2H107.499V51.6H114.799V47.4H107.499V44.8H117.399V40H102.199V59Z" fill="white"/>
    <path d="M117.4 59L135.8 37H142.5L124.1 59H117.4Z" fill="white"/>
    <path d="M129.199 54.2998L135.799 62.1998H142.499L132.499 50.2998L129.199 54.2998Z" fill="white"/>
    <path d="M124.1 40.2002H117.4L124.7 49.0002L128.1 44.9002L124.1 40.2002Z" fill="white"/>
    <path d="M144.999 37.3996H144.299V39.2996H143.899V37.3996H143.199V37.0996H144.999V37.3996Z" fill="white"/>
    <path d="M145.699 37L146.399 38.7L147.099 37H147.599V39.2H147.199V38.5L147.299 37.5L146.599 39.2H146.299L145.599 37.5L145.699 38.5V39.2H145.299V37H145.699Z"
          fill="white"/>
</svg>
