<svg width="60" height="60" viewBox="0 0 60 60" fill="none" xmlns="http://www.w3.org/2000/svg">
<path d="M28.2971 50.999C26.0263 50.775 23.642 50.551 21.3713 50.439C20.0088 50.327 19.214 49.6551 18.7599 48.5352C17.2839 45.5114 17.6245 42.4876 19.1005 39.4639C21.4848 34.9842 26.7075 32.5204 32.0438 33.3043C37.0395 33.9763 41.0133 37.784 42.0351 42.7116C42.4893 44.8394 42.1487 46.8553 41.1268 48.7592C40.6727 49.7671 39.8779 50.327 38.7425 50.327C36.3582 50.439 34.0875 50.663 31.7032 50.887C30.5678 50.999 29.4324 50.999 28.2971 50.999Z" stroke="white" stroke-miterlimit="10"/>
<path d="M15.9215 42.5886C12.9695 42.3646 9.90396 42.2526 6.83844 41.8047C6.04368 41.6927 5.36245 40.7967 4.9083 40.0128C4.45415 39.3408 4.22708 38.3329 4 37.549C4 36.6531 4 35.6451 4 34.7492C4.22708 34.0772 4.45415 33.2933 4.68123 32.6214C6.95198 26.5738 14.1049 23.3261 20.3494 25.5659" stroke="white" stroke-miterlimit="10"/>
<path d="M39.9912 25.4515C46.917 23.2116 54.0699 27.1313 55.773 34.0748C55.773 34.2988 56 34.5228 56 34.7468C56 35.6427 56 36.6506 56 37.5466C54.1834 42.6982 54.4105 41.8022 49.4148 42.2502C47.5982 42.4742 45.8952 42.2502 43.8515 42.2502" stroke="white" stroke-miterlimit="10"/>
<path d="M36.9263 16.0555C36.9263 11.9118 39.8782 9 43.9656 9C47.9394 9 50.8914 12.0238 50.8914 16.0555C50.8914 20.1992 47.9394 23.2229 43.8521 23.2229C39.7647 23.2229 36.9263 20.1992 36.9263 16.0555Z" stroke="white" stroke-miterlimit="10"/>
<path d="M23.0735 16.1675C23.0735 20.3111 20.1216 23.2229 16.0342 23.2229C12.0604 23.2229 9.1084 20.1992 9.1084 16.1675C9.1084 12.1358 12.0604 9 16.1477 9C20.1216 9 23.0735 12.0238 23.0735 16.1675Z" stroke="white" stroke-miterlimit="10"/>
<path d="M23.0745 24.3289C23.0745 20.1852 26.0264 17.2734 30.1138 17.2734C34.0876 17.2734 37.0396 20.4092 36.9261 24.4409C36.9261 28.4726 33.8605 31.4964 29.8867 31.3844C25.9129 31.4964 22.9609 28.4726 23.0745 24.3289Z" stroke="white" stroke-miterlimit="10"/>
</svg>
