<svg width="60" height="60" viewBox="0 0 60 60" fill="none" xmlns="http://www.w3.org/2000/svg">
<path d="M29.375 13.75C29 13.75 28.75 13.5 28.75 13.125V11.875C28.75 11.5 29 11.25 29.375 11.25C29.75 11.25 30 11.5 30 11.875V13.125C30 13.5 29.75 13.75 29.375 13.75Z" fill="white"/>
<path d="M43.75 28.125C43.375 28.125 43.125 27.875 43.125 27.5C43.125 19.875 37 13.75 29.375 13.75C21.75 13.75 15.625 19.875 15.625 27.5C15.625 27.875 15.375 28.125 15 28.125C14.625 28.125 14.375 27.875 14.375 27.5C14.375 19.25 21.125 12.5 29.375 12.5C37.625 12.5 44.375 19.25 44.375 27.5C44.375 27.875 44.125 28.125 43.75 28.125Z" fill="white"/>
<path d="M40 28.125C39.625 28.125 39.375 27.875 39.375 27.5C39.375 19.875 34.875 13.75 29.375 13.75C23.875 13.75 19.375 19.875 19.375 27.5C19.375 27.875 19.125 28.125 18.75 28.125C18.375 28.125 18.125 27.875 18.125 27.5C18.125 19.25 23.125 12.5 29.375 12.5C35.625 12.5 40.625 19.25 40.625 27.5C40.625 27.875 40.375 28.125 40 28.125Z" fill="white"/>
<path d="M33.75 28.125C33.375 28.125 33.125 27.875 33.125 27.5C33.125 19 31 13.75 29.375 13.75C27.75 13.75 25.625 19 25.625 27.5C25.625 27.875 25.375 28.125 25 28.125C24.625 28.125 24.375 27.875 24.375 27.5C24.375 20.25 26.125 12.5 29.375 12.5C32.625 12.5 34.375 20.25 34.375 27.5C34.375 27.875 34.125 28.125 33.75 28.125Z" fill="white"/>
<path d="M33.75 28.125C33.375 28.125 33.125 27.875 33.125 27.5C33.125 27 31.75 26.25 29.375 26.25C27 26.25 25.625 27 25.625 27.5C25.625 27.875 25.375 28.125 25 28.125C24.625 28.125 24.375 27.875 24.375 27.5C24.375 24.25 34.375 24.25 34.375 27.5C34.375 27.875 34.125 28.125 33.75 28.125Z" fill="white"/>
<path d="M25 28.125C24.625 28.125 24.375 27.875 24.375 27.5C24.375 26.875 23.25 26.25 21.875 26.25C20.5 26.25 19.375 26.875 19.375 27.5C19.375 27.875 19.125 28.125 18.75 28.125C18.375 28.125 18.125 27.875 18.125 27.5C18.125 26.125 19.75 25 21.875 25C24 25 25.625 26.125 25.625 27.5C25.625 27.875 25.375 28.125 25 28.125ZM40 28.125C39.625 28.125 39.375 27.875 39.375 27.5C39.375 26.875 38.25 26.25 36.875 26.25C35.5 26.25 34.375 26.875 34.375 27.5C34.375 27.875 34.125 28.125 33.75 28.125C33.375 28.125 33.125 27.875 33.125 27.5C33.125 26.125 34.75 25 36.875 25C39 25 40.625 26.125 40.625 27.5C40.625 27.875 40.375 28.125 40 28.125Z" fill="white"/>
<path d="M43.75 28.125C43.375 28.125 43.125 27.875 43.125 27.5C43.125 26.75 42.625 26.25 41.875 26.25C41.125 26.25 40.625 26.75 40.625 27.5C40.625 27.875 40.375 28.125 40 28.125C39.625 28.125 39.375 27.875 39.375 27.5C39.375 26.125 40.5 25 41.875 25C43.25 25 44.375 26.125 44.375 27.5C44.375 27.875 44.125 28.125 43.75 28.125ZM18.75 28.125C18.375 28.125 18.125 27.875 18.125 27.5C18.125 26.75 17.625 26.25 16.875 26.25C16.125 26.25 15.625 26.75 15.625 27.5C15.625 27.875 15.375 28.125 15 28.125C14.625 28.125 14.375 27.875 14.375 27.5C14.375 26.125 15.5 25 16.875 25C18.25 25 19.375 26.125 19.375 27.5C19.375 27.875 19.125 28.125 18.75 28.125ZM27.5 48.75C26.125 48.75 25 47.625 25 46.25C25 45.875 25.25 45.625 25.625 45.625C26 45.625 26.25 45.875 26.25 46.25C26.25 47 26.75 47.5 27.5 47.5C28.25 47.5 28.75 47 28.75 46.25V25.625C28.75 25.25 29 25 29.375 25C29.75 25 30 25.25 30 25.625V46.25C30 47.625 28.875 48.75 27.5 48.75Z" fill="white"/>
<path d="M30 60C13.5 60 0 46.5 0 30C0 13.5 13.5 0 30 0C46.5 0 60 13.5 60 30C60 46.5 46.5 60 30 60ZM30 1.25C14.125 1.25 1.25 14.125 1.25 30C1.25 45.875 14.125 58.75 30 58.75C45.875 58.75 58.75 45.875 58.75 30C58.75 14.125 45.875 1.25 30 1.25Z" fill="white"/>
</svg>
