<svg width="100" height="100" viewBox="0 0 100 100" fill="none" xmlns="http://www.w3.org/2000/svg">
    <path fill-rule="evenodd" clip-rule="evenodd"
          d="M85.2381 48.1874C85.2381 67.9998 69.5357 84.0611 50.1658 84.0611C30.7962 84.0611 15.0938 67.9998 15.0938 48.1874C15.0938 28.3745 30.7962 12.313 50.1658 12.313C69.5357 12.313 85.2381 28.3745 85.2381 48.1874Z"
          fill="white"/>
    <path d="M26.1404 23.715C19.9869 30.0112 16.179 38.7043 16.179 48.3214C16.179 57.9364 19.9869 66.6306 26.1404 72.9257C32.2968 79.2207 40.7813 83.1051 50.1613 83.1051C59.5415 83.1051 68.0266 79.2207 74.1825 72.9257C80.3356 66.6306 84.1443 57.9364 84.1443 48.3214C84.1443 38.7043 80.3356 30.0112 74.1825 23.715C68.0266 17.4212 59.5415 13.5368 50.1613 13.536C40.7813 13.5368 32.2968 17.4212 26.1404 23.715ZM24.5828 74.4485C18.043 67.7603 14 58.5172 14 48.3214C14 38.1239 18.043 28.8817 24.5828 22.1931C31.121 15.5033 40.1715 11.3567 50.1613 11.3579C60.1512 11.3567 69.2027 15.5033 75.7398 22.1931C82.2801 28.8817 86.3236 38.1247 86.3228 48.3214C86.3236 58.5172 82.2801 67.7603 75.7398 74.4485C69.2027 81.1379 60.1512 85.284 50.1613 85.284C40.1715 85.284 31.121 81.1379 24.5828 74.4485"
          fill="#111111"/>
    <path fill-rule="evenodd" clip-rule="evenodd"
          d="M64.9263 48.3863L59.5817 49.1879L52.3667 49.9896L47.6902 50.123L43.1477 49.9896L39.6737 48.9206L36.6006 45.5805L34.1957 38.7664L33.6613 37.2966L30.4547 36.228L28.5841 33.1548L27.248 28.7457L28.718 24.871L32.1915 23.6685L34.9973 25.0048L36.3337 27.9441L37.937 27.6767L38.4712 27.009L37.937 23.9358L37.8031 20.061L38.6048 14.7168L38.5734 11.6641L41.0097 7.76928L45.2853 4.69614L52.7676 1.48952L61.0511 2.692L68.266 7.90275L71.6065 13.247L73.7441 17.1218L74.2784 26.7416L72.6751 35.0255L69.7358 42.3739L66.9301 46.2487"
          fill="#111111"/>
    <path fill-rule="evenodd" clip-rule="evenodd"
          d="M60.3848 71.5004L41.2785 72.302V75.5086L42.8818 86.7318L42.0801 87.6673L28.7194 83.1244L27.7839 81.521L26.4479 66.4235L23.3753 57.338L22.707 55.2003L33.3955 47.852L36.736 46.5156L39.6752 50.1231L42.2137 52.3946L45.1533 53.3297L46.4892 53.7305L48.0925 60.678L49.295 62.1478L52.3682 61.0789L50.2302 65.221L61.8543 70.6987L60.3848 71.5004"
          fill="#111111"/>
    <path fill-rule="evenodd" clip-rule="evenodd"
          d="M28.7202 24.8708L32.1938 23.6684L34.9996 25.0047L36.336 27.944L37.9393 27.6766L38.3401 26.0733L37.5384 23.0006L38.3401 15.6518L37.6718 11.6435L40.0768 8.83776L45.2875 4.69601L43.8178 2.69188L36.4694 6.29932L33.3963 8.70428L31.6594 12.4452L28.9872 16.0526L28.1855 20.3283L28.7202 24.8708Z"
          fill="#111111"/>
    <path fill-rule="evenodd" clip-rule="evenodd"
          d="M34.4629 36.3615L36.2123 34.6664C36.2123 34.6664 37.0019 34.7582 37.1353 35.6933C37.2687 36.6288 37.6695 45.0462 43.4146 49.5892C43.9387 50.0036 39.1394 48.9206 39.1394 48.9206L34.8637 42.2404"
          fill="#111111"/>
    <path fill-rule="evenodd" clip-rule="evenodd"
          d="M35.7956 27.8107C35.7956 27.8107 30.7183 24.7375 30.1841 27.6772C29.6497 30.6165 28.4469 32.7545 30.9857 35.8272L29.2489 35.2929L27.6455 31.1512L27.1113 27.1429L30.1841 23.9359L33.658 24.2032L35.6621 25.8065L35.7956 27.8107Z"
          fill="#111111"/>
    <path fill-rule="evenodd" clip-rule="evenodd"
          d="M38.2002 19.3931C38.2002 19.3931 40.4716 7.63567 51.9622 5.36419C61.4222 3.49433 66.3917 5.76501 68.2623 7.90262C68.2623 7.90262 59.845 -2.11765 51.8283 0.955093C43.8118 4.02823 37.9333 9.63981 38.0667 13.2468C38.2942 19.3907 38.2002 19.3931 38.2002 19.3931Z"
          fill="#111111"/>
    <path fill-rule="evenodd" clip-rule="evenodd"
          d="M69.1997 9.23867C69.1997 9.23867 65.3253 9.1052 65.1914 12.5792C65.1914 12.5792 65.191 13.1135 65.4584 13.6478C65.4584 13.6478 68.5319 10.1738 70.4022 12.0445"
          fill="white"/>
    <path fill-rule="evenodd" clip-rule="evenodd"
          d="M52.2307 14.0096C52.2307 14.0096 51.5637 8.67743 47.0176 11.7774C44.0782 13.7816 44.3457 16.5873 44.8799 17.1216C45.4143 17.6563 45.269 18.7326 45.6758 17.9938C46.0824 17.2551 45.9485 14.8502 47.4184 14.1824C48.8882 13.5142 51.2975 12.7679 52.2307 14.0096Z"
          fill="white"/>
    <path fill-rule="evenodd" clip-rule="evenodd"
          d="M39.6752 50.1231L27.1161 55.7346C27.1161 55.7346 32.3269 76.4442 29.6545 82.8574L27.7839 82.1896L27.6503 74.3065L24.1769 59.3425L22.707 55.2003L35.8004 46.3826L39.6752 50.1231Z"
          fill="#111111"/>
    <path fill-rule="evenodd" clip-rule="evenodd"
          d="M61.5879 71.6342L66.5313 71.5006L67.7338 83.7929L62.6565 84.4607L61.5879 71.6342" fill="#111111"/>
    <path fill-rule="evenodd" clip-rule="evenodd"
          d="M62.916 71.6342L70.3982 71.2334C70.3982 71.2334 73.471 63.4841 73.471 63.0833C73.471 62.6825 76.1433 51.8602 76.1433 51.8602L70.1309 45.5809L68.9284 44.5119L65.7218 47.7185V60.1441L62.916 71.6342"
          fill="#111111"/>
    <path fill-rule="evenodd" clip-rule="evenodd"
          d="M66.2639 70.699L61.5879 71.6342L62.2557 75.3755C63.9925 76.1772 66.9321 74.0392 66.9321 74.0392"
          fill="#111111"/>
    <path fill-rule="evenodd" clip-rule="evenodd"
          d="M66.3926 47.3177L75.7451 54.2653L76.0124 51.0586L68.931 44.5119L66.3926 47.3177Z" fill="#111111"/>
    <path fill-rule="evenodd" clip-rule="evenodd"
          d="M45.6488 97.9565L42.8826 86.7317L41.5068 78.4495L41.2793 72.302L53.799 71.6355L61.5881 71.6342L60.8799 85.6644L62.0824 96.4867L61.9489 98.4909L51.7949 99.2925L45.6488 97.9565"
          fill="white"/>
    <path fill-rule="evenodd" clip-rule="evenodd"
          d="M59.8479 71.5007C59.8479 71.5007 59.1801 85.3962 61.1842 95.283C61.1842 95.283 57.176 97.8218 51.2969 98.4896L62.5202 98.0888L63.8561 97.2871L62.2528 75.3755L61.852 70.6987"
          fill="#111111"/>
    <path fill-rule="evenodd" clip-rule="evenodd"
          d="M67.9594 82.725L73.1702 81.2553L83.057 80.7209L84.5268 76.1784L81.8545 68.2953L78.7818 67.8944L74.5062 69.2305L70.4041 71.2333L68.2264 70.8338L66.5293 71.5006"
          fill="white"/>
    <path fill-rule="evenodd" clip-rule="evenodd"
          d="M67.8672 80.0516C67.8672 80.0516 71.3408 78.4486 71.8755 78.5822L70.406 71.2334L72.1428 70.5656C72.1428 70.5656 73.3453 77.5131 73.3453 78.3147C73.3453 78.3147 80.8271 78.7156 81.4953 78.7156C81.4953 78.7156 83.0986 75.6425 82.6978 72.4359L84.1676 76.7114L84.3011 79.1164L82.1635 82.323L79.7585 82.8574L75.7503 82.7238L74.4143 80.9871L69.7378 81.6549L68.268 82.1896"
          fill="#111111"/>
    <path d="M46.8454 50.392L43.144 49.9896L39.6699 48.9206V50.1231L41.3673 51.9949L46.7116 54.3999" fill="white"/>
    <path fill-rule="evenodd" clip-rule="evenodd"
          d="M40.8793 50.7923C40.8793 50.7923 45.0215 52.5295 46.3575 52.1287L46.4904 53.7304L42.7501 52.9304L40.4785 51.327L40.8793 50.7923Z"
          fill="#111111"/>
    <path fill-rule="evenodd" clip-rule="evenodd"
          d="M67.9419 57.2596C65.6748 57.1931 63.6266 56.9237 61.8333 56.4179C61.9551 55.6828 61.7271 54.9613 61.9102 54.4318C62.4101 54.0719 63.2478 54.0775 64.0034 53.9929C63.35 53.6718 62.4321 53.5448 61.6782 53.7304C61.6605 53.2201 61.4317 52.9039 61.293 52.5046C62.5676 52.0497 65.5766 49.0671 67.2693 50.0548C68.0758 50.5245 68.4185 53.2077 68.481 54.5124C68.5331 55.5946 68.3828 56.6865 67.9419 57.2596Z"
          fill="#111111"/>
    <path fill-rule="evenodd" clip-rule="evenodd"
          d="M57.1041 53.5537C57.0981 53.7252 57.0909 53.898 57.0841 54.0712C56.3762 54.5361 55.2335 54.5305 54.4567 54.9213C55.6018 54.9714 56.5033 55.2472 57.2833 55.636C57.2661 56.0681 57.2496 56.4998 57.2328 56.9319C55.9353 57.8201 54.7501 59.1428 53.2225 59.9758C52.5002 60.3697 49.9653 61.3834 49.1968 61.2042C48.762 61.1033 48.7229 60.5637 48.5491 60.0551C48.1788 58.9661 47.3262 57.2325 47.2519 55.5931C47.1571 53.5224 46.9481 50.0521 49.1796 50.4785C50.9799 50.8221 53.0737 51.6514 54.4675 52.4129C55.3193 52.8787 55.8119 53.4543 57.1041 53.5537"
          fill="#111111"/>
    <path fill-rule="evenodd" clip-rule="evenodd"
          d="M58.3872 56.0245C58.1892 54.8966 57.9603 54.5747 58.0489 53.5907C61.0571 51.5849 61.6219 57.0358 58.3872 56.0245Z"
          fill="#111111"/>
    <path d="M58.3872 56.0245C58.1892 54.8966 57.9603 54.5747 58.0489 53.5907C61.0571 51.5849 61.6219 57.0358 58.3872 56.0245Z"
          stroke="white" stroke-width="2.5"/>
    <path fill-rule="evenodd" clip-rule="evenodd"
          d="M52.2352 14.0097C48.5936 13.1616 46.7841 15.5337 45.6803 17.994C44.6947 17.7551 45.0869 16.4147 45.3358 15.7317C45.9877 13.9392 48.6145 11.5531 50.7608 11.8765C51.6844 12.0156 52.9343 12.8602 52.2352 14.0097"
          fill="white"/>
    <path fill-rule="evenodd" clip-rule="evenodd"
          d="M69.9776 18.1567C70.0349 18.1591 70.093 18.1611 70.1504 18.1635C70.9733 19.873 71.6855 21.684 72.7237 23.1931C72.0282 24.8128 67.4576 26.2462 67.5282 23.3378C68.5166 22.9057 70.2229 23.2496 71.0991 22.6977C70.5925 21.3072 69.8614 20.1235 69.9776 18.1567"
          fill="white"/>
    <path fill-rule="evenodd" clip-rule="evenodd"
          d="M54.0976 18.2013C54.8784 19.6326 55.1325 21.1366 56.2424 22.2184C56.7423 22.7054 57.7143 23.299 57.2325 24.6534C57.1198 24.9729 56.2969 25.6851 55.822 25.825C54.0868 26.3373 50.0436 25.9308 51.4128 23.7676C52.8478 23.8345 54.7766 24.6995 55.8492 23.6577C55.0255 22.341 53.557 19.7361 54.0976 18.2013"
          fill="white"/>
    <path fill-rule="evenodd" clip-rule="evenodd"
          d="M69.3218 32.7487C66.7092 34.4269 63.796 36.2519 59.5152 35.8286C58.6005 35.0334 58.2518 33.2637 59.1404 32.0949C59.603 32.8902 59.3124 34.3528 60.6014 34.5728C63.0305 34.9885 65.8575 33.087 67.6047 32.4224C68.6881 30.5958 67.5113 29.9241 66.5353 28.7484C64.5372 26.3399 61.8568 23.3545 61.9542 19.7487C62.7619 19.163 62.8316 20.6425 62.9475 20.9119C63.9908 23.3537 66.6166 26.4765 68.533 28.5665C69.0036 29.0811 69.7784 29.5749 69.8645 29.9152C70.1131 30.9049 69.218 32.0905 69.3218 32.7487"
          fill="white"/>
    <path fill-rule="evenodd" clip-rule="evenodd"
          d="M34.8859 30.9819C34.067 30.5146 33.8721 28.4559 32.9107 28.3974C31.5368 28.314 31.7873 31.0681 31.7928 32.6786C30.8471 31.8201 30.6808 29.1766 31.3756 27.819C30.5838 27.4302 30.2302 28.2479 29.791 28.5361C30.3555 24.4356 35.7894 26.6342 34.8859 30.9819Z"
          fill="white"/>
    <path fill-rule="evenodd" clip-rule="evenodd"
          d="M70.9873 34.4562C69.7711 36.771 68.0508 39.3203 64.4822 39.3944C64.4097 38.6469 64.354 37.5093 64.4862 37.0592C67.2143 36.7971 68.8985 35.4086 70.9873 34.4562Z"
          fill="white"/>
    <path fill-rule="evenodd" clip-rule="evenodd"
          d="M53.8906 35.9569C56.1667 37.1538 60.3497 37.2825 63.4433 37.1919C63.6092 37.8697 63.6052 38.707 63.6116 39.5335C59.635 39.7319 54.9333 38.7479 53.8906 35.9569Z"
          fill="white"/>
    <path fill-rule="evenodd" clip-rule="evenodd"
          d="M53.4586 38.1888C55.0326 42.1406 60.4421 41.6856 65.0039 41.5766C64.8031 42.0897 64.3678 42.6957 63.8267 42.915C62.3649 43.5098 58.333 43.9611 56.3036 42.8833C55.0165 42.1991 54.1896 40.6531 53.4845 39.7468C53.1439 39.3091 51.4482 38.1912 53.4586 38.1888"
          fill="white"/>
    <path fill-rule="evenodd" clip-rule="evenodd"
          d="M69.1415 59.9869C67.2945 63.1503 65.5273 66.3994 63.3359 69.1896C64.2546 66.4884 64.6478 61.9674 64.7865 58.5207C66.7085 57.6213 68.3543 58.7232 69.1415 59.9869Z"
          fill="#111111"/>
    <path fill-rule="evenodd" clip-rule="evenodd"
          d="M79.0753 71.3565C77.0075 71.7705 75.5545 73.7802 73.5371 73.6512C74.6458 72.0883 76.5886 71.4294 79.0753 71.3565Z"
          fill="#111111"/>
    <path fill-rule="evenodd" clip-rule="evenodd"
          d="M79.9841 74.5927C78.2986 74.7707 76.3189 75.0436 74.6094 74.903C75.4186 73.6669 78.5367 74.0934 79.9841 74.5927Z"
          fill="#111111"/>
    <path fill-rule="evenodd" clip-rule="evenodd"
          d="M80.5727 77.3828C78.6784 77.4239 76.324 77.3861 74.5234 77.235C75.5884 76.0911 79.3442 76.8106 80.5727 77.3828Z"
          fill="#111111"/>
    <path fill-rule="evenodd" clip-rule="evenodd"
          d="M65.5696 85.0182C65.8414 87.3972 66.7845 89.8076 66.6663 92.413C65.6189 92.7662 65.0173 93.0751 63.614 93.0732C63.515 90.859 63.2188 87.474 63.3073 85.3633C63.9976 85.409 65.0153 84.8702 65.5696 85.0182Z"
          fill="#111111"/>
    <path fill-rule="evenodd" clip-rule="evenodd"
          d="M62.5169 49.9572C61.5657 50.578 60.7557 51.3532 59.8422 52.0162C57.8164 52.1164 56.7109 51.8759 55.2227 50.7127C55.2471 50.6193 55.3966 50.661 55.4022 50.5464C57.5707 51.5128 60.3272 50.1528 62.5169 49.9572"
          fill="#111111"/>
    <path fill-rule="evenodd" clip-rule="evenodd"
          d="M51.1328 64.7387C51.7286 62.157 54.0631 60.8199 56.183 59.3981C58.3711 62.1752 59.7019 65.7464 61.1673 69.1927C57.705 68.149 54.1673 66.4555 51.1328 64.7387Z"
          fill="#111111"/>
    <path fill-rule="evenodd" clip-rule="evenodd"
          d="M63.3138 85.3633C63.2252 87.4741 63.5214 90.859 63.6204 93.0733C65.0237 93.0752 65.6253 92.7663 66.6727 92.413C66.7909 89.8077 65.8478 87.3972 65.576 85.0182C65.0217 84.8703 64.004 85.409 63.3138 85.3633V85.3633ZM41.463 73.3591C42.3884 81.8658 43.7286 89.0168 46.1868 96.5497C51.6426 98.2062 58.2196 98.3506 63.042 96.8558C62.1566 92.6042 62.5434 87.4281 62.0259 82.891C61.6359 79.4809 61.8347 76.0497 61.3 72.5706C55.4567 71.3549 47.1975 72.2864 41.463 73.3591V73.3591ZM62.6816 72.6239C62.6323 76.2774 62.8452 79.8812 63.1242 83.5393C64.5271 83.3287 65.479 83.1881 66.7825 82.9023C66.3592 79.3807 66.4113 75.418 65.5492 72.3028C64.5527 72.3123 63.6753 72.2912 62.6816 72.6239V72.6239ZM69.7983 72.035C69.1326 71.8824 68.3574 72.0291 67.7212 72.0415C68.0203 75.0196 68.7458 78.306 69.0011 81.4321C70.0019 81.4633 70.5366 80.9912 71.3599 80.8324C71.404 78.0883 71.1203 74.3077 69.7983 72.035V72.035ZM80.5742 81.8805C82.6605 81.3739 83.9724 78.8186 83.3888 76.1944C82.9972 74.4308 82.2997 71.1099 81.5534 69.9816C81.0018 69.1471 79.5063 68.0545 78.3123 68.8192C76.3699 70.063 72.948 70.4241 71.5315 71.9297C72.2418 74.2945 72.4622 77.5428 72.7552 80.5393C75.1818 80.6906 78.1676 79.8715 80.1858 80.7407C78.7768 81.1971 76.9487 81.2007 75.7314 81.8658C76.7262 82.3463 79.0554 82.2492 80.5742 81.8805V81.8805ZM61.1729 69.1928C59.7075 65.7465 58.3768 62.1752 56.1887 59.3982C54.0687 60.8199 51.7342 62.157 51.1384 64.7388C54.1729 66.4556 57.7106 68.1491 61.1729 69.1928ZM64.7852 58.5208C64.6465 61.9674 64.2533 66.4884 63.3346 69.1897C65.5259 66.3994 67.2932 63.1503 69.1402 59.9869C68.3529 58.7232 66.7072 57.6213 64.7852 58.5208V58.5208ZM60.6903 57.0658C59.8602 56.9764 59.1556 58.0201 58.0761 57.5688C57.8288 57.8422 57.604 58.1384 57.3519 58.4053C59.736 61.2785 60.8194 65.3549 62.6608 68.7314C63.6488 65.4879 63.535 61.9345 63.7527 58.3945C62.3951 58.4807 61.6419 57.1668 60.6903 57.0658ZM58.0573 53.5906C57.9687 54.5746 58.1976 54.8965 58.3956 56.0244C61.6303 57.0357 61.0655 51.5849 58.0573 53.5906ZM54.4703 52.413C53.0765 51.6514 50.9827 50.8221 49.1824 50.4786C46.9509 50.0517 47.16 53.5225 47.2547 55.5931C47.329 57.2325 48.1816 58.9661 48.5519 60.0552C48.7257 60.5637 48.7648 61.1033 49.1996 61.2043C49.9681 61.3834 52.503 60.3697 53.2253 59.9758C54.7529 59.1429 55.9381 57.8201 57.2356 56.9319C57.2525 56.4998 57.2689 56.0681 57.2861 55.636C56.5061 55.2472 55.6047 54.9714 54.4595 54.9213C55.2363 54.5305 56.379 54.5361 57.0869 54.0712C57.0937 53.898 57.1009 53.7253 57.107 53.5537C55.8147 53.4543 55.3221 52.8787 54.4703 52.413V52.413ZM41.1574 49.9948C40.0006 51.1692 44.4019 52.7701 45.8032 52.8563C45.7954 52.1132 46.2267 51.4125 46.1398 50.8794C44.4755 50.5872 42.2882 50.78 41.1574 49.9948V49.9948ZM55.4074 50.5463C55.4018 50.661 55.2523 50.6193 55.2279 50.7127C56.7161 51.8759 57.8216 52.1164 59.8474 52.0162C60.7609 51.3532 61.571 50.578 62.5221 49.9571C60.3324 50.1527 57.5759 51.5127 55.4074 50.5463V50.5463ZM68.4872 54.5125C68.4247 53.2078 68.082 50.5247 67.2755 50.0549C65.5828 49.0669 62.5738 52.0498 61.2992 52.5048C61.4379 52.904 61.6668 53.2202 61.6844 53.7305C62.4383 53.5449 63.3562 53.672 64.0096 53.993C63.254 54.0776 62.4163 54.072 61.9165 54.4319C61.7333 54.9614 61.9614 55.6829 61.8395 56.418C63.6328 56.9239 65.681 57.1932 67.9481 57.2598C68.389 56.6866 68.5393 55.5947 68.4872 54.5125V54.5125ZM39.21 51.1307C38.8467 50.8718 36.3893 47.6744 36.0526 47.8071C31.606 49.5607 27.4482 52.5929 23.7327 55.4609C27.2752 63.0622 28.7052 72.375 28.9578 81.351C33.0159 83.249 36.5803 85.9851 42.087 86.2708C41.4497 81.7623 40.8681 77.7399 40.5063 73.4953C39.1227 72.912 37.1377 73.5217 35.8428 73.3144C35.8319 71.754 37.8204 72.6311 37.986 71.5818C38.1108 70.7881 36.8919 70.728 37.2888 69.4782C38.301 69.8462 38.8326 70.6589 39.9122 70.9641C40.8986 68.8061 39.8984 64.9877 40.0405 63.184C40.0675 62.8453 40.2097 61.3078 40.9683 61.5776C41.6396 61.8163 40.9299 65.6668 41.0035 67.3739C41.0705 68.9467 40.8135 70.4685 41.4505 71.4559C46.7716 70.7316 52.1789 70.2634 57.9363 70.1055C56.6696 69.562 55.1649 69.0476 53.5152 68.1178C52.6209 67.6136 49.8018 66.5646 49.5437 65.7151C49.132 64.3616 50.6241 63.6406 50.8793 62.4802C48.1933 63.9451 47.6693 61.076 47.0339 59.0434C46.4582 57.2024 46.1305 55.8272 45.9892 54.7654C43.6754 53.6623 41.2015 52.5452 39.21 51.1307V51.1307ZM66.1372 48.1939C69.842 46.3974 70.5098 54.9081 69.0576 57.6498C69.2821 58.4675 70.0541 58.7805 70.3691 59.5156C68.3016 63.2192 66.0053 66.6764 63.8958 70.3364C65.465 69.3595 67.7064 70.1617 69.553 69.4305C70.228 69.1635 70.7166 67.6183 71.2277 66.3821C72.6334 62.9812 74.1092 58.6935 74.7658 55.448C74.9141 54.7085 75.3181 53.0972 75.2275 52.439C75.066 51.2606 73.4671 50.3868 72.6538 49.6581C71.1555 48.3121 70.212 47.1277 68.6492 45.8691C68.0154 46.8046 66.6554 47.4331 66.1372 48.1939V48.1939ZM30.737 15.3389C28.9716 17.2813 29.3412 20.9208 29.5549 23.5101C32.7458 21.5028 36.9811 23.6689 36.9412 27.0831C38.4647 27.0426 37.5103 25.1804 37.2348 23.9807C36.3342 20.0622 38.752 15.8051 37.3444 12.2217C34.6114 12.4289 32.3661 13.5452 30.737 15.3389V15.3389ZM43.3685 4.06524C39.372 5.19797 34.25 8.10196 32.6077 11.6922C33.8794 11.5074 34.7622 10.8661 36.0166 10.7867C36.4907 10.7558 37.1119 10.9855 37.6567 10.85C38.7426 10.5807 39.659 8.14605 40.4782 7.24018C41.2767 6.35556 42.2365 5.97758 42.8933 5.17112C43.3153 4.9675 43.9392 4.98153 43.9632 4.34782C43.7803 4.15222 43.5877 4.00311 43.3685 4.06524V4.06524ZM64.1727 5.13063C60.0246 2.7902 53.0032 1.02977 48.5907 3.22951C45.0302 5.00477 40.2175 7.94203 38.5766 11.6641C40.1094 15.2559 38.1225 18.5471 37.9957 22.1938C37.9284 24.1342 38.9093 25.8281 38.9845 27.9405C38.46 28.8059 36.8574 28.9125 35.7481 28.8532C35.3747 26.9845 34.721 24.8842 32.7967 24.6733C30.0739 24.3755 28.0831 26.629 27.9594 28.9838C27.813 31.7532 30.0864 36.343 33.3087 36.0244C34.5535 35.9013 34.8593 34.6535 36.2155 34.6664C36.9506 36.133 35.0816 36.5935 34.8893 37.6425C34.8392 37.9135 35.0443 38.9724 35.1636 39.4691C35.7489 41.8873 37.0536 45.0169 38.3378 46.8579C39.9678 49.1931 43.17 49.5451 46.6151 49.7739C47.2304 48.4484 49.4971 48.5574 50.9741 48.9041C49.204 48.2031 47.5584 46.5036 46.1946 44.9993C44.6281 43.2733 43.0413 41.4219 42.9611 39.166C45.9214 43.2729 48.3671 46.8595 53.7501 48.666C57.8232 50.0321 62.5802 48.0399 65.7099 45.8422C67.0086 44.9287 67.7838 43.4793 68.7069 42.1526C72.1608 37.1844 73.7725 30.0929 73.4182 23.2196C73.2723 20.3849 73.2787 17.5599 72.3275 15.6527C71.3335 13.6586 67.9714 11.8745 66.0033 13.6783C65.6385 11.7391 67.6399 10.5398 69.9907 11.2376C68.3145 9.07437 66.5552 6.475 64.1727 5.13063V5.13063ZM71.9011 69.0894C75.1426 67.478 81.199 64.7521 83.2312 69.0954C83.9812 70.6964 84.861 73.4027 85.2494 75.0554C85.7981 77.3869 84.6546 82.2875 82.258 83.0698C80.1413 83.7608 77.6714 83.7187 75.1217 83.2065C74.8215 82.9568 74.4872 82.5215 74.2535 82.0678C72.433 81.9972 70.7282 82.1655 69.2901 82.9139C69.4264 84.2603 68.5157 84.4763 67.6619 84.7536C67.029 87.2632 68.9281 90.5404 68.4736 92.8287C68.1493 94.459 66.1436 94.7111 64.6693 95.0161C64.6212 95.922 64.7339 96.6782 64.8345 97.4447C64.4974 98.6868 62.9855 99.3938 61.5529 99.567C56.8396 100.134 49.6831 100.388 45.1495 98.7582C43.8844 95.655 42.8878 91.8808 41.8341 88.3374C37.4125 88.8096 33.8363 86.4296 30.465 84.8703C29.2978 84.3292 27.6831 84.0311 27.247 83.102C26.8242 82.2024 26.9972 80.4784 26.8923 78.8499C26.6254 74.6905 26.3968 70.6786 25.2984 66.4199C24.8052 64.5088 23.9456 62.8224 23.3459 60.981C22.7917 59.2743 21.8233 57.1652 21.5707 55.4633C21.1962 52.9409 23.5714 52.8006 25.0902 51.7075C27.438 50.0172 29.2809 49.0825 31.8236 47.5569C32.5767 47.1052 34.8478 45.9617 35.1062 45.435C35.6197 44.3908 34.2247 42.9186 33.8517 42.1001C33.2617 40.8058 32.954 39.7064 32.8695 38.4293C30.7365 38.0922 29.1196 36.8228 28.1429 35.3915C26.5272 33.0226 25.4068 28.6399 26.8046 25.3063C26.9143 25.0437 27.461 24.5274 27.5416 24.1242C27.7007 23.3302 27.2423 22.2744 27.2138 21.4299C27.0669 17.0969 27.9469 13.3636 30.8638 12.0569C32.048 7.33959 36.2862 5.77115 40.2793 3.42672C41.772 2.55051 43.4173 1.99055 45.1167 1.36526C51.2125 -0.878164 60.5653 -0.45569 65.6245 3.3706C67.7697 4.99315 71.1988 8.41901 72.4253 10.8993C75.6648 17.4476 75.4347 28.3914 73.1689 36.357C72.8642 37.4265 72.4225 38.9985 71.8057 40.2831C71.3756 41.1802 70.0388 42.9751 70.2012 43.7671C70.3683 44.586 73.249 46.7733 73.8667 47.369C74.979 48.442 77.0922 49.8661 77.2633 51.2201C77.4473 52.6611 76.6284 54.6323 76.2136 56.0228C74.8267 60.6631 73.4735 64.9525 71.9011 69.0894"
          fill="white"/>
    <path fill-rule="evenodd" clip-rule="evenodd"
          d="M61.9835 59.9438C61.9835 60.3495 61.6544 60.6784 61.2484 60.6784C60.8428 60.6784 60.5137 60.3495 60.5137 59.9438C60.5137 59.5382 60.8428 59.2087 61.2484 59.2087C61.6544 59.2087 61.9835 59.5382 61.9835 59.9438Z"
          fill="#111111"/>
    <path fill-rule="evenodd" clip-rule="evenodd"
          d="M62.7218 63.3508C62.7218 63.7565 62.3927 64.0854 61.9867 64.0854C61.581 64.0854 61.252 63.7565 61.252 63.3508C61.252 62.9451 61.581 62.6157 61.9867 62.6157C62.3927 62.6157 62.7218 62.9451 62.7218 63.3508Z"
          fill="#111111"/>
</svg>
