<svg width="200" height="100" viewBox="0 0 200 100" fill="none" xmlns="http://www.w3.org/2000/svg">
    <path d="M42.6747 52.3234L42.7246 41.0403H41.2757H40.2866H31.51V43.4408H40.2866V52.3513C40.2866 53.9349 39.8711 55.0835 39.0427 55.7973C38.1977 56.511 37.0813 56.8679 35.6933 56.8679C33.1057 56.8679 31.3299 55.6272 30.3658 53.1403L28.3379 54.314C28.964 55.8976 29.9281 57.1216 31.2302 57.9886C32.5157 58.8557 34.0034 59.2906 35.6961 59.2906C37.5218 59.2906 39.0621 58.8055 40.3143 57.8353C41.1759 57.155 41.7854 56.3883 42.14 55.538C42.4946 54.7072 42.6747 53.6338 42.6747 52.3234ZM64.6467 56.3577C65.5443 55.2006 65.9904 53.5836 65.9904 51.5065V41.0403H63.5552V51.5065C63.5552 53.0371 63.1673 54.2722 62.3889 55.209C61.4746 56.2991 60.0119 56.8428 58.0005 56.8428C55.9865 56.8428 54.5237 56.2991 53.6122 55.209C52.8338 54.2722 52.4459 53.0399 52.4459 51.5065V41.0403H50.0107V51.5065C50.0107 53.5836 50.4595 55.2006 51.3544 56.3577C52.8919 58.3148 55.1083 59.2934 58.0005 59.2934C60.8928 59.2934 63.1092 58.3148 64.6467 56.3577ZM75.6895 45.9165C75.6895 45.4928 75.817 45.0746 76.0691 44.6647C76.3073 44.2744 76.6287 43.9594 77.0332 43.7196C77.8283 43.2763 78.8921 43.056 80.2302 43.056C82.3773 43.056 84.1032 43.7865 85.4053 45.2502L87.5884 43.9984C85.7461 41.7875 83.2832 40.6807 80.2053 40.6807C78.3962 40.6807 76.8725 41.0626 75.6397 41.8293C74.0328 42.833 73.2294 44.28 73.2294 46.1675C73.2294 47.1377 73.4566 47.9295 73.9137 48.5429C74.3875 49.1729 74.972 49.6246 75.6646 49.895C76.3406 50.1683 77.1274 50.3802 78.025 50.5335C78.9032 50.6868 79.7759 50.8151 80.6375 50.9155C81.4991 51.0186 82.2942 51.1441 83.0228 51.2974C83.7154 51.4508 84.2999 51.7491 84.7737 52.1896C85.2308 52.6329 85.458 53.1933 85.458 53.8735C85.458 54.3001 85.3388 54.7322 85.1034 55.1755C84.8651 55.6188 84.5604 55.9506 84.1891 56.1709C83.2915 56.7173 82.0504 56.9877 80.4602 56.9877C80.4602 56.9877 78.4987 56.9766 76.9085 56.1959C75.8419 55.6718 74.9969 55.064 74.4235 54.2806L72.2681 55.6077C73.1463 56.7145 74.2877 57.6067 75.6923 58.287C77.0637 58.9672 78.6594 59.3074 80.4879 59.3074C82.4826 59.3074 84.1309 58.9003 85.4358 58.0806C87.1257 57.0435 87.9735 55.538 87.9735 53.5613C87.9735 52.5241 87.7435 51.6543 87.2892 50.9573C86.8321 50.277 86.2475 49.7835 85.5383 49.4768C84.8291 49.1702 84.0423 48.9415 83.1779 48.7882C82.7374 48.7018 82.2997 48.6321 81.8592 48.5707C81.4187 48.5122 80.9782 48.4648 80.5405 48.4313C79.6429 48.3477 78.8395 48.2445 78.1303 48.1247C77.4377 48.0048 76.8531 47.7594 76.3794 47.383C75.9167 47.0401 75.6895 46.5466 75.6895 45.9165ZM101.776 43.438H108.497V41.0375H92.6167V43.438H99.3404V58.9087H101.776V43.438ZM117.337 43.3376H128.147V41.0403H114.952V58.9115H117.337V51.25H126.621V48.9527H117.337V43.3376ZM144.714 51.8885H136.699L140.708 43.2094L144.714 51.8885ZM147.936 58.9087H150.474L142.102 41.0375H139.312L130.94 58.9087H133.477L135.71 54.0575H145.706L147.936 58.9087ZM168.894 52.1199C169.182 52.5632 169.326 53.065 169.326 53.6254C169.326 54.1858 169.182 54.6904 168.894 55.1309C168.623 55.5575 168.251 55.8893 167.778 56.1262C167.135 56.4329 166.162 56.5863 164.86 56.5863H158.976V50.6645H164.86C166.162 50.6645 167.135 50.8179 167.778 51.1246C168.251 51.3615 168.623 51.6933 168.894 52.1199ZM168.334 45.7883C168.334 46.6916 168.005 47.3552 167.345 47.7789C166.753 48.1721 165.739 48.3672 164.301 48.3672L158.973 48.4174V43.2094H164.301C165.739 43.2094 166.753 43.4046 167.345 43.7977C168.005 44.2382 168.334 44.9045 168.334 45.7883ZM170.138 47.7288C170.493 47.0987 170.67 46.4351 170.67 45.7381C170.67 44.0012 169.966 42.7103 168.564 41.8572C167.617 41.2968 166.196 41.0152 164.304 41.0152H156.693V58.8864H164.86C166.451 58.8864 167.744 58.6578 168.742 58.1977C169.57 57.8241 170.263 57.2359 170.822 56.4357C171.382 55.6523 171.659 54.7239 171.659 53.6533C171.659 51.618 170.664 50.1237 168.681 49.1702C168.659 49.1841 168.639 49.198 168.614 49.212V49.1311C168.639 49.1423 168.656 49.1562 168.681 49.1674C169.307 48.8133 169.794 48.3365 170.138 47.7288Z"
          fill="white"/>
</svg>
