<svg width="100" height="100" viewBox="0 0 100 100" fill="none" xmlns="http://www.w3.org/2000/svg">
<path fill-rule="evenodd" clip-rule="evenodd" d="M14.1762 74.5968C14.7232 74.8638 15.3232 75.0017 15.9308 75L35.0765 74.9659C35.6828 74.9599 36.2802 74.8187 36.826 74.5522C37.3718 74.2858 37.8524 73.9008 38.2333 73.4248L50.1149 58.5272C50.4964 58.0413 50.7646 57.4751 50.8997 56.8704C51.0349 56.2657 51.0334 55.6381 50.8954 55.0341L46.6508 36.4381C46.516 35.8366 46.2469 35.274 45.864 34.7934C45.4812 34.3127 44.9946 33.9266 44.4414 33.6644L27.267 25.4109C26.7171 25.1405 26.1135 25 25.5018 25C24.8902 25 24.2865 25.1405 23.7367 25.4109L6.56515 33.6992C6.01248 33.9617 5.52646 34.348 5.14409 34.8287C4.76172 35.3093 4.49308 35.8717 4.35863 36.4729L0.113949 55.069C-0.0322436 55.6725 -0.0378424 56.302 0.0975925 56.908C0.233027 57.5141 0.505812 58.0802 0.894539 58.562L12.7739 73.4589C13.1497 73.9406 13.6292 74.3297 14.1762 74.5968ZM42.6446 53.7667H42.6755C42.9342 53.8313 43.1672 53.9742 43.3431 54.1762C43.519 54.3782 43.6295 54.6297 43.6597 54.8969C43.5836 55.1267 43.4377 55.3265 43.2427 55.4679C43.0477 55.6093 42.8135 55.6851 42.5733 55.6845C42.4816 55.69 42.3897 55.6785 42.3021 55.6504C42.2887 55.6373 42.2726 55.6275 42.2549 55.6216C42.2372 55.6157 42.2184 55.6139 42.2 55.6163C42.1661 55.6163 42.1321 55.6077 42.0982 55.5992C42.0642 55.5907 42.0302 55.5821 41.9964 55.5821C41.7853 55.5231 41.5807 55.4429 41.3856 55.3426C41.3345 55.3255 41.2836 55.2998 41.2327 55.274C41.1818 55.2482 41.1309 55.2225 41.0798 55.2054H41.046C40.4783 54.969 39.8864 54.7967 39.2812 54.6915H39.2136C39.0536 54.7061 38.9009 54.7654 38.7726 54.8628C38.7556 54.8628 38.7472 54.8713 38.7387 54.8798C38.7303 54.8884 38.7218 54.8969 38.7049 54.8969L38.2977 54.8287C37.2973 57.97 35.198 60.6366 32.3919 62.3308L32.5617 62.7417C32.5617 62.7587 32.5532 62.7673 32.5447 62.7758C32.5363 62.7843 32.5278 62.7929 32.5278 62.8099C32.4636 62.9853 32.4519 63.1759 32.494 63.358C32.7229 63.9268 33.0186 64.4658 33.3746 64.9637V64.9978C33.4081 65.0484 33.4417 65.0907 33.4754 65.133C33.5097 65.1762 33.5441 65.2194 33.5782 65.2714C33.7218 65.4401 33.847 65.6238 33.9516 65.8195C33.9931 65.8717 34.0275 65.9293 34.0538 65.9908C34.0538 66.0079 34.0622 66.0164 34.0707 66.0249C34.0791 66.0335 34.0876 66.042 34.0876 66.059C34.2105 66.3271 34.2345 66.6306 34.1552 66.9149C34.1157 67.0486 34.0494 67.1728 33.9605 67.2797C33.8715 67.3866 33.7617 67.4739 33.6379 67.5362C33.5121 67.6024 33.3726 67.6377 33.2307 67.6393C33.0178 67.6361 32.8098 67.5734 32.6301 67.458C32.4504 67.3427 32.3059 67.1793 32.2127 66.986C32.1944 66.9676 32.1825 66.9436 32.1789 66.9178C32.1619 66.8842 32.1451 66.8588 32.1284 66.8334C32.1111 66.8072 32.0939 66.7812 32.0768 66.7465C31.9937 66.5465 31.9257 66.3405 31.8732 66.1302L31.771 65.8217V65.7876C31.5786 65.1986 31.3402 64.626 31.058 64.0752C31.0116 63.9941 30.948 63.9244 30.8718 63.871C30.7955 63.8177 30.7085 63.7821 30.617 63.7666C30.5832 63.7325 30.5832 63.7325 30.5494 63.7325L30.3458 63.3558C29.7684 63.5631 29.1791 63.7347 28.581 63.8697C27.6151 64.1035 26.6246 64.2185 25.6313 64.2123C24.0079 64.2112 22.3984 63.9093 20.883 63.3217L20.6456 63.7666C20.6261 63.7863 20.6179 63.7946 20.6079 63.7982C20.6006 63.8008 20.5923 63.8008 20.578 63.8008C20.4025 63.8542 20.2481 63.9622 20.137 64.1093C19.8346 64.6504 19.5954 65.225 19.424 65.8217L19.3218 66.1302C19.2642 66.3389 19.1963 66.5446 19.1182 66.7465C19.0768 66.7987 19.0424 66.8563 19.0161 66.9178C18.9977 66.9362 18.9859 66.9602 18.9823 66.986C18.883 67.1744 18.7371 67.3336 18.5587 67.4481C18.3802 67.5626 18.1755 67.6285 17.9643 67.6393C17.8224 67.6377 17.6829 67.6024 17.5571 67.5362C17.4318 67.4692 17.3209 67.3779 17.2309 67.2674C17.1408 67.1569 17.0733 67.0295 17.0323 66.8926C16.9913 66.7556 16.9776 66.6118 16.992 66.4695C17.0063 66.3272 17.0485 66.1892 17.1161 66.0634C17.1344 66.045 17.1463 66.021 17.1499 65.9952C17.1762 65.9337 17.2105 65.8761 17.252 65.8238C17.2882 65.7692 17.3219 65.717 17.3544 65.6666C17.4444 65.5273 17.5256 65.4016 17.6254 65.2758C17.6589 65.2251 17.6925 65.1828 17.7262 65.1406C17.7605 65.0974 17.7949 65.0542 17.829 65.0021V64.968C18.1734 64.4611 18.4689 63.9223 18.7118 63.3587C18.7377 63.2675 18.7451 63.1719 18.7335 63.0777C18.7219 62.9835 18.6915 62.8927 18.6441 62.8106C18.6441 62.7936 18.6357 62.785 18.6272 62.7765C18.6188 62.768 18.6103 62.7595 18.6103 62.7424L18.8139 62.2974C18.3068 61.9982 17.8192 61.6665 17.3542 61.3044C15.2749 59.6479 13.7279 57.4076 12.9081 54.8657L12.4332 54.9339C12.4163 54.9339 12.4079 54.9254 12.3994 54.9168C12.391 54.9083 12.3825 54.8998 12.3656 54.8998C12.2405 54.7966 12.086 54.7365 11.9246 54.7285H11.8526C11.2474 54.8337 10.6556 55.006 10.0879 55.2424H10.0541C10.003 55.2595 9.95208 55.2852 9.90117 55.311C9.85028 55.3368 9.79938 55.3626 9.7483 55.3796C9.55317 55.4799 9.34854 55.5602 9.13749 55.6192C9.10368 55.6192 9.06969 55.6277 9.03569 55.6362C9.0017 55.6447 8.96771 55.6533 8.93389 55.6533C8.93389 55.6874 8.90008 55.6874 8.86627 55.6874C8.7787 55.7155 8.68676 55.7271 8.59504 55.7215C8.3513 55.7389 8.10921 55.6697 7.91078 55.5258C7.71235 55.382 7.57009 55.1725 7.50869 54.9339C7.46639 54.6487 7.53446 54.358 7.6988 54.122C7.86314 53.8861 8.11115 53.723 8.39144 53.6665C8.40485 53.6535 8.42099 53.6436 8.43867 53.6377C8.45635 53.6318 8.47512 53.63 8.4936 53.6324C8.52741 53.6324 8.5614 53.6238 8.5954 53.6153C8.62939 53.6068 8.66339 53.5983 8.6972 53.5983C8.91118 53.5602 9.12754 53.5374 9.34469 53.53C9.45557 53.5017 9.57002 53.4902 9.68427 53.4959H9.71808C10.3384 53.4604 10.9531 53.357 11.5512 53.1874C11.7147 53.1087 11.8466 52.9757 11.9246 52.8106C11.9246 52.7936 11.933 52.7851 11.9415 52.7765C11.95 52.768 11.9584 52.7595 11.9584 52.7424L12.3994 52.6052C11.9449 49.4593 12.619 46.253 14.3002 43.5641C14.3443 43.4656 14.4014 43.3736 14.47 43.2905L14.1304 42.982V42.9137C14.1418 42.8207 14.1325 42.7263 14.1031 42.6374C14.0737 42.5485 14.025 42.4673 13.9606 42.3998C13.4855 41.9984 12.9742 41.6428 12.4332 41.3378C12.339 41.2678 12.2362 41.2103 12.1275 41.1665C11.9284 41.0651 11.7362 40.9506 11.5519 40.8239C11.5181 40.8068 11.4926 40.7811 11.467 40.7553C11.4415 40.7295 11.416 40.7037 11.3821 40.6867C11.3652 40.6867 11.3568 40.6782 11.3483 40.6696C11.3399 40.6611 11.3314 40.6526 11.3145 40.6526C11.0891 40.4736 10.9393 40.2151 10.8952 39.9292C10.8511 39.6432 10.9161 39.351 11.0771 39.1115C11.1692 38.9917 11.2877 38.8953 11.4232 38.8299C11.5587 38.7645 11.7075 38.7319 11.8577 38.7347C12.1304 38.7367 12.3941 38.8333 12.6045 39.0084C12.6045 39.0295 12.6174 39.0375 12.6352 39.0487C12.6463 39.0556 12.6592 39.0636 12.6721 39.0766C12.712 39.1173 12.7521 39.1459 12.7853 39.1695C12.8084 39.1859 12.828 39.1999 12.8419 39.2138C12.9979 39.3649 13.1451 39.5248 13.2829 39.6929C13.3703 39.764 13.4499 39.8443 13.5203 39.9325C13.9285 40.4009 14.3834 40.8256 14.8779 41.1999C14.9672 41.2644 15.0738 41.3004 15.1836 41.303C15.2175 41.303 15.2515 41.2944 15.2854 41.2859C15.3194 41.2774 15.3534 41.2689 15.3872 41.2689H15.4549L15.7944 41.5084C17.6015 39.5758 19.9444 38.2382 22.5169 37.6706C23.1225 37.5459 23.7345 37.4545 24.35 37.3969L24.3838 36.9519L24.4514 36.8837C24.5942 36.7752 24.691 36.6162 24.7227 36.4387C24.7529 35.8203 24.7186 35.2004 24.6205 34.5891V34.555C24.605 34.4921 24.5966 34.4365 24.5888 34.3848C24.5796 34.3238 24.5712 34.2682 24.5529 34.2124C24.483 34.0019 24.4485 33.7811 24.4507 33.5591V33.2854C24.447 33.1402 24.4722 32.9957 24.5247 32.8604C24.5772 32.7252 24.656 32.6019 24.7565 32.4978C24.9018 32.3362 25.0937 32.2245 25.3051 32.1785C25.5166 32.1325 25.737 32.1545 25.9355 32.2414C26.1339 32.3283 26.3004 32.4757 26.4115 32.663C26.5226 32.8502 26.5728 33.0679 26.5551 33.2854V33.5939C26.5206 33.8361 26.4868 34.0414 26.453 34.2466L26.4529 34.2472C26.4142 34.3576 26.3914 34.473 26.3853 34.5899V34.624C26.3041 35.2369 26.27 35.8553 26.2831 36.4736C26.3147 36.6511 26.4116 36.81 26.5544 36.9185L26.622 36.9868L26.6558 37.4318C29.2414 37.6742 31.7036 38.6608 33.7495 40.2744C34.2381 40.6806 34.7032 41.1149 35.1423 41.5752L35.5495 41.3015H35.6171C35.6812 41.3293 35.7511 41.341 35.8207 41.3356C35.9306 41.333 36.0371 41.2971 36.1265 41.2326C36.621 40.8708 37.0761 40.4572 37.484 39.9985C37.5714 39.9275 37.651 39.8472 37.7215 39.759C37.8592 39.5909 38.0065 39.4309 38.1625 39.2799C38.1963 39.2628 38.2218 39.2371 38.2474 39.2113C38.2729 39.1855 38.2984 39.1598 38.3323 39.1427L38.3999 39.0745C38.6124 38.904 38.8738 38.8072 39.1452 38.7986C39.2954 38.7958 39.4442 38.8284 39.5797 38.8938C39.7152 38.9592 39.8337 39.0556 39.9258 39.1754C40.0868 39.4149 40.1518 39.7071 40.1077 39.993C40.0637 40.279 39.9138 40.5375 39.6884 40.7164C39.6884 40.7375 39.6755 40.7456 39.6576 40.7567C39.6466 40.7636 39.6337 40.7716 39.6208 40.7847C39.5809 40.8254 39.5407 40.8539 39.5075 40.8775C39.4845 40.8939 39.4648 40.9079 39.451 40.9219C39.2668 41.0486 39.0745 41.1631 38.8754 41.2645C38.8244 41.2986 38.7735 41.3244 38.7226 41.3502C38.6717 41.3759 38.6208 41.4017 38.5697 41.4358C38.0277 41.7413 37.5153 42.0976 37.0394 42.5C36.9233 42.6451 36.863 42.8276 36.8696 43.0139V43.0822L36.5301 43.3907C37.417 44.7633 38.0602 46.2814 38.4308 47.8767C38.7963 49.4589 38.8767 51.0945 38.6682 52.7054L39.1093 52.8426C39.1093 52.8597 39.1177 52.8682 39.1262 52.8767C39.1346 52.8852 39.1431 52.8938 39.1431 52.9108C39.1763 52.9961 39.2266 53.0736 39.2909 53.1384C39.3551 53.2033 39.4319 53.254 39.5165 53.2876C40.1152 53.4543 40.7296 53.5576 41.3496 53.5961H41.3863C41.4974 53.6228 41.6117 53.6342 41.7258 53.6302C41.943 53.6376 42.1594 53.6604 42.3733 53.6984C42.4072 53.6984 42.4412 53.707 42.4751 53.7155C42.5091 53.724 42.5431 53.7325 42.5769 53.7325C42.5769 53.7667 42.6108 53.7667 42.6446 53.7667ZM25.4673 52.8077L26.9608 52.0884L27.2997 50.4791L26.2817 49.1775H24.6183L23.6003 50.4791L23.9737 52.0884L25.4673 52.8077ZM36.0574 51.9853C36.1634 50.827 36.0832 49.6589 35.82 48.5264H35.8178C35.5634 47.3792 35.1278 46.2807 34.5279 45.2729L30.4206 49.0055C30.3207 49.1105 30.2504 49.2406 30.217 49.3822C30.1656 49.6138 30.2041 49.8565 30.3246 50.0603C30.445 50.2642 30.6382 50.4137 30.8645 50.4783L36.0574 51.9853ZM28.4551 46.4031L32.9012 43.2179V43.215C31.2562 41.5554 29.1029 40.5065 26.7918 40.2388L27.0975 45.821C27.1185 45.96 27.1773 46.0904 27.2673 46.1977C27.4056 46.3734 27.6032 46.4915 27.8223 46.5294C28.0415 46.5673 28.2668 46.5223 28.4551 46.4031ZM23.6011 40.3074C23.4228 40.3417 23.2446 40.376 23.0579 40.4101C21.1422 40.8436 19.3881 41.8176 18.0002 43.2186L22.5147 46.4721C22.639 46.5421 22.7795 46.5777 22.9219 46.5752C23.1584 46.5723 23.3848 46.4786 23.5551 46.3131C23.7254 46.1476 23.8268 45.9228 23.8385 45.6845L24.1442 40.2047C23.9575 40.2388 23.7793 40.2731 23.6011 40.3074ZM20.4104 48.9031L16.3714 45.2736V45.2729C15.165 47.2884 14.6297 49.6407 14.8441 51.9853L20.1053 50.4442C20.2702 50.4075 20.4154 50.3099 20.5125 50.1706C20.6624 49.9875 20.7357 49.7526 20.7166 49.5159C20.6975 49.2792 20.5876 49.0594 20.4104 48.9031ZM20.8507 53.6295L15.4549 54.5543H15.4498C16.2463 56.7653 17.7368 58.6533 19.6945 59.931L21.7672 54.8969C21.8301 54.7212 21.8419 54.531 21.801 54.3488C21.7534 54.1344 21.6315 53.9442 21.4573 53.8124C21.2831 53.6805 21.068 53.6157 20.8507 53.6295ZM25.4694 61.6434C26.2683 61.6388 27.0643 61.547 27.8436 61.3697L27.8472 61.369C27.9971 61.3234 28.1481 61.2846 28.2964 61.2465C28.4811 61.199 28.6618 61.1525 28.8314 61.0953L26.2162 56.3349C26.1057 56.1841 25.9675 56.0562 25.809 55.9582C25.6278 55.868 25.4217 55.8425 25.2243 55.8861C25.0269 55.9296 24.85 56.0395 24.7227 56.1977L22.0413 61.0953C23.15 61.452 24.3058 61.6368 25.4694 61.6434ZM31.2055 59.931C32.5172 59.0745 33.6285 57.9403 34.4624 56.6071C34.9058 55.9726 35.2398 55.267 35.4502 54.5201L30.0177 53.5946C29.8538 53.5923 29.6914 53.6276 29.5429 53.6977C29.3545 53.7924 29.2044 53.9498 29.1177 54.1433C29.0311 54.3368 29.0133 54.5545 29.0673 54.7597L31.2055 59.931Z" fill="white"/>
</svg>
