<svg width="80" height="80" viewBox="0 0 80 80" fill="none" xmlns="http://www.w3.org/2000/svg">
    <path d="M39.7232 10.004C39.1702 10.0364 38.6295 10.1795 38.1329 10.4249L16.5987 20.6965C16.0437 20.9605 15.5556 21.3465 15.1707 21.8257C14.7858 22.3048 14.5142 22.8647 14.3761 23.4635L9.10529 46.5175C8.97963 47.0532 8.96629 47.609 9.06611 48.1501C9.16593 48.6911 9.37674 49.2057 9.68525 49.6612C9.75884 49.7735 9.83617 49.8818 9.91724 49.9861L24.7949 68.4852C25.1833 68.9614 25.6733 69.3446 26.229 69.6067C26.7848 69.8688 27.3921 70.0032 28.0066 69.9999H51.8694C52.4853 69.997 53.0929 69.8582 53.649 69.5933C54.205 69.3285 54.6957 68.9441 55.086 68.4677L69.9563 49.9649C70.3428 49.4884 70.6138 48.9288 70.7478 48.3301C70.8819 47.7313 70.8754 47.1096 70.7289 46.5138L65.4232 23.4398C65.2845 22.8413 65.0127 22.2818 64.628 21.8027C64.2433 21.3237 63.7556 20.9375 63.2012 20.6728L41.7 10.4268C41.0806 10.1212 40.3946 9.97561 39.7045 10.0033L39.7232 10.004Z"
          stroke="white" stroke-width="2"/>
    <path d="M39.9201 17.8604C39.5638 17.8853 39.2316 18.0491 38.9949 18.3165C38.7582 18.584 38.6361 18.9337 38.6548 19.2904V19.6539C38.6907 20.0646 38.7501 20.4729 38.8325 20.8769C38.9501 21.6503 38.9918 22.4333 38.9572 23.2148C38.8848 23.4727 38.7403 23.7046 38.5407 23.8833L38.512 24.4284C37.7298 24.4938 36.9532 24.6139 36.1877 24.7876C32.9671 25.5132 30.0371 27.1855 27.7745 29.5895L27.3105 29.2608C27.1845 29.2989 27.0521 29.3117 26.9211 29.2984C26.7901 29.2852 26.663 29.2461 26.5472 29.1835C25.9201 28.7192 25.3397 28.195 24.8142 27.6182C24.5502 27.3027 24.2682 27.0027 23.9698 26.7196L23.6835 26.4913C23.4285 26.2868 23.1152 26.1684 22.7886 26.1533C22.5938 26.143 22.3993 26.1789 22.221 26.2581C22.0427 26.3374 21.8857 26.4577 21.7628 26.6092C21.5536 26.9028 21.4693 27.2673 21.5282 27.6229C21.5871 27.9785 21.7844 28.2964 22.0771 28.5069L22.344 28.7195C22.6872 28.9477 23.0432 29.1559 23.4104 29.3431C24.0994 29.7242 24.7458 30.1776 25.3386 30.6958C25.4918 30.9143 25.5808 31.1714 25.5956 31.4379L26.0165 31.8245C23.7424 35.2376 22.8079 39.37 23.3923 43.4295L22.851 43.5841C22.7108 43.8086 22.522 43.9987 22.2985 44.1404C21.5435 44.3419 20.7708 44.4693 19.9911 44.5208C19.5774 44.5292 19.1645 44.5615 18.7544 44.6175L18.4127 44.6948H18.3759C18.1981 44.7188 18.0273 44.7796 17.8744 44.8733C17.7214 44.967 17.5896 45.0916 17.4875 45.2391C17.3854 45.3865 17.3151 45.5537 17.2811 45.7298C17.2472 45.906 17.2503 46.0872 17.2904 46.2621C17.3304 46.437 17.4064 46.6016 17.5136 46.7454C17.6208 46.8893 17.7568 47.0092 17.9129 47.0975C18.069 47.1859 18.2419 47.2407 18.4204 47.2586C18.5989 47.2764 18.7791 47.2568 18.9496 47.2011H18.9746L19.3226 47.1624C19.7158 47.0452 20.1016 46.9046 20.4781 46.7415C21.2034 46.4504 21.9553 46.2305 22.7232 46.0848C22.989 46.1002 23.245 46.1906 23.4615 46.3455L24.0415 46.2488C25.297 50.1459 27.9371 53.4477 31.4626 55.5296L31.2268 56.0222C31.3353 56.248 31.3756 56.5004 31.3428 56.7487C31.0235 57.4879 30.6334 58.1944 30.1779 58.8584C29.9278 59.1881 29.6969 59.5318 29.4863 59.888L29.3223 60.236C29.2312 60.3906 29.1733 60.5624 29.1523 60.7405C29.1314 60.9187 29.1477 61.0993 29.2004 61.2708C29.2531 61.4422 29.341 61.6008 29.4584 61.7365C29.5758 61.8721 29.7202 61.9818 29.8824 62.0585C30.0445 62.1352 30.2209 62.1772 30.4002 62.182C30.5796 62.1867 30.7579 62.154 30.9239 62.086C31.0899 62.018 31.2399 61.9161 31.3643 61.7869C31.4887 61.6576 31.5849 61.5039 31.6465 61.3355L31.8068 61.0068C31.9531 60.6214 32.077 60.2279 32.1779 59.8282C32.5196 58.9838 32.7054 58.0777 33.1757 57.517C33.3284 57.3733 33.521 57.279 33.7282 57.2464L34.0182 56.7188C37.8387 58.1872 42.0662 58.1974 45.8938 56.7475L46.1507 57.2401C46.4133 57.2802 46.6494 57.4226 46.8074 57.6361C47.1699 58.3275 47.465 59.0522 47.6885 59.8001C47.7905 60.2005 47.9154 60.5946 48.0627 60.9806L48.223 61.3093C48.2852 61.4771 48.3817 61.6302 48.5063 61.7587C48.6309 61.8873 48.7808 61.9885 48.9466 62.056C49.1124 62.1235 49.2905 62.1557 49.4694 62.1507C49.6483 62.1457 49.8243 62.1035 49.9861 62.0269C50.1478 61.9502 50.2919 61.8408 50.4091 61.7055C50.5263 61.5701 50.6141 61.4119 50.6668 61.2409C50.7196 61.0698 50.7362 60.8897 50.7156 60.7118C50.695 60.534 50.6377 60.3624 50.5472 60.2079L50.3788 59.86C50.1682 59.505 49.9373 59.1625 49.6872 58.8341C49.243 58.1878 48.8551 57.5045 48.5279 56.7918C48.497 56.6607 48.4927 56.5248 48.5153 56.3921C48.5379 56.2593 48.5869 56.1325 48.6595 56.0191C48.5771 55.8507 48.5054 55.6771 48.445 55.4996C51.9608 53.4013 54.587 50.0888 55.828 46.1871L56.3768 46.2838C56.5734 46.1047 56.8319 46.009 57.0977 46.0169C57.863 46.173 58.614 46.3926 59.3428 46.6735C59.7181 46.8461 60.1041 46.9946 60.4983 47.1182C60.5912 47.1431 60.7266 47.1643 60.8307 47.1899H60.8557C61.0262 47.2456 61.2064 47.2652 61.3849 47.2473C61.5634 47.2295 61.7362 47.1747 61.8924 47.0863C62.0485 46.998 62.1845 46.878 62.2917 46.7342C62.3989 46.5903 62.4749 46.4257 62.5149 46.2509C62.555 46.076 62.5581 45.8947 62.5242 45.7186C62.4902 45.5424 62.4199 45.3753 62.3178 45.2278C62.2157 45.0804 62.0839 44.9558 61.9309 44.8621C61.778 44.7684 61.6072 44.7076 61.4294 44.6836L61.0552 44.5944C60.6452 44.5384 60.2323 44.5061 59.8186 44.4977C59.0387 44.4477 58.2658 44.3203 57.5112 44.1173C57.2781 43.9866 57.0856 43.7941 56.9549 43.561L56.4329 43.4064C56.9899 39.3489 56.0377 35.2281 53.757 31.8264L54.2129 31.4054C54.1941 31.1401 54.2801 30.8779 54.4523 30.6752C55.0451 30.1663 55.6856 29.7158 56.365 29.33C56.7321 29.1427 57.0881 28.9345 57.4314 28.7064L57.7132 28.4782C57.8687 28.3818 58.002 28.2537 58.1043 28.1021C58.2066 27.9506 58.2757 27.7791 58.3069 27.5989C58.3382 27.4187 58.3309 27.2339 58.2856 27.0568C58.2403 26.8796 58.1579 26.714 58.044 26.571C57.93 26.428 57.7871 26.3107 57.6245 26.2269C57.462 26.1431 57.2835 26.0947 57.1009 26.0849C56.9183 26.0751 56.7357 26.104 56.5651 26.1699C56.3945 26.2358 56.2398 26.337 56.1112 26.467L55.8249 26.6952C55.5265 26.9784 55.2446 27.2784 54.9805 27.5939C54.4716 28.1768 53.9078 28.7093 53.2968 29.1841C53.0495 29.2847 52.7791 29.3141 52.516 29.2689L52.0271 29.6169C49.2045 26.6587 45.4042 24.8254 41.332 24.4577C41.332 24.2644 41.307 23.9744 41.3033 23.884C41.0844 23.7334 40.9332 23.503 40.8824 23.2423C40.8554 22.4619 40.9045 21.6808 41.0289 20.9099C41.1112 20.506 41.1706 20.0977 41.2066 19.687V19.2997C41.2256 18.9424 41.1031 18.592 40.8656 18.3243C40.628 18.0567 40.2946 17.8934 39.9376 17.8698L39.9201 17.8604ZM38.3087 27.8421L37.922 34.5915H37.8933C37.8816 34.796 37.816 34.9937 37.7034 35.1648C37.5907 35.3358 37.4349 35.4741 37.2516 35.5656C37.0682 35.6593 36.8621 35.6993 36.6569 35.6809C36.4518 35.6625 36.2561 35.5864 36.0923 35.4615L30.5583 31.5389C32.3196 29.8081 34.5294 28.6037 36.9386 28.0616C37.39 27.9652 37.8461 27.8917 38.3049 27.8415L38.3087 27.8421ZM41.5315 27.8421C44.4393 28.2037 47.1479 29.5099 49.2414 31.5601L43.7579 35.4577C43.5918 35.5904 43.3918 35.6738 43.1806 35.6984C42.9695 35.723 42.7557 35.6878 42.5635 35.5968C42.3714 35.5058 42.2087 35.3627 42.0939 35.1837C41.9792 35.0048 41.917 34.7972 41.9144 34.5847L41.5315 27.8421ZM28.5471 34.0783L33.6097 38.5958V38.6245C33.764 38.7595 33.8789 38.9339 33.9421 39.129C34.0053 39.3241 34.0145 39.5326 33.9687 39.7326C33.923 39.9325 33.8239 40.1162 33.682 40.2644C33.5402 40.4125 33.3609 40.5195 33.1632 40.5739V40.5932L26.6669 42.4641C26.3455 39.5374 27.0077 36.5869 28.549 34.0783H28.5471ZM51.2569 34.0783C52.7941 36.5805 53.4729 39.5161 53.1901 42.4391L46.687 40.5639V40.539C46.4887 40.4859 46.3087 40.3795 46.1666 40.2313C46.0246 40.0831 45.9259 39.8987 45.8813 39.6983C45.8363 39.4983 45.8459 39.2898 45.9091 39.0948C45.9723 38.8997 46.0867 38.7252 46.2405 38.5895L51.2644 34.0932L51.2569 34.0783ZM38.8824 38.9469H40.9541L42.22 40.5546L41.7604 42.5639L39.8989 43.4588L38.0343 42.5639L37.5977 40.5546L38.8824 38.9469ZM45.5177 44.4304C45.6043 44.4207 45.6918 44.4207 45.7784 44.4304L52.4773 45.561C51.4974 48.3487 49.6084 50.7259 47.1142 52.3104L44.5274 46.0418C44.4562 45.8736 44.4264 45.6908 44.4405 45.5087C44.4547 45.3266 44.5124 45.1506 44.6088 44.9955C44.7052 44.8403 44.8374 44.7106 44.9944 44.6173C45.1514 44.5239 45.3285 44.4697 45.5109 44.4591L45.5177 44.4304ZM34.2664 44.4591C34.4526 44.4618 34.6353 44.5104 34.7983 44.6005C34.9613 44.6907 35.0997 44.8195 35.2011 44.9758C35.3025 45.1321 35.3638 45.3109 35.3797 45.4965C35.3956 45.6821 35.3656 45.8687 35.2922 46.0399V46.0649L32.7185 52.283C30.2557 50.7035 28.3826 48.3556 27.3897 45.6034L34.0306 44.4771C34.1051 44.4694 34.1801 44.4694 34.2545 44.4771L34.2664 44.4591ZM39.879 47.1643C40.0901 47.1576 40.2989 47.2097 40.4821 47.3147C40.6653 47.4198 40.8158 47.5737 40.9167 47.7592H40.9416L44.2156 53.6668L42.906 54.0534C40.4977 54.6045 37.9835 54.4749 35.6446 53.6793L38.9292 47.7723C39.0274 47.6021 39.168 47.4602 39.3372 47.3603C39.5065 47.2605 39.6987 47.206 39.8952 47.2024L39.879 47.1643Z"
          fill="white"/>
</svg>
