<svg width="60" height="60" viewBox="0 0 60 60" fill="none" xmlns="http://www.w3.org/2000/svg">
<path d="M30 0C13.4389 0 0 13.4389 0 30C0 46.5611 13.4389 60 30 60C46.5611 60 60 46.5611 60 30C60 13.4389 46.5611 0 30 0ZM30 1.25C45.8856 1.25 58.75 14.1144 58.75 30C58.75 45.8856 45.8856 58.75 30 58.75C14.1144 58.75 1.25 45.8856 1.25 30C1.25 14.1144 14.1144 1.25 30 1.25ZM30 13.75C25.52 13.75 21.875 17.395 21.875 21.875C21.875 26.355 25.52 30 30 30C34.48 30 38.125 26.355 38.125 21.875C38.125 17.395 34.48 13.75 30 13.75ZM30 15C33.7912 15 36.875 18.0837 36.875 21.875C36.875 25.6663 33.7912 28.75 30 28.75C26.2087 28.75 23.125 25.6663 23.125 21.875C23.125 18.0837 26.2087 15 30 15ZM27.5 17.4902C27.155 17.4902 26.875 17.7702 26.875 18.1152C26.875 18.4602 27.155 18.7402 27.5 18.7402H28.75C29.5713 18.7402 30.2614 19.2735 30.5151 20.0098H27.5C27.155 20.0098 26.875 20.2898 26.875 20.6348C26.875 20.9798 27.155 21.2598 27.5 21.2598H30.5029C30.2392 21.976 29.5562 22.4902 28.75 22.4902H27.5C27.155 22.4902 26.875 22.7702 26.875 23.1152C26.875 23.119 26.8761 23.1213 26.8774 23.125C26.8749 23.2887 26.9331 23.4529 27.0581 23.5767L30.8081 27.3267C30.9306 27.4492 31.0924 27.5098 31.2524 27.5098C31.4124 27.5098 31.5718 27.4479 31.6943 27.3267C31.9381 27.0829 31.9381 26.6866 31.6943 26.4429L28.9697 23.7183C30.3722 23.6195 31.5241 22.6048 31.8066 21.2598H32.5C32.845 21.2598 33.125 20.9798 33.125 20.6348C33.125 20.2898 32.845 20.0098 32.5 20.0098H31.814C31.7202 19.5373 31.5129 19.1078 31.2329 18.7378H32.5V18.7402C32.845 18.7402 33.125 18.4602 33.125 18.1152C33.125 17.7702 32.845 17.4902 32.5 17.4902H28.75H27.5ZM16.25 18.75C14.8713 18.75 13.75 19.8713 13.75 21.25V30.625V31.875C13.75 33.635 14.5922 35.3182 16.001 36.377L18.501 38.252C18.6572 38.3682 18.75 38.555 18.75 38.75V40H16.875C16.53 40 16.25 40.28 16.25 40.625V45.625C16.25 45.97 16.53 46.25 16.875 46.25H28.125C28.47 46.25 28.75 45.97 28.75 45.625V40.625C28.75 40.28 28.47 40 28.125 40H27.5V34.7241C27.5 33.3929 26.9042 32.1497 25.8667 31.3159L21.2207 27.5757C20.502 26.9982 19.5575 26.8933 18.75 27.2046V21.25C18.75 19.8713 17.6287 18.75 16.25 18.75ZM43.75 18.75C42.3713 18.75 41.25 19.8713 41.25 21.25V27.2046C40.4437 26.8921 39.5005 26.9969 38.7793 27.5757L34.1309 31.3184C33.0946 32.1521 32.5 33.3929 32.5 34.7241V40H31.875C31.53 40 31.25 40.28 31.25 40.625V45.625C31.25 45.97 31.53 46.25 31.875 46.25H43.125C43.47 46.25 43.75 45.97 43.75 45.625V40.625C43.75 40.28 43.47 40 43.125 40H41.25V38.75C41.25 38.555 41.3428 38.3682 41.499 38.252L43.999 36.377C45.4078 35.3182 46.25 33.6362 46.25 31.875V30.625V21.25C46.25 19.8713 45.1287 18.75 43.75 18.75ZM16.25 20C16.9387 20 17.5 20.5613 17.5 21.25V28.125C17.5 28.165 17.5145 28.1998 17.522 28.2373C16.8857 29.2911 17.1022 30.6772 18.0859 31.4697L22.2656 34.834C22.4144 34.9552 22.5 35.1335 22.5 35.3247V35.6128C22.5 35.9578 22.78 36.2378 23.125 36.2378C23.47 36.2378 23.75 35.9578 23.75 35.6128V35.3223C23.7488 34.7523 23.4931 34.2211 23.0493 33.8623L18.8696 30.498C18.3334 30.0655 18.2467 29.2777 18.6792 28.7402C19.1129 28.204 19.8995 28.1186 20.437 28.5498L25.0854 32.29C25.8254 32.8863 26.25 33.7741 26.25 34.7241V40H20V38.75C20 38.1625 19.7205 37.6035 19.2505 37.251L16.7505 35.376C15.6542 34.5547 15 33.245 15 31.875V30.625V21.25C15 20.5613 15.5612 20 16.25 20ZM43.75 20C44.4388 20 45 20.5613 45 21.25V30.625V31.875C45 33.245 44.3458 34.5547 43.2495 35.376L40.7495 37.251C40.2795 37.6035 40 38.1625 40 38.75V40H33.75V34.7241C33.75 33.7729 34.1757 32.885 34.917 32.29L39.563 28.5498C40.1005 28.1186 40.8895 28.2015 41.3208 28.7378C41.7533 29.2753 41.6666 30.0644 41.1304 30.4956L36.9482 33.8623C36.5057 34.2198 36.2513 34.751 36.25 35.3223V35.6104C36.25 35.9554 36.53 36.2354 36.875 36.2354C37.22 36.2354 37.5 35.9554 37.5 35.6104V35.3247C37.5 35.1335 37.5856 34.9527 37.7344 34.834L41.9141 31.4697C42.8978 30.6772 43.1143 29.2911 42.478 28.2373C42.4855 28.2011 42.5 28.165 42.5 28.125V21.25C42.5 20.5613 43.0612 20 43.75 20ZM17.5 41.25H19.375H26.875H27.5V45H17.5V41.25ZM32.5 41.25H33.125H40.625H42.5V45H32.5V41.25ZM25.625 42.5C25.4592 42.5 25.3003 42.5658 25.1831 42.6831C25.0658 42.8003 25 42.9592 25 43.125C25 43.2908 25.0658 43.4497 25.1831 43.5669C25.3003 43.6842 25.4592 43.75 25.625 43.75C25.7908 43.75 25.9497 43.6842 26.0669 43.5669C26.1842 43.4497 26.25 43.2908 26.25 43.125C26.25 42.9592 26.1842 42.8003 26.0669 42.6831C25.9497 42.5658 25.7908 42.5 25.625 42.5ZM34.375 42.5C34.2092 42.5 34.0503 42.5658 33.9331 42.6831C33.8158 42.8003 33.75 42.9592 33.75 43.125C33.75 43.2908 33.8158 43.4497 33.9331 43.5669C34.0503 43.6842 34.2092 43.75 34.375 43.75C34.5408 43.75 34.6997 43.6842 34.8169 43.5669C34.9342 43.4497 35 43.2908 35 43.125C35 42.9592 34.9342 42.8003 34.8169 42.6831C34.6997 42.5658 34.5408 42.5 34.375 42.5Z" fill="white"/>
</svg>
