<svg width="200" height="100" viewBox="0 0 200 100" fill="none" xmlns="http://www.w3.org/2000/svg">
    <path fill-rule="evenodd" clip-rule="evenodd"
          d="M72.4004 57.7V44H76.0004L80.6004 54.2L85.1004 44H88.6004V57.7H85.6004V49.7L82.1004 57.7H78.9004L75.4004 49.8V57.7H72.4004Z"
          fill="white"/>
    <path fill-rule="evenodd" clip-rule="evenodd"
          d="M100.8 52.4L98.2996 46.6L95.7996 52.4H100.8ZM93.5996 57.7H90.0996L96.1996 44H100.5L106.6 57.7H103.1L101.9 54.9H94.7996L93.5996 57.7Z"
          fill="white"/>
    <path fill-rule="evenodd" clip-rule="evenodd"
          d="M108 57.7V44H121.1V46.7H111.2V49.4H119.7V52.1H111.2V54.9H121.1V57.6L108 57.7Z" fill="white"/>
    <path fill-rule="evenodd" clip-rule="evenodd"
          d="M126.8 50.3H133.7V46.8H126.8V50.3ZM123.6 57.7V44H134.5C136 44 136.8 44.8 136.8 46.3V50.9C136.8 52 135.9 52.9 134 52.9C133.9 52.9 133.8 52.9 133.7 52.9L136.9 57.7H133.4L130.4 53H126.8V57.7C126.8 57.7 123.6 57.7 123.6 57.7Z"
          fill="white"/>
    <path fill-rule="evenodd" clip-rule="evenodd"
          d="M142.6 57.7H141.5C140.1 57.7 139.4 56.9 139.4 55.7V53.9H142.6V55H149.4V52.2H141.7C140.5 52.2 139.6 51.4 139.6 50.2V46.1C139.6 44.9 140.6 44 141.7 44H150.6C151.8 44 152.6 44.9 152.6 46.2V47.8H149.4V46.7H142.6V49.4H150.3C151.4 49.4 152.5 50.2 152.5 51.6V55.5C152.5 56.8 151.8 57.6 150.4 57.6L142.6 57.7Z"
          fill="white"/>
    <path fill-rule="evenodd" clip-rule="evenodd"
          d="M155.6 57.7V44H158.8V49.5L165 44H169.4L162 50.4L169.6 57.7H165.1L158.8 51.5V57.7H155.6Z" fill="white"/>
    <path fill-rule="evenodd" clip-rule="evenodd"
          d="M56.9 66C58.8 66 60.4 64.5 60.4 62.5L60.3 38.5C60.3 36.6 58.8 35 56.8 35H34.5C32.6 35 31 36.6 31 38.5V62.5C31 64.4 32.5 66 34.5 66H56.9ZM56.1996 42.3998L50.3996 49.6998L58.6996 53.6998H49.3996L51.4996 62.7998L45.6996 55.4998L39.8996 62.7998L41.9996 53.6998H32.5996L40.9996 49.6998L35.1996 42.3998L43.5996 46.3998L45.6996 37.2998L47.7996 46.3998L56.1996 42.3998Z"
          fill="white"/>
</svg>
