<svg width="16" height="16" viewBox="0 0 316 250" fill="#333" xmlns="http://www.w3.org/2000/svg">
    <path d="M4.31034 2.89409C4.31034 5.84975 4.37192 5.91133 20.3202 25.0616C31.4039 38.4852 36.4532 45.0123 36.8842 46.6133C37.3153 48.2143 37.5616 73.399 37.5616 122.537V196.121L36.0837 199.2C35.2833 200.924 26.9089 211.638 17.303 223.214C0.615764 243.411 0 244.212 0 246.736V249.384H46.798H93.5961V246.552C93.5961 243.781 93.3498 243.473 75.7389 222.167C62.3768 205.973 57.697 199.877 56.9581 197.722C56.1576 195.197 56.0345 187.315 56.1576 132.451L56.3424 70.0739L97.4138 159.606L138.485 249.076L143.288 249.261L148.091 249.446L183.128 160.591C202.401 111.7 218.411 71.4901 218.719 71.1207C218.966 70.8128 219.15 102.771 219.089 144.027L218.904 217.549L204.865 231.158L190.825 244.828L191.01 247.229L191.195 249.692L252.956 249.877L314.655 250V247.352C314.655 244.704 314.594 244.643 301.108 231.219C292.118 222.291 287.562 217.365 287.562 216.502C287.562 215.764 287.562 174.138 287.562 123.892C287.562 51.2931 287.685 32.3276 288.3 31.5271C288.732 30.9113 295.012 24.8153 302.217 17.9187L315.271 5.41872V2.70936V-2.30968e-06L271.736 0.12315L228.14 0.307879L197.66 76.1084C180.911 117.796 166.872 152.525 166.564 153.264C166.01 154.495 161.084 144.089 130.542 77.3399L95.197 -2.30968e-06H49.7537H4.31034V2.89409Z"
          fill="#fff"/>
</svg>
