<svg width="100" height="100" viewBox="0 0 100 100" fill="none" xmlns="http://www.w3.org/2000/svg">
<path d="M30.0696 72.3271L45.3998 69.6375L45.5415 69.6049L37.6585 60.2939C35.016 57.1867 32.3883 54.0677 29.7754 50.9368C29.7754 50.8906 37.9161 28.6275 37.9626 28.5488C37.9756 28.5193 43.517 38.0202 51.3902 51.5704L64.8979 74.8229L65 75H39.9437H14.8873L30.0688 72.3369L30.0696 72.3271ZM0 69.4936C0 69.4808 3.71516 63.0751 8.25658 55.2622L16.5124 41.0482L26.1326 33.0286C31.4233 28.6207 35.7666 25.0068 35.7864 25C35.7519 25.1347 35.7007 25.2646 35.6339 25.3868L25.1844 47.6424L14.9208 69.4936L7.4608 69.5035C3.35843 69.5111 0 69.5035 0 69.4906V69.4936Z" fill="white"/>
</svg>
