<svg width="64" height="106" viewBox="0 0 64 106" fill="none" xmlns="http://www.w3.org/2000/svg">
<path fill-rule="evenodd" clip-rule="evenodd" d="M63.7468 2.00532C30.8185 22.2196 8.24272 56.8028 5.4035 96.6385L4.03711 96.5411C6.90972 56.237 29.7499 21.2682 63.0301 0.837891L63.7468 2.00532Z" fill="#494949"/>
<path d="M4.42315 105.192L9.90864 93.2811L4.82369 95.9454L0 92.8457L4.42315 105.192Z" fill="#494949"/>
<path d="M45.5776 38.4441C45.5776 49.0069 37.0148 57.5698 26.4519 57.5698C15.8891 57.5698 7.32617 49.0069 7.32617 38.4441C7.32617 27.8812 15.8891 19.3184 26.4519 19.3184C37.0148 19.3184 45.5776 27.8812 45.5776 38.4441Z" fill="black" stroke="#494949"/>
<path d="M25.111 48.7186V46.3328C23.4218 46.2632 21.7849 45.8104 20.8271 45.2532L21.5759 42.3102C22.6382 42.8848 24.1184 43.4247 25.7553 43.4247C27.1833 43.4247 28.1759 42.8674 28.1759 41.8574C28.1759 40.8996 27.3749 40.2902 25.5116 39.6633C22.8124 38.7577 20.9839 37.5039 20.9839 35.0485C20.9839 32.8369 22.5511 31.0955 25.2329 30.5556V28.1699H27.7057V30.3815C29.3949 30.4512 30.5268 30.8169 31.3627 31.2174L30.6313 34.0733C29.9696 33.7947 28.8202 33.22 27.0091 33.22C25.3722 33.22 24.8498 33.934 24.8498 34.6305C24.8498 35.4664 25.7379 35.9888 27.8798 36.7899C30.8751 37.8521 32.094 39.2279 32.094 41.5091C32.094 43.7556 30.5094 45.6711 27.6013 46.1761V48.7534H25.111V48.7186Z" fill="white"/>
</svg>
