<svg width="60" height="60" viewBox="0 0 60 60" fill="none" xmlns="http://www.w3.org/2000/svg">
<path d="M43.9987 30C43.895 37.8808 37.5697 44.1024 29.7926 43.9987C22.1192 43.895 15.8976 37.5697 16.0013 29.7926C16.105 22.1192 22.4303 15.8976 30 16.0013C37.8808 16.105 44.1024 22.3266 43.9987 30ZM17.1419 30.5185C17.3493 33.9404 18.5936 36.7401 20.8749 39.1251C21.8082 38.5029 22.7414 37.8808 23.571 37.3623C23.2599 35.081 22.8451 32.7997 22.534 30.6222C20.7712 30.5185 19.0084 30.5185 17.1419 30.5185ZM42.8581 29.4815C42.9618 26.5781 40.8879 22.1192 39.1251 20.9786C38.1918 21.6008 37.3623 22.2229 36.429 22.7414C36.6364 23.882 36.9475 24.919 37.0512 26.0596C37.2586 27.2003 37.2586 28.3409 37.466 29.4815C39.2288 29.4815 40.9916 29.4815 42.8581 29.4815ZM39.1251 39.1251C41.6138 36.8438 42.9618 32.9034 42.8581 30.6222C41.0953 30.6222 39.2288 30.6222 37.3623 30.6222C37.3623 32.9034 36.9475 35.1847 36.3253 37.2586C37.2586 37.8808 38.1918 38.5029 39.1251 39.1251ZM20.8749 20.8749C18.5936 23.2599 17.3493 26.0596 17.1419 29.3778C19.0084 29.3778 20.7712 29.3778 22.6377 29.3778C22.6377 27.0966 23.0525 24.8153 23.6747 22.7414C22.7414 22.1192 21.8082 21.4971 20.8749 20.8749ZM36.2217 29.4815C36.2217 27.3039 35.9106 25.2301 35.2884 23.3636C33.6293 23.6747 32.0739 24.0894 30.5185 24.4005C30.5185 26.0596 30.5185 27.7187 30.5185 29.4815C32.4887 29.4815 34.3552 29.4815 36.2217 29.4815ZM24.7116 36.7401C26.3707 36.429 27.9261 36.0143 29.4815 35.7032C29.4815 34.0441 29.4815 32.2813 29.4815 30.6222C27.615 30.6222 25.7485 30.6222 23.7783 30.6222C23.7783 32.6961 24.0894 34.7699 24.7116 36.7401ZM29.4815 24.2968C27.8224 23.9857 26.267 23.571 24.7116 23.2599C24.0894 25.2301 23.882 27.3039 23.7783 29.3778C25.7485 29.3778 27.615 29.3778 29.4815 29.3778C29.4815 27.7187 29.4815 25.9559 29.4815 24.2968ZM35.2884 36.7401C35.9106 34.7699 36.118 32.6961 36.2217 30.6222C34.2515 30.6222 32.385 30.6222 30.5185 30.6222C30.5185 32.385 30.5185 34.1478 30.5185 35.7032C32.1776 36.0143 33.733 36.3253 35.2884 36.7401ZM25.1264 37.8808C25.8522 40.162 27.7187 42.7544 29.3778 42.7544C29.3778 40.7842 29.3778 38.814 29.3778 36.8438C28.0298 36.9475 26.1633 37.3623 25.1264 37.8808ZM30.5185 17.0382C30.5185 19.1121 30.5185 21.0823 30.5185 23.0525C32.0739 22.9488 33.5256 22.7414 34.8736 22.1192C33.9404 19.9417 33.0071 17.8678 30.5185 17.0382ZM29.4815 23.0525C29.4815 21.0823 29.4815 19.1121 29.4815 17.1419C27.615 17.3493 25.7485 20.0454 25.1264 22.1192C26.4744 22.7414 27.9261 22.9488 29.4815 23.0525ZM30.5185 42.8581C32.385 42.6507 34.3552 39.7473 34.7699 37.8808C33.4219 37.2586 31.9702 36.9475 30.5185 36.9475C30.5185 38.9177 30.5185 40.8879 30.5185 42.8581ZM26.4744 17.5567C24.6079 18.0752 23.0525 18.9047 21.7045 20.0454C22.534 20.5638 23.2599 21.0823 23.9857 21.6008C24.6079 20.149 25.3338 18.801 26.4744 17.5567ZM38.2955 20.149C36.8438 18.9047 35.2884 18.1789 33.4219 17.6604C34.6662 18.9047 35.2884 20.2527 35.9106 21.8082C36.7401 21.186 37.466 20.6675 38.2955 20.149ZM33.6293 42.3396C35.3921 41.8211 36.9475 41.0953 38.2955 39.851C37.466 39.3325 36.7401 38.814 36.0143 38.2955C35.3921 39.851 34.6662 41.199 33.6293 42.3396ZM23.9857 38.2955C23.1562 38.814 22.4303 39.3325 21.7045 39.851C23.1562 41.0953 24.7116 41.8211 26.3707 42.3396C25.3338 41.199 24.6079 39.851 23.9857 38.2955Z" fill="white"/>
<circle cx="30" cy="10" r="3.5" stroke="white"/>
<circle cx="30" cy="50" r="3.5" stroke="white"/>
<circle cx="50" cy="30" r="3.5" stroke="white"/>
<path fill-rule="evenodd" clip-rule="evenodd" d="M33.8406 10.976C33.952 10.6663 34.027 10.3393 34.0604 10C42.0772 11.6194 48.3904 17.9408 50 25.9632C49.7975 25.9322 49.5902 25.9162 49.379 25.9162C49.242 25.9162 49.1066 25.923 48.9731 25.9361C47.3691 18.4068 41.3991 12.4942 33.8406 10.976ZM48.9743 34.058C47.3722 41.5899 41.4014 47.505 33.8413 49.0239C33.9525 49.3336 34.0273 49.6607 34.0606 50C42.0794 48.3801 48.3937 42.056 50.0013 34.0307C49.7984 34.0617 49.5906 34.0778 49.379 34.0778C49.2425 34.0778 49.1075 34.0711 48.9743 34.058ZM11.0269 34.058C12.629 41.5899 18.5998 47.505 26.1598 49.0239C26.0486 49.3336 25.9738 49.6607 25.9405 50C17.9218 48.38 11.6075 42.0559 10 34.0307C10.2029 34.0617 10.4107 34.0778 10.6223 34.0778C10.7588 34.0778 10.8938 34.0711 11.0269 34.058ZM11.0282 25.9361C12.6322 18.4069 18.6021 12.4943 26.1605 10.976C26.0491 10.6663 25.9742 10.3393 25.9407 10C17.924 11.6195 11.6108 17.9408 10.0012 25.9632C10.2037 25.9322 10.4111 25.9162 10.6223 25.9162C10.7593 25.9162 10.8947 25.9229 11.0282 25.9361Z" fill="white"/>
<circle cx="10" cy="30" r="3.5" stroke="white"/>
</svg>
