<svg width="200" height="100" viewBox="0 0 200 100" fill="none" xmlns="http://www.w3.org/2000/svg">
    <g clip-path="url(#clip0_706_480)">
        <path d="M30.0195 60.7666V39.2666H39.0195C42.0195 39.2666 45.0195 39.4666 47.0195 42.1666C47.6195 42.9666 48.4195 44.3666 48.4195 46.7666C48.4195 49.7666 47.1195 51.5666 46.2195 52.3666C44.6195 53.9666 42.5195 54.1666 40.3195 54.2666H36.4195V60.7666H30.0195ZM38.8195 49.2666C39.9195 49.2666 41.1195 49.1666 41.8195 48.3666C42.2195 47.9666 42.4195 47.4666 42.4195 46.9666C42.4195 46.4666 42.2195 45.9666 41.9195 45.5666C41.0195 44.5666 39.5195 44.6666 38.3195 44.6666H36.5195V49.2666H38.8195Z"
              fill="white"/>
        <path d="M58.7195 60.7672L58.5195 59.3672C57.7195 59.9672 56.2195 61.2672 53.5195 61.2672C53.0195 61.2672 51.0195 61.1672 49.6195 60.0672C49.0195 59.5672 48.0195 58.2672 48.0195 56.2672C48.0195 55.7672 48.1195 54.9672 48.9195 53.8672C50.0195 52.3672 51.3195 51.9672 53.1195 51.5672L56.0195 51.1672C56.3195 51.0672 56.7195 50.9672 57.1195 50.9672C57.2195 50.9672 57.6195 50.8672 57.9195 50.6672C58.1195 50.4672 58.3195 49.7672 58.3195 49.4672C58.3195 48.8672 57.5195 48.3672 56.3195 48.3672C55.2195 48.3672 54.7195 48.7672 54.4195 49.1672C54.3195 49.3672 54.2195 49.5672 54.2195 50.0672H48.7195C48.9195 48.8672 49.2195 47.7672 50.1195 46.7672C51.2195 45.5672 53.0195 44.7672 56.4195 44.7672C57.1195 44.7672 59.7195 44.4672 61.7195 45.7672C62.4195 46.2672 63.0195 46.8672 63.4195 47.6672C64.0195 48.9672 63.8195 50.4672 63.8195 51.8672V56.1672C63.8195 58.8672 64.0195 59.3672 64.5195 60.8672L58.7195 60.7672ZM58.1195 53.8672C57.3195 54.1672 56.5195 54.3672 55.7195 54.6672L55.1195 54.8672C54.8195 54.9672 53.9195 55.1672 53.9195 56.2672C53.9195 56.7672 54.2195 57.7672 55.4195 57.7672C55.8195 57.7672 56.3195 57.6672 56.7195 57.5672C57.8195 57.2672 57.9195 56.5672 58.2195 56.2672L58.1195 53.8672Z"
              fill="white"/>
        <path d="M75.1195 60.767V53.167C75.1195 54.067 75.3195 50.167 74.5195 49.767C74.1195 49.567 73.6195 49.367 73.1195 49.367C72.4195 49.367 71.6195 49.767 71.3195 50.367C71.0195 51.167 70.9195 51.867 70.9195 53.467V60.767H65.0195V44.967H70.5195L70.6195 46.767C71.4195 45.867 72.3195 44.667 75.5195 44.667C77.9195 44.667 79.7195 45.467 80.4195 47.967C80.6195 48.567 80.6195 49.167 80.7195 50.467V60.767H75.1195Z"
              fill="white"/>
        <path d="M107.72 49.5668C107.62 48.9668 107.22 47.9668 105.72 47.9668C105.22 47.9668 104.72 48.0668 104.32 48.2668C104.22 48.3668 103.92 48.7668 103.92 49.1668C103.92 49.4668 104.12 49.6668 104.42 49.8668C104.82 50.0668 105.32 50.1668 105.72 50.1668L108.02 50.7668C109.62 51.1668 111.02 51.4668 112.22 52.5668C112.62 52.9668 113.02 53.4668 113.22 54.0668C113.52 54.8668 113.32 55.5668 113.32 55.7668C113.32 57.6668 112.42 58.7668 111.92 59.2668C110.82 60.2668 109.02 61.0668 105.82 61.0668C103.12 61.0668 101.42 60.3668 100.42 59.7668C98.3195 58.5668 98.1195 56.2668 98.0195 55.4668H103.62C103.72 55.9668 103.72 56.3668 104.22 56.7668C104.62 57.0668 104.92 57.3668 105.92 57.3668C107.12 57.3668 107.82 56.7668 107.82 56.2668C107.82 56.0668 107.82 55.7668 107.72 55.5668C107.42 55.0668 106.72 54.9668 105.62 54.6668C105.62 54.6668 102.32 53.9668 102.12 53.8668C101.42 53.5668 98.4195 52.8668 98.4195 49.5668C98.4195 48.2668 98.9195 47.0668 99.9195 46.1668C100.92 45.2668 102.62 44.4668 105.52 44.4668C106.22 44.4668 108.92 44.4668 111.02 45.8668C111.62 46.2668 112.02 46.7668 112.42 47.2668C112.92 48.0668 113.02 49.0668 113.02 49.3668H107.72"
              fill="white"/>
        <path d="M127.92 58.967C126.92 59.967 125.02 61.167 121.82 61.167C120.82 61.167 117.92 61.067 115.82 58.667C114.92 57.567 113.92 55.867 113.92 52.767C113.92 51.667 114.12 50.667 114.42 49.667C115.62 46.267 118.72 44.667 122.12 44.667C123.02 44.667 125.82 44.767 127.82 46.767C128.82 47.767 130.12 49.667 130.12 52.967C130.02 53.767 130.02 56.867 127.92 58.967ZM123.62 49.467C123.12 48.967 122.32 48.867 122.02 48.867C121.52 48.867 121.02 49.067 120.72 49.367C120.02 49.967 119.52 50.767 119.52 52.767C119.52 54.267 119.92 56.867 122.02 56.867C122.62 56.867 123.22 56.667 123.62 56.267C124.12 55.667 124.72 54.667 124.62 52.867C124.62 52.767 124.62 50.567 123.62 49.467Z"
              fill="white"/>
        <path d="M147.82 44.967H153.62V60.767H147.82V44.967ZM147.82 39.167H153.62V43.267H147.82V39.167Z" fill="white"/>
        <path d="M164.619 51.0672C164.219 49.1672 163.219 49.0672 162.219 49.0672C161.419 49.0672 161.119 49.3672 160.819 49.5672C160.119 50.1672 159.819 50.9672 159.819 52.8672C159.819 52.9672 159.719 55.5672 161.119 56.5672C161.519 56.8672 161.719 56.8672 162.219 56.8672C162.619 56.8672 162.919 56.8672 163.319 56.6672C163.919 56.3672 164.519 55.8672 164.619 54.5672H170.219C170.119 55.4672 169.819 56.3672 169.419 57.2672C168.019 60.0672 165.219 61.1672 162.319 61.1672C161.519 61.1672 160.619 61.0672 159.819 60.8672C157.519 60.2672 155.619 58.7672 154.719 56.4672C154.319 55.3672 154.119 54.1672 154.119 53.0672C154.119 52.3672 154.119 50.4672 155.119 48.6672C155.419 48.0672 155.919 47.4672 156.319 46.9672C158.419 44.8672 161.619 44.8672 162.319 44.8672C165.219 44.8672 167.119 45.9672 167.919 46.7672C168.419 47.3672 168.819 47.9672 169.119 48.7672C169.419 49.5672 169.719 50.3672 169.819 51.1672L164.619 51.0672Z"
              fill="white"/>
        <path d="M97.5205 56.1667V51.8668C97.5205 50.5668 97.5205 48.7667 96.9205 47.4667C96.5205 46.6667 96.2205 46.1667 95.5205 45.6667C93.5205 44.3667 90.7205 44.5667 90.0205 44.5667C86.6205 44.5667 84.8205 45.4667 83.7205 46.7667C82.8205 47.7667 82.6205 48.7667 82.4205 50.0667H87.9205C87.9205 49.7667 88.0205 49.4667 88.1205 49.1667C88.4205 48.7667 88.8205 48.2667 89.9205 48.2667C91.1205 48.2667 91.9205 48.8667 91.9205 49.4667C91.9205 49.7667 91.9205 50.3667 91.6205 50.5667C91.3205 50.7667 91.0205 50.8667 90.6205 50.9667C90.3205 50.9667 90.0205 51.0667 89.5205 51.1667L86.6205 51.5667C84.9205 51.9667 83.6205 52.2667 82.4205 53.7667C81.8205 54.4667 81.5205 55.3667 81.6205 56.2667C81.6205 58.3667 82.5205 59.5667 83.1205 60.0667C84.5205 61.2667 86.5205 61.1667 87.0205 61.1667C89.7205 61.1667 91.1205 59.9668 91.9205 59.3668L92.1205 60.8668H98.0205C97.8205 59.8668 97.5205 59.3667 97.5205 56.1667ZM90.3205 57.6667C89.9205 57.7667 89.5205 57.7667 89.1205 57.7667C88.3205 57.6667 87.7205 57.0667 87.6205 56.2667C87.6205 55.0667 88.5205 54.9668 88.8205 54.8668L89.4205 54.6667C90.2205 54.3667 91.0205 54.1668 91.8205 53.8668V55.8668C91.6205 56.3668 91.4205 57.3667 90.3205 57.6667Z"
              fill="white"/>
        <path d="M140.92 60.767V53.067C140.92 53.967 141.22 50.167 140.42 49.767C140.02 49.567 139.52 49.367 139.02 49.367C138.32 49.367 137.52 49.767 137.22 50.367C136.92 51.167 136.72 51.667 136.72 53.267L136.62 60.767H130.92V44.967H136.42L136.52 46.767C137.32 45.867 138.22 44.667 141.42 44.667C143.82 44.667 145.62 45.667 146.32 48.067C146.52 48.667 146.52 49.067 146.62 50.367V60.767H140.92Z"
              fill="white"/>
    </g>
    <defs>
        <clipPath id="clip0_706_480">
            <rect width="140.2" height="22.4" fill="white" transform="translate(30 39)"/>
        </clipPath>
    </defs>
</svg>
