<svg width="200" height="100" viewBox="0 0 200 100" fill="none" xmlns="http://www.w3.org/2000/svg">
    <path d="M70.8 67.9C71 67.2 71.2 66.6 71.5 66.1C71.8 65.5 71.9 64.9 71.8 64.3C71.3 61.5 70.7 58.6 70.3 55.8C70.1 54.6 70.2 53.4 70.3 52.1C70.5 49.9 70.6 47.7 70.9 45.6C71.1 44.1 71.4 43.8 72.7 43.4C72.5 43 72.4 42.6 72.2 42.2C72.9 42.1 73.5 42.1 74.2 42C76.3 41.5 77.7 39.9 78 37.8C78 37.4 78.1 37.1 78.6 37.1C81 37.2 83.4 37.1 85.8 37.3C89.3 37.5 90.7 40.2 91.1 42.6C91.4 44.5 91.2 46.5 90.5 48.4C90.1 49.5 89.4 50.3 88.2 50.5C86.1 50.9 84.1 51.3 82 51.5C80.2 51.7 78.3 51.7 76.4 51.8C76 51.8 75.8 51.9 75.6 52.3C75 53.9 74.6 55.5 74.6 57.3C74.7 59.6 74.5 61.9 74.5 64.2C74.5 64.7 74.6 64.9 75.1 65.1C76.1 65.4 76.9 66 77.2 67C77.3 67.3 77.3 67.6 77.3 67.9H70.8ZM79.6 39.9C79.2 40.6 78.9 41.5 78.3 42C77.3 42.9 76.1 43.6 74.9 44.5C75.6 45.8 76.3 47.3 77.2 48.7C77.3 48.9 77.7 49.1 78 49.1C81.3 49.3 84.5 48.8 87.6 47.9C87.9 47.8 88.1 47.6 88.2 47.4C89 45 89 42.6 87.6 40.4C87.4 40.1 87.1 39.8 86.8 39.8C84.6 39.6 82.5 39.5 80.3 39.4C80 39.4 79.7 39.7 79.6 39.9ZM79.7 47.1C82 46.6 84.3 46 86.6 45.5C86.7 45.7 86.8 46 86.9 46.3C84.6 46.9 82.3 47.4 79.9 48C79.8 47.5 79.8 47.3 79.7 47.1ZM79.3 44.9C81.6 44.3 83.9 43.8 86.3 43.3C86.4 43.6 86.4 43.8 86.5 44.1C84.2 44.6 81.9 45.2 79.6 45.7C79.5 45.5 79.4 45.2 79.3 44.9ZM78.9 42.8C81.2 42.3 83.5 41.8 85.8 41.2C85.9 41.5 86 41.7 86 42C83.7 42.5 81.4 43 79.1 43.6C79 43.3 79 43.1 78.9 42.8ZM73.2 41.5C70.9 41.5 69 39.6 69 37.3C69 34.9 70.9 33 73.2 33C75.5 33 77.4 34.9 77.4 37.2C77.5 39.6 75.6 41.5 73.2 41.5Z"
          fill="white"/>
    <path d="M101.3 50.9998V55.7998H98V41.7998H103.6C104.7 41.7998 105.6 41.9998 106.4 42.3998C107.2 42.7998 107.9 43.3998 108.3 44.0998C108.8 44.7998 109 45.6998 109 46.5998C109 47.9998 108.5 49.0998 107.5 49.8998C106.5 50.6998 105.2 51.0998 103.5 51.0998H101.3V50.9998ZM101.3 48.3998H103.5C104.2 48.3998 104.7 48.1998 105 47.8998C105.3 47.5998 105.5 47.0998 105.5 46.4998C105.5 45.7998 105.3 45.2998 105 44.8998C104.7 44.4998 104.2 44.2998 103.6 44.2998H101.3V48.3998V48.3998Z"
          fill="white"/>
    <path d="M110.6 42.6C110.6 42.1 110.8 41.8 111.1 41.5C111.5 41.2 111.9 41 112.4 41C112.9 41 113.4 41.1 113.7 41.4C114 41.7 114.2 42.1 114.2 42.5C114.2 42.9 114 43.3 113.7 43.6C113.4 43.9 112.9 44 112.4 44C111.9 44 111.4 43.9 111.1 43.6C110.8 43.5 110.6 43.1 110.6 42.6ZM114.1 55.7H110.8V45.3H114.1V55.7Z"
          fill="white"/>
    <path d="M115.699 50.4C115.699 49.3 115.899 48.4 116.199 47.6C116.499 46.8 116.999 46.2 117.699 45.7C118.299 45.3 119.099 45 119.999 45C121.099 45 121.899 45.4 122.499 46.1L122.599 45.2H125.499V55.2C125.499 56.1 125.299 56.9 124.899 57.6C124.499 58.3 123.899 58.8 122.999 59.2C122.099 59.6 121.299 59.7 120.199 59.7C119.399 59.7 118.699 59.6 117.999 59.3C117.299 59 116.699 58.6 116.399 58.2L117.799 56.3C118.399 57 119.199 57.4 120.199 57.4C121.599 57.4 122.399 56.7 122.399 55.2V54.9C121.799 55.6 120.999 55.9 119.999 55.9C118.699 55.9 117.699 55.4 116.899 54.4C116.099 53.4 115.699 52.1 115.699 50.5C115.699 50.5 115.699 50.4 115.699 50.4ZM118.999 50.6C118.999 51.5 119.199 52.1 119.499 52.6C119.799 53.1 120.299 53.3 120.799 53.3C121.499 53.3 121.999 53.1 122.299 52.6V48.2C121.999 47.7 121.499 47.5 120.799 47.5C120.199 47.5 119.799 47.8 119.399 48.3C119.099 48.9 118.999 49.7 118.999 50.6Z"
          fill="white"/>
    <path d="M127.4 42.6C127.4 42.1 127.6 41.8 127.9 41.5C128.3 41.2 128.7 41 129.2 41C129.7 41 130.2 41.1 130.5 41.4C130.9 41.8 131 42.2 131 42.6C131 43 130.8 43.4 130.5 43.7C130.2 44 129.7 44.1 129.2 44.1C128.7 44.1 128.2 44 127.9 43.7C127.6 43.5 127.4 43.1 127.4 42.6ZM130.9 55.7H127.6V45.3H130.9V55.7Z"
          fill="white"/>
</svg>
