<svg width="16" height="16" viewBox="0 0 204 251" fill="#333" xmlns="http://www.w3.org/2000/svg">
    <path d="M92.2326 1.11128C71.0137 3.06694 52.0927 9.61839 37.1319 20.1301C31.216 24.2858 20.3132 35.1886 16.0597 41.1534C12.3439 46.4337 7.16143 56.5053 5.0591 62.7145C1.58781 72.5906 -0.27007 85.4002 0.218844 95.4229C1.19667 115.42 11.2194 136.394 24.6646 146.563C28.1848 149.252 34.4429 152.381 35.4696 151.99C35.8607 151.844 36.5941 151.11 37.0341 150.426C38.0119 148.91 42.0699 133.069 42.1188 130.674C42.1188 129.5 41.581 128.278 40.2121 126.518C31.8516 115.517 28.2825 103.099 29.4559 88.8226C31.8516 59.0966 53.4616 35.2375 83.5788 28.9794C97.5129 26.0948 113.794 26.8282 126.359 30.9351C135.355 33.8686 143.08 38.5132 149.338 44.7714C164.836 60.1722 170.948 84.2757 165.814 109.601C161.561 130.429 149.68 147.492 134.426 154.533C121.567 160.497 108.269 159.373 100.055 151.599C93.7482 145.634 92.0859 138.594 94.6772 128.669C95.3127 126.127 97.5129 118.744 99.5663 112.339C104.211 97.623 105.433 93.2717 106.411 88.1381C108.856 74.8396 105.091 65.0124 95.9483 60.8078C92.3304 59.0966 85.6811 58.7543 81.4276 59.9766C76.294 61.4922 72.9205 63.5457 68.7647 67.7503C65.7334 70.7816 64.3644 72.6395 62.7999 75.8663C59.5731 82.3689 58.5464 87.3558 58.5464 96.1563C58.5953 104.174 59.5242 109.748 61.871 115.517L63.0933 118.5L53.8039 155.999C48.6703 176.583 44.1723 194.966 43.7811 196.873C42.7544 201.664 42.3144 221.123 43.0478 229.483C44.0256 239.995 45.4435 249.578 46.2257 250.311C46.6168 250.702 47.2524 250.898 47.6925 250.751C49.5503 250.018 61.5776 230.461 67.2979 218.874C72.4315 208.46 73.116 206.407 79.3252 183.721C84.1166 166.12 84.4099 165.289 85.1433 166.364C88.7613 171.987 96.7306 177.414 105.433 180.152C111.691 182.107 116.043 182.596 124.354 182.303C139.071 181.765 151.489 177.707 164.103 169.396C171.29 164.604 181.019 154.728 186.202 146.857C196.86 130.82 202.287 113.611 203.265 92.7339C204.39 69.1193 196.176 47.3137 179.797 30.4462C164.641 14.8498 145.72 5.46262 122.056 1.79576C116.141 0.866821 98.9796 0.475689 92.2326 1.11128Z"
          fill="#fff"/>
</svg>
