<svg width="94" height="119" viewBox="0 0 94 119" fill="none" xmlns="http://www.w3.org/2000/svg">
<path d="M0.717972 101.376C0.717972 101.376 0.581406 103.335 2.78277 103.335H14.579V87.7128C14.579 87.7128 14.5182 85.5873 12.5902 83.7351C10.6621 81.883 3.61775 74.5957 3.61775 74.5957C3.61775 74.5957 0.854624 76.2961 0.733169 79.7879L0.717972 101.376Z" stroke="#494949" stroke-width="1.3" stroke-miterlimit="10"/>
<path d="M68.2165 101.376C68.2165 101.376 68.3531 103.335 66.1518 103.335H54.3555V87.7128C54.3555 87.7128 54.4162 85.5873 56.3443 83.7351C58.2724 81.883 65.3168 74.5957 65.3168 74.5957C65.3168 74.5957 68.0798 76.2961 68.2013 79.7879L68.2165 101.376Z" stroke="#494949" stroke-width="1.3" stroke-miterlimit="10"/>
<path d="M3.61768 74.5811C3.61768 74.5811 11.3452 70.6338 17.6457 68.1744L22.7771 65.8971C22.7771 65.8971 24.7962 64.9103 24.6292 61.4489L24.6444 54.9814C24.6444 54.9814 32.9489 61.0997 44.5478 54.9814V62.8304C44.5478 62.8304 44.6085 65.138 47.3109 66.2919C47.3109 66.2919 61.9613 72.4709 65.4228 74.566L56.4807 83.5688C56.4807 83.5688 54.5223 94.9248 54.4008 98.2648V103.305H14.5941V87.683C14.5941 87.683 14.6852 86.0889 12.9393 84.0394L3.61768 74.5811Z" stroke="#494949" stroke-width="1.3" stroke-miterlimit="10"/>
<path d="M17.6294 68.1899C17.6294 68.1899 21.5007 78.7413 34.5116 79.6978C34.5116 79.6978 46.2319 80.0469 51.1509 68.1899" stroke="#494949" stroke-width="1.3" stroke-miterlimit="10"/>
<path d="M14.5792 35.8677C14.5792 35.8677 13.0762 47.7854 24.6296 54.9968C24.6296 54.9968 32.9493 61.024 44.533 54.9968C44.533 54.9968 55.2058 50.002 54.3556 34.8657C54.3556 34.8657 55.5853 30.8425 49.5278 27.5025C49.5278 27.5025 43.5158 22.614 30.1862 20.2304C30.1862 20.2304 27.4989 19.4562 25.6012 22.1737C25.6012 22.1737 22.4434 28.4893 15.308 33.4234C15.2928 33.4386 14.6399 34.0611 14.5792 35.8677Z" stroke="#494949" stroke-width="1.3" stroke-miterlimit="10"/>
<path d="M31.1963 0.357358C31.1963 0.357358 20.1591 1.28345 22.9981 14.2639C22.9981 14.2639 24.4556 19.7749 31.1963 20.6251C31.1963 20.6251 41.11 21.9914 49.6725 27.7302C49.6725 27.7302 54.6522 30.1593 54.5004 35.0933C54.5004 35.0933 56.3829 48.0131 44.6778 55.2244V63.0734C44.6778 63.0734 44.784 65.3962 47.6533 66.626L50.1888 67.7039C50.1888 67.7039 58.7513 65.123 63.3362 62.4813C63.3362 62.4813 64.6419 62.2232 64.2471 59.8852C64.2471 59.8852 60.892 36.9911 60.5428 24.9975C60.5428 24.9975 59.7078 4.21354 39.3641 0.357358C37.0125 0.0737396 33.7469 -0.280278 31.1963 0.357358Z" fill="#E0E0E0"/>
<path d="M30.813 0.470703C30.813 0.470703 15.0654 1.98199 10.1314 17.8166C10.1314 17.8166 8.87124 19.7144 7.64152 38.3273C7.64152 38.3273 6.1841 52.2641 4.83292 59.6121C4.83292 59.6121 3.99791 61.5098 7.20128 62.9066C7.20128 62.9066 12.0594 65.3964 19.2404 67.4763L22.7778 65.8974C22.7778 65.8974 24.6148 64.865 24.63 61.4491L24.6452 54.9817C24.6452 54.9817 15.8701 49.9565 14.6859 39.6936C14.6859 39.6936 14.0483 35.1087 15.3084 33.4235C15.3084 33.4235 18.8913 30.9185 20.8801 28.6109C20.8801 28.6109 24.1745 25.0128 25.6168 22.1738C25.6168 22.1738 26.8313 20.1242 29.3667 20.1242C29.3667 20.1242 24.7818 18.9856 22.9296 14.2185C22.8841 14.2185 21.5824 3.87143 30.813 0.470703Z" fill="#ACACAC"/>
<path d="M31.3668 106.923L31.9709 111.059L4.37963 112.37C3.02046 112.324 1.94824 111.182 1.94824 109.793V102.988H14.7999L31.3668 106.923Z" stroke="#494949" stroke-width="1.3" stroke-miterlimit="10"/>
<path d="M23.9963 43.881C28.4006 43.881 31.971 40.9407 31.971 37.3136C31.971 33.6865 28.4006 30.7461 23.9963 30.7461C19.5919 30.7461 16.0215 33.6865 16.0215 37.3136C16.0215 40.9407 19.5919 43.881 23.9963 43.881Z" fill="black" stroke="#494949" stroke-width="1.3" stroke-miterlimit="10"/>
<path d="M44.6369 43.881C49.0412 43.881 52.6117 40.9407 52.6117 37.3136C52.6117 33.6865 49.0412 30.7461 44.6369 30.7461C40.2325 30.7461 36.6621 33.6865 36.6621 37.3136C36.6621 40.9407 40.2325 43.881 44.6369 43.881Z" fill="black" stroke="#494949" stroke-width="1.3" stroke-miterlimit="10"/>
<path d="M31.9712 36.3755C31.9712 36.3755 34.1408 38.4865 36.6622 36.3755" stroke="#494949" stroke-width="1.3" stroke-miterlimit="10"/>
<path d="M83.2179 111.432H37.8893C34.0788 111.432 31 108.362 31 104.597V75.1094C31 71.329 34.0941 68.2744 37.8893 68.2744H83.2179C87.0283 68.2744 90.1071 71.3441 90.1071 75.1094V104.597C90.1071 108.362 87.0283 111.432 83.2179 111.432Z" fill="black" stroke="#494949" stroke-width="1.3" stroke-miterlimit="10"/>
<path d="M89.4463 118H29.8956C28.6654 118 27.4809 117.034 26.9189 115.827L26.3418 113.782C26.3418 112.478 27.3289 111.432 28.5591 111.432H90.7372C91.9674 111.432 92.9546 112.478 92.9546 113.782L92.5293 116.084C91.694 117.404 90.6765 118 89.4463 118Z" fill="#111111" stroke="#494949" stroke-width="1.3" stroke-miterlimit="10"/>
<path fill-rule="evenodd" clip-rule="evenodd" d="M64.1442 84.2765C63.1126 85.2535 62.6353 86.7504 63.0289 88.2191C63.3654 89.4752 64.2639 90.4307 65.3814 90.8876C64.6975 92.2239 63.4723 93.2767 61.9081 93.6958C58.9741 94.482 55.9582 92.7408 55.172 89.8067C54.3859 86.8727 56.1271 83.8568 59.0611 83.0706C60.918 82.5731 62.8077 83.0878 64.1442 84.2765Z" fill="#494949"/>
</svg>
