<svg width="60" height="60" viewBox="0 0 60 60" fill="none" xmlns="http://www.w3.org/2000/svg">
<path d="M30.0001 23.0078C26.1392 23.0078 23.0088 26.1382 23.0088 29.9991C23.0088 33.86 26.1392 36.9904 30.0001 36.9904C33.861 36.9904 36.9914 33.86 36.9914 29.9991C36.9914 26.1382 33.861 23.0078 30.0001 23.0078Z" stroke="white" stroke-miterlimit="10"/>
<path d="M54 33.9652V26.0348L47.5304 24.7826C47.2174 23.6348 46.6957 22.487 46.0696 21.3391L49.7217 15.913L44.087 10.2783L38.6609 13.9304C37.6174 13.3043 36.4696 12.887 35.2174 12.4696L33.9652 6H26.0348L24.7826 12.4696C23.6348 12.7826 22.487 13.3043 21.3391 13.9304L15.913 10.2783L10.2783 15.913L13.9304 21.3391C13.3043 22.3826 12.887 23.5304 12.4696 24.7826L6 26.0348V33.9652L12.4696 35.2174C12.7826 36.3652 13.3043 37.513 13.9304 38.6609L10.2783 44.087L15.913 49.7217L21.3391 46.0696C22.3826 46.6957 23.5304 47.113 24.7826 47.5304L26.0348 54H33.9652L35.2174 47.5304C36.3652 47.2174 37.513 46.6957 38.6609 46.0696L44.087 49.7217L49.7217 44.087L46.0696 38.6609C46.6957 37.6174 47.113 36.4696 47.5304 35.2174L54 33.9652Z" stroke="white" stroke-miterlimit="10"/>
</svg>
