<svg width="100" height="100" viewBox="0 0 100 100" fill="none" xmlns="http://www.w3.org/2000/svg">
<path fill-rule="evenodd" clip-rule="evenodd" d="M19.2461 41.4502H23.8432C24.4512 41.4502 24.9441 41.936 24.9441 42.5352V54.4711H28.7581V56.6413H23.8432C23.2352 56.6413 22.7423 56.1554 22.7423 55.5562V43.6203H19.2461V41.4502Z" fill="white"/>
<path fill-rule="evenodd" clip-rule="evenodd" d="M0 27.1702C0 25.9717 0.985821 25 2.20189 25H17.5268C18.7428 25 19.7286 25.9717 19.7286 27.1702V27.3438H0V27.1702ZM0 28.7326V58.3335H0.176185H19.4644H19.7286V28.7326H0ZM19.4644 59.7225H19.7286V61.719C19.7286 62.9175 18.7428 63.8891 17.5268 63.8891H2.20189C0.985821 63.8891 0 62.9175 0 61.719V59.7225H0.176185H19.4644ZM10.5689 61.3718C10.5689 61.7553 10.2535 62.0662 9.86434 62.0662C9.47522 62.0662 9.15976 61.7553 9.15976 61.3718C9.15976 60.9882 9.47522 60.6773 9.86434 60.6773C10.2535 60.6773 10.5689 60.9882 10.5689 61.3718ZM3.35429 30.7181C3.51175 30.4023 3.76489 30.1859 4.09287 30.0814C4.23231 30.0381 4.49568 30.0356 9.84624 30.0356C15.3492 30.033 15.4577 30.033 15.6177 30.0839C15.9457 30.1833 16.2014 30.4023 16.3588 30.7181L16.4544 30.9089L16.4621 33.8625L16.4673 36.8185L15.1322 35.5022L15.0966 35.4673C13.8984 34.2898 13.7317 34.126 13.5805 34.1387C13.5562 34.1409 13.5323 34.1476 13.5045 34.1554L13.4951 34.1579C13.4279 34.1782 13.0483 34.5372 11.8398 35.7289L10.2697 37.277L9.54156 36.5616C9.13867 36.1668 8.78488 35.8308 8.75396 35.8155C8.7154 35.7965 8.65843 35.7875 8.60075 35.7885C8.59194 35.7887 8.5832 35.7891 8.57439 35.7898C8.56416 35.7906 8.55393 35.7916 8.54401 35.793C8.50554 35.7984 8.4695 35.8084 8.44148 35.8232C8.40277 35.8433 7.33881 36.8823 6.07348 38.1275C4.81068 39.3749 3.76238 40.3958 3.7442 40.3958C3.70281 40.3958 3.60138 40.2971 3.50742 40.1765C3.44903 40.1018 3.3934 40.0185 3.35689 39.9452C3.29229 39.8164 3.25876 39.6743 3.25876 39.5308V35.3291V30.9089L3.35429 30.7181ZM8.0825 32.821C7.92237 32.3271 7.50673 31.9146 7.01602 31.7619C6.9681 31.747 6.91239 31.7344 6.85219 31.7244C6.81773 31.7187 6.78192 31.7138 6.74525 31.7099C6.69474 31.7044 6.64272 31.7007 6.59086 31.6987C6.52264 31.696 6.45465 31.6964 6.3906 31.7002C6.31726 31.7044 6.2492 31.7131 6.1923 31.7263C5.46403 31.8892 4.9243 32.5513 4.9243 33.2795C4.9269 33.9693 5.37622 34.583 6.03988 34.7969C6.31364 34.8861 6.76556 34.8861 7.03924 34.7969C7.52475 34.639 7.91206 34.2444 8.09029 33.725C8.16261 33.5136 8.15733 33.0578 8.0825 32.821ZM6.27485 32.4619C6.02698 32.5407 5.81515 32.742 5.72221 32.9839C5.6927 33.0623 5.67681 33.1555 5.67429 33.251C5.6728 33.3059 5.67571 33.3615 5.68303 33.4154C5.68672 33.4429 5.69152 33.4699 5.6975 33.4961C5.71104 33.5564 5.73048 33.6126 5.75581 33.6611C5.77918 33.7052 5.80696 33.7477 5.83844 33.7883C5.87739 33.8384 5.92193 33.8852 5.97056 33.9273C6.02611 33.9753 6.08694 34.0172 6.15091 34.0508C6.26454 34.1119 6.30837 34.1196 6.53822 34.1196C6.65413 34.1196 6.72283 34.1175 6.77697 34.1077C6.83016 34.0983 6.86927 34.0811 6.92561 34.0508C7.10628 33.9565 7.2794 33.7656 7.35163 33.5823C7.50917 33.1698 7.30001 32.6757 6.89453 32.4975C6.74486 32.4314 6.42459 32.4136 6.27485 32.4619ZM10.8924 37.6705C11.1529 37.4209 11.5198 37.0627 12.0128 36.5767C12.8649 35.7366 13.5725 35.0491 13.588 35.0491C13.5967 35.0491 13.8078 35.2501 14.1306 35.5641C14.3811 35.8076 14.6989 36.1188 15.0419 36.457L16.4699 37.8651L16.4621 38.8072L16.4562 39.5363C16.4556 39.6009 16.4482 39.6651 16.4342 39.728C16.4179 39.8013 16.3927 39.8725 16.3588 39.9401C16.2014 40.2558 15.9457 40.4749 15.6177 40.5741C15.4576 40.6251 15.3492 40.6251 10.027 40.6251H4.60152L6.60794 38.6467L8.61712 36.6658L9.35813 37.3965C10.1613 38.1833 10.1793 38.1961 10.3781 38.1323C10.3941 38.1269 10.4396 38.0908 10.5191 38.0197C10.6037 37.9442 10.7264 37.8295 10.8924 37.6705ZM17.7029 50.9551H2.0257V55.5558H17.7029V50.9551ZM7.51271 54.0221H3.59343V52.4888H7.51271V54.0221ZM16.1352 54.0221H9.08044V52.4888H16.1352V54.0221ZM17.7029 49.6529H2.0257V41.9272H17.7029V49.6529ZM16.1352 43.4725H8.29662V45.0175H16.1352V43.4725ZM6.72889 43.4725H3.59343V45.0175H6.72889V43.4725ZM16.1352 46.5627H3.59343V48.1077H16.1352V46.5627Z" fill="white"/>
<path fill-rule="evenodd" clip-rule="evenodd" d="M28.2715 38.2814C28.2715 37.0829 29.2573 36.1113 30.4734 36.1113H45.7983C47.0144 36.1113 48.0002 37.0829 48.0002 38.2814V38.4551H28.2715V38.2814ZM28.2715 39.844V69.4449H28.4477H47.7359H48.0002V39.844H28.2715ZM47.7359 70.8338H48.0002V72.8303C48.0002 74.0288 47.0144 75.0005 45.7983 75.0005H30.4734C29.2573 75.0005 28.2715 74.0288 28.2715 72.8303V70.8338H28.4477H47.7359ZM38.8404 72.4831C38.8404 72.8666 38.5249 73.1776 38.1358 73.1776C37.7467 73.1776 37.4312 72.8666 37.4312 72.4831C37.4312 72.0996 37.7467 71.7886 38.1358 71.7886C38.5249 71.7886 38.8404 72.0996 38.8404 72.4831ZM32.0223 41.3609C32.1246 41.2889 32.239 41.2325 32.3644 41.1927C32.5039 41.1494 32.7672 41.1469 38.1178 41.1469C43.6206 41.1444 43.7291 41.1444 43.8892 41.1952C44.2172 41.2946 44.4728 41.5136 44.6304 41.8293L44.7259 42.0202L44.7336 44.9737L44.7388 47.9298L43.4037 46.6134L43.3679 46.5782C42.1699 45.401 42.0032 45.2373 41.852 45.25C41.8251 45.2524 41.7985 45.2604 41.7666 45.2692C41.6994 45.2895 41.3198 45.6484 40.1113 46.84L38.5412 48.3881L37.813 47.6728C37.7391 47.6002 37.6668 47.5297 37.5978 47.463L37.471 47.3405C37.3877 47.2603 37.3119 47.188 37.2473 47.1269C37.1226 47.0091 37.0398 46.9338 37.0254 46.9266C36.9479 46.8884 36.7956 46.8911 36.713 46.9343C36.6909 46.9458 36.3349 47.2891 35.798 47.8134C35.3943 48.2076 34.8882 48.7041 34.345 49.2388C33.0822 50.4862 32.0338 51.5072 32.0158 51.5072C31.9962 51.5072 31.9634 51.4851 31.9243 51.4494C31.9154 51.4413 31.9061 51.4324 31.8966 51.423C31.8708 51.397 31.8434 51.3666 31.8157 51.3333C31.7445 51.2481 31.6726 51.1451 31.6284 51.0565C31.5638 50.9276 31.5302 50.7856 31.5302 50.6418V46.4404V42.0202L31.6259 41.8293C31.6641 41.7527 31.708 41.6818 31.7571 41.6171C31.7686 41.602 31.7804 41.5872 31.7924 41.5728C31.8071 41.5554 31.822 41.5383 31.8375 41.5216C31.8938 41.4614 31.9555 41.4079 32.0223 41.3609ZM36.354 43.9324C36.1939 43.4385 35.7781 43.026 35.2875 42.8731C35.1746 42.8379 35.0179 42.816 34.8624 42.8099C34.8209 42.8084 34.7795 42.808 34.739 42.8086C34.6366 42.8105 34.5401 42.8198 34.4638 42.8376C33.7355 43.0005 33.1959 43.6626 33.1959 44.3906C33.1985 45.0807 33.6478 45.6944 34.3114 45.9082C34.5851 45.9974 35.037 45.9974 35.3107 45.9082C35.7962 45.7504 36.1835 45.3557 36.3618 44.8362C36.4029 44.7158 36.419 44.5162 36.4114 44.323C36.4055 44.1768 36.3862 44.0342 36.354 43.9324ZM34.5463 43.5732C34.2985 43.6522 34.0867 43.8534 33.9937 44.0953C33.9189 44.2939 33.9318 44.5892 34.0274 44.7724C34.1125 44.933 34.2571 45.0754 34.4225 45.1621C34.536 45.2233 34.5799 45.2309 34.8097 45.2309C35.0396 45.2309 35.0835 45.2233 35.197 45.1621C35.3779 45.0678 35.5509 44.8769 35.6232 44.6936C35.7807 44.2811 35.5716 43.7872 35.1662 43.6089C35.0857 43.5732 34.956 43.5517 34.8301 43.5467C34.7214 43.5425 34.6157 43.5509 34.5463 43.5732ZM38.6497 49.2436C38.7091 49.2233 39.1816 48.7752 40.2844 47.6881C41.1364 46.8478 41.8441 46.1603 41.8595 46.1603C41.875 46.1603 42.5283 46.7942 43.3134 47.5684L44.7414 48.9764L44.7336 49.9184L44.7276 50.6476C44.7265 50.7876 44.6933 50.9258 44.6304 51.0515C44.4728 51.3672 44.2172 51.5862 43.8892 51.6854C43.7291 51.7364 43.6206 51.7364 38.2985 51.7364H32.873L34.8796 49.758L36.8885 47.7771L37.6297 48.5078C38.4328 49.2946 38.4509 49.3074 38.6497 49.2436ZM45.9745 62.0663H30.2972V66.6671H45.9745V62.0663ZM35.7843 65.1334H31.8649V63.6H35.7843V65.1334ZM44.4067 65.1334H37.352V63.6H44.4067V65.1334ZM45.9745 60.7643H30.2972V53.0385H45.9745V60.7643ZM44.4067 54.5838H36.5681V56.1288H44.4067V54.5838ZM35.0004 54.5838H31.8649V56.1288H35.0004V54.5838ZM44.4067 57.674H31.8649V59.219H44.4067V57.674Z" fill="white"/>
</svg>
