<svg width="80" height="80" viewBox="0 0 91 80" fill="none" xmlns="http://www.w3.org/2000/svg">
    <path d="M90.5504 40.0092C90.5504 34.0581 83.0979 28.4184 71.672 24.921C74.3087 13.2753 73.1368 4.01007 67.9732 1.04372C66.783 0.347905 65.3913 0.0183105 63.8716 0.0183105V4.10162C64.7139 4.10162 65.3914 4.26642 65.959 4.57771C68.4493 6.00595 69.5296 11.4443 68.6873 18.439C68.4859 20.1602 68.1563 21.973 67.7534 23.8224C64.1645 22.9435 60.246 22.266 56.1261 21.8265C53.6541 18.439 51.0906 15.3628 48.5088 12.6711C54.4781 7.12291 60.0812 4.08331 63.8899 4.08331V0C58.8544 0 52.2625 3.58892 45.5974 9.8146C38.9322 3.62554 32.3403 0.0732436 27.3048 0.0732436V4.15656C31.0952 4.15656 36.7166 7.17784 42.6859 12.6894C40.1224 15.3811 37.5589 18.439 35.1236 21.8265C30.9853 22.266 27.0668 22.9435 23.4779 23.8407C23.0567 22.0096 22.7454 20.2335 22.5257 18.5306C21.6651 11.5358 22.7271 6.09751 25.1991 4.65095C25.7484 4.32136 26.4625 4.17487 27.3048 4.17487V0.0915541C25.7667 0.0915541 24.3751 0.421149 23.1666 1.11696C18.0213 4.08331 16.8677 13.3303 19.5227 24.9393C8.13341 28.455 0.717529 34.0764 0.717529 40.0092C0.717529 45.9602 8.17003 51.5999 19.596 55.0973C16.9592 66.743 18.1311 76.0082 23.2948 78.9746C24.485 79.6704 25.8766 80 27.4147 80C32.4502 80 39.0421 76.4111 45.7072 70.1854C52.3724 76.3745 58.9643 79.9268 63.9997 79.9268C65.5378 79.9268 66.9295 79.5972 68.138 78.9013C73.2833 75.935 74.4369 66.688 71.7818 55.079C83.1345 51.5816 90.5504 45.9419 90.5504 40.0092ZM66.7097 27.7958C66.0322 30.1579 65.1899 32.5933 64.2378 35.0286C63.487 33.5637 62.6997 32.0989 61.8391 30.634C60.9968 29.1691 60.0995 27.7409 59.2023 26.3493C61.8024 26.7338 64.311 27.2099 66.7097 27.7958ZM58.3234 47.2969C56.8951 49.7688 55.4303 52.1126 53.9105 54.2916C51.1822 54.5296 48.4172 54.6578 45.634 54.6578C42.869 54.6578 40.1041 54.5296 37.3941 54.3099C35.8743 52.1309 34.3911 49.8054 32.9629 47.3518C31.5713 44.9531 30.3078 42.5177 29.1542 40.0641C30.2895 37.6104 31.5713 35.1568 32.9446 32.7581C34.3728 30.2861 35.8377 27.9423 37.3575 25.7633C40.0858 25.5253 42.8507 25.3971 45.634 25.3971C48.3989 25.3971 51.1638 25.5253 53.8738 25.745C55.3936 27.924 56.8768 30.2495 58.3051 32.7031C59.6967 35.1019 60.9601 37.5372 62.1137 39.9908C60.9601 42.4445 59.6967 44.8981 58.3234 47.2969ZM64.2378 44.9165C65.2266 47.3701 66.0689 49.8238 66.7647 52.2042C64.366 52.7901 61.8391 53.2845 59.2206 53.669C60.1178 52.2591 61.0151 50.8125 61.8574 49.3294C62.6997 47.8645 63.487 46.3813 64.2378 44.9165ZM45.6706 64.4541C43.9677 62.6963 42.2648 60.737 40.5802 58.5946C42.2282 58.6679 43.9128 58.7228 45.6157 58.7228C47.3369 58.7228 49.0398 58.6862 50.7061 58.5946C49.0581 60.737 47.3552 62.6963 45.6706 64.4541ZM32.0473 53.669C29.4472 53.2845 26.9386 52.8084 24.5399 52.2225C25.2174 49.8604 26.0597 47.425 27.0119 44.9897C27.7626 46.4546 28.55 47.9194 29.4106 49.3843C30.2712 50.8492 31.1501 52.2774 32.0473 53.669ZM45.5791 15.5642C47.282 17.322 48.9849 19.2813 50.6695 21.4237C49.0215 21.3504 47.3369 21.2955 45.634 21.2955C43.9128 21.2955 42.2099 21.3321 40.5436 21.4237C42.1915 19.2813 43.8945 17.322 45.5791 15.5642ZM32.029 26.3493C31.1318 27.7592 30.2346 29.2058 29.3923 30.6889C28.55 32.1538 27.7626 33.6187 27.0119 35.0835C26.0231 32.6299 25.1808 30.1762 24.485 27.7958C26.8837 27.2282 29.4106 26.7338 32.029 26.3493ZM15.4577 49.2744C8.97571 46.5095 4.78253 42.884 4.78253 40.0092C4.78253 37.1344 8.97571 33.4905 15.4577 30.7439C17.0325 30.0664 18.7537 29.4621 20.5298 28.8945C21.5736 32.4834 22.9469 36.2188 24.6498 40.0458C22.9652 43.8544 21.6102 47.5715 20.5848 51.1421C18.772 50.5745 17.0508 49.9519 15.4577 49.2744ZM25.309 75.4406C22.8187 74.0124 21.7384 68.574 22.5807 61.5793C22.7821 59.8581 23.1117 58.0453 23.5145 56.1959C27.1034 57.0748 31.0219 57.7523 35.1419 58.1918C37.6138 61.5793 40.1774 64.6555 42.7592 67.3472C36.7899 72.8954 31.1867 75.935 27.3781 75.935C26.5541 75.9167 25.8583 75.7519 25.309 75.4406ZM68.7422 61.4878C69.6029 68.4825 68.5408 73.9208 66.0689 75.3674C65.5195 75.697 64.8054 75.8434 63.9631 75.8434C60.1728 75.8434 54.5514 72.8222 48.582 67.3106C51.1455 64.6189 53.7091 61.561 56.1444 58.1735C60.2826 57.734 64.2012 57.0565 67.7901 56.1593C68.2112 58.0087 68.5408 59.7848 68.7422 61.4878ZM75.7919 49.2744C74.2172 49.9519 72.496 50.5562 70.7198 51.1238C69.6761 47.5349 68.3028 43.7995 66.5999 39.9725C68.2845 36.1639 69.6395 32.4468 70.6649 28.8762C72.4776 29.4438 74.1989 30.0664 75.8102 30.7439C82.2922 33.5088 86.4854 37.1344 86.4854 40.0092C86.4671 42.884 82.2739 46.5278 75.7919 49.2744Z"
          fill="#fff"/>
    <path d="M45.6155 48.3767C50.237 48.3767 53.9835 44.6302 53.9835 40.0087C53.9835 35.3871 50.237 31.6406 45.6155 31.6406C40.9939 31.6406 37.2474 35.3871 37.2474 40.0087C37.2474 44.6302 40.9939 48.3767 45.6155 48.3767Z"
          fill="#fff"/>
</svg>
