<svg width="60" height="60" viewBox="0 0 60 60" fill="none" xmlns="http://www.w3.org/2000/svg">
<path fill-rule="evenodd" clip-rule="evenodd" d="M30 0C13.4389 0 0 13.4389 0 30C0 46.5611 13.4389 60 30 60C46.5611 60 60 46.5611 60 30C60 13.4389 46.5611 0 30 0ZM30 1.25C45.8856 1.25 58.75 14.1145 58.75 30C58.75 45.8856 45.8856 58.75 30 58.75C14.1144 58.75 1.25 45.8856 1.25 30C1.25 14.1145 14.1144 1.25 30 1.25ZM33.75 13.6914V23.6914H28.75V18.6914H26.25V17.4414H21.25V18.6914H18.75V22.4414H15.1245V14.9414H10V44.9414H11.25V33.0664H12.4365V35.5664H16.25V45H17.5V29.9414H20.5127V27.4414H23.3594V29.9414H26.25V28.6914H24.6094V26.1914H19.2627V28.6914H16.25V34.3164H13.6865V31.8164H11.25V16.1914H13.8745V23.6914H20V19.9414H22.5V18.6914H25V19.9414H27.5V24.9414H35V14.9414H40V26.1914H45V17.4414H48.75V31.1914H45.625V28.6914H40V29.9414H44.375V32.4414H48.75V44.9414H50V32.4414V31.1914V16.1914H43.75V24.9414H41.25V13.6914H33.75ZM31.2183 26.1938C31.071 26.2008 30.9309 26.2596 30.8228 26.3599L22.7002 33.9185C22.6087 34.004 22.5451 34.115 22.5175 34.2372C22.4899 34.3593 22.4996 34.4869 22.5454 34.6035C22.5912 34.72 22.6709 34.8201 22.7742 34.8908C22.8776 34.9615 22.9998 34.9996 23.125 35H23.75V44.375C23.75 44.5408 23.8159 44.6997 23.9331 44.8169C24.0503 44.9341 24.2092 45 24.375 45H38.125C38.2908 45 38.4497 44.9341 38.5669 44.8169C38.6841 44.6997 38.75 44.5408 38.75 44.375V35H39.375C39.5002 34.9996 39.6224 34.9615 39.7258 34.8908C39.8291 34.8201 39.9088 34.72 39.9546 34.6035C40.0004 34.4869 40.0101 34.3593 39.9825 34.2372C39.9549 34.115 39.8913 34.004 39.7998 33.9185L38.75 32.9419V29.3262C38.7513 29.2425 38.7358 29.1593 38.7043 29.0817C38.6729 29.0041 38.6262 28.9336 38.567 28.8744C38.5078 28.8152 38.4373 28.7685 38.3597 28.7371C38.2821 28.7056 38.199 28.6901 38.1152 28.6914C38.0332 28.6927 37.9521 28.7101 37.8768 28.7427C37.8015 28.7753 37.7333 28.8224 37.6761 28.8814C37.619 28.9403 37.5741 29.0099 37.5438 29.0862C37.5136 29.1626 37.4987 29.2441 37.5 29.3262V31.7798L31.6748 26.3599C31.6136 26.3031 31.5417 26.2592 31.4633 26.2307C31.3849 26.2022 31.3016 26.1896 31.2183 26.1938ZM31.25 27.6709L37.7832 33.75H24.7144L31.25 27.6709ZM25 35H37.5V43.75H33.75V39.3164C33.75 39.1507 33.6841 38.9917 33.5669 38.8745C33.4497 38.7573 33.2908 38.6914 33.125 38.6914H29.375C29.2092 38.6914 29.0503 38.7573 28.9331 38.8745C28.8159 38.9917 28.75 39.1507 28.75 39.3164V43.75H25V35ZM30 39.9414H32.5V43.75H30V39.9414Z" fill="white"/>
</svg>
