<svg width="100" height="100" viewBox="0 0 100 100" fill="none" xmlns="http://www.w3.org/2000/svg">
<path fill-rule="evenodd" clip-rule="evenodd" d="M17.2061 46.028C17.6511 46.4748 17.9011 47.0806 17.9014 47.7126V54.7368H38.0421V34.9028H12.7472V45.3298H15.5286C16.1578 45.33 16.7612 45.5812 17.2061 46.028ZM16.9519 71.5976H1.27649e-06V73.5702C-0.00024947 73.758 0.0364437 73.9442 0.107906 74.1176C0.179369 74.2912 0.28418 74.449 0.416407 74.5818C0.548717 74.7146 0.705769 74.8198 0.878617 74.8916C1.05146 74.9634 1.23668 75.0002 1.42374 75H15.5281C15.7152 75.0002 15.9005 74.9634 16.0733 74.8916C16.2462 74.82 16.4032 74.7146 16.5355 74.5818C16.6677 74.449 16.7726 74.2912 16.844 74.1176C16.9155 73.9442 16.9521 73.758 16.9519 73.5702V71.5976ZM8.03934 73.475C8.01226 73.4186 7.99922 73.3564 8.0014 73.2938C8.00056 73.2314 8.01277 73.1694 8.03734 73.112C8.06183 73.0544 8.0981 73.0028 8.14382 72.9604C8.23259 72.8732 8.35186 72.8244 8.47598 72.8244C8.6001 72.8244 8.71937 72.8732 8.80813 72.9604C8.85385 73.0028 8.89004 73.0544 8.91462 73.112C8.93911 73.1694 8.95131 73.2314 8.95047 73.2938C8.95265 73.3564 8.93961 73.4186 8.91261 73.475C8.89272 73.5374 8.85669 73.5934 8.80813 73.6372C8.71853 73.7228 8.59968 73.7704 8.47598 73.7704C8.35236 73.7704 8.23342 73.7228 8.14382 73.6372C8.09735 73.5918 8.06158 73.5362 8.03934 73.475ZM56 27C56 25.8954 55.1084 25 54.0083 25H10.9424C9.84238 25 8.95064 25.8954 8.95064 27V30.1276H56V27ZM12.2083 27.3822C12.2327 27.4397 12.2449 27.5017 12.244 27.5642C12.2461 27.6268 12.233 27.6891 12.2059 27.7456C12.1802 27.8049 12.1449 27.8596 12.1014 27.9073C12.01 27.99 11.8923 28.0374 11.7694 28.041C11.7071 28.0428 11.6453 28.0297 11.5892 28.0027C11.5283 27.9851 11.4728 27.9523 11.428 27.9073C11.3831 27.8623 11.3504 27.8066 11.3329 27.7454C11.3059 27.6889 11.2929 27.6267 11.295 27.5642C11.2941 27.4398 11.3418 27.3201 11.4278 27.2307C11.4755 27.1869 11.53 27.1514 11.5892 27.1256C11.6753 27.09 11.7701 27.081 11.8614 27.0997C11.9527 27.1184 12.0363 27.164 12.1017 27.2307C12.1474 27.2731 12.1837 27.3248 12.2083 27.3822ZM14.8257 27.2307C14.9118 27.32 14.9595 27.4397 14.9586 27.5642C14.9593 27.6257 14.9498 27.6869 14.9305 27.7454C14.9014 27.8028 14.8663 27.857 14.8261 27.9072C14.7815 27.9477 14.7301 27.9801 14.6743 28.0027C14.6144 28.0288 14.5497 28.0418 14.4845 28.0408C14.3607 28.0414 14.2414 27.9935 14.1522 27.9072C14.0661 27.814 14.0186 27.6912 14.0194 27.5642C14.0195 27.5027 14.0289 27.4416 14.0474 27.383C14.071 27.3253 14.1067 27.2734 14.1519 27.2307C14.2189 27.1635 14.3042 27.1177 14.3971 27.099C14.49 27.0803 14.5862 27.0896 14.6739 27.1256C14.7302 27.1516 14.7816 27.1871 14.8257 27.2307ZM17.6449 27.383C17.671 27.4397 17.684 27.5017 17.6828 27.5642C17.6849 27.6267 17.6718 27.6889 17.6449 27.7454C17.6249 27.8076 17.5889 27.8634 17.5405 27.9072C17.4513 27.9935 17.3321 28.0414 17.2081 28.0408C17.1459 28.0428 17.0841 28.0297 17.0279 28.0027C16.9709 27.9824 16.9191 27.9497 16.8761 27.9072C16.8295 27.8619 16.7937 27.8066 16.7717 27.7454C16.7445 27.689 16.7315 27.6267 16.7336 27.5642C16.7327 27.5016 16.7449 27.4396 16.7695 27.3822C16.7941 27.3248 16.8303 27.2731 16.8761 27.2307C16.9185 27.185 16.9703 27.1492 17.0279 27.1256C17.1141 27.09 17.2089 27.081 17.3002 27.0997C17.3914 27.1184 17.4751 27.164 17.5405 27.2307C17.5886 27.2707 17.6248 27.3235 17.6449 27.383ZM41.8103 34.8937H52.2034V47.8272H41.8103V34.8937ZM56 31.0907H8.95064V45.3298H11.7981V34.4263C11.7974 34.3635 11.8093 34.3013 11.833 34.2432C11.8566 34.1851 11.8915 34.1323 11.9357 34.0879C11.9798 34.0436 12.0324 34.0085 12.0902 33.9847C12.1481 33.9609 12.21 33.949 12.2725 33.9496H38.5167C38.5791 33.949 38.641 33.9609 38.699 33.9847C38.7568 34.0085 38.8093 34.0435 38.8536 34.0879C38.8978 34.1323 38.9326 34.1851 38.9563 34.2432C38.98 34.3013 38.9918 34.3635 38.9911 34.4263V55.2134C38.991 55.3396 38.9408 55.4606 38.8517 55.55C38.7629 55.6392 38.6424 55.6896 38.5167 55.69H17.9014V58.5496H54.0083C55.1084 58.5496 56 57.6542 56 56.5496V31.0907ZM41.0008 48.6402C40.9118 48.551 40.8618 48.43 40.8614 48.3036L40.861 34.4171C40.8629 34.2913 40.9136 34.1712 41.0022 34.0823C41.0908 33.9933 41.2103 33.9425 41.3356 33.9405H52.678C52.8037 33.9408 52.9244 33.9912 53.0132 34.0805C53.102 34.1698 53.1523 34.2908 53.1526 34.4171V48.3036C53.1533 48.3664 53.1415 48.4286 53.1178 48.4868C53.0941 48.5448 53.0593 48.5976 53.015 48.642C52.9708 48.6864 52.9182 48.7216 52.8605 48.7452C52.8025 48.769 52.7405 48.7808 52.678 48.7802H41.336C41.2101 48.7798 41.0896 48.7296 41.0008 48.6402ZM41.0026 55.5484C40.9139 55.4594 40.8634 55.3394 40.8614 55.2136L40.861 51.134C40.8629 51.0082 40.9136 50.8882 41.0022 50.7994C41.0908 50.7106 41.2103 50.6598 41.3356 50.6578H52.678C52.8037 50.6582 52.9242 50.7084 53.013 50.7976C53.102 50.887 53.1523 51.0078 53.1526 51.134V55.2136C53.1523 55.34 53.102 55.461 53.0132 55.5502C52.9244 55.6396 52.8037 55.6898 52.678 55.6902H41.336C41.2107 55.6882 41.0912 55.6374 41.0026 55.5484ZM1.42374 46.2828H15.5281C15.7152 46.2824 15.9005 46.3194 16.0733 46.391C16.2462 46.4628 16.4032 46.5682 16.5355 46.701C16.6677 46.8338 16.7726 46.9916 16.844 47.1652C16.9155 47.3386 16.9521 47.5248 16.9519 47.7126V48.9802H1.27649e-06V47.7126C-0.00024947 47.5248 0.0364437 47.3386 0.107906 47.1652C0.179369 46.9916 0.28418 46.8338 0.416407 46.701C0.548717 46.5682 0.705769 46.4628 0.878617 46.3912C1.05138 46.3194 1.23668 46.2824 1.42374 46.2828ZM16.9519 49.9334H1.27649e-06V70.6444H16.9519V49.9334ZM41.8103 51.6108H52.2034V54.737H41.8103V51.6108ZM1.1475 63.2768V56.3598H10.006V63.2768H1.1475ZM0.697076 56.2862C0.697076 56.083 0.86516 55.9184 1.07244 55.9184H10.0812C10.2885 55.9184 10.4565 56.083 10.4565 56.2862V63.3504C10.4565 63.5536 10.2885 63.7184 10.0812 63.7184H1.07244C0.86516 63.7184 0.697076 63.5536 0.697076 63.3504V56.2862ZM11.8644 56.3128V61.124H15.8203V56.3128H11.8644ZM11.6996 55.9184C11.5631 55.9184 11.4523 56.0242 11.4523 56.155V61.2818C11.4523 61.4124 11.5631 61.5184 11.6996 61.5184H15.9852C16.1217 61.5184 16.2325 61.4124 16.2325 61.2818V56.155C16.2325 56.0242 16.1217 55.9184 15.9852 55.9184H11.6996ZM11.8575 63.3434V62.2934H15.8274V63.3434H11.8575ZM11.4523 62.2184C11.4523 62.0526 11.5974 61.9184 11.7764 61.9184H15.9084C16.0874 61.9184 16.2325 62.0526 16.2325 62.2184V63.4184C16.2325 63.584 16.0874 63.7184 15.9084 63.7184H11.7764C11.5974 63.7184 11.4523 63.584 11.4523 63.4184V62.2184Z" fill="white"/>
</svg>
