<svg width="71" height="112" viewBox="0 0 71 112" fill="none" xmlns="http://www.w3.org/2000/svg">
<path d="M0 7.10938V14.1969L14.3937 14.2625C30.3187 14.35 29.5312 14.2844 33.2719 15.8594C37.7344 17.7406 41.6719 21.4594 43.9031 25.9219C44.275 26.6438 44.6469 27.4531 44.7125 27.7156L44.8656 28.2188H22.4437H0V35.3281V42.4375H22.4219C34.7594 42.4375 44.8437 42.4813 44.8437 42.5469C44.8437 42.9188 43.4219 45.6969 42.5687 47.0313C41.3437 48.9344 38.8937 51.4063 36.9906 52.6969C35.175 53.9438 32.375 55.2344 30.2531 55.8469C28.5906 56.3063 28.1969 56.3281 14.2844 56.3938L0 56.4594V63.6125V70.7656L20.6281 91.3938L41.2344 112L46.2656 106.969L51.2969 101.938L35.6562 86.2969L20.0156 70.6563H22.9906C29.9031 70.6563 35.2187 69.5625 40.3594 67.0688C49.4812 62.6281 56.525 54.075 59.0625 44.3406L59.5656 42.4375H65.2312H70.875V35.3281V28.2188H65.2094H59.5437L59.1719 26.6219C58.3406 23.2094 56.4156 18.8563 54.3812 15.8375L53.375 14.3281L62.125 14.2625L70.875 14.2188V7.10938V1.90735e-06H35.4375H0V7.10938Z" fill="white"/>
</svg>
