<svg width="100" height="100" viewBox="0 0 100 100" fill="none" xmlns="http://www.w3.org/2000/svg">
    <path d="M17.7738 7.33368H73.2473C82.3473 7.33368 89.7242 14.7107 89.7242 23.8106V79.2841C89.7242 88.3841 82.3473 95.761 73.2473 95.761H17.7738C8.67385 95.761 1.29688 88.3841 1.29688 79.2841V23.8106C1.29688 14.7107 8.67385 7.33368 17.7738 7.33368V7.33368Z"
          fill="url(#paint0_radial)"/>
    <path opacity="0.81"
          d="M18.1872 10.5844H72.5087C80.3204 10.5844 86.653 16.917 86.653 24.7287V57.6475C86.653 65.4592 80.3204 71.7918 72.5087 71.7918H18.1872C10.3756 71.7918 4.04297 65.4592 4.04297 57.6475V24.7287C4.04297 16.917 10.3756 10.5844 18.1872 10.5844Z"
          fill="url(#paint1_linear)"/>
    <path d="M38.8754 54.7582L30.757 57.4743C29.6626 54.2508 27.3445 52.6391 23.8027 52.6391C20.022 52.6391 18.1317 53.8628 18.1317 56.3102C18.1317 57.2853 18.4849 58.111 19.1913 58.7875C19.8977 59.4641 21.4945 60.0511 23.9817 60.5485C28.1404 61.3843 31.1848 62.2299 33.1149 63.0855C35.045 63.9412 36.6717 65.3191 37.9949 67.2193C39.3181 69.1196 39.9797 71.2437 39.9797 73.5917C39.9797 77.2728 38.562 80.4565 35.7265 83.1427C32.891 85.8289 28.6876 87.1721 23.1162 87.1721C18.9376 87.1721 15.3808 86.2219 12.4459 84.3217C9.51091 82.4214 7.57583 79.6009 6.64062 75.86L15.4753 73.8603C16.4702 77.6608 19.236 79.5611 23.7728 79.5611C25.9616 79.5611 27.5932 79.1382 28.6677 78.2926C29.7422 77.4469 30.2794 76.4371 30.2795 75.2631C30.2794 74.0692 29.7919 73.144 28.8169 72.4873C27.8419 71.8307 25.9616 71.2139 23.1759 70.6368C17.9825 69.5623 14.2815 68.0949 12.0728 66.2344C9.8641 64.3739 8.75976 61.6529 8.75976 58.0712C8.75976 54.4498 10.078 51.3955 12.7145 48.9082C15.351 46.421 18.9276 45.1773 23.4445 45.1773C31.4435 45.1773 36.5871 48.371 38.8754 54.7582V54.7582ZM70.8611 72.9649H51.4605C51.4406 73.5021 51.4307 73.9697 51.4307 74.3677C51.4307 76.5167 52.0027 78.1384 53.1469 79.2328C54.291 80.3272 55.659 80.8744 57.2508 80.8743C60.2156 80.8744 61.9965 79.2925 62.5935 76.1287L70.6522 76.7256C68.4037 83.6899 63.8371 87.1721 56.9524 87.1721C53.9478 87.1721 51.3958 86.5702 49.2966 85.3663C47.1974 84.1625 45.4662 82.4065 44.1032 80.0983C42.7402 77.7902 42.0587 75.0243 42.0587 71.8009C42.0587 67.0055 43.4267 63.1353 46.1627 60.1904C48.8987 57.2455 52.4156 55.773 56.7136 55.773C60.5937 55.773 63.9216 57.141 66.6974 59.877C69.4732 62.613 70.8611 66.9756 70.8611 72.9649V72.9649ZM51.4307 67.8013H62.1458C61.8672 63.6626 60.1659 61.5932 57.0419 61.5932C53.699 61.5932 51.8286 63.6626 51.4307 67.8013Z"
          fill="#111111"/>
    <path d="M42.1543 35.0468L58.7908 52.7924L99.1209 11.0354L93.5754 1.27527L59.8999 36.5995L48.3653 25.7303L42.1543 35.0468Z"
          fill="url(#paint2_linear)"/>
    <path opacity="0.8"
          d="M42.8047 33.6703L59.2194 45.585L97.7476 8.30979L93.8885 1.24786L59.9912 37.2376L48.6784 26.812L42.8047 33.6703Z"
          fill="url(#paint3_radial)" fill-opacity="0.69"/>
    <defs>
        <radialGradient id="paint0_radial" cx="0" cy="0" r="1" gradientUnits="userSpaceOnUse"
                        gradientTransform="translate(4.55515 90.0336) scale(92.8744)">
            <stop stop-color="white"/>
            <stop offset="1" stop-color="#F8F8F8"/>
        </radialGradient>
        <linearGradient id="paint1_linear" x1="46.0733" y1="93.0075" x2="46.0733" y2="10.5844"
                        gradientUnits="userSpaceOnUse">
            <stop stop-color="#DFDFDF"/>
            <stop offset="1" stop-color="#F3F3F3"/>
        </linearGradient>
        <linearGradient id="paint2_linear" x1="60.0388" y1="44.5302" x2="100.952" y2="-21.622"
                        gradientUnits="userSpaceOnUse">
            <stop stop-color="#DBDBDB"/>
            <stop offset="1" stop-color="#EEEEEE"/>
        </linearGradient>
        <radialGradient id="paint3_radial" cx="0" cy="0" r="1" gradientUnits="userSpaceOnUse"
                        gradientTransform="translate(48.149 22.7918) scale(22.9851)">
            <stop stop-color="white"/>
            <stop offset="1" stop-color="white" stop-opacity="0"/>
        </radialGradient>
    </defs>
</svg>
