<svg width="200" height="100" viewBox="0 0 200 100" fill="none" xmlns="http://www.w3.org/2000/svg">
    <path d="M99.5 57.5714C110.27 57.5714 119 48.9369 119 38.2857C119 27.6345 110.27 19 99.5 19C88.7304 19 80 27.6345 80 38.2857C80 48.9369 88.7304 57.5714 99.5 57.5714Z"
          fill="white"/>
    <path d="M97.8775 37.1891C97.9032 37.1851 97.9314 37.1759 97.9603 37.1772C98.1832 37.1861 98.4067 37.2002 98.6292 37.2075C99.0812 37.2223 99.5342 37.2585 99.9862 37.2792C100.137 37.2861 100.288 37.3029 100.439 37.3114C100.844 37.3344 101.249 37.3559 101.654 37.3779C101.815 37.3868 101.976 37.3956 102.137 37.4042C102.391 37.4177 102.646 37.4282 102.9 37.4443C103.223 37.465 103.546 37.4927 103.869 37.5124C104.274 37.5367 104.679 37.5555 105.084 37.5779C105.286 37.5891 105.489 37.6026 105.692 37.6137C105.941 37.6276 106.19 37.6384 106.44 37.6529C106.596 37.6618 106.752 37.6766 106.908 37.6851C106.948 37.6874 106.988 37.6772 107.025 37.6677C107.031 37.666 107.033 37.6315 107.024 37.6213C107.012 37.6075 106.987 37.5973 106.968 37.5953C106.864 37.5845 106.76 37.5739 106.656 37.5677C106.442 37.5548 106.229 37.546 106.015 37.5331C105.844 37.5226 105.672 37.5075 105.5 37.496C105.302 37.4828 105.105 37.4716 104.908 37.4595C104.861 37.4565 104.814 37.4529 104.767 37.4502C104.363 37.4289 103.958 37.4081 103.553 37.3861C103.408 37.3782 103.262 37.3664 103.117 37.3578C102.731 37.3358 102.347 37.3157 101.961 37.293C101.655 37.2749 101.348 37.2532 101.042 37.2345C100.704 37.2141 100.367 37.196 100.029 37.1756C99.8578 37.1651 99.6862 37.1493 99.5145 37.1387C99.0875 37.1125 98.6608 37.0888 98.2341 37.0618C98.1197 37.0545 98.0049 37.0397 97.8902 37.0256C97.7731 37.0111 97.7002 36.9417 97.6497 36.8473C97.6597 36.8286 97.664 36.8147 97.673 36.8045C97.8416 36.6098 98.0092 36.4141 98.1805 36.2213C98.4233 35.9477 98.6688 35.6763 98.9132 35.4039C99.0699 35.2296 99.2255 35.0546 99.3832 34.8809C99.5408 34.7072 99.7011 34.5361 99.8578 34.3618C100.027 34.1736 100.192 33.9826 100.361 33.794C100.486 33.6546 100.615 33.5177 100.741 33.3786C101.044 33.0454 101.346 32.7119 101.648 32.3779C101.827 32.1796 102.005 31.9806 102.183 31.7813C102.208 31.7533 102.232 31.724 102.249 31.6915C102.255 31.6799 102.247 31.6507 102.235 31.6415C102.222 31.6313 102.19 31.6263 102.178 31.6342C102.143 31.6583 102.111 31.6875 102.083 31.7184C101.914 31.9013 101.746 32.0842 101.58 32.2687C101.385 32.4845 101.193 32.7023 100.998 32.9184C100.691 33.2602 100.384 33.6017 100.076 33.9421C99.9154 34.1194 99.7503 34.2927 99.5904 34.4704C99.3742 34.7112 99.1623 34.9552 98.9461 35.196C98.7646 35.3983 98.5796 35.598 98.395 35.7983C98.3188 35.8812 98.2397 35.9615 98.1636 36.0444C98.0083 36.2137 97.8549 36.3848 97.6996 36.5542C97.6424 36.6164 97.5835 36.6773 97.5236 36.7371C97.505 36.7559 97.4807 36.7697 97.4488 36.7934C97.4378 36.7575 97.4249 36.7348 97.4255 36.7138C97.4331 36.493 97.4405 36.272 97.4524 36.0519C97.4707 35.7167 97.4927 35.3825 97.5124 35.0477C97.5156 34.9904 97.5146 34.9322 97.5187 34.875C97.5366 34.6076 97.5566 34.3404 97.5739 34.073C97.5872 33.8677 97.5968 33.6618 97.6098 33.4562C97.6238 33.2316 97.6404 33.0076 97.6544 32.7829C97.6696 32.5342 97.6826 32.2856 97.6976 32.0369C97.7149 31.75 97.7338 31.4635 97.7511 31.177C97.7548 31.1149 97.7465 31.0497 97.7588 30.9902C97.7841 30.8685 97.7797 30.7428 97.7847 30.6182C97.7864 30.5797 97.787 30.5411 97.7897 30.503C97.8073 30.2599 97.8273 30.0175 97.8429 29.7741C97.8576 29.5448 97.8668 29.3146 97.8805 29.0853C97.8941 28.8556 97.9118 28.6271 97.9258 28.3974C97.9427 28.1202 97.9563 27.8425 97.9746 27.5656C97.9989 27.1978 98.0278 26.8307 98.0512 26.4626C98.0701 26.1616 98.084 25.8596 98.099 25.558C98.1007 25.5248 98.0974 25.4906 98.091 25.457C98.0891 25.4465 98.0681 25.4291 98.0571 25.4288C98.0398 25.4281 98.0155 25.4347 98.0083 25.4465C97.9966 25.4653 97.9939 25.4906 97.9923 25.5143C97.9843 25.6337 97.9786 25.7534 97.9713 25.8731C97.962 26.0261 97.9514 26.1787 97.942 26.3317C97.9297 26.5324 97.9184 26.7333 97.9068 26.934C97.8948 27.1396 97.8835 27.3455 97.8709 27.5511C97.8523 27.8471 97.8323 28.1429 97.813 28.4386C97.8106 28.4767 97.814 28.5162 97.809 28.5537C97.7728 28.8419 97.7744 29.1366 97.7505 29.4267C97.7475 29.4649 97.7505 29.504 97.7475 29.5421C97.7289 29.7951 97.7076 30.0474 97.6909 30.3004C97.6713 30.6011 97.656 30.9027 97.638 31.2036C97.6154 31.5862 97.5925 31.9691 97.5695 32.3517C97.5665 32.3994 97.5628 32.447 97.5592 32.4947C97.544 32.7046 97.5256 32.9138 97.5136 33.124C97.499 33.3823 97.4894 33.6411 97.4774 33.9C97.477 33.9095 97.4764 33.9191 97.4744 33.9286C97.4272 34.171 97.4524 34.4263 97.4205 34.6723C97.3919 34.8934 97.3959 35.1217 97.381 35.3463C97.3584 35.6901 97.3328 36.0335 97.3068 36.3769C97.2955 36.5246 97.2829 36.672 97.2665 36.8187C97.2559 36.9147 97.1904 36.9582 97.0876 36.9394C96.9526 36.9147 96.8175 36.8871 96.6829 36.8581C96.4859 36.8154 96.2897 36.7703 96.0932 36.7263C95.8241 36.6661 95.5547 36.6068 95.2856 36.5453C95.0581 36.4934 94.831 36.4388 94.6034 36.3864C94.3244 36.3223 94.0446 36.2605 93.7657 36.195C93.5385 36.1417 93.3123 36.0819 93.0848 36.0286C92.8679 35.9779 92.6498 35.9335 92.4326 35.8838C92.086 35.8049 91.7398 35.7246 91.3935 35.644C91.1198 35.5802 90.8461 35.5154 90.572 35.4513C90.288 35.3845 90.004 35.3164 89.7196 35.2509C89.3005 35.1546 88.8811 35.0605 88.4624 34.9638C88.2399 34.9125 88.0183 34.8562 87.7962 34.8042C87.4862 34.7319 87.1759 34.6608 86.8659 34.5897C86.7884 34.572 86.7106 34.5542 86.6324 34.5398C86.6018 34.5339 86.5699 34.5339 86.54 34.5365C86.5287 34.5375 86.5144 34.5526 86.5137 34.5631C86.513 34.5747 86.525 34.596 86.5353 34.5997C86.6055 34.6247 86.676 34.6509 86.7478 34.6684C86.9853 34.7256 87.2238 34.7792 87.4616 34.8348C87.5754 34.8615 87.6888 34.8904 87.8025 34.9164C88.03 34.9684 88.2575 35.0184 88.485 35.0707C88.5937 35.0957 88.7015 35.1263 88.8103 35.151C89.2137 35.2427 89.6178 35.3322 90.0213 35.4246C90.2953 35.4875 90.5691 35.5542 90.8427 35.6181C90.9046 35.6325 90.9675 35.6414 91.0293 35.6562C91.2512 35.7098 91.4727 35.7667 91.6949 35.819C91.948 35.8786 92.2014 35.9338 92.4549 35.9914C92.5637 36.0161 92.6717 36.0424 92.7805 36.0674C93.003 36.1184 93.2255 36.1684 93.448 36.22C93.6702 36.2713 93.892 36.3253 94.1142 36.3763C94.4038 36.4427 94.6939 36.5065 94.9836 36.574C95.2005 36.6243 95.417 36.6795 95.6338 36.7305C95.8766 36.7875 96.1197 36.8407 96.3625 36.898C96.4297 36.9137 96.4953 36.9384 96.5624 36.9562C96.7217 36.9983 96.8817 37.0381 97.0411 37.0802C97.0607 37.0855 97.0786 37.0983 97.0932 37.1055C97.1192 37.1598 97.1012 37.196 97.073 37.2298C97.0131 37.3019 96.9562 37.3763 96.894 37.4463C96.6918 37.6743 96.4879 37.9012 96.2841 38.1279C96.1021 38.3302 95.9195 38.5315 95.7372 38.7331C95.5892 38.8962 95.4412 39.0594 95.2929 39.2226C95.1349 39.3959 94.9759 39.5683 94.8183 39.742C94.6453 39.9331 94.4747 40.1262 94.3008 40.3167C94.1335 40.5002 93.9619 40.6804 93.7952 40.8643C93.6379 41.038 93.4859 41.216 93.3296 41.3903C93.1447 41.5962 92.9571 41.7998 92.7722 42.0058C92.7476 42.033 92.7296 42.0663 92.7129 42.0992C92.7083 42.1084 92.716 42.1334 92.7243 42.1376C92.7409 42.1459 92.7688 42.1528 92.7798 42.1456C92.8111 42.1245 92.8387 42.0982 92.8636 42.0705C93.1191 41.7896 93.3732 41.5077 93.6283 41.2265C93.7324 41.112 93.8385 40.9992 93.9429 40.8851C94.044 40.7742 94.1444 40.6627 94.2449 40.5512C94.3546 40.4295 94.4638 40.3068 94.5742 40.1854C94.656 40.0953 94.7391 40.0058 94.8223 39.9167C94.918 39.8137 95.0159 39.712 95.1103 39.6078C95.3458 39.3466 95.5796 39.0844 95.8144 38.8226C95.8866 38.7424 95.9587 38.6624 96.0323 38.5832C96.1889 38.4147 96.3469 38.2476 96.5033 38.0789C96.6948 37.8726 96.8851 37.6654 97.0766 37.4588C97.0886 37.4456 97.1055 37.4338 97.1322 37.4575C97.1308 37.4733 97.1318 37.4927 97.1275 37.5105C97.0893 37.6709 97.0517 37.8318 97.0105 37.9913C96.9622 38.1782 96.91 38.3637 96.8608 38.5502C96.7829 38.8463 96.7071 39.143 96.6286 39.4387C96.5854 39.6025 96.5372 39.7644 96.4936 39.9282C96.445 40.1101 96.4004 40.2929 96.3519 40.4749C96.2974 40.6794 96.2398 40.8834 96.1849 41.0877C96.1434 41.2423 96.1045 41.3975 96.0622 41.5518C96.0113 41.7377 95.9568 41.9225 95.9059 42.1084C95.8613 42.2718 95.8211 42.4366 95.7775 42.6002C95.7362 42.7548 95.6923 42.9084 95.6504 43.063C95.5986 43.2534 95.5484 43.4445 95.4958 43.635C95.4572 43.7758 95.4146 43.9149 95.377 44.056C95.3035 44.3337 95.2343 44.6126 95.1602 44.8899C95.0458 45.3172 94.9287 45.7435 94.8123 46.1705C94.7837 46.2748 94.7528 46.3784 94.7245 46.4826C94.6976 46.5827 94.6703 46.6826 94.6477 46.784C94.6391 46.8231 94.6198 46.8668 94.6726 46.9113C94.6873 46.9027 94.7099 46.8974 94.7175 46.8837C94.7375 46.8471 94.7551 46.8086 94.7661 46.7681C94.8129 46.5955 94.8552 46.4215 94.9021 46.2488C94.9763 45.9764 95.0535 45.705 95.1283 45.433C95.1882 45.2156 95.246 44.9972 95.3059 44.7794C95.3382 44.6616 95.3737 44.5448 95.405 44.4265C95.4782 44.1488 95.548 43.8699 95.6229 43.5929C95.704 43.2933 95.7905 42.9955 95.8723 42.6959C95.9495 42.4146 96.024 42.1324 96.0988 41.8502C96.1517 41.6498 96.2029 41.4492 96.2555 41.2488C96.2974 41.0893 96.3379 40.9298 96.3825 40.7712C96.4281 40.6084 96.4799 40.4476 96.5245 40.2844C96.5977 40.0167 96.6669 39.7475 96.739 39.4795C96.788 39.2979 96.8398 39.1173 96.8887 38.9354C96.9326 38.772 96.9715 38.6068 97.0177 38.4443C97.0949 38.1729 97.1757 37.9029 97.2562 37.6328C97.2995 37.4881 97.3008 37.4911 97.4647 37.5134C97.5233 37.5213 97.5642 37.545 97.5975 37.5907C97.6374 37.646 97.6803 37.6996 97.7192 37.7555C97.9051 38.0219 98.09 38.2887 98.275 38.5558C98.415 38.7581 98.555 38.9604 98.693 39.1637C98.8045 39.3278 98.9119 39.494 99.023 39.6584C99.2715 40.0269 99.5215 40.3946 99.7703 40.763C99.8728 40.9147 99.9712 41.068 100.074 41.2192C100.242 41.4656 100.413 41.7104 100.581 41.9568C100.645 42.0518 100.703 42.1501 100.768 42.2452C100.927 42.4785 101.09 42.71 101.249 42.9433C101.355 43.0988 101.456 43.2567 101.561 43.413C101.717 43.6475 101.874 43.8824 102.032 44.1162C102.245 44.4324 102.46 44.7481 102.675 45.0633C102.787 45.2274 102.902 45.3899 103.014 45.5547C103.095 45.6758 103.171 45.8004 103.253 45.9215C103.523 46.3195 103.798 46.7152 104.064 47.1149C104.224 47.3537 104.394 47.5866 104.546 47.8293C104.707 48.0846 104.892 48.3284 105.064 48.579C105.214 48.7991 105.359 49.0224 105.508 49.2431C105.733 49.5767 105.961 49.9089 106.186 50.2424C106.352 50.4895 106.517 50.7372 106.683 50.9845C106.71 51.0237 106.736 51.0628 106.765 51.1003C106.795 51.1395 106.839 51.154 106.858 51.1342C106.883 51.1079 106.864 51.0803 106.847 51.0543C106.774 50.9404 106.701 50.8263 106.625 50.7141C106.536 50.5843 106.443 50.4572 106.356 50.327C106.284 50.2188 106.219 50.1066 106.146 49.9984C105.956 49.7165 105.765 49.4359 105.573 49.155C105.464 48.9951 105.352 48.8366 105.243 48.6764C105.167 48.5638 105.099 48.4477 105.022 48.3356C104.85 48.0852 104.674 47.8372 104.503 47.5866C104.444 47.5004 104.397 47.4076 104.338 47.3218C104.172 47.08 104.001 46.8412 103.836 46.5994C103.77 46.5047 103.718 46.4034 103.652 46.3089C103.441 46.0037 103.222 45.702 103.026 45.3886C102.94 45.2521 102.84 45.1218 102.75 44.9876C102.606 44.7755 102.465 44.562 102.322 44.3498C102.219 44.1982 102.113 44.0481 102.011 43.8965C101.941 43.7926 101.876 43.6864 101.806 43.5823C101.536 43.1843 101.262 42.788 100.994 42.389C100.828 42.142 100.649 41.9015 100.495 41.6482C100.417 41.5196 100.323 41.3982 100.238 41.2728C100.095 41.0607 99.9533 40.8476 99.8099 40.6351C99.605 40.3321 99.3991 40.0295 99.1939 39.7265C98.9651 39.389 98.7363 39.0515 98.5081 38.7137C98.3472 38.4752 98.1869 38.2367 98.0282 37.9973C97.9387 37.8627 97.8496 37.7275 97.7668 37.5901C97.6889 37.4608 97.6926 37.4591 97.8087 37.3838C97.8163 37.3789 97.8276 37.3792 97.8459 37.3749C97.8788 37.3858 97.9204 37.396 97.9596 37.4128C98.0784 37.4631 98.1958 37.5164 98.3139 37.568C98.4812 37.6413 98.6485 37.7144 98.8158 37.7881C98.9042 37.8269 98.9921 37.8673 99.0805 37.9062C99.322 38.0114 99.5641 38.115 99.8052 38.2216C100.076 38.341 100.345 38.4637 100.615 38.5838C100.9 38.7104 101.185 38.8354 101.47 38.9618C101.632 39.0338 101.793 39.1075 101.955 39.1791C102.097 39.2423 102.241 39.3028 102.383 39.366C102.54 39.436 102.696 39.5097 102.853 39.5788C103.075 39.6762 103.297 39.7703 103.519 39.867C103.676 39.9357 103.833 40.0071 103.989 40.0775C104.161 40.1545 104.332 40.2324 104.504 40.3091C104.655 40.3769 104.809 40.4426 104.96 40.5104C105.117 40.5805 105.273 40.6535 105.431 40.7225C105.667 40.8258 105.905 40.9238 106.141 41.0285C106.436 41.1594 106.728 41.2966 107.022 41.4285C107.312 41.5581 107.602 41.6844 107.892 41.8114C108.07 41.889 108.248 41.9633 108.425 42.0419C108.881 42.2449 109.337 42.4501 109.794 42.6534C109.965 42.7298 110.139 42.8011 110.311 42.8781C110.669 43.038 111.026 43.2008 111.384 43.361C111.571 43.4442 111.759 43.5232 111.945 43.6061C112.167 43.7041 112.387 43.8044 112.608 43.9024C112.642 43.9176 112.678 43.9304 112.714 43.9363C112.73 43.9389 112.755 43.9252 112.761 43.9117C112.766 43.8998 112.754 43.8708 112.742 43.8627C112.706 43.8396 112.665 43.8228 112.626 43.8051C112.441 43.7205 112.255 43.6357 112.069 43.5521C111.912 43.4814 111.754 43.4123 111.597 43.3426C111.44 43.2728 111.283 43.2031 111.127 43.1337C110.969 43.0643 110.812 42.9949 110.655 42.9255C110.498 42.8561 110.341 42.787 110.183 42.7176C109.933 42.6068 109.682 42.4956 109.432 42.3847C109.25 42.3044 109.068 42.2252 108.886 42.1439C108.705 42.063 108.524 41.9791 108.342 41.8992C108.12 41.8018 107.897 41.7094 107.675 41.6113C107.307 41.4479 106.94 41.2811 106.572 41.1163C106.223 40.9604 105.875 40.8051 105.526 40.6495C105.266 40.5334 105.006 40.417 104.746 40.3012C104.471 40.1791 104.195 40.0584 103.92 39.9361C103.753 39.8621 103.588 39.7854 103.421 39.7114C103.273 39.6459 103.125 39.5831 102.978 39.5176C102.811 39.4436 102.645 39.368 102.478 39.294C102.34 39.2331 102.202 39.1752 102.064 39.114C101.887 39.0358 101.711 38.9548 101.534 38.8762C101.357 38.7979 101.18 38.7219 101.003 38.6433C100.876 38.5864 100.75 38.5252 100.622 38.4683C100.313 38.3305 100.003 38.1943 99.6945 38.0565C99.2578 37.8617 98.8211 37.6664 98.3847 37.4703C98.2327 37.4019 98.0818 37.3312 97.9304 37.2611C97.8988 37.2489 97.8712 37.2325 97.8775 37.1891Z"
          fill="white" stroke="black" stroke-width="1.3"/>
    <path d="M46 76.3983H48.002V78.2001C48.0384 78.2122 48.0748 78.2244 48.1112 78.2365C48.3903 78.3578 48.6936 78.461 49.0212 78.5459C49.3609 78.6187 49.7189 78.6551 50.095 78.6551C50.7745 78.6551 51.3023 78.5216 51.6784 78.2547C52.0545 77.9756 52.2426 77.6056 52.2426 77.1445C52.2426 76.732 52.0849 76.3983 51.7694 76.1435C51.4661 75.8887 51.0839 75.6642 50.6228 75.4701C50.1739 75.276 49.6764 75.0818 49.1304 74.8877C48.5965 74.6936 48.0991 74.4509 47.638 74.1597C47.1891 73.8564 46.8069 73.4802 46.4914 73.0313C46.1881 72.5824 46.0364 72 46.0364 71.2841C46.0364 70.7381 46.1395 70.2406 46.3458 69.7917C46.5642 69.3306 46.8615 68.9363 47.2376 68.6087C47.6259 68.2811 48.0869 68.0263 48.6208 67.8443C49.1547 67.6623 49.7492 67.5713 50.4044 67.5713C51.1445 67.5713 51.8725 67.638 52.5884 67.7715C53.3043 67.905 53.8745 68.087 54.2992 68.3175V72.0121H52.2972V69.9919C52.2608 69.9919 52.2244 69.9858 52.188 69.9737C51.9211 69.9009 51.6299 69.8463 51.3144 69.8099C51.0111 69.7614 50.7077 69.7371 50.4044 69.7371C49.822 69.7371 49.3609 69.8524 49.0212 70.0829C48.6936 70.3134 48.5298 70.6228 48.5298 71.0111C48.5298 71.4115 48.6815 71.7391 48.9848 71.9939C49.3003 72.2487 49.6825 72.4792 50.1314 72.6855C50.5925 72.8918 51.0899 73.098 51.6238 73.3043C52.1698 73.5106 52.6673 73.7654 53.1162 74.0687C53.5773 74.3599 53.9595 74.73 54.2628 75.1789C54.5783 75.6278 54.736 76.192 54.736 76.8715C54.736 77.5267 54.6147 78.103 54.372 78.6005C54.1293 79.0858 53.7896 79.4984 53.3528 79.8381C52.916 80.1657 52.4003 80.4084 51.8058 80.5661C51.2113 80.736 50.5682 80.8209 49.8766 80.8209C49.4155 80.8209 48.9848 80.7845 48.5844 80.7117C48.1961 80.6389 47.8321 80.5479 47.4924 80.4387C47.1648 80.3295 46.8736 80.2142 46.6188 80.0929C46.364 79.9716 46.1577 79.8684 46 79.7835V76.3983Z"
          fill="white"/>
    <path d="M56.8037 78.5641H60.0069V73.4681H56.8037V71.4661H62.3729V78.5641H65.7399V80.5661H56.8037V78.5641ZM59.5701 68.9909C59.5701 68.6148 59.7096 68.2932 59.9887 68.0263C60.2678 67.7594 60.656 67.6259 61.1535 67.6259C61.6631 67.6259 62.0696 67.7594 62.3729 68.0263C62.6762 68.2932 62.8279 68.6148 62.8279 68.9909C62.8279 69.3792 62.6762 69.7007 62.3729 69.9555C62.0696 70.1982 61.6631 70.3195 61.1535 70.3195C60.656 70.3195 60.2678 70.1982 59.9887 69.9555C59.7096 69.7007 59.5701 69.3792 59.5701 68.9909Z"
          fill="white"/>
    <path d="M71.029 80.5661V74.9969C71.029 74.6329 71.0047 74.3417 70.9562 74.1233C70.9077 73.8928 70.8409 73.7168 70.756 73.5955C70.6832 73.462 70.5861 73.3771 70.4648 73.3407C70.3556 73.2922 70.2403 73.2679 70.119 73.2679C69.9127 73.2679 69.7186 73.3346 69.5366 73.4681C69.3667 73.6016 69.2514 73.7714 69.1908 73.9777V80.5661H67.0068V71.4661H68.7358L68.9906 72.4671H69.0452C69.2272 72.1152 69.4941 71.8301 69.846 71.6117C70.1979 71.3812 70.6104 71.2659 71.0836 71.2659C71.484 71.2659 71.8662 71.363 72.2302 71.5571C72.5942 71.7512 72.8429 72.091 72.9764 72.5763C73.1584 72.1516 73.4375 71.8301 73.8136 71.6117C74.1897 71.3812 74.5962 71.2659 75.033 71.2659C75.3606 71.2659 75.6518 71.3144 75.9066 71.4115C76.1735 71.4964 76.4041 71.6542 76.5982 71.8847C76.7923 72.1152 76.9379 72.4307 77.035 72.8311C77.1442 73.2194 77.1988 73.7229 77.1988 74.3417V80.5661H75.0148V74.7421C75.0148 74.1961 74.9238 73.8139 74.7418 73.5955C74.5719 73.3771 74.3596 73.2679 74.1048 73.2679C73.8864 73.2679 73.6983 73.3225 73.5406 73.4317C73.3828 73.5288 73.2737 73.6926 73.213 73.9231V80.5661H71.029Z"
          fill="white"/>
    <path d="M78.1927 76.0161C78.1927 75.2517 78.3079 74.5722 78.5385 73.9777C78.769 73.3832 79.0966 72.8796 79.5213 72.4671C79.9459 72.0546 80.4495 71.7452 81.0319 71.5389C81.6264 71.3205 82.2877 71.2113 83.0157 71.2113C83.7801 71.2113 84.4595 71.3266 85.0541 71.5571C85.6607 71.7876 86.1703 72.1152 86.5829 72.5399C86.9954 72.9524 87.3048 73.456 87.5111 74.0505C87.7295 74.645 87.8387 75.3002 87.8387 76.0161C87.8387 76.7805 87.7234 77.46 87.4929 78.0545C87.2623 78.649 86.9347 79.1526 86.5101 79.5651C86.0854 79.9776 85.5758 80.2931 84.9813 80.5115C84.3989 80.7178 83.7437 80.8209 83.0157 80.8209C82.2513 80.8209 81.5657 80.7056 80.9591 80.4751C80.3645 80.2446 79.861 79.923 79.4485 79.5105C79.0359 79.0858 78.7205 78.5762 78.5021 77.9817C78.2958 77.3872 78.1927 76.732 78.1927 76.0161ZM80.6315 76.0161C80.6315 76.4165 80.6861 76.7866 80.7953 77.1263C80.9045 77.466 81.0622 77.7633 81.2685 78.0181C81.4747 78.2729 81.7235 78.4731 82.0147 78.6187C82.3059 78.7522 82.6395 78.8189 83.0157 78.8189C83.7194 78.8189 84.2897 78.5944 84.7265 78.1455C85.1754 77.6966 85.3999 76.9868 85.3999 76.0161C85.3999 75.1789 85.1936 74.5055 84.7811 73.9959C84.3685 73.4742 83.7801 73.2133 83.0157 73.2133C82.6759 73.2133 82.3605 73.2679 82.0693 73.3771C81.7781 73.4742 81.5233 73.638 81.3049 73.8685C81.0986 74.099 80.9348 74.3902 80.8135 74.7421C80.6921 75.094 80.6315 75.5186 80.6315 76.0161Z"
          fill="white"/>
    <path d="M88.687 71.4661H91.872L92.145 72.6673H92.2178C92.4968 72.279 92.8972 71.9393 93.419 71.6481C93.9407 71.3569 94.5656 71.2113 95.2936 71.2113C95.7425 71.2113 96.1611 71.272 96.5494 71.3933C96.9498 71.5146 97.2895 71.7148 97.5686 71.9939C97.8476 72.273 98.066 72.6552 98.2238 73.1405C98.3936 73.6137 98.4786 74.2022 98.4786 74.9059V80.5661H96.1126V75.3973C96.1126 74.6572 95.9427 74.1233 95.603 73.7957C95.2754 73.4681 94.8568 73.3043 94.3472 73.3043C93.8982 73.3043 93.4857 73.4378 93.1096 73.7047C92.7456 73.9595 92.4968 74.281 92.3634 74.6693V80.5661H89.9974V73.4681H88.687V71.4661Z"
          fill="white"/>
    <path d="M100.564 76.3983H102.566V78.2001C102.603 78.2122 102.639 78.2244 102.676 78.2365C102.955 78.3578 103.258 78.461 103.586 78.5459C103.925 78.6187 104.283 78.6551 104.659 78.6551C105.339 78.6551 105.867 78.5216 106.243 78.2547C106.619 77.9756 106.807 77.6056 106.807 77.1445C106.807 76.732 106.649 76.3983 106.334 76.1435C106.031 75.8887 105.648 75.6642 105.187 75.4701C104.738 75.276 104.241 75.0818 103.695 74.8877C103.161 74.6936 102.664 74.4509 102.202 74.1597C101.754 73.8564 101.371 73.4802 101.056 73.0313C100.753 72.5824 100.601 72 100.601 71.2841C100.601 70.7381 100.704 70.2406 100.91 69.7917C101.129 69.3306 101.426 68.9363 101.802 68.6087C102.19 68.2811 102.651 68.0263 103.185 67.8443C103.719 67.6623 104.314 67.5713 104.969 67.5713C105.709 67.5713 106.437 67.638 107.153 67.7715C107.869 67.905 108.439 68.087 108.864 68.3175V72.0121H106.862V69.9919C106.825 69.9919 106.789 69.9858 106.752 69.9737C106.486 69.9009 106.194 69.8463 105.879 69.8099C105.576 69.7614 105.272 69.7371 104.969 69.7371C104.386 69.7371 103.925 69.8524 103.586 70.0829C103.258 70.3134 103.094 70.6228 103.094 71.0111C103.094 71.4115 103.246 71.7391 103.549 71.9939C103.865 72.2487 104.247 72.4792 104.696 72.6855C105.157 72.8918 105.654 73.098 106.188 73.3043C106.734 73.5106 107.232 73.7654 107.681 74.0687C108.142 74.3599 108.524 74.73 108.827 75.1789C109.143 75.6278 109.3 76.192 109.3 76.8715C109.3 77.5267 109.179 78.103 108.936 78.6005C108.694 79.0858 108.354 79.4984 107.917 79.8381C107.48 80.1657 106.965 80.4084 106.37 80.5661C105.776 80.736 105.133 80.8209 104.441 80.8209C103.98 80.8209 103.549 80.7845 103.149 80.7117C102.761 80.6389 102.397 80.5479 102.057 80.4387C101.729 80.3295 101.438 80.2142 101.183 80.0929C100.928 79.9716 100.722 79.8684 100.564 79.7835V76.3983Z"
          fill="white"/>
    <path d="M111.368 78.5641H114.571V73.4681H111.368V71.4661H116.937V78.5641H120.304V80.5661H111.368V78.5641ZM114.135 68.9909C114.135 68.6148 114.274 68.2932 114.553 68.0263C114.832 67.7594 115.22 67.6259 115.718 67.6259C116.228 67.6259 116.634 67.7594 116.937 68.0263C117.241 68.2932 117.392 68.6148 117.392 68.9909C117.392 69.3792 117.241 69.7007 116.937 69.9555C116.634 70.1982 116.228 70.3195 115.718 70.3195C115.22 70.3195 114.832 70.1982 114.553 69.9555C114.274 69.7007 114.135 69.3792 114.135 68.9909Z"
          fill="white"/>
    <path d="M121.426 71.4661H124.611L124.884 72.6673H124.956C125.236 72.279 125.636 71.9393 126.158 71.6481C126.679 71.3569 127.304 71.2113 128.032 71.2113C128.481 71.2113 128.9 71.272 129.288 71.3933C129.688 71.5146 130.028 71.7148 130.307 71.9939C130.586 72.273 130.805 72.6552 130.962 73.1405C131.132 73.6137 131.217 74.2022 131.217 74.9059V80.5661H128.851V75.3973C128.851 74.6572 128.681 74.1233 128.342 73.7957C128.014 73.4681 127.595 73.3043 127.086 73.3043C126.637 73.3043 126.224 73.4378 125.848 73.7047C125.484 73.9595 125.236 74.281 125.102 74.6693V80.5661H122.736V73.4681H121.426V71.4661Z"
          fill="white"/>
    <path d="M141.839 79.6015C141.681 79.7471 141.475 79.8927 141.22 80.0383C140.977 80.1718 140.686 80.2992 140.347 80.4205C140.019 80.5418 139.655 80.6389 139.255 80.7117C138.854 80.7845 138.429 80.8209 137.981 80.8209C137.204 80.8209 136.506 80.7117 135.888 80.4933C135.281 80.2749 134.765 79.9594 134.341 79.5469C133.916 79.1222 133.588 78.6187 133.358 78.0363C133.139 77.4418 133.03 76.7684 133.03 76.0161C133.03 75.2153 133.158 74.5176 133.412 73.9231C133.667 73.3164 134.013 72.8129 134.45 72.4125C134.899 72.0121 135.42 71.7148 136.015 71.5207C136.609 71.3144 137.253 71.2113 137.944 71.2113C138.405 71.2113 138.878 71.272 139.364 71.3933C139.861 71.5146 140.316 71.727 140.729 72.0303C141.141 72.3215 141.475 72.7158 141.73 73.2133C141.997 73.7108 142.13 74.3417 142.13 75.1061C142.13 75.6278 142.069 76.192 141.948 76.7987H135.396C135.408 77.187 135.487 77.5146 135.633 77.7815C135.79 78.0484 135.991 78.2668 136.233 78.4367C136.488 78.6066 136.773 78.734 137.089 78.8189C137.416 78.8917 137.762 78.9281 138.126 78.9281C138.854 78.9281 139.449 78.8432 139.91 78.6733C140.383 78.5034 140.765 78.2972 141.056 78.0545L141.839 79.6015ZM137.908 73.1041C137.592 73.1041 137.295 73.1466 137.016 73.2315C136.737 73.3164 136.482 73.4438 136.252 73.6137C136.033 73.7714 135.851 73.9716 135.706 74.2143C135.56 74.457 135.475 74.73 135.451 75.0333H139.928C139.928 74.4388 139.758 73.9716 139.418 73.6319C139.091 73.28 138.587 73.1041 137.908 73.1041Z"
          fill="white"/>
    <path d="M143.033 67.8261H146.891V75.0879H147.437L150.422 71.4661H153.207L149.53 75.6157L151.915 78.5641H153.607V80.5661H150.659L147.528 76.7987H146.891V80.5661H144.525V69.8281H143.033V67.8261Z"
          fill="white"/>
</svg>
