<svg width="20" height="20" viewBox="0 0 20 20" fill="none" xmlns="http://www.w3.org/2000/svg">
<path opacity="0.5" d="M19.2921 11.6696C19.2858 11.7048 19.2813 11.7404 19.2747 11.7756L19.2405 11.5737C19.2592 11.6051 19.2747 11.6378 19.2921 11.6696C19.3954 11.1063 19.4495 10.5297 19.4495 9.95349C19.4495 8.67557 19.1999 7.43575 18.7068 6.26863C18.2311 5.14121 17.5504 4.12871 16.6826 3.25941C15.816 2.39011 14.8053 1.70781 13.6812 1.23093C12.5172 0.737225 11.2804 0.487038 10.0055 0.487038C9.4047 0.487038 8.80291 0.543552 8.21728 0.656263C8.21601 0.656581 8.21443 0.656581 8.21284 0.656898C8.24578 0.674361 8.27904 0.689918 8.31135 0.708015L8.11276 0.676901C8.14601 0.670551 8.17959 0.663566 8.21284 0.656898C7.4093 0.228597 6.50566 0 5.59094 0C4.09755 0 2.69348 0.582922 1.6375 1.64177C0.581835 2.7003 0 4.10776 0 5.60475C0 6.55755 0.244517 7.49417 0.70346 8.32188C0.709478 8.28759 0.713596 8.25298 0.720247 8.21869L0.754454 8.41713C0.736717 8.38601 0.721197 8.35363 0.70346 8.32188C0.610341 8.85813 0.561248 9.40612 0.561248 9.95349C0.561248 11.2317 0.810832 12.4712 1.30398 13.6387C1.77908 14.7664 2.46005 15.7783 3.32695 16.6476C4.19479 17.5169 5.20421 18.2001 6.32956 18.6757C7.49355 19.1704 8.7307 19.4209 10.0055 19.4209C10.5605 19.4209 11.1166 19.3701 11.6595 19.2736C11.6278 19.2558 11.5955 19.2396 11.5632 19.2209L11.765 19.2564C11.7301 19.2631 11.695 19.2672 11.6595 19.2736C12.496 19.7479 13.443 20 14.41 20C15.9031 20 17.3065 19.418 18.3625 18.3589C19.4188 17.301 20 15.8932 20 14.3962C20 13.4402 19.7542 12.5004 19.2921 11.6696ZM10.0432 15.7513C6.6881 15.7513 5.18711 14.0978 5.18711 12.8586C5.18711 12.2229 5.65524 11.7775 6.30042 11.7775C7.73616 11.7775 7.36432 13.8441 10.0432 13.8441C11.4147 13.8441 12.172 13.0976 12.172 12.3338C12.172 11.8743 11.9458 11.3651 11.0428 11.1419L8.05859 10.3951C5.65524 9.79093 5.2191 8.48856 5.2191 7.2643C5.2191 4.72243 7.60662 3.76804 9.84876 3.76804C11.9142 3.76804 14.3489 4.91229 14.3489 6.43722C14.3489 7.09063 13.7845 7.47067 13.1396 7.47067C11.9142 7.47067 12.1397 5.77048 9.67139 5.77048C8.44659 5.77048 7.76815 6.32642 7.76815 7.12206C7.76815 7.91612 8.73545 8.1698 9.57542 8.36156L11.7843 8.85305C14.2038 9.39342 14.8173 10.8095 14.8173 12.1433C14.8173 14.2089 13.2356 15.7513 10.0432 15.7513ZM11.5632 19.2209C11.5955 19.2396 11.6278 19.2558 11.6595 19.2736C11.695 19.2672 11.7301 19.2631 11.765 19.2564L11.5632 19.2209ZM19.2747 11.7756C19.2813 11.7404 19.2858 11.7048 19.2921 11.6696C19.2747 11.6378 19.2592 11.6051 19.2405 11.5737L19.2747 11.7756ZM0.720247 8.21869C0.713596 8.25298 0.709478 8.28759 0.70346 8.32188C0.721197 8.35363 0.736717 8.38601 0.754454 8.41713L0.720247 8.21869ZM8.31135 0.708015C8.27904 0.689918 8.24578 0.674361 8.21284 0.656898C8.17959 0.663566 8.14601 0.670551 8.11276 0.676901L8.31135 0.708015Z" fill="white"/>
</svg>
