<svg width="60" height="60" viewBox="0 0 60 60" fill="none" xmlns="http://www.w3.org/2000/svg">
<path d="M21.9938 38.6441C22.641 39.288 22.7489 40.2537 22.3174 41.0049C22.2095 41.2195 22.1017 41.3268 21.9938 41.5415C21.2387 42.2926 19.8365 42.2926 19.0814 41.5415C18.3264 40.7903 18.3264 39.3953 19.0814 38.6441C19.2972 38.4295 19.5129 38.3222 19.7286 38.2149C20.3758 37.8929 21.3466 38.0002 21.9938 38.6441Z" stroke="white" stroke-miterlimit="10"/>
<path d="M25.0138 41.6441C25.7689 42.3953 25.7689 43.7903 25.0138 44.5415C24.2588 45.2926 22.8565 45.2926 22.1015 44.5415C21.3464 43.7903 21.3464 42.3953 22.1015 41.6441C22.3172 41.4295 22.5329 41.3222 22.7486 41.2149C23.3958 40.8929 24.3666 41.0002 25.0138 41.6441Z" stroke="white" stroke-miterlimit="10"/>
<path d="M27.9264 44.5384C28.5736 45.1822 28.6815 46.0407 28.3579 46.7919C28.25 47.0065 28.1422 47.2211 27.9264 47.4357C27.1714 48.1869 25.7691 48.1869 25.014 47.4357C24.259 46.6846 24.259 45.2896 25.014 44.5384C25.7691 43.6799 27.0635 43.6799 27.9264 44.5384Z" stroke="white" stroke-miterlimit="10"/>
<path d="M45.5085 31.1262C45.077 33.487 43.9984 35.6332 42.2725 37.3502L41.086 38.5306L32.1331 29.5166L30.9466 28.3362L27.9264 31.3408C27.4949 31.7701 26.8477 31.9847 26.2005 31.9847C25.5533 31.9847 25.014 31.7701 24.4747 31.3408C23.5039 30.3751 23.5039 28.8727 24.4747 28.0142L29.6522 22.8634C29.9758 22.5414 30.4073 22.2195 30.7309 22.0049C31.7017 21.361 32.7803 21.1464 33.859 21.1464C34.7219 21.1464 35.5848 21.361 36.3399 21.683C37.5264 22.0049 39.0365 21.683 40.0073 20.8245L41.6253 19.2148L49.2838 26.8338L49.1759 26.9411L46.3714 29.7312C45.9399 30.0531 45.6163 30.5897 45.5085 31.1262Z" stroke="white" stroke-miterlimit="10"/>
<path d="M54.9999 22.8709L50.2538 27.6998L49.2831 26.734L41.6246 19.115L40.6538 18.1492L45.3999 13.3203L54.9999 22.8709Z" stroke="white" stroke-miterlimit="10"/>
<path d="M38.7124 41.3317L39.3596 41.9755C39.6832 42.2975 39.8989 42.834 39.8989 43.2633C39.8989 43.6925 39.6832 44.2291 39.3596 44.551C38.6045 45.3021 37.418 45.3021 36.663 44.551L35.2607 43.156C35.5843 43.4779 35.8 44.0144 35.8 44.4437C35.8 44.8729 35.5843 45.4095 35.2607 45.7314C34.5057 46.4826 33.3191 46.4826 32.5641 45.7314L30.7304 43.9071C31.4854 44.6583 31.4854 45.8387 30.7304 46.5899C30.4068 46.9118 29.8674 47.1264 29.436 47.1264C29.0045 47.1264 28.573 47.0191 28.2494 46.6972C28.573 45.946 28.4652 44.9802 27.818 44.4437C27.0629 43.6925 25.6607 43.6925 24.9056 44.4437C25.6607 43.6925 25.6607 42.2975 24.9056 41.5463C24.2584 40.9024 23.3955 40.7951 22.6404 41.1171L22.5326 41.0098L22.4247 40.9024H22.3168C22.7483 40.1513 22.6404 39.1855 21.9932 38.5416C21.346 37.8978 20.4831 37.7905 19.7281 38.1124L18.8651 37.2539C17.1393 35.537 16.0606 33.4981 15.6292 31.1373C15.5213 30.4934 15.1977 29.9569 14.7662 29.4203L12.7168 27.596L21.7775 18.582L24.3663 21.1575C25.2292 22.0159 26.6315 22.3379 27.818 21.9086C28.3573 21.694 28.8966 21.5867 29.3281 21.5867C29.7596 21.5867 30.2989 21.694 30.7304 21.8013C30.2989 22.0159 29.9753 22.3379 29.6517 22.6598L24.4742 27.8107C23.5034 28.7765 23.5034 30.2788 24.4742 31.1373C24.9056 31.5665 25.5528 31.7811 26.2 31.7811C26.8472 31.7811 27.3865 31.5665 27.9259 31.1373L30.9461 28.1326L32.1326 29.313L41.1933 38.327L41.4091 38.5416C41.7327 38.8636 41.9484 39.4001 41.9484 39.8294C41.9484 40.2586 41.7327 40.7951 41.4091 41.1171C40.654 42.0829 39.4675 42.0829 38.7124 41.3317Z" stroke="white" stroke-miterlimit="10"/>
<path d="M21.7776 18.5801L12.7169 27.5941L11.854 28.4526L7 23.6237L17.6787 13L22.5327 17.8289L21.7776 18.5801Z" stroke="white" stroke-miterlimit="10"/>
<path d="M30.2988 33.1758L38.7124 41.5459" stroke="white" stroke-miterlimit="10" stroke-linecap="round"/>
<path d="M28.1411 35.8594L36.0153 43.9076" stroke="white" stroke-miterlimit="10" stroke-linecap="round"/>
<path d="M24.9053 38.4336L32.7795 45.9453" stroke="white" stroke-miterlimit="10" stroke-linecap="round"/>
<path d="M35.1535 29.1007C34.9378 29.208 34.3984 29.6372 32.9962 29.4226C31.8097 29.208 31.0546 28.5641 30.8389 28.2422" stroke="white" stroke-miterlimit="10" stroke-linecap="round"/>
</svg>
