<svg width="60" height="60" viewBox="0 0 60 60" fill="none" xmlns="http://www.w3.org/2000/svg">
<path d="M53.1482 6.00639C43.7477 5.79817 33.0937 10.6914 26.3043 18.2915C19.8284 18.3956 13.4569 21.1024 8.86104 25.6833C8.54769 25.9956 8.44324 26.308 8.65214 26.7244C8.75659 27.0367 9.06994 27.3491 9.3833 27.3491L17.1127 28.4943L16.1726 29.5354C15.8593 29.9518 15.8593 30.5765 16.1726 30.8888L29.0201 43.6945C29.229 43.9027 29.4379 44.0068 29.7512 44.0068C29.9601 44.0068 30.2735 43.9027 30.3779 43.7986L31.4224 42.8616L32.5714 50.5658C32.6759 50.9822 32.8848 51.1904 33.3026 51.2945C33.407 51.2945 33.5115 51.2945 33.6159 51.2945C33.9293 51.2945 34.2426 51.1904 34.3471 50.9822C38.9429 46.4013 41.5542 40.1547 41.6586 33.6998C49.2835 26.9326 54.1927 16.3134 53.9838 6.94339C54.0883 6.42284 53.6705 6.00639 53.1482 6.00639ZM43.8521 23.1847C42.912 24.1217 41.5542 24.6422 40.3008 24.6422C39.0474 24.6422 37.6895 24.1217 36.7494 23.1847C34.7649 21.2066 34.7649 18.0832 36.7494 16.1051C38.734 14.127 41.8675 14.127 43.8521 16.1051C45.8367 18.0832 45.8367 21.3107 43.8521 23.1847Z" stroke="white" stroke-miterlimit="10"/>
<path d="M11.4724 39.7362C9.38341 41.9226 6.45878 51.5007 6.04098 52.6459C5.93653 52.9583 6.04098 53.3747 6.24988 53.6871C6.45878 53.8953 6.66768 53.9994 6.98104 53.9994C7.08549 53.9994 7.18994 53.9994 7.29439 53.9994C8.3389 53.6871 18.0528 50.772 20.2463 48.5856C22.6487 46.1911 22.6487 42.2349 20.2463 39.8403C17.8439 37.3417 13.8748 37.3417 11.4724 39.7362Z" stroke="white" stroke-miterlimit="10"/>
</svg>
