<svg width="200" height="100" viewBox="0 0 200 100" fill="none" xmlns="http://www.w3.org/2000/svg">
    <path fill-rule="evenodd" clip-rule="evenodd"
          d="M60.4865 47.6143C64.6096 46.2088 65.3114 42.5475 64.785 39.1812C64.785 39.0598 64.8903 38.973 64.9956 39.0077C68.9432 40.9164 73.382 45.0809 73.382 51.3277C73.382 56.1169 69.6274 60.3508 64.171 60.3508C62.2239 60.4383 60.3029 59.8821 58.711 58.7699C57.1191 57.6578 55.947 56.0529 55.3797 54.2088C54.8125 52.3646 54.8824 50.3861 55.5784 48.5856C56.2744 46.785 57.5568 45.265 59.2233 44.2654C59.3286 44.196 59.4689 44.2654 59.4689 44.3869C59.5215 45.0289 59.697 46.6426 60.4163 47.6143H60.4865Z"
          fill="white"/>
    <path fill-rule="evenodd" clip-rule="evenodd"
          d="M84.996 56.5511L85.2943 56.204L86.2242 59.1192L86.1013 59.2407C85.3995 59.8827 84.3469 60.2124 82.9959 60.2124H82.9433C81.7151 60.2124 80.7501 59.8653 80.0834 59.2233C79.4167 58.5639 79.0658 57.5749 79.0658 56.3255V48.3783H76.6973V45.1681H79.0658V41.2986H82.7152V45.1681H85.6101V48.3783H82.6976V55.5447C82.6976 55.8744 82.7854 56.9328 83.803 56.9328C84.3293 56.9328 84.8206 56.742 84.996 56.5337V56.5511ZM86.926 59.8827V45.1855H90.5753V59.8827H86.926ZM88.7331 39.1816C89.1661 39.1817 89.5894 39.3084 89.9497 39.546C90.3099 39.7836 90.591 40.1213 90.7575 40.5166C90.924 40.912 90.9685 41.3472 90.8853 41.7675C90.802 42.1877 90.5949 42.5742 90.2899 42.8783C89.985 43.1823 89.5959 43.3902 89.1716 43.4758C88.7473 43.5615 88.3069 43.521 87.9059 43.3595C87.5049 43.198 87.1612 42.9227 86.9181 42.5683C86.675 42.2139 86.5434 41.7962 86.54 41.368C86.54 40.1881 87.54 39.1816 88.7331 39.1816ZM100.383 44.8211C103.541 44.8211 105.278 46.5216 105.278 49.6276V59.8653H101.629V50.4952C101.558 48.8294 100.751 48.0659 99.032 48.0659C97.488 48.0659 96.2423 49.0029 95.6107 49.8011V59.8653H91.9614V45.2028H95.6107V46.7645C96.6634 45.7581 98.3477 44.8558 100.383 44.8558V44.8211ZM117.419 46.7124V39.8063H121.068V59.9H117.419V58.3731C116.861 58.9556 116.189 59.4203 115.444 59.7394C114.699 60.0585 113.897 60.2253 113.085 60.2297C109.103 60.2297 106.436 57.1411 106.436 52.5428C106.436 47.9271 109.103 44.8384 113.085 44.8384C113.899 44.8421 114.703 45.0102 115.448 45.3325C116.193 45.6548 116.864 46.1244 117.419 46.7124V46.7124ZM117.419 49.8185C117.012 49.2946 116.493 48.867 115.898 48.5668C115.303 48.2667 114.648 48.1015 113.98 48.0833C111.717 48.0833 110.208 49.8705 110.208 52.5428C110.208 55.1976 111.717 56.9849 113.98 56.9849C115.296 56.9849 116.735 56.2908 117.419 55.2844V49.8185ZM129.595 44.8384C133.911 44.8384 136.911 48.1353 136.911 52.8204V53.8095H125.876C126.244 55.8744 127.893 57.1931 130.139 57.1931C131.56 57.1931 133.122 56.5858 134.017 55.7008L134.262 55.4926L135.999 57.9566L135.824 58.1128C134.18 59.5544 132.036 60.3128 129.841 60.2297C125.279 60.2297 122.068 57.0543 122.068 52.5254C122.033 51.5255 122.202 50.5288 122.566 49.5952C122.929 48.6616 123.48 47.8102 124.185 47.0923C124.889 46.3744 125.733 45.8047 126.666 45.4174C127.599 45.0301 128.601 44.8331 129.613 44.8384H129.595ZM125.858 51.0852H133.35C133.139 48.8815 131.297 47.875 129.595 47.875C127.034 47.875 126.069 49.7838 125.858 51.1025V51.0852ZM145.737 44.8384H146V48.4824L145.684 48.4303C145.421 48.3783 145.087 48.3435 144.754 48.3435C143.579 48.3435 141.947 49.1591 141.333 50.0267V59.8653H137.683V45.1855H141.35V46.8166C142.561 45.5672 144.158 44.8384 145.737 44.8384V44.8384Z"
          fill="white"/>
</svg>
