<svg width="60" height="60" viewBox="0 0 60 60" fill="none" xmlns="http://www.w3.org/2000/svg">
<path d="M20.4784 36.7752L28.13 27.5887L16.0704 23.5457L17.0384 20.3046L22.2841 20.4355L24.517 17.9783C25.1031 17.3313 26.1037 17.2832 26.7499 17.8731C27.3955 18.4613 27.4429 19.4637 26.8549 20.1111L26.4652 20.5399L27.4979 20.5657L29.1763 18.7187C29.7684 18.0676 30.7664 18.0256 31.4098 18.6135C31.7221 18.898 31.9049 19.2878 31.9244 19.7107C31.9408 20.0568 31.8409 20.388 31.6504 20.6693L33.8474 20.7242L36.9521 16.9967C38.1542 15.5556 40.6556 14 42.6006 14C43.2814 14 43.8372 14.1918 44.2523 14.5702C46.06 16.2201 44.2363 20.3283 42.5167 22.0737L39.1062 25.5177L39.3663 27.7094C39.992 27.191 40.865 27.2389 41.4314 27.7563C42.0788 28.3463 42.1202 29.3458 41.5331 29.9912L39.8562 31.8367L39.9789 32.8708L40.3699 32.4405C40.9564 31.7946 41.9587 31.7479 42.6029 32.3358C43.2571 32.9318 43.2857 33.9317 42.7041 34.5707L40.4723 37.027L41.0918 42.2475L37.9658 43.5218L32.8198 31.8656L24.4064 40.3613C24.7388 41.7506 25.7774 43.9978 23.6356 45.5784L23.0649 46L20.6524 40.5357L15 38.6426L15.3651 38.0334C16.5961 35.9823 18.4066 36.4708 20.4784 36.7752ZM26.0136 19.3431C26.1769 19.164 26.166 18.8818 25.9836 18.7164C25.3858 18.1728 24.8219 19.5732 23.789 20.4731L24.9602 20.5023L26.0136 19.3431ZM30.6734 20.0835C30.8367 19.9044 30.8258 19.6221 30.6434 19.4567C30.4645 19.2933 30.1857 19.3015 30.0182 19.4863L29.0031 20.6032L30.1744 20.6325L30.6734 20.0835ZM17.8798 21.4661L17.4764 22.8145L28.9129 26.6486L32.9168 21.8415L17.8798 21.4661ZM40.6917 29.2233C40.967 28.9215 40.7145 28.4472 40.3466 28.4849C40.0517 28.4988 39.9829 28.7359 39.5407 29.1783L39.6784 30.3385L40.6917 29.2233ZM41.8626 33.8028C42.0256 33.623 42.0197 33.3458 41.8371 33.1792C41.6571 33.0146 41.3758 33.0269 41.2114 33.2084L40.1568 34.369L40.2944 35.5288L41.8626 33.8028ZM38.5594 42.0483L39.8592 41.5185L38.0825 26.5513L33.6803 30.9966L38.5594 42.0483ZM21.4893 39.6135L23.4855 44.1338C24.3201 42.9312 23.3218 41.2297 23.2287 40.2208L23.2049 39.956C42.9881 19.9773 41.7923 21.1898 41.9249 21.0454C43.2453 19.592 44.5213 16.3584 43.486 15.4132C43.287 15.2322 42.9891 15.1403 42.6007 15.1403C41.2064 15.1403 38.9751 16.3495 37.8258 17.7274C35.8838 20.0585 44.4296 9.80021 20.9892 37.9383H20.723C19.7274 37.9383 17.9398 37.0944 16.8139 38.048L21.4893 39.6135Z" fill="white"/>
<path fill-rule="evenodd" clip-rule="evenodd" d="M30 0C13.4389 0 0 13.4389 0 30C0 46.5611 13.4389 60 30 60C46.5611 60 60 46.5611 60 30C60 13.4389 46.5611 0 30 0ZM30 1.25C45.8856 1.25 58.75 14.1145 58.75 30C58.75 45.8856 45.8856 58.75 30 58.75C14.1144 58.75 1.25 45.8856 1.25 30C1.25 14.1145 14.1144 1.25 30 1.25Z" fill="white"/>
</svg>
