<svg xmlns="http://www.w3.org/2000/svg" width="18" height="14.995" viewBox="0 0 18 14.995">
    <path d="M17.5.277a7.241,7.241,0,0,1-2.34.92A3.664,3.664,0,0,0,12.46,0,3.739,3.739,0,0,0,8.77,3.784a4.082,4.082,0,0,0,.09.863A10.427,10.427,0,0,1,1.25.689a3.921,3.921,0,0,0-.5,1.9A3.819,3.819,0,0,0,2.4,5.741,3.642,3.642,0,0,1,.72,5.266v.048A3.776,3.776,0,0,0,3.69,9.028a3.71,3.71,0,0,1-.98.133,3.587,3.587,0,0,1-.69-.069,3.71,3.71,0,0,0,3.45,2.631,7.32,7.32,0,0,1-4.59,1.62A7.732,7.732,0,0,1,0,13.292a10.252,10.252,0,0,0,5.66,1.7c6.79,0,10.51-5.772,10.51-10.777l-.02-.49A7.384,7.384,0,0,0,18,1.767a7.178,7.178,0,0,1-2.12.6A3.769,3.769,0,0,0,17.5.277Z"
          transform="translate(0 0.003)" fill="#fff" fill-rule="evenodd"/>
</svg>