<svg width="100" height="100" viewBox="0 0 100 100" fill="none" xmlns="http://www.w3.org/2000/svg">
<path d="M21.8492 53.1137C21.5404 53.5659 21.4245 54.1309 21.5017 54.696C21.6561 55.9014 22.5052 56.7303 23.547 56.994C23.7014 57.0316 23.8174 56.881 23.7402 56.7303C23.7014 56.6926 23.663 56.6549 23.6242 56.6549C22.6981 56.4289 21.9648 55.6379 21.8492 54.5453C21.8104 54.1309 21.8876 53.7164 22.1192 53.3399C23.1226 51.6823 25.2838 51.7953 26.21 53.1514C26.4803 53.5659 26.6344 54.0554 26.596 54.5829C26.596 54.6206 26.596 54.6583 26.6344 54.696C26.7116 54.809 26.9432 54.7713 26.9432 54.6206C26.9819 54.0554 26.8275 53.4904 26.5188 53.0007C25.4382 51.456 23.0068 51.3054 21.8492 53.1137Z" fill="white"/>
<path d="M22.8904 67.2962H4.39762V29.7305H32.1369V55.8874C32.2495 55.9431 32.3058 55.9987 32.4187 56.0543C32.5313 55.3864 32.9261 54.7743 33.5462 54.3291C34.1101 53.9394 34.674 53.7725 35.2377 53.8838C35.6323 53.9394 36.027 54.1621 36.4217 54.4404C36.4217 54.3847 36.4781 54.2734 36.5343 54.2178C36.5343 42.8646 36.5343 28.7844 36.5343 28.7844C36.5343 26.7253 34.7866 25 32.7005 25H3.83384C1.74781 25 0 26.7253 0 28.7844V68.2424C0 70.3014 1.74781 72.0268 3.83384 72.0268H27.3444L22.8904 67.2962ZM18.1544 27.0035C18.38 27.0035 18.6055 27.2261 18.6055 27.4488C18.6055 27.6713 18.38 27.8939 18.1544 27.8939C17.929 27.8939 17.7034 27.6713 17.7034 27.4488C17.7034 27.2261 17.929 27.0035 18.1544 27.0035ZM18.4364 70.6353C17.5906 70.858 16.8577 70.0788 17.0832 69.2998C17.196 68.9102 17.4779 68.632 17.8726 68.5206C18.7183 68.298 19.4512 69.0772 19.2257 69.8562C19.1129 70.1902 18.7747 70.5242 18.4364 70.6353Z" fill="white"/>
<path d="M23.4549 66.4063L28.9236 72.1388C31.912 75.3109 36.7605 75.9231 40.4817 73.5857C40.538 73.5857 40.538 73.5299 40.5943 73.5299L42.3423 72.4169C46.007 70.0795 47.0781 65.3489 44.8229 61.676L40.538 54.775C40.0307 53.9958 39.4105 53.6062 38.8466 53.6618C38.2265 53.7176 37.719 54.2184 37.5499 54.608C37.4373 54.8862 37.3807 55.1646 37.4936 55.2758C37.4936 55.2758 37.4936 55.3314 37.5499 55.3314C37.5499 55.3314 38.9595 57.8916 39.5797 58.782C39.7487 59.0046 39.636 59.3384 39.4105 59.5054C39.185 59.6724 38.8466 59.5612 38.6774 59.3384L36.6478 56.222C36.1403 55.3872 35.5766 54.9418 35.1256 54.8306C34.8436 54.775 34.5054 54.8862 34.2234 55.1088C34.2234 55.1088 34.2234 55.1088 34.1671 55.1088C33.4905 55.554 33.265 56.5002 33.7161 57.168L36.0277 60.7854C36.1969 61.008 36.084 61.342 35.8585 61.509H35.8021C35.5766 61.676 35.2383 61.5646 35.0691 61.342L32.9832 58.1142C32.6448 57.5576 32.1375 56.8898 31.5173 56.7228C31.2352 56.6672 30.8971 56.7228 30.5024 57.001C30.2206 57.2236 30.0514 57.4462 29.9948 57.7246C29.8822 58.3367 30.164 59.1157 30.5587 59.8394L31.912 61.8986C32.1939 62.2882 32.363 62.5663 32.4193 62.7333C32.532 62.956 32.4193 63.2897 32.1938 63.4012C31.9683 63.5123 31.63 63.4567 31.5173 63.2342L31.0097 62.455C31.0097 62.3993 30.9535 62.3993 30.9535 62.3437C30.5587 61.7872 30.0514 61.0637 29.6567 60.2846L25.8791 54.3298C25.4282 53.6062 24.4696 53.3836 23.7931 53.8288C23.1166 54.274 22.891 55.2202 23.3421 55.888L30.7843 67.5752C30.8971 67.7977 30.8971 68.0759 30.6716 68.2429C30.446 68.4099 30.164 68.4099 29.9948 68.2429C29.8822 68.1873 29.7693 68.0203 29.6004 67.9089C28.7547 67.1299 26.8378 65.2378 25.0898 65.3489C24.4696 65.5716 23.9622 65.8499 23.4549 66.4063Z" fill="white"/>
<path d="M20.5963 52.5961C20.1339 53.2772 19.9798 54.1098 20.0954 54.9424C20.3266 56.7212 21.5595 58.0078 23.1008 58.3864C23.332 58.462 23.4862 58.1972 23.3707 58.0078C23.332 57.97 23.2935 57.9322 23.2165 57.8944C21.8292 57.5158 20.7505 56.3807 20.5578 54.7154C20.4806 54.1098 20.6348 53.4664 20.9817 52.9367C22.4843 50.4767 25.6825 50.6281 27.0696 52.6717C27.4935 53.3151 27.6861 54.034 27.6476 54.791C27.6476 54.8288 27.6476 54.9047 27.6862 54.9424C27.8019 55.1317 28.1101 55.056 28.1485 54.8288C28.2257 53.9962 27.9946 53.1258 27.4935 52.4068C25.9137 50.0602 22.3303 49.8711 20.5963 52.5961Z" fill="white"/>
<path d="M29.3792 44.2002H7.0918V50.8002H29.3792V44.2002ZM14.8924 48.6002H9.32051V46.4002H14.8924V48.6002ZM27.1505 48.6002H17.1212V46.4002H27.1505V48.6002Z" fill="white"/>
<path d="M7.0918 42.2002H29.3792V31.2002H7.0918V42.2002ZM16.0068 33.4002H27.1505V35.6002H16.0068V33.4002ZM9.32051 33.4002H13.778V35.6002H9.32051V33.4002ZM9.32051 37.8002H27.1505V40.0002H9.32051V37.8002Z" fill="white"/>
</svg>
