<svg width="100" height="100" viewBox="0 0 100 100" fill="none" xmlns="http://www.w3.org/2000/svg">
<path fill-rule="evenodd" clip-rule="evenodd" d="M2.96611 28C1.328 28 0 29.3324 0 30.9762V35.5893H0.593221H69.4068H70V30.9762C70 29.3324 68.6721 28 67.0339 28H2.96611ZM70 37.0773H69.4068H0.593221H0V75.0238C0 76.6676 1.328 78 2.96611 78H67.0339C68.6721 78 70 76.6676 70 75.0238V37.0773ZM5.93222 31.7202C5.93222 32.1311 5.60022 32.4643 5.19067 32.4643C4.78111 32.4643 4.44911 32.1311 4.44911 31.7202C4.44911 31.3093 4.78111 30.9762 5.19067 30.9762C5.60022 30.9762 5.93222 31.3093 5.93222 31.7202ZM9.04655 32.4643C9.45611 32.4643 9.78811 32.1311 9.78811 31.7202C9.78811 31.3093 9.45611 30.9762 9.04655 30.9762C8.63711 30.9762 8.30511 31.3093 8.30511 31.7202C8.30511 32.1311 8.63711 32.4643 9.04655 32.4643ZM13.6441 31.7202C13.6441 32.1311 13.3121 32.4643 12.9026 32.4643C12.493 32.4643 12.161 32.1311 12.161 31.7202C12.161 31.3093 12.493 30.9762 12.9026 30.9762C13.3121 30.9762 13.6441 31.3093 13.6441 31.7202ZM4.63389 43.6297C4.93833 43.0086 5.42756 42.5829 6.06156 42.3774C6.33111 42.2923 6.84022 42.2873 17.1833 42.2873C27.8209 42.2823 28.0306 42.2823 28.3401 42.3824C28.974 42.5779 29.4682 43.0086 29.7729 43.6297L29.9573 44.0053L29.9724 49.8156L29.9822 55.6308L27.4017 53.0412L27.3253 52.965C25.0154 50.6556 24.6938 50.3339 24.4019 50.3591C24.3547 50.3632 24.3082 50.3763 24.2543 50.3917L24.2368 50.3966C24.107 50.4367 23.3732 51.1429 21.037 53.487L18.002 56.5324L16.5942 55.1249C15.8156 54.3486 15.1317 53.6874 15.0718 53.6573C14.922 53.5822 14.6276 53.5872 14.4678 53.6723C14.3929 53.7124 12.3362 55.756 9.89022 58.2053C7.44922 60.6596 5.42256 62.6681 5.38767 62.6681C5.25778 62.6681 4.82355 62.1574 4.63889 61.7816L4.44911 61.3958V52.7007V44.0053L4.63389 43.6297ZM13.7739 47.767C13.4644 46.7952 12.6607 45.9839 11.7122 45.6833C11.288 45.5481 10.5442 45.513 10.1199 45.6132C8.71222 45.9338 7.66889 47.236 7.66889 48.6686C7.67389 50.026 8.54244 51.2331 9.82533 51.6538C10.3544 51.8291 11.2281 51.8291 11.7572 51.6538C12.6957 51.3432 13.4444 50.5669 13.7889 49.5451C13.9287 49.1293 13.9187 48.2328 13.7739 47.767ZM10.2796 47.0604C9.80033 47.2158 9.391 47.6114 9.21133 48.0872C9.06656 48.478 9.09156 49.059 9.27622 49.4197C9.441 49.7352 9.72044 50.0157 10.04 50.186C10.2596 50.3062 10.3444 50.3212 10.7888 50.3212C11.233 50.3212 11.3179 50.3062 11.5376 50.186C11.887 50.0007 12.2214 49.625 12.3612 49.2643C12.6657 48.4529 12.2613 47.4812 11.4776 47.1306C11.1881 47.0003 10.5691 46.9653 10.2796 47.0604ZM18.2117 58.2154C18.3264 58.1753 19.24 57.2938 21.3714 55.155C23.0188 53.5021 24.3866 52.1498 24.4164 52.1498C24.4464 52.1498 25.7093 53.3969 27.2269 54.9196L29.9873 57.6894L29.9724 59.5429L29.9573 61.3961L29.7729 61.7718C29.4682 62.3929 28.974 62.8236 28.3401 63.0188C28.0306 63.119 27.8209 63.119 17.5328 63.119H7.04489L10.9236 59.2271L14.8072 55.3303L16.2399 56.7679C17.7923 58.3154 17.8272 58.3408 18.2117 58.2154ZM35.2966 45.8571V58.9523H63.4746V45.8571H35.2966ZM34.7033 43.7738C33.8844 43.7738 33.2203 44.4401 33.2203 45.2619V59.5477C33.2203 60.3693 33.8844 61.0357 34.7033 61.0357H64.0678C64.8868 61.0357 65.5509 60.3693 65.5509 59.5477V45.2619C65.5509 44.4401 64.8868 43.7738 64.0678 43.7738H34.7033ZM12.7542 72.0477V68.1786H25.8051V72.0477H12.7542ZM10.678 66.9881C10.678 66.4949 11.0763 66.0952 11.5678 66.0952H26.9916C27.0421 66.0952 27.0916 66.0994 27.1398 66.1074C27.1881 66.0994 27.2376 66.0952 27.2881 66.0952H42.7119C42.7623 66.0952 42.8118 66.0994 42.8602 66.1074C42.9086 66.0994 42.958 66.0952 43.0084 66.0952H58.4322C58.9237 66.0952 59.322 66.4949 59.322 66.9881V73.2381C59.322 73.7312 58.9237 74.131 58.4322 74.131H43.0084C42.958 74.131 42.9086 74.1268 42.8602 74.1188C42.8118 74.1268 42.7623 74.131 42.7119 74.131H27.2881C27.2376 74.131 27.1881 74.1268 27.1398 74.1188C27.0916 74.1268 27.0421 74.131 26.9916 74.131H11.5678C11.0763 74.131 10.678 73.7312 10.678 73.2381V66.9881ZM28.4746 68.1786V72.0477H41.5254V68.1786H28.4746ZM44.1949 72.0477V68.1786H57.2458V72.0477H44.1949Z" fill="white"/>
</svg>
