<svg width="100" height="100" viewBox="0 0 100 100" fill="none" xmlns="http://www.w3.org/2000/svg">
<path d="M21.4286 43.5717C21.4286 45.3468 19.9894 46.786 18.2143 46.786C16.4392 46.786 15 45.3468 15 43.5717C15 41.7966 16.4392 40.3574 18.2143 40.3574C19.9894 40.3574 21.4286 41.7966 21.4286 43.5717Z" fill="white"/>
<path d="M34.2858 23.2143C34.2858 22.6226 34.7655 22.1429 35.3572 22.1429H44.8028C44.3503 20.8632 43.1429 20.0058 41.7858 20H18.2143C16.4392 20 15 21.4392 15 23.2143V24.2857H34.2858V23.2143Z" fill="white"/>
<path d="M23.5718 56.2142V54.2859C23.5718 51.3274 21.1731 48.9287 18.2146 48.9287C15.2561 48.9287 12.8574 51.3274 12.8574 54.2859V56.2142C14.1936 56.898 15.6485 57.3187 17.1432 57.4541V55.3573H19.286V57.451C20.7801 57.316 22.2351 56.8964 23.5718 56.2142Z" fill="white"/>
<path d="M6.48438 44.6434H8.57287V46.7862H6.48697C6.75637 49.7546 8.13968 52.5106 10.3589 54.5008C10.4735 54.6074 10.597 54.6943 10.7157 54.7921V54.2862C10.7183 51.4874 12.2795 48.9228 14.7644 47.6348C13.0433 46.1851 12.4118 43.8142 13.1835 41.7005C13.9552 39.5865 15.9656 38.1802 18.2158 38.1802C20.4659 38.1802 22.4763 39.5865 23.248 41.7005C24.0197 43.8142 23.3882 46.1851 21.6671 47.6348C24.152 48.9228 25.7131 51.4874 25.7158 54.2862V54.7973C25.8335 54.6985 25.957 54.6085 26.0726 54.506C28.2929 52.5148 29.6766 49.7568 29.9445 46.7862H27.8587V44.6434H29.9471C29.4235 38.987 24.9436 34.5071 19.2872 33.9834V36.0719H17.1443V33.9834C11.4879 34.5071 7.00807 38.987 6.48438 44.6434Z" fill="white"/>
<path d="M36.4277 35.0005H57.8564V24.2861H36.4277V35.0005ZM44.9992 26.429H55.7135V28.5719H44.9992V26.429ZM38.5706 26.429H42.8563V28.5719H38.5706V26.429ZM38.5706 30.7147H55.7135V32.8576H38.5706V30.7147Z" fill="white"/>
<path d="M23.5715 75.7142C23.5715 76.3059 23.0917 76.7856 22.5 76.7856H15C15 78.5607 16.4392 79.9999 18.2143 79.9999H41.7858C43.5609 79.9999 45.0001 78.5607 45.0001 76.7856V73.5713H23.5715V75.7142ZM28.9286 75.7142H31.0715V77.857H28.9286V75.7142Z" fill="white"/>
<path d="M21.4287 68.2139H0V74.6425H21.4287V68.2139ZM7.5 72.4996H2.1429V70.3567H7.5V72.4996ZM19.2858 72.4996H9.6429V70.3567H19.2858V72.4996Z" fill="white"/>
<path d="M58.7392 41.4287C58.4321 41.4282 58.1354 41.5407 57.9052 41.7437L41.207 56.4779L44.9518 60.2216L59.685 43.5235C60.0126 43.1514 60.0921 42.6226 59.888 42.1705C59.684 41.7191 59.2346 41.4287 58.7392 41.4287Z" fill="white"/>
<path d="M34.2861 62.8575V64.7476C34.2877 65.5852 34.0763 66.4097 33.6719 67.1432H38.5718C41.3629 67.1401 43.6858 64.9967 43.9117 62.2145L39.2148 57.5176C36.4326 57.7441 34.2897 60.0664 34.2861 62.8575Z" fill="white"/>
<path d="M38.5715 69.286H31.0715C30.5698 69.2918 30.1313 68.9485 30.0163 68.4599C29.9018 67.9719 30.1408 67.4691 30.5928 67.2504C31.5439 66.7795 32.1451 65.8091 32.1429 64.7476V62.8574C32.1476 58.8851 35.2489 55.6058 39.2145 55.3788L45.0001 50.2733V37.143H35.3572C34.7655 37.143 34.2858 36.6633 34.2858 36.0716V26.4287H15V32.1746C15.7047 32.0077 16.4209 31.8957 17.1429 31.8403V28.5716H19.2857V31.8403C26.1229 32.3744 31.5543 37.8059 32.0886 44.6431H35.3572V46.7859H32.0859C31.5806 53.6361 26.1359 59.0844 19.2857 59.594V62.8574H17.1429V59.594C16.4209 59.5375 15.7042 59.4244 15 59.2554V66.0717H22.5C23.0917 66.0717 23.5715 66.5515 23.5715 67.1432V71.4289H45.0001V65.6291C43.6488 67.8934 41.2083 69.2819 38.5715 69.286Z" fill="white"/>
<path d="M8.5715 24.2861H0V30.7147H8.5715V24.2861ZM6.4286 28.5719H2.1429V26.429H6.4286V28.5719Z" fill="white"/>
</svg>
