<svg width="65" height="65" viewBox="0 0 65 65" fill="none" xmlns="http://www.w3.org/2000/svg">
    <path d="M9.51921 37.86C9.51921 37.86 8.31965 31.8984 14.6639 24.6786C21.0087 17.459 25.769 14.8337 30.9103 13.4662L30.9014 13.4714L30.9208 13.4662C30.9208 13.4662 26.8822 15.8184 26.8822 19.373C26.8822 20.4049 27.0467 21.1138 27.2746 21.5875C27.577 22.2166 28.056 22.4306 28.4861 22.4326C28.8484 22.4347 29.0605 22.2858 29.519 22.1077V41.3598C29.519 41.3598 29.5687 41.6702 29.8473 42.038C30.2486 42.5669 30.8791 43.2123 32.064 43.2189C34.0851 43.2059 36.6272 40.9229 36.6272 40.9229V25.335C36.6272 23.7491 35.4922 21.8348 34.2895 21.1779C34.2895 21.1779 34.4535 21.1676 34.7188 21.1677C35.5128 21.1675 37.2163 21.2583 38.1654 21.9835C38.4291 21.6779 42.6846 16.8627 50.2569 15.381L50.2532 15.3852L50.2738 15.381C50.2738 15.381 46.0857 20.3127 44.7729 22.7584C44.5396 22.7722 44.5056 27.3983 44.5444 32.0208C44.5822 36.4828 44.6881 40.9424 44.7495 41.2509C44.7495 41.2509 45.1964 41.9152 46.3344 41.9209C47.618 41.9275 49.7811 41.096 53.1724 37.5313C53.1724 37.5313 53.0828 37.7343 52.9028 38.094C51.9311 40.0359 48.3199 46.5459 41.9054 50.3298L41.905 50.3294L41.9045 50.3298L37.7439 46.8109L37.6376 46.7221L33.0998 51.5336L33.093 51.5329L33.0924 51.5336C33.0924 51.5336 22.7475 50.6585 18.4266 44.4237L18.4472 44.4311L18.4418 44.4237C18.4418 44.4237 19.0961 44.6783 19.8345 44.6922C20.6998 44.708 21.6084 44.3919 21.6084 42.9462V28.2885C21.6084 27.54 21.093 26.7003 19.9618 26.7035C18.9444 26.7061 17.4838 27.3907 15.4894 29.4371C11.2779 33.7576 9.52884 37.86 9.52884 37.86L9.52597 37.8444L9.51921 37.86ZM32.4999 62.7107C40.5695 62.7107 48.1562 59.5682 53.8622 53.8622C59.5682 48.156 62.7107 40.5695 62.7107 32.4999C62.7107 24.4303 59.5682 16.8437 53.8622 11.1375C48.1562 5.43153 40.5695 2.28903 32.4999 2.28903C24.4303 2.28903 16.8436 5.43153 11.1376 11.1375C5.43156 16.8437 2.28906 24.4303 2.28906 32.4999C2.28906 40.5695 5.43156 48.156 11.1376 53.8622C16.8436 59.5682 24.4303 62.7107 32.4999 62.7107Z"
          fill="white"/>
    <path d="M32.5 0.898269C49.953 0.898269 64.1016 15.0468 64.1016 32.4998C64.1016 49.9529 49.953 64.1015 32.5 64.1015C15.0469 64.1015 0.89838 49.9528 0.89838 32.4999C0.89838 15.0468 15.0469 0.898269 32.5 0.898269ZM32.5 65C41.1811 65 49.3425 61.6194 55.481 55.4808C61.6195 49.3424 65 41.181 65 32.4999C65 23.8188 61.6195 15.6573 55.481 9.51874C49.3425 3.3805 41.1811 1.34326e-06 32.5 1.34326e-06C23.8189 1.34326e-06 15.6574 3.38051 9.51897 9.51898C3.3805 15.6574 0 23.819 0 32.5C0 41.1811 3.3805 49.3426 9.51897 55.481C15.6574 61.6195 23.8189 65 32.5 65Z"
          fill="white"/>
</svg>
