<svg width="100" height="100" viewBox="0 0 100 100" fill="none" xmlns="http://www.w3.org/2000/svg">
<path d="M33.2793 48.9635L35.6203 46.6197C35.8168 46.424 36.082 46.3155 36.3555 46.3155C36.4087 46.3155 36.4616 46.3197 36.5147 46.3281C36.8414 46.3791 37.1263 46.5834 37.2781 46.8781L39.7877 51.7217L40.1111 51.5551L37.7138 46.925C37.5464 46.602 37.5598 46.2145 37.7481 45.9041C37.9364 45.5937 38.2733 45.4041 38.6363 45.4041H41.5203L33.2793 37.8281V48.9635Z" fill="white"/>
<path d="M16.6384 50H8.31836V52.0834H16.6384V50Z" fill="white"/>
<path d="M50.9598 25H1.04C0.465903 25 0 25.4667 0 26.0417V61.4584C0 62.0344 0.465903 62.5 1.04 62.5H24.96V72.9166H15.6C15.0259 72.9166 14.56 73.3822 14.56 73.9584C14.56 74.5344 15.0259 75 15.6 75H36.4C36.9751 75 37.4399 74.5344 37.4399 73.9584C37.4399 73.3822 36.9751 72.9166 36.4 72.9166H27.04V62.5H50.9598C51.5351 62.5 52 62.0344 52 61.4584V26.0417C52 25.4667 51.5351 25 50.9598 25ZM18.72 53.125C18.72 53.701 18.2541 54.1666 17.68 54.1666H7.28C6.7059 54.1666 6.24 53.701 6.24 53.125V48.9584C6.24 48.3834 6.7059 47.9166 7.28 47.9166H17.68C18.2541 47.9166 18.72 48.3834 18.72 48.9584V53.125ZM17.68 43.75H7.28C6.7059 43.75 6.24 43.2833 6.24 42.7083C6.24 42.1333 6.7059 41.6667 7.28 41.6667H17.68C18.2541 41.6667 18.72 42.1333 18.72 42.7083C18.72 43.2833 18.2541 43.75 17.68 43.75ZM25.9999 39.5833H7.28C6.7059 39.5833 6.24 39.1167 6.24 38.5417C6.24 37.9667 6.7059 37.5 7.28 37.5H25.9999C26.574 37.5 27.04 37.9667 27.04 38.5417C27.04 39.1167 26.574 39.5833 25.9999 39.5833ZM25.9999 35.4167H7.28C6.7059 35.4167 6.24 34.95 6.24 34.375C6.24 33.8 6.7059 33.3333 7.28 33.3333H25.9999C26.574 33.3333 27.04 33.8 27.04 34.375C27.04 34.95 26.574 35.4167 25.9999 35.4167ZM45.1639 46.8218C45.009 47.2218 44.6232 47.4854 44.1947 47.4854H40.3489L42.4381 51.5208C42.5651 51.7656 42.5901 52.052 42.5058 52.3156C42.4216 52.5792 42.2374 52.799 41.993 52.925L39.8225 54.05C39.6698 54.1292 39.5054 54.1666 39.3453 54.1666C38.9697 54.1666 38.6059 53.9624 38.4206 53.6052L36.0869 49.099L32.9753 52.2126C32.6768 52.5104 32.2305 52.601 31.8417 52.4386C31.4528 52.277 31.2 51.8968 31.2 51.476V35.4573C31.2 35.0448 31.4434 34.6698 31.822 34.5031C32.1974 34.3375 32.6405 34.4104 32.943 34.6896L44.8978 45.677C45.2139 45.9666 45.3189 46.4218 45.1639 46.8218Z" fill="white"/>
</svg>
