<svg width="100" height="100" viewBox="0 0 100 100" fill="none" xmlns="http://www.w3.org/2000/svg">
    <g clip-path="url(#clip0_49:91)">
        <path d="M4.16797 20.1766C4.16797 11.8924 10.8837 5.17664 19.168 5.17664H80.8347C89.1189 5.17664 95.8346 11.8924 95.8346 20.1766V79.3432C95.8346 87.6274 89.1189 94.3432 80.8346 94.3432H19.168C10.8837 94.3432 4.16797 87.6275 4.16797 79.3432V20.1766Z"
              fill="#2E001E"/>
        <path d="M15 1.01025C6.71573 1.01025 0 7.72598 0 16.0103V83.5102C0 91.7945 6.71573 98.5102 15 98.5102H85C93.2843 98.5102 100 91.7945 100 83.5102V16.0102C100 7.72597 93.2843 1.01025 85 1.01025H15ZM4.16667 20.1769C4.16667 11.8927 10.8824 5.17692 19.1667 5.17692H80.8333C89.1176 5.17692 95.8333 11.8926 95.8333 20.1769V79.3435C95.8333 87.6278 89.1176 94.3435 80.8333 94.3435H19.1667C10.8824 94.3435 4.16667 87.6278 4.16667 79.3435V20.1769Z"
              fill="#FF26BE"/>
        <path d="M72.6251 41.9683C72.0001 41.6766 71.2084 41.5516 70.2084 41.5516C64.9584 41.5516 61.4584 45.5933 61.4584 52.3016C61.4584 59.9683 65.0417 63.0516 69.7084 63.0516C70.7084 63.0516 71.7917 62.9266 72.5834 62.5932V41.9683H72.6251ZM53.9583 52.6349C53.9583 42.9266 60.2084 35.3433 70.4584 35.3433C71.3334 35.3433 71.7917 35.3433 72.6251 35.4266V24.5933C72.6251 24.3433 72.8334 24.1767 73.0417 24.1767H79.7501C80.0834 24.1767 80.1667 24.3017 80.1667 24.51V62.5932C80.1667 63.7182 80.1667 65.1349 80.3751 66.6766C80.3751 66.9682 80.3751 67.0099 80.1251 67.1349C76.6251 68.8016 72.9584 69.5516 69.4584 69.5516C60.4167 69.5516 53.9583 63.9682 53.9583 52.6349V52.6349ZM39.75 45.885L51.4167 68.5099C51.625 68.8432 51.5 69.1766 51.1667 69.1766H43.9167C43.4583 69.1766 43.25 69.0516 43.0417 68.6349C40.375 63.1349 37.6666 57.4266 34.875 51.5099H34.7916C32.2916 57.0933 29.5416 63.1766 26.875 68.6766C26.6666 69.0099 26.4583 69.1349 26.125 69.1349H19.2083C18.7916 69.1349 18.7499 68.8016 18.9583 68.5516L30.375 46.5933L19.3333 24.76C19.0833 24.4267 19.3333 24.135 19.6249 24.135H26.7916C27.2083 24.135 27.4166 24.2183 27.5416 24.5933C30.1666 30.135 32.8333 35.5933 35.3333 41.1766H35.4166C37.8333 35.6766 40.5 30.135 43.0417 24.6767C43.25 24.3433 43.375 24.135 43.7917 24.135H50.5C50.8333 24.135 50.9583 24.385 50.75 24.76L39.75 45.885V45.885Z"
              fill="#FFD9F2"/>
    </g>
    <defs>
        <clipPath id="clip0_49:91">
            <rect width="100" height="97.52" fill="white" transform="translate(0 1)"/>
        </clipPath>
    </defs>
</svg>
