<svg width="100" height="100" viewBox="0 0 100 100" fill="none" xmlns="http://www.w3.org/2000/svg">
    <path d="M15.4137 65.1146L10.1827 67.0259L9.9043 82.586L28.0113 75.9714C21.7956 73.8898 17.2626 70.221 15.4137 65.1146"
          fill="#FDBD39"/>
    <path d="M18.1527 48.6571L0 55.2883L10.1836 67.03L15.4147 65.1188C13.5699 60.029 14.7083 54.2828 18.1527 48.6571Z"
          fill="#F69833"/>
    <path d="M48.6957 26.1999C25.582 34.6426 10.6784 52.0683 15.415 65.1146L99.1153 34.5388C94.3787 21.4924 71.8093 17.7571 48.6957 26.1999"
          fill="#FECF33"/>
    <path d="M65.8299 73.4577C88.9436 65.015 103.872 47.6683 99.1106 34.543L15.4102 65.1147C20.1717 78.2441 42.7162 81.9005 65.8299 73.4577Z"
          fill="#EE6723"/>
    <path d="M99.1103 34.5388L15.4141 65.1147C17.0511 69.6352 23.3042 71.8622 32.071 71.8622C40.6218 71.8622 51.5658 69.7474 62.9751 65.58C86.0888 57.1373 102.347 43.4635 99.1103 34.5388"
          fill="#F69833"/>
    <path d="M82.4537 27.7954C73.9071 27.7954 62.9589 29.9103 51.5496 34.0776C28.4359 42.5204 12.1778 56.19 15.4145 65.1147L99.1148 34.5388C97.4736 30.0183 91.2247 27.7954 82.4537 27.7954"
          fill="#FDBD39"/>
    <path d="M77.8304 83.4128C75.3666 83.4128 71.7352 81.19 67.0319 76.8024C61.4685 71.6129 55.099 64.0095 49.0869 55.3964C43.0789 46.7833 38.1429 38.1744 35.1846 31.1485C31.9646 23.4952 31.5034 18.7918 33.8176 17.1631C34.3536 16.7975 34.9893 16.6105 35.6375 16.6271C37.5196 16.6271 41.1926 18.0273 47.9775 24.7084L48.1271 24.8538L48.1063 25.0615C48.0606 25.5435 48.0191 26.0255 47.9817 26.5033L47.9069 27.4465L47.2421 26.7775C39.9295 19.4109 36.7136 18.6173 35.6666 18.6173C35.3674 18.6173 35.1306 18.6755 34.9602 18.796C33.9547 19.5023 33.8883 22.9592 37.0127 30.3757C39.917 37.2728 44.7824 45.7529 50.7114 54.2538C56.6446 62.7589 62.9185 70.246 68.3864 75.344C74.278 80.841 76.933 81.4351 77.8014 81.4351C78.1005 81.4351 78.3415 81.3728 78.5243 81.244C79.5838 80.5003 79.5838 76.7983 76.102 68.8126L75.94 68.4469L76.289 68.2558C76.638 68.0647 76.9787 67.8777 77.2945 67.6949L77.7141 67.4581L77.9094 67.8985C80.3774 73.5574 82.6875 80.7496 79.6586 82.8769C79.1226 83.2425 78.4828 83.4295 77.8304 83.4128ZM77.8304 82.5403V82.9766V82.5403Z"
          fill="#EE6723"/>
    <path d="M66.3927 73.2167L66.3595 73.6488C65.7736 80.8783 64.2363 89.5704 60.2227 89.9235C60.1396 89.9319 60.0565 89.9319 59.9775 89.9319C57.2519 89.9319 54.6717 86.0263 52.3159 78.3272C50.0806 71.0396 48.348 61.2589 47.4381 50.7844C46.524 40.31 46.5364 30.3756 47.4754 22.8095C48.4976 14.5662 50.442 10.2618 53.2591 10.0125C53.3422 10.0042 53.4294 10 53.5125 10C55.4902 10 58.4693 12.2395 61.519 22.6683L59.5288 23.0505C58.5109 19.5687 57.4015 16.7351 56.3004 14.7823C55.2825 12.9832 54.2895 11.9902 53.5125 11.9902C53.4876 11.9902 53.4627 11.9902 53.4336 11.9943C52.212 12.1024 50.4337 15.0607 49.4449 23.0547C48.5225 30.4836 48.51 40.2726 49.4116 50.6099C50.3132 60.9515 52.0167 70.5867 54.2105 77.7414C55.1911 80.9448 56.2672 83.5873 57.3267 85.3781C58.299 87.0317 59.2421 87.9417 59.9775 87.9417C60.0025 87.9417 60.0274 87.9417 60.0523 87.9375C61.2198 87.8378 63.4219 84.7549 64.3485 73.9147L66.3927 73.2167Z"
          fill="#EE6723"/>
</svg>
